%TF.GenerationSoftware,KiCad,Pcbnew,10.0.1*%
%TF.CreationDate,2026-09-07T02:55:27+05:00*%
%TF.ProjectId,Karnix_ASB,4b61726e-6978-45f4-9153-422e6b696361,V2.0*%
%TF.SameCoordinates,Original*%
%TF.FileFunction,Soldermask,Top*%
%TF.FilePolarity,Negative*%
%FSLAX46Y46*%
G04 Gerber Fmt 4.6, Leading zero omitted, Abs format (unit mm)*
G04 Created by KiCad (PCBNEW 10.0.1) date 2026-09-07 02:55:27*
%MOMM*%
%LPD*%
G01*
G04 APERTURE LIST*
G04 Aperture macros list*
%AMRoundRect*
0 Rectangle with rounded corners*
0 $1 Rounding radius*
0 $2 $3 $4 $5 $6 $7 $8 $9 X,Y pos of 4 corners*
0 Add a 4 corners polygon primitive as box body*
4,1,4,$2,$3,$4,$5,$6,$7,$8,$9,$2,$3,0*
0 Add four circle primitives for the rounded corners*
1,1,$1+$1,$2,$3*
1,1,$1+$1,$4,$5*
1,1,$1+$1,$6,$7*
1,1,$1+$1,$8,$9*
0 Add four rect primitives between the rounded corners*
20,1,$1+$1,$2,$3,$4,$5,0*
20,1,$1+$1,$4,$5,$6,$7,0*
20,1,$1+$1,$6,$7,$8,$9,0*
20,1,$1+$1,$8,$9,$2,$3,0*%
G04 Aperture macros list end*
%ADD10C,0.120000*%
%ADD11RoundRect,0.140000X0.140000X0.170000X-0.140000X0.170000X-0.140000X-0.170000X0.140000X-0.170000X0*%
%ADD12RoundRect,0.250000X0.250000X0.475000X-0.250000X0.475000X-0.250000X-0.475000X0.250000X-0.475000X0*%
%ADD13RoundRect,0.150000X0.150000X0.150000X-0.150000X0.150000X-0.150000X-0.150000X0.150000X-0.150000X0*%
%ADD14RoundRect,0.150000X-0.825000X-0.150000X0.825000X-0.150000X0.825000X0.150000X-0.825000X0.150000X0*%
%ADD15RoundRect,0.140000X-0.140000X-0.170000X0.140000X-0.170000X0.140000X0.170000X-0.140000X0.170000X0*%
%ADD16RoundRect,0.150000X-0.512500X-0.150000X0.512500X-0.150000X0.512500X0.150000X-0.512500X0.150000X0*%
%ADD17RoundRect,0.150000X-0.150000X-0.150000X0.150000X-0.150000X0.150000X0.150000X-0.150000X0.150000X0*%
%ADD18RoundRect,0.135000X0.135000X0.185000X-0.135000X0.185000X-0.135000X-0.185000X0.135000X-0.185000X0*%
%ADD19RoundRect,0.150000X0.150000X-0.150000X0.150000X0.150000X-0.150000X0.150000X-0.150000X-0.150000X0*%
%ADD20RoundRect,0.140000X-0.170000X0.140000X-0.170000X-0.140000X0.170000X-0.140000X0.170000X0.140000X0*%
%ADD21RoundRect,0.218750X-0.218750X-0.256250X0.218750X-0.256250X0.218750X0.256250X-0.218750X0.256250X0*%
%ADD22RoundRect,0.218750X-0.256250X0.218750X-0.256250X-0.218750X0.256250X-0.218750X0.256250X0.218750X0*%
%ADD23RoundRect,0.140000X0.170000X-0.140000X0.170000X0.140000X-0.170000X0.140000X-0.170000X-0.140000X0*%
%ADD24RoundRect,0.135000X0.185000X-0.135000X0.185000X0.135000X-0.185000X0.135000X-0.185000X-0.135000X0*%
%ADD25RoundRect,0.100000X-0.650000X-0.100000X0.650000X-0.100000X0.650000X0.100000X-0.650000X0.100000X0*%
%ADD26RoundRect,0.250000X-0.475000X0.250000X-0.475000X-0.250000X0.475000X-0.250000X0.475000X0.250000X0*%
%ADD27R,1.700000X1.700000*%
%ADD28O,1.700000X1.700000*%
%ADD29RoundRect,0.150000X-0.150000X0.150000X-0.150000X-0.150000X0.150000X-0.150000X0.150000X0.150000X0*%
%ADD30RoundRect,0.218750X0.218750X0.256250X-0.218750X0.256250X-0.218750X-0.256250X0.218750X-0.256250X0*%
%ADD31C,5.500000*%
%ADD32RoundRect,0.218750X0.256250X-0.218750X0.256250X0.218750X-0.256250X0.218750X-0.256250X-0.218750X0*%
%ADD33R,1.600000X2.000000*%
%ADD34C,0.650000*%
%ADD35R,0.600000X1.450000*%
%ADD36R,0.300000X1.450000*%
%ADD37O,1.000000X2.100000*%
%ADD38O,1.000000X1.600000*%
%ADD39RoundRect,0.062500X0.375000X0.062500X-0.375000X0.062500X-0.375000X-0.062500X0.375000X-0.062500X0*%
%ADD40RoundRect,0.062500X0.062500X0.375000X-0.062500X0.375000X-0.062500X-0.375000X0.062500X-0.375000X0*%
%ADD41R,3.300000X3.300000*%
%ADD42RoundRect,0.500000X0.500000X0.900000X-0.500000X0.900000X-0.500000X-0.900000X0.500000X-0.900000X0*%
%ADD43RoundRect,0.125000X-0.125000X0.250000X-0.125000X-0.250000X0.125000X-0.250000X0.125000X0.250000X0*%
%ADD44R,4.300000X3.400000*%
%ADD45RoundRect,0.187500X-0.187500X-0.662500X0.187500X-0.662500X0.187500X0.662500X-0.187500X0.662500X0*%
%ADD46C,0.350000*%
%ADD47R,1.300000X1.100000*%
%ADD48RoundRect,0.250000X0.475000X-0.250000X0.475000X0.250000X-0.475000X0.250000X-0.475000X-0.250000X0*%
%ADD49RoundRect,0.135000X-0.185000X0.135000X-0.185000X-0.135000X0.185000X-0.135000X0.185000X0.135000X0*%
%ADD50C,3.200000*%
%ADD51RoundRect,0.250000X-0.625000X0.350000X-0.625000X-0.350000X0.625000X-0.350000X0.625000X0.350000X0*%
%ADD52O,1.750000X1.200000*%
%ADD53RoundRect,0.075000X-0.662500X-0.075000X0.662500X-0.075000X0.662500X0.075000X-0.662500X0.075000X0*%
%ADD54RoundRect,0.075000X-0.075000X-0.662500X0.075000X-0.662500X0.075000X0.662500X-0.075000X0.662500X0*%
%ADD55RoundRect,0.150000X0.150000X-0.825000X0.150000X0.825000X-0.150000X0.825000X-0.150000X-0.825000X0*%
%ADD56RoundRect,0.249600X1.400400X-0.950400X1.400400X0.950400X-1.400400X0.950400X-1.400400X-0.950400X0*%
%ADD57C,3.300000*%
%ADD58C,1.600000*%
%ADD59C,2.400000*%
%ADD60RoundRect,0.250000X0.500000X-0.500000X0.500000X0.500000X-0.500000X0.500000X-0.500000X-0.500000X0*%
%ADD61C,1.500000*%
%ADD62C,3.000000*%
%ADD63R,1.350000X1.350000*%
%ADD64C,1.350000*%
%ADD65R,0.300000X1.900000*%
%ADD66C,1.800000*%
%ADD67RoundRect,0.250000X-0.325000X-0.650000X0.325000X-0.650000X0.325000X0.650000X-0.325000X0.650000X0*%
%ADD68RoundRect,0.250000X1.025000X-0.787500X1.025000X0.787500X-1.025000X0.787500X-1.025000X-0.787500X0*%
%ADD69C,1.700000*%
%ADD70RoundRect,0.102000X-1.400000X1.000000X-1.400000X-1.000000X1.400000X-1.000000X1.400000X1.000000X0*%
%ADD71RoundRect,0.102000X-1.400000X1.400000X-1.400000X-1.400000X1.400000X-1.400000X1.400000X1.400000X0*%
%ADD72RoundRect,0.102000X-1.400000X1.100000X-1.400000X-1.100000X1.400000X-1.100000X1.400000X1.100000X0*%
%ADD73RoundRect,0.102000X-1.400000X1.300000X-1.400000X-1.300000X1.400000X-1.300000X1.400000X1.300000X0*%
%ADD74RoundRect,0.250000X0.625000X-0.350000X0.625000X0.350000X-0.625000X0.350000X-0.625000X-0.350000X0*%
%ADD75RoundRect,0.050000X-0.600000X0.350000X-0.600000X-0.350000X0.600000X-0.350000X0.600000X0.350000X0*%
%ADD76RoundRect,0.050000X-0.600000X0.500000X-0.600000X-0.500000X0.600000X-0.500000X0.600000X0.500000X0*%
%ADD77RoundRect,0.050000X-1.400000X0.500000X-1.400000X-0.500000X1.400000X-0.500000X1.400000X0.500000X0*%
%ADD78RoundRect,0.050000X-0.950000X0.650000X-0.950000X-0.650000X0.950000X-0.650000X0.950000X0.650000X0*%
%ADD79RoundRect,0.050000X-0.400000X0.500000X-0.400000X-0.500000X0.400000X-0.500000X0.400000X0.500000X0*%
%ADD80RoundRect,0.250000X-1.025000X0.787500X-1.025000X-0.787500X1.025000X-0.787500X1.025000X0.787500X0*%
%ADD81RoundRect,0.350000X0.350000X0.450000X-0.350000X0.450000X-0.350000X-0.450000X0.350000X-0.450000X0*%
%ADD82RoundRect,0.190000X0.190000X-0.610000X0.190000X0.610000X-0.190000X0.610000X-0.190000X-0.610000X0*%
%ADD83RoundRect,0.100000X0.100000X-0.650000X0.100000X0.650000X-0.100000X0.650000X-0.100000X-0.650000X0*%
G04 APERTURE END LIST*
D10*
X153873570Y-60091285D02*
X153873570Y-59241285D01*
X153873570Y-59241285D02*
X154359285Y-59241285D01*
X154359285Y-59241285D02*
X154359285Y-60091285D01*
X154764046Y-59241285D02*
X154764046Y-60091285D01*
X154764046Y-60091285D02*
X155249761Y-59241285D01*
X155249761Y-59241285D02*
X155249761Y-60091285D01*
X155654522Y-60091285D02*
X155654522Y-59241285D01*
X155654522Y-59241285D02*
X155978332Y-59241285D01*
X155978332Y-59241285D02*
X156059284Y-59281761D01*
X156059284Y-59281761D02*
X156099761Y-59322237D01*
X156099761Y-59322237D02*
X156140237Y-59403189D01*
X156140237Y-59403189D02*
X156140237Y-59524618D01*
X156140237Y-59524618D02*
X156099761Y-59605570D01*
X156099761Y-59605570D02*
X156059284Y-59646047D01*
X156059284Y-59646047D02*
X155978332Y-59686523D01*
X155978332Y-59686523D02*
X155654522Y-59686523D01*
X157637856Y-60010332D02*
X157597380Y-60050809D01*
X157597380Y-60050809D02*
X157475951Y-60091285D01*
X157475951Y-60091285D02*
X157394999Y-60091285D01*
X157394999Y-60091285D02*
X157273570Y-60050809D01*
X157273570Y-60050809D02*
X157192618Y-59969856D01*
X157192618Y-59969856D02*
X157152141Y-59888904D01*
X157152141Y-59888904D02*
X157111665Y-59726999D01*
X157111665Y-59726999D02*
X157111665Y-59605570D01*
X157111665Y-59605570D02*
X157152141Y-59443666D01*
X157152141Y-59443666D02*
X157192618Y-59362713D01*
X157192618Y-59362713D02*
X157273570Y-59281761D01*
X157273570Y-59281761D02*
X157394999Y-59241285D01*
X157394999Y-59241285D02*
X157475951Y-59241285D01*
X157475951Y-59241285D02*
X157597380Y-59281761D01*
X157597380Y-59281761D02*
X157637856Y-59322237D01*
X158487856Y-59241285D02*
X158487856Y-60091285D01*
X158002141Y-59241285D02*
X158002141Y-60091285D01*
X158002141Y-60091285D02*
X158568808Y-60091285D01*
X158568808Y-60091285D02*
X158568808Y-60293666D01*
X158811665Y-59241285D02*
X159378332Y-60091285D01*
X159378332Y-59241285D02*
X158811665Y-60091285D01*
X160309284Y-59241285D02*
X160309284Y-59403189D01*
X160633094Y-59241285D02*
X160633094Y-59403189D01*
X160997379Y-60091285D02*
X160997379Y-59241285D01*
X161483094Y-60091285D02*
X161118808Y-59605570D01*
X161483094Y-59241285D02*
X160997379Y-59726999D01*
X162211665Y-60091285D02*
X162211665Y-59646047D01*
X162211665Y-59646047D02*
X162171189Y-59565094D01*
X162171189Y-59565094D02*
X162090237Y-59524618D01*
X162090237Y-59524618D02*
X161928332Y-59524618D01*
X161928332Y-59524618D02*
X161847379Y-59565094D01*
X162211665Y-60050809D02*
X162130713Y-60091285D01*
X162130713Y-60091285D02*
X161928332Y-60091285D01*
X161928332Y-60091285D02*
X161847379Y-60050809D01*
X161847379Y-60050809D02*
X161806903Y-59969856D01*
X161806903Y-59969856D02*
X161806903Y-59888904D01*
X161806903Y-59888904D02*
X161847379Y-59807951D01*
X161847379Y-59807951D02*
X161928332Y-59767475D01*
X161928332Y-59767475D02*
X162130713Y-59767475D01*
X162130713Y-59767475D02*
X162211665Y-59726999D01*
X162616427Y-59524618D02*
X162616427Y-60374618D01*
X162616427Y-59565094D02*
X162697380Y-59524618D01*
X162697380Y-59524618D02*
X162859285Y-59524618D01*
X162859285Y-59524618D02*
X162940237Y-59565094D01*
X162940237Y-59565094D02*
X162980713Y-59605570D01*
X162980713Y-59605570D02*
X163021189Y-59686523D01*
X163021189Y-59686523D02*
X163021189Y-59929380D01*
X163021189Y-59929380D02*
X162980713Y-60010332D01*
X162980713Y-60010332D02*
X162940237Y-60050809D01*
X162940237Y-60050809D02*
X162859285Y-60091285D01*
X162859285Y-60091285D02*
X162697380Y-60091285D01*
X162697380Y-60091285D02*
X162616427Y-60050809D01*
X163385475Y-59807951D02*
X163749761Y-59807951D01*
X163385475Y-59524618D02*
X163385475Y-60091285D01*
X163749761Y-59524618D02*
X163749761Y-60091285D01*
X164275952Y-60091285D02*
X164195000Y-60050809D01*
X164195000Y-60050809D02*
X164154523Y-60010332D01*
X164154523Y-60010332D02*
X164114047Y-59929380D01*
X164114047Y-59929380D02*
X164114047Y-59686523D01*
X164114047Y-59686523D02*
X164154523Y-59605570D01*
X164154523Y-59605570D02*
X164195000Y-59565094D01*
X164195000Y-59565094D02*
X164275952Y-59524618D01*
X164275952Y-59524618D02*
X164397381Y-59524618D01*
X164397381Y-59524618D02*
X164478333Y-59565094D01*
X164478333Y-59565094D02*
X164518809Y-59605570D01*
X164518809Y-59605570D02*
X164559285Y-59686523D01*
X164559285Y-59686523D02*
X164559285Y-59929380D01*
X164559285Y-59929380D02*
X164518809Y-60010332D01*
X164518809Y-60010332D02*
X164478333Y-60050809D01*
X164478333Y-60050809D02*
X164397381Y-60091285D01*
X164397381Y-60091285D02*
X164275952Y-60091285D01*
X164883095Y-59241285D02*
X164883095Y-59403189D01*
X165206905Y-59241285D02*
X165206905Y-59403189D01*
X166097381Y-59241285D02*
X166380714Y-60091285D01*
X166380714Y-60091285D02*
X166664048Y-59241285D01*
X166906904Y-59322237D02*
X166947380Y-59281761D01*
X166947380Y-59281761D02*
X167028333Y-59241285D01*
X167028333Y-59241285D02*
X167230714Y-59241285D01*
X167230714Y-59241285D02*
X167311666Y-59281761D01*
X167311666Y-59281761D02*
X167352142Y-59322237D01*
X167352142Y-59322237D02*
X167392619Y-59403189D01*
X167392619Y-59403189D02*
X167392619Y-59484142D01*
X167392619Y-59484142D02*
X167352142Y-59605570D01*
X167352142Y-59605570D02*
X166866428Y-60091285D01*
X166866428Y-60091285D02*
X167392619Y-60091285D01*
X167756904Y-60010332D02*
X167797381Y-60050809D01*
X167797381Y-60050809D02*
X167756904Y-60091285D01*
X167756904Y-60091285D02*
X167716428Y-60050809D01*
X167716428Y-60050809D02*
X167756904Y-60010332D01*
X167756904Y-60010332D02*
X167756904Y-60091285D01*
X168323571Y-59241285D02*
X168404524Y-59241285D01*
X168404524Y-59241285D02*
X168485476Y-59281761D01*
X168485476Y-59281761D02*
X168525952Y-59322237D01*
X168525952Y-59322237D02*
X168566428Y-59403189D01*
X168566428Y-59403189D02*
X168606905Y-59565094D01*
X168606905Y-59565094D02*
X168606905Y-59767475D01*
X168606905Y-59767475D02*
X168566428Y-59929380D01*
X168566428Y-59929380D02*
X168525952Y-60010332D01*
X168525952Y-60010332D02*
X168485476Y-60050809D01*
X168485476Y-60050809D02*
X168404524Y-60091285D01*
X168404524Y-60091285D02*
X168323571Y-60091285D01*
X168323571Y-60091285D02*
X168242619Y-60050809D01*
X168242619Y-60050809D02*
X168202143Y-60010332D01*
X168202143Y-60010332D02*
X168161666Y-59929380D01*
X168161666Y-59929380D02*
X168121190Y-59767475D01*
X168121190Y-59767475D02*
X168121190Y-59565094D01*
X168121190Y-59565094D02*
X168161666Y-59403189D01*
X168161666Y-59403189D02*
X168202143Y-59322237D01*
X168202143Y-59322237D02*
X168242619Y-59281761D01*
X168242619Y-59281761D02*
X168323571Y-59241285D01*
X155877142Y-61459737D02*
X155877142Y-60609737D01*
X155796189Y-60731165D02*
X155958094Y-60731165D01*
X155958094Y-60731165D02*
X156079523Y-60771641D01*
X156079523Y-60771641D02*
X156160475Y-60852594D01*
X156160475Y-60852594D02*
X156200951Y-60933546D01*
X156200951Y-60933546D02*
X156200951Y-61095451D01*
X156200951Y-61095451D02*
X156160475Y-61176403D01*
X156160475Y-61176403D02*
X156079523Y-61257356D01*
X156079523Y-61257356D02*
X155958094Y-61297832D01*
X155958094Y-61297832D02*
X155796189Y-61297832D01*
X155796189Y-61297832D02*
X155674761Y-61257356D01*
X155674761Y-61257356D02*
X155593808Y-61176403D01*
X155593808Y-61176403D02*
X155553332Y-61095451D01*
X155553332Y-61095451D02*
X155553332Y-60933546D01*
X155553332Y-60933546D02*
X155593808Y-60852594D01*
X155593808Y-60852594D02*
X155674761Y-60771641D01*
X155674761Y-60771641D02*
X155796189Y-60731165D01*
X156524760Y-61459737D02*
X156524760Y-60609737D01*
X156524760Y-60609737D02*
X156808094Y-61216880D01*
X156808094Y-61216880D02*
X157091427Y-60609737D01*
X157091427Y-60609737D02*
X157091427Y-61459737D01*
X157374761Y-60609737D02*
X157860475Y-60609737D01*
X157617618Y-61459737D02*
X157617618Y-60609737D01*
X158791428Y-61662118D02*
X158791428Y-61459737D01*
X158791428Y-61459737D02*
X158062856Y-61459737D01*
X158062856Y-61459737D02*
X158062856Y-61662118D01*
X158629523Y-61459737D02*
X158629523Y-60609737D01*
X158629523Y-60609737D02*
X158427142Y-60609737D01*
X158427142Y-60609737D02*
X158346189Y-60650213D01*
X158346189Y-60650213D02*
X158305713Y-60690689D01*
X158305713Y-60690689D02*
X158265237Y-60771641D01*
X158265237Y-60771641D02*
X158184285Y-61459737D01*
X159115237Y-61378784D02*
X159155714Y-61419261D01*
X159155714Y-61419261D02*
X159115237Y-61459737D01*
X159115237Y-61459737D02*
X159074761Y-61419261D01*
X159074761Y-61419261D02*
X159115237Y-61378784D01*
X159115237Y-61378784D02*
X159115237Y-61459737D01*
X159884285Y-60893070D02*
X159884285Y-61459737D01*
X159681904Y-60569261D02*
X159479523Y-61176403D01*
X159479523Y-61176403D02*
X160005714Y-61176403D01*
X160693809Y-60609737D02*
X160531904Y-60609737D01*
X160531904Y-60609737D02*
X160450952Y-60650213D01*
X160450952Y-60650213D02*
X160410476Y-60690689D01*
X160410476Y-60690689D02*
X160329523Y-60812118D01*
X160329523Y-60812118D02*
X160289047Y-60974022D01*
X160289047Y-60974022D02*
X160289047Y-61297832D01*
X160289047Y-61297832D02*
X160329523Y-61378784D01*
X160329523Y-61378784D02*
X160370000Y-61419261D01*
X160370000Y-61419261D02*
X160450952Y-61459737D01*
X160450952Y-61459737D02*
X160612857Y-61459737D01*
X160612857Y-61459737D02*
X160693809Y-61419261D01*
X160693809Y-61419261D02*
X160734285Y-61378784D01*
X160734285Y-61378784D02*
X160774762Y-61297832D01*
X160774762Y-61297832D02*
X160774762Y-61095451D01*
X160774762Y-61095451D02*
X160734285Y-61014499D01*
X160734285Y-61014499D02*
X160693809Y-60974022D01*
X160693809Y-60974022D02*
X160612857Y-60933546D01*
X160612857Y-60933546D02*
X160450952Y-60933546D01*
X160450952Y-60933546D02*
X160370000Y-60974022D01*
X160370000Y-60974022D02*
X160329523Y-61014499D01*
X160329523Y-61014499D02*
X160289047Y-61095451D01*
X161503333Y-60609737D02*
X161341428Y-60609737D01*
X161341428Y-60609737D02*
X161260476Y-60650213D01*
X161260476Y-60650213D02*
X161220000Y-60690689D01*
X161220000Y-60690689D02*
X161139047Y-60812118D01*
X161139047Y-60812118D02*
X161098571Y-60974022D01*
X161098571Y-60974022D02*
X161098571Y-61297832D01*
X161098571Y-61297832D02*
X161139047Y-61378784D01*
X161139047Y-61378784D02*
X161179524Y-61419261D01*
X161179524Y-61419261D02*
X161260476Y-61459737D01*
X161260476Y-61459737D02*
X161422381Y-61459737D01*
X161422381Y-61459737D02*
X161503333Y-61419261D01*
X161503333Y-61419261D02*
X161543809Y-61378784D01*
X161543809Y-61378784D02*
X161584286Y-61297832D01*
X161584286Y-61297832D02*
X161584286Y-61095451D01*
X161584286Y-61095451D02*
X161543809Y-61014499D01*
X161543809Y-61014499D02*
X161503333Y-60974022D01*
X161503333Y-60974022D02*
X161422381Y-60933546D01*
X161422381Y-60933546D02*
X161260476Y-60933546D01*
X161260476Y-60933546D02*
X161179524Y-60974022D01*
X161179524Y-60974022D02*
X161139047Y-61014499D01*
X161139047Y-61014499D02*
X161098571Y-61095451D01*
X161989048Y-61459737D02*
X162150952Y-61459737D01*
X162150952Y-61459737D02*
X162231905Y-61419261D01*
X162231905Y-61419261D02*
X162272381Y-61378784D01*
X162272381Y-61378784D02*
X162353333Y-61257356D01*
X162353333Y-61257356D02*
X162393810Y-61095451D01*
X162393810Y-61095451D02*
X162393810Y-60771641D01*
X162393810Y-60771641D02*
X162353333Y-60690689D01*
X162353333Y-60690689D02*
X162312857Y-60650213D01*
X162312857Y-60650213D02*
X162231905Y-60609737D01*
X162231905Y-60609737D02*
X162070000Y-60609737D01*
X162070000Y-60609737D02*
X161989048Y-60650213D01*
X161989048Y-60650213D02*
X161948571Y-60690689D01*
X161948571Y-60690689D02*
X161908095Y-60771641D01*
X161908095Y-60771641D02*
X161908095Y-60974022D01*
X161908095Y-60974022D02*
X161948571Y-61054975D01*
X161948571Y-61054975D02*
X161989048Y-61095451D01*
X161989048Y-61095451D02*
X162070000Y-61135927D01*
X162070000Y-61135927D02*
X162231905Y-61135927D01*
X162231905Y-61135927D02*
X162312857Y-61095451D01*
X162312857Y-61095451D02*
X162353333Y-61054975D01*
X162353333Y-61054975D02*
X162393810Y-60974022D01*
X163122381Y-60609737D02*
X162960476Y-60609737D01*
X162960476Y-60609737D02*
X162879524Y-60650213D01*
X162879524Y-60650213D02*
X162839048Y-60690689D01*
X162839048Y-60690689D02*
X162758095Y-60812118D01*
X162758095Y-60812118D02*
X162717619Y-60974022D01*
X162717619Y-60974022D02*
X162717619Y-61297832D01*
X162717619Y-61297832D02*
X162758095Y-61378784D01*
X162758095Y-61378784D02*
X162798572Y-61419261D01*
X162798572Y-61419261D02*
X162879524Y-61459737D01*
X162879524Y-61459737D02*
X163041429Y-61459737D01*
X163041429Y-61459737D02*
X163122381Y-61419261D01*
X163122381Y-61419261D02*
X163162857Y-61378784D01*
X163162857Y-61378784D02*
X163203334Y-61297832D01*
X163203334Y-61297832D02*
X163203334Y-61095451D01*
X163203334Y-61095451D02*
X163162857Y-61014499D01*
X163162857Y-61014499D02*
X163122381Y-60974022D01*
X163122381Y-60974022D02*
X163041429Y-60933546D01*
X163041429Y-60933546D02*
X162879524Y-60933546D01*
X162879524Y-60933546D02*
X162798572Y-60974022D01*
X162798572Y-60974022D02*
X162758095Y-61014499D01*
X162758095Y-61014499D02*
X162717619Y-61095451D01*
X164012858Y-61459737D02*
X163527143Y-61459737D01*
X163770000Y-61459737D02*
X163770000Y-60609737D01*
X163770000Y-60609737D02*
X163689048Y-60731165D01*
X163689048Y-60731165D02*
X163608096Y-60812118D01*
X163608096Y-60812118D02*
X163527143Y-60852594D01*
X164377143Y-61378784D02*
X164417620Y-61419261D01*
X164417620Y-61419261D02*
X164377143Y-61459737D01*
X164377143Y-61459737D02*
X164336667Y-61419261D01*
X164336667Y-61419261D02*
X164377143Y-61378784D01*
X164377143Y-61378784D02*
X164377143Y-61459737D01*
X164943810Y-60609737D02*
X165024763Y-60609737D01*
X165024763Y-60609737D02*
X165105715Y-60650213D01*
X165105715Y-60650213D02*
X165146191Y-60690689D01*
X165146191Y-60690689D02*
X165186667Y-60771641D01*
X165186667Y-60771641D02*
X165227144Y-60933546D01*
X165227144Y-60933546D02*
X165227144Y-61135927D01*
X165227144Y-61135927D02*
X165186667Y-61297832D01*
X165186667Y-61297832D02*
X165146191Y-61378784D01*
X165146191Y-61378784D02*
X165105715Y-61419261D01*
X165105715Y-61419261D02*
X165024763Y-61459737D01*
X165024763Y-61459737D02*
X164943810Y-61459737D01*
X164943810Y-61459737D02*
X164862858Y-61419261D01*
X164862858Y-61419261D02*
X164822382Y-61378784D01*
X164822382Y-61378784D02*
X164781905Y-61297832D01*
X164781905Y-61297832D02*
X164741429Y-61135927D01*
X164741429Y-61135927D02*
X164741429Y-60933546D01*
X164741429Y-60933546D02*
X164781905Y-60771641D01*
X164781905Y-60771641D02*
X164822382Y-60690689D01*
X164822382Y-60690689D02*
X164862858Y-60650213D01*
X164862858Y-60650213D02*
X164943810Y-60609737D01*
X165550953Y-60690689D02*
X165591429Y-60650213D01*
X165591429Y-60650213D02*
X165672382Y-60609737D01*
X165672382Y-60609737D02*
X165874763Y-60609737D01*
X165874763Y-60609737D02*
X165955715Y-60650213D01*
X165955715Y-60650213D02*
X165996191Y-60690689D01*
X165996191Y-60690689D02*
X166036668Y-60771641D01*
X166036668Y-60771641D02*
X166036668Y-60852594D01*
X166036668Y-60852594D02*
X165996191Y-60974022D01*
X165996191Y-60974022D02*
X165510477Y-61459737D01*
X165510477Y-61459737D02*
X166036668Y-61459737D01*
X166441430Y-61459737D02*
X166603334Y-61459737D01*
X166603334Y-61459737D02*
X166684287Y-61419261D01*
X166684287Y-61419261D02*
X166724763Y-61378784D01*
X166724763Y-61378784D02*
X166805715Y-61257356D01*
X166805715Y-61257356D02*
X166846192Y-61095451D01*
X166846192Y-61095451D02*
X166846192Y-60771641D01*
X166846192Y-60771641D02*
X166805715Y-60690689D01*
X166805715Y-60690689D02*
X166765239Y-60650213D01*
X166765239Y-60650213D02*
X166684287Y-60609737D01*
X166684287Y-60609737D02*
X166522382Y-60609737D01*
X166522382Y-60609737D02*
X166441430Y-60650213D01*
X166441430Y-60650213D02*
X166400953Y-60690689D01*
X166400953Y-60690689D02*
X166360477Y-60771641D01*
X166360477Y-60771641D02*
X166360477Y-60974022D01*
X166360477Y-60974022D02*
X166400953Y-61054975D01*
X166400953Y-61054975D02*
X166441430Y-61095451D01*
X166441430Y-61095451D02*
X166522382Y-61135927D01*
X166522382Y-61135927D02*
X166684287Y-61135927D01*
X166684287Y-61135927D02*
X166765239Y-61095451D01*
X166765239Y-61095451D02*
X166805715Y-61054975D01*
X166805715Y-61054975D02*
X166846192Y-60974022D01*
D11*
%TO.C,C96*%
X121760000Y-76080000D03*
X120800000Y-76080000D03*
%TD*%
D12*
%TO.C,C65*%
X118689200Y-68605400D03*
X116789200Y-68605400D03*
%TD*%
D13*
%TO.C,R30*%
X154310000Y-49155000D03*
X153310000Y-49155000D03*
%TD*%
D14*
%TO.C,U9*%
X176760000Y-58490000D03*
X176760000Y-59760000D03*
X176760000Y-61030000D03*
X176760000Y-62300000D03*
X181710000Y-62300000D03*
X181710000Y-61030000D03*
X181710000Y-59760000D03*
X181710000Y-58490000D03*
%TD*%
D15*
%TO.C,C55*%
X181010000Y-57070000D03*
X181970000Y-57070000D03*
%TD*%
D16*
%TO.C,U4*%
X153022500Y-54090000D03*
X153022500Y-55040000D03*
X153022500Y-55990000D03*
X155297500Y-55990000D03*
X155297500Y-54090000D03*
%TD*%
D17*
%TO.C,R60*%
X140812000Y-55987000D03*
X141812000Y-55987000D03*
%TD*%
D18*
%TO.C,R37*%
X183268000Y-51139000D03*
X182248000Y-51139000D03*
%TD*%
D19*
%TO.C,R25*%
X148610000Y-50050000D03*
X148610000Y-49050000D03*
%TD*%
D20*
%TO.C,C59*%
X143050000Y-84980000D03*
X143050000Y-85940000D03*
%TD*%
D21*
%TO.C,D6*%
X181495000Y-54120000D03*
X183070000Y-54120000D03*
%TD*%
D17*
%TO.C,R65*%
X140835000Y-59111000D03*
X141835000Y-59111000D03*
%TD*%
D22*
%TO.C,L5*%
X120370600Y-69595800D03*
X120370600Y-71170800D03*
%TD*%
D23*
%TO.C,C16*%
X156730000Y-55990000D03*
X156730000Y-55030000D03*
%TD*%
D24*
%TO.C,R183*%
X132226000Y-83824000D03*
X132226000Y-82804000D03*
%TD*%
D13*
%TO.C,R55*%
X133374000Y-70835000D03*
X132374000Y-70835000D03*
%TD*%
D20*
%TO.C,C21*%
X134215000Y-80035000D03*
X134215000Y-80995000D03*
%TD*%
D25*
%TO.C,U11*%
X122780000Y-66610000D03*
X122780000Y-67260000D03*
X122780000Y-67910000D03*
X122780000Y-68560000D03*
X122780000Y-69210000D03*
X122780000Y-69860000D03*
X122780000Y-70510000D03*
X122780000Y-71160000D03*
X128580000Y-71160000D03*
X128580000Y-70510000D03*
X128580000Y-69860000D03*
X128580000Y-69210000D03*
X128580000Y-68560000D03*
X128580000Y-67910000D03*
X128580000Y-67260000D03*
X128580000Y-66610000D03*
%TD*%
D26*
%TO.C,C69*%
X127711200Y-62717600D03*
X127711200Y-64617600D03*
%TD*%
D27*
%TO.C,J2*%
X128525000Y-92170000D03*
D28*
X128525000Y-94710000D03*
%TD*%
D19*
%TO.C,R9*%
X128420000Y-50130000D03*
X128420000Y-49130000D03*
%TD*%
%TO.C,R38*%
X173860000Y-58860000D03*
X173860000Y-57860000D03*
%TD*%
D29*
%TO.C,R71*%
X172525000Y-66815000D03*
X172525000Y-67815000D03*
%TD*%
D13*
%TO.C,R39*%
X179290000Y-54100000D03*
X178290000Y-54100000D03*
%TD*%
D17*
%TO.C,R46*%
X133485000Y-52810000D03*
X134485000Y-52810000D03*
%TD*%
D15*
%TO.C,C41*%
X149731000Y-59187000D03*
X150691000Y-59187000D03*
%TD*%
D30*
%TO.C,D5*%
X183062500Y-52480000D03*
X181487500Y-52480000D03*
%TD*%
D14*
%TO.C,U6*%
X133431000Y-54259000D03*
X133431000Y-55529000D03*
X133431000Y-56799000D03*
X133431000Y-58069000D03*
X138381000Y-58069000D03*
X138381000Y-56799000D03*
X138381000Y-55529000D03*
X138381000Y-54259000D03*
%TD*%
D20*
%TO.C,C40*%
X155000000Y-82070000D03*
X155000000Y-83030000D03*
%TD*%
D19*
%TO.C,R10*%
X130850000Y-50085000D03*
X130850000Y-49085000D03*
%TD*%
D29*
%TO.C,R77*%
X168565878Y-66815412D03*
X168565878Y-67815412D03*
%TD*%
D24*
%TO.C,R172*%
X128215000Y-75314000D03*
X128215000Y-74294000D03*
%TD*%
D13*
%TO.C,R126*%
X115468400Y-50495200D03*
X114468400Y-50495200D03*
%TD*%
D17*
%TO.C,R5*%
X125644400Y-49149000D03*
X126644400Y-49149000D03*
%TD*%
D31*
%TO.C,H2*%
X169980000Y-45650000D03*
%TD*%
D20*
%TO.C,C17*%
X133245000Y-80035000D03*
X133245000Y-80995000D03*
%TD*%
D15*
%TO.C,C23*%
X151325000Y-66045000D03*
X152285000Y-66045000D03*
%TD*%
D29*
%TO.C,R15*%
X133385000Y-49060000D03*
X133385000Y-50060000D03*
%TD*%
%TO.C,R102*%
X175030000Y-90690000D03*
X175030000Y-91690000D03*
%TD*%
%TO.C,R45*%
X139860000Y-60560000D03*
X139860000Y-61560000D03*
%TD*%
D32*
%TO.C,D4*%
X181300000Y-73175000D03*
X181300000Y-71600000D03*
%TD*%
D15*
%TO.C,C39*%
X130473000Y-70865000D03*
X131433000Y-70865000D03*
%TD*%
D17*
%TO.C,R68*%
X163455000Y-72245000D03*
X164455000Y-72245000D03*
%TD*%
D13*
%TO.C,R74*%
X175055000Y-71760000D03*
X174055000Y-71760000D03*
%TD*%
D11*
%TO.C,C97*%
X121750000Y-75080000D03*
X120790000Y-75080000D03*
%TD*%
D33*
%TO.C,SW5*%
X151360000Y-81270000D03*
X151360000Y-86670000D03*
%TD*%
D20*
%TO.C,C58*%
X144020000Y-84980000D03*
X144020000Y-85940000D03*
%TD*%
D24*
%TO.C,R180*%
X120450000Y-87265000D03*
X120450000Y-86245000D03*
%TD*%
D15*
%TO.C,C28*%
X150570000Y-70850000D03*
X151530000Y-70850000D03*
%TD*%
D34*
%TO.C,J1*%
X118080000Y-92180000D03*
X123860000Y-92180000D03*
D35*
X117720000Y-90735000D03*
X118520000Y-90735000D03*
D36*
X119720000Y-90735000D03*
X120720000Y-90735000D03*
X121220000Y-90735000D03*
X122220000Y-90735000D03*
D35*
X123420000Y-90735000D03*
X124220000Y-90735000D03*
X124220000Y-90735000D03*
X123420000Y-90735000D03*
D36*
X122720000Y-90735000D03*
X121720000Y-90735000D03*
X120220000Y-90735000D03*
X119220000Y-90735000D03*
D35*
X118520000Y-90735000D03*
X117720000Y-90735000D03*
D37*
X116650000Y-91650000D03*
D38*
X116650000Y-95830000D03*
D37*
X125290000Y-91650000D03*
D38*
X125290000Y-95830000D03*
%TD*%
D15*
%TO.C,C66*%
X118038200Y-67065400D03*
X118998200Y-67065400D03*
%TD*%
D29*
%TO.C,R24*%
X146075000Y-49405000D03*
X146075000Y-50405000D03*
%TD*%
D39*
%TO.C,U8*%
X172245500Y-74218000D03*
X172245500Y-73718000D03*
X172245500Y-73218000D03*
X172245500Y-72718000D03*
X172245500Y-72218000D03*
X172245500Y-71718000D03*
X172245500Y-71218000D03*
X172245500Y-70718000D03*
D40*
X171558000Y-70030500D03*
X171058000Y-70030500D03*
X170558000Y-70030500D03*
X170058000Y-70030500D03*
X169558000Y-70030500D03*
X169058000Y-70030500D03*
X168558000Y-70030500D03*
X168058000Y-70030500D03*
D39*
X167370500Y-70718000D03*
X167370500Y-71218000D03*
X167370500Y-71718000D03*
X167370500Y-72218000D03*
X167370500Y-72718000D03*
X167370500Y-73218000D03*
X167370500Y-73718000D03*
X167370500Y-74218000D03*
D40*
X168058000Y-74905500D03*
X168558000Y-74905500D03*
X169058000Y-74905500D03*
X169558000Y-74905500D03*
X170058000Y-74905500D03*
X170558000Y-74905500D03*
X171058000Y-74905500D03*
X171558000Y-74905500D03*
D41*
X169808000Y-72468000D03*
%TD*%
D31*
%TO.C,H1*%
X111980000Y-45650000D03*
%TD*%
D22*
%TO.C,D16*%
X164225000Y-86275000D03*
X164225000Y-87850000D03*
%TD*%
D42*
%TO.C,L1*%
X164530000Y-52170000D03*
X169330000Y-52170000D03*
%TD*%
D17*
%TO.C,R48*%
X140815000Y-53000000D03*
X141815000Y-53000000D03*
%TD*%
D43*
%TO.C,U7*%
X148068000Y-53696000D03*
X146798000Y-53696000D03*
X145528000Y-53696000D03*
X144258000Y-53696000D03*
X144258000Y-59096000D03*
X145528000Y-59096000D03*
X146798000Y-59096000D03*
X148068000Y-59096000D03*
D44*
X146163000Y-56396000D03*
%TD*%
D45*
%TO.C,TR1*%
X167343000Y-88242000D03*
X168613000Y-88242000D03*
X169883000Y-88242000D03*
X171153000Y-88242000D03*
X172423000Y-88242000D03*
X173693000Y-88242000D03*
X174963000Y-88242000D03*
X176233000Y-88242000D03*
X176233000Y-79402800D03*
X174963000Y-79402800D03*
X173693000Y-79402800D03*
X172423000Y-79402800D03*
X171153000Y-79402800D03*
X169883000Y-79402800D03*
X168613000Y-79402800D03*
X167343000Y-79402800D03*
%TD*%
D46*
%TO.C,U5*%
X147930000Y-76100000D03*
X147130000Y-76100000D03*
X146330000Y-76100000D03*
X145530000Y-76100000D03*
X144730000Y-76100000D03*
X143930000Y-76100000D03*
X143130000Y-76100000D03*
X142330000Y-76100000D03*
X141530000Y-76100000D03*
X140730000Y-76100000D03*
X139930000Y-76100000D03*
X139130000Y-76100000D03*
X138330000Y-76100000D03*
X137530000Y-76100000D03*
X136730000Y-76100000D03*
X135930000Y-76100000D03*
X147930000Y-75300000D03*
X147130000Y-75300000D03*
X146330000Y-75300000D03*
X145530000Y-75300000D03*
X144730000Y-75300000D03*
X143930000Y-75300000D03*
X143130000Y-75300000D03*
X142330000Y-75300000D03*
X141530000Y-75300000D03*
X140730000Y-75300000D03*
X139930000Y-75300000D03*
X139130000Y-75300000D03*
X138330000Y-75300000D03*
X137530000Y-75300000D03*
X136730000Y-75300000D03*
X135930000Y-75300000D03*
X147930000Y-74500000D03*
X147130000Y-74500000D03*
X146330000Y-74500000D03*
X145530000Y-74500000D03*
X144730000Y-74500000D03*
X143930000Y-74500000D03*
X143130000Y-74500000D03*
X142330000Y-74500000D03*
X141530000Y-74500000D03*
X140730000Y-74500000D03*
X139930000Y-74500000D03*
X139130000Y-74500000D03*
X138330000Y-74500000D03*
X137530000Y-74500000D03*
X136730000Y-74500000D03*
X135930000Y-74500000D03*
X147930000Y-73700000D03*
X147130000Y-73700000D03*
X146330000Y-73700000D03*
X145530000Y-73700000D03*
X144730000Y-73700000D03*
X143930000Y-73700000D03*
X143130000Y-73700000D03*
X142330000Y-73700000D03*
X141530000Y-73700000D03*
X140730000Y-73700000D03*
X139930000Y-73700000D03*
X139130000Y-73700000D03*
X138330000Y-73700000D03*
X137530000Y-73700000D03*
X136730000Y-73700000D03*
X135930000Y-73700000D03*
X147930000Y-72900000D03*
X147130000Y-72900000D03*
X146330000Y-72900000D03*
X145530000Y-72900000D03*
X144730000Y-72900000D03*
X143930000Y-72900000D03*
X143130000Y-72900000D03*
X142330000Y-72900000D03*
X141530000Y-72900000D03*
X140730000Y-72900000D03*
X139930000Y-72900000D03*
X139130000Y-72900000D03*
X138330000Y-72900000D03*
X137530000Y-72900000D03*
X136730000Y-72900000D03*
X135930000Y-72900000D03*
X147930000Y-72100000D03*
X147130000Y-72100000D03*
X146330000Y-72100000D03*
X145530000Y-72100000D03*
X144730000Y-72100000D03*
X143930000Y-72100000D03*
X143130000Y-72100000D03*
X142330000Y-72100000D03*
X141530000Y-72100000D03*
X140730000Y-72100000D03*
X139930000Y-72100000D03*
X139130000Y-72100000D03*
X138330000Y-72100000D03*
X137530000Y-72100000D03*
X136730000Y-72100000D03*
X135930000Y-72100000D03*
X147930000Y-71300000D03*
X147130000Y-71300000D03*
X146330000Y-71300000D03*
X145530000Y-71300000D03*
X144730000Y-71300000D03*
X143930000Y-71300000D03*
X143130000Y-71300000D03*
X142330000Y-71300000D03*
X141530000Y-71300000D03*
X140730000Y-71300000D03*
X139930000Y-71300000D03*
X139130000Y-71300000D03*
X138330000Y-71300000D03*
X137530000Y-71300000D03*
X136730000Y-71300000D03*
X135930000Y-71300000D03*
X147930000Y-70500000D03*
X147130000Y-70500000D03*
X146330000Y-70500000D03*
X145530000Y-70500000D03*
X144730000Y-70500000D03*
X143930000Y-70500000D03*
X143130000Y-70500000D03*
X142330000Y-70500000D03*
X141530000Y-70500000D03*
X140730000Y-70500000D03*
X139930000Y-70500000D03*
X139130000Y-70500000D03*
X138330000Y-70500000D03*
X137530000Y-70500000D03*
X136730000Y-70500000D03*
X135930000Y-70500000D03*
X147930000Y-69700000D03*
X147130000Y-69700000D03*
X146330000Y-69700000D03*
X145530000Y-69700000D03*
X144730000Y-69700000D03*
X143930000Y-69700000D03*
X143130000Y-69700000D03*
X142330000Y-69700000D03*
X141530000Y-69700000D03*
X140730000Y-69700000D03*
X139930000Y-69700000D03*
X139130000Y-69700000D03*
X138330000Y-69700000D03*
X137530000Y-69700000D03*
X136730000Y-69700000D03*
X135930000Y-69700000D03*
X147930000Y-68900000D03*
X147130000Y-68900000D03*
X146330000Y-68900000D03*
X145530000Y-68900000D03*
X144730000Y-68900000D03*
X143930000Y-68900000D03*
X143130000Y-68900000D03*
X142330000Y-68900000D03*
X141530000Y-68900000D03*
X140730000Y-68900000D03*
X139930000Y-68900000D03*
X139130000Y-68900000D03*
X138330000Y-68900000D03*
X137530000Y-68900000D03*
X136730000Y-68900000D03*
X135930000Y-68900000D03*
X147930000Y-68100000D03*
X147130000Y-68100000D03*
X146330000Y-68100000D03*
X145530000Y-68100000D03*
X144730000Y-68100000D03*
X143930000Y-68100000D03*
X143130000Y-68100000D03*
X142330000Y-68100000D03*
X141530000Y-68100000D03*
X140730000Y-68100000D03*
X139930000Y-68100000D03*
X139130000Y-68100000D03*
X138330000Y-68100000D03*
X137530000Y-68100000D03*
X136730000Y-68100000D03*
X135930000Y-68100000D03*
X147930000Y-67300000D03*
X147130000Y-67300000D03*
X146330000Y-67300000D03*
X145530000Y-67300000D03*
X144730000Y-67300000D03*
X143930000Y-67300000D03*
X143130000Y-67300000D03*
X142330000Y-67300000D03*
X141530000Y-67300000D03*
X140730000Y-67300000D03*
X139930000Y-67300000D03*
X139130000Y-67300000D03*
X138330000Y-67300000D03*
X137530000Y-67300000D03*
X136730000Y-67300000D03*
X135930000Y-67300000D03*
X147930000Y-66500000D03*
X147130000Y-66500000D03*
X146330000Y-66500000D03*
X145530000Y-66500000D03*
X144730000Y-66500000D03*
X143930000Y-66500000D03*
X143130000Y-66500000D03*
X142330000Y-66500000D03*
X141530000Y-66500000D03*
X140730000Y-66500000D03*
X139930000Y-66500000D03*
X139130000Y-66500000D03*
X138330000Y-66500000D03*
X137530000Y-66500000D03*
X136730000Y-66500000D03*
X135930000Y-66500000D03*
X147930000Y-65700000D03*
X147130000Y-65700000D03*
X146330000Y-65700000D03*
X145530000Y-65700000D03*
X144730000Y-65700000D03*
X143930000Y-65700000D03*
X143130000Y-65700000D03*
X142330000Y-65700000D03*
X141530000Y-65700000D03*
X140730000Y-65700000D03*
X139930000Y-65700000D03*
X139130000Y-65700000D03*
X138330000Y-65700000D03*
X137530000Y-65700000D03*
X136730000Y-65700000D03*
X135930000Y-65700000D03*
X147930000Y-64900000D03*
X147130000Y-64900000D03*
X146330000Y-64900000D03*
X145530000Y-64900000D03*
X144730000Y-64900000D03*
X143930000Y-64900000D03*
X143130000Y-64900000D03*
X142330000Y-64900000D03*
X141530000Y-64900000D03*
X140730000Y-64900000D03*
X139930000Y-64900000D03*
X139130000Y-64900000D03*
X138330000Y-64900000D03*
X137530000Y-64900000D03*
X136730000Y-64900000D03*
X135930000Y-64900000D03*
X147930000Y-64100000D03*
X147130000Y-64100000D03*
X146330000Y-64100000D03*
X145530000Y-64100000D03*
X144730000Y-64100000D03*
X143930000Y-64100000D03*
X143130000Y-64100000D03*
X142330000Y-64100000D03*
X141530000Y-64100000D03*
X140730000Y-64100000D03*
X139930000Y-64100000D03*
X139130000Y-64100000D03*
X138330000Y-64100000D03*
X137530000Y-64100000D03*
X136730000Y-64100000D03*
X135930000Y-64100000D03*
%TD*%
D19*
%TO.C,C101*%
X126202000Y-75296000D03*
X126202000Y-74296000D03*
%TD*%
D15*
%TO.C,C100*%
X135270000Y-61575000D03*
X136230000Y-61575000D03*
%TD*%
%TO.C,C38*%
X138363000Y-52795000D03*
X139323000Y-52795000D03*
%TD*%
D32*
%TO.C,D2*%
X178100000Y-73175000D03*
X178100000Y-71600000D03*
%TD*%
D17*
%TO.C,R62*%
X140815000Y-53981000D03*
X141815000Y-53981000D03*
%TD*%
D22*
%TO.C,L6*%
X129475000Y-62700000D03*
X129475000Y-64275000D03*
%TD*%
D47*
%TO.C,Y2*%
X130476000Y-74009000D03*
X132776000Y-74009000D03*
X132776000Y-72209000D03*
X130476000Y-72209000D03*
%TD*%
D17*
%TO.C,R53*%
X151330000Y-67010000D03*
X152330000Y-67010000D03*
%TD*%
D31*
%TO.C,H3*%
X169980000Y-94650000D03*
%TD*%
D23*
%TO.C,C95*%
X132230000Y-81860000D03*
X132230000Y-80900000D03*
%TD*%
D17*
%TO.C,R80*%
X173405000Y-75060000D03*
X174405000Y-75060000D03*
%TD*%
D48*
%TO.C,C7*%
X182703000Y-49804000D03*
X182703000Y-47904000D03*
%TD*%
D32*
%TO.C,D3*%
X179700000Y-73175000D03*
X179700000Y-71600000D03*
%TD*%
D29*
%TO.C,R69*%
X170550000Y-66810000D03*
X170550000Y-67810000D03*
%TD*%
D17*
%TO.C,R76*%
X174065000Y-72735000D03*
X175065000Y-72735000D03*
%TD*%
D49*
%TO.C,R179*%
X120665000Y-82650000D03*
X120665000Y-83670000D03*
%TD*%
D24*
%TO.C,R181*%
X121425000Y-87265000D03*
X121425000Y-86245000D03*
%TD*%
D17*
%TO.C,R63*%
X140844000Y-58139000D03*
X141844000Y-58139000D03*
%TD*%
D50*
%TO.C,XS1*%
X189450000Y-52080000D03*
X189450000Y-47080000D03*
%TD*%
D29*
%TO.C,R75*%
X169555000Y-66815000D03*
X169555000Y-67815000D03*
%TD*%
D17*
%TO.C,R56*%
X138333000Y-51844000D03*
X139333000Y-51844000D03*
%TD*%
D24*
%TO.C,R171*%
X127205000Y-75312000D03*
X127205000Y-74292000D03*
%TD*%
D51*
%TO.C,XS10*%
X112230000Y-82880000D03*
D52*
X112230000Y-84880000D03*
X112230000Y-86880000D03*
X112230000Y-88880000D03*
%TD*%
D19*
%TO.C,C15*%
X156720000Y-54110000D03*
X156720000Y-53110000D03*
%TD*%
D53*
%TO.C,U20*%
X122287500Y-78797500D03*
X122287500Y-79297500D03*
X122287500Y-79797500D03*
X122287500Y-80297500D03*
X122287500Y-80797500D03*
X122287500Y-81297500D03*
X122287500Y-81797500D03*
X122287500Y-82297500D03*
X122287500Y-82797500D03*
X122287500Y-83297500D03*
X122287500Y-83797500D03*
X122287500Y-84297500D03*
D54*
X123700000Y-85710000D03*
X124200000Y-85710000D03*
X124700000Y-85710000D03*
X125200000Y-85710000D03*
X125700000Y-85710000D03*
X126200000Y-85710000D03*
X126700000Y-85710000D03*
X127200000Y-85710000D03*
X127700000Y-85710000D03*
X128200000Y-85710000D03*
X128700000Y-85710000D03*
X129200000Y-85710000D03*
D53*
X130612500Y-84297500D03*
X130612500Y-83797500D03*
X130612500Y-83297500D03*
X130612500Y-82797500D03*
X130612500Y-82297500D03*
X130612500Y-81797500D03*
X130612500Y-81297500D03*
X130612500Y-80797500D03*
X130612500Y-80297500D03*
X130612500Y-79797500D03*
X130612500Y-79297500D03*
X130612500Y-78797500D03*
D54*
X129200000Y-77385000D03*
X128700000Y-77385000D03*
X128200000Y-77385000D03*
X127700000Y-77385000D03*
X127200000Y-77385000D03*
X126700000Y-77385000D03*
X126200000Y-77385000D03*
X125700000Y-77385000D03*
X125200000Y-77385000D03*
X124700000Y-77385000D03*
X124200000Y-77385000D03*
X123700000Y-77385000D03*
%TD*%
D17*
%TO.C,R54*%
X147585000Y-61400000D03*
X148585000Y-61400000D03*
%TD*%
D55*
%TO.C,U1*%
X171371000Y-55570000D03*
X172641000Y-55570000D03*
X173911000Y-55570000D03*
X175181000Y-55570000D03*
X175181000Y-50620000D03*
X173911000Y-50620000D03*
X172641000Y-50620000D03*
X171371000Y-50620000D03*
D56*
X173276000Y-53095000D03*
%TD*%
D20*
%TO.C,C62*%
X140120000Y-84970000D03*
X140120000Y-85930000D03*
%TD*%
D17*
%TO.C,R64*%
X140839000Y-57132000D03*
X141839000Y-57132000D03*
%TD*%
D29*
%TO.C,R101*%
X173985000Y-90700000D03*
X173985000Y-91700000D03*
%TD*%
D13*
%TO.C,R122*%
X133380000Y-76650000D03*
X132380000Y-76650000D03*
%TD*%
D15*
%TO.C,C29*%
X150565000Y-68850000D03*
X151525000Y-68850000D03*
%TD*%
D20*
%TO.C,C63*%
X139150000Y-84980000D03*
X139150000Y-85940000D03*
%TD*%
D23*
%TO.C,C98*%
X124210000Y-75280000D03*
X124210000Y-74320000D03*
%TD*%
D19*
%TO.C,C2*%
X172905000Y-58855000D03*
X172905000Y-57855000D03*
%TD*%
D57*
%TO.C,XS4*%
X190140000Y-94150000D03*
X190140000Y-81450000D03*
D58*
X187600000Y-84250000D03*
X185820000Y-85270000D03*
X187600000Y-86280000D03*
X185820000Y-87300000D03*
X187600000Y-88310000D03*
X185820000Y-89330000D03*
X187600000Y-90340000D03*
X185820000Y-91360000D03*
X181000000Y-80940000D03*
X181000000Y-83230000D03*
X181000000Y-94660000D03*
X181000000Y-92370000D03*
D59*
X186710000Y-79670000D03*
X186710000Y-95930000D03*
%TD*%
D15*
%TO.C,C22*%
X150570000Y-69890000D03*
X151530000Y-69890000D03*
%TD*%
D32*
%TO.C,D1*%
X176500000Y-73175000D03*
X176500000Y-71600000D03*
%TD*%
D60*
%TO.C,XS7*%
X184600000Y-73900000D03*
D61*
X184600000Y-71400000D03*
X184600000Y-69400000D03*
X184600000Y-66900000D03*
X187220000Y-73900000D03*
X187220000Y-71400000D03*
X187220000Y-69400000D03*
X187220000Y-66900000D03*
D62*
X184250000Y-76970000D03*
X189930000Y-76970000D03*
X184250000Y-63830000D03*
X189930000Y-63830000D03*
%TD*%
D63*
%TO.C,J4*%
X116665000Y-87090000D03*
D64*
X116665000Y-85090000D03*
X116665000Y-83090000D03*
X116665000Y-81090000D03*
X116665000Y-79090000D03*
X116665000Y-77090000D03*
X116665000Y-75090000D03*
%TD*%
D29*
%TO.C,R72*%
X173530000Y-66810000D03*
X173530000Y-67810000D03*
%TD*%
D13*
%TO.C,C64*%
X117101200Y-67074400D03*
X116101200Y-67074400D03*
%TD*%
D29*
%TO.C,C1*%
X170925000Y-57325000D03*
X170925000Y-58325000D03*
%TD*%
D17*
%TO.C,R59*%
X154000000Y-81075000D03*
X155000000Y-81075000D03*
%TD*%
%TO.C,R57*%
X129475000Y-75398000D03*
X130475000Y-75398000D03*
%TD*%
D15*
%TO.C,C67*%
X128453000Y-51130200D03*
X129413000Y-51130200D03*
%TD*%
D20*
%TO.C,C57*%
X144980000Y-84980000D03*
X144980000Y-85940000D03*
%TD*%
D65*
%TO.C,J3*%
X145240000Y-89750000D03*
X144740000Y-89750000D03*
X144240000Y-89750000D03*
X143740000Y-89750000D03*
X143240000Y-89750000D03*
X142740000Y-89750000D03*
X142240000Y-89750000D03*
X141740000Y-89750000D03*
X141240000Y-89750000D03*
X140740000Y-89750000D03*
X140240000Y-89750000D03*
X139740000Y-89750000D03*
X139240000Y-89750000D03*
X138740000Y-89750000D03*
X138240000Y-89750000D03*
X137740000Y-89750000D03*
X137240000Y-89750000D03*
X136740000Y-89750000D03*
X136240000Y-89750000D03*
D66*
X132640000Y-95650000D03*
X133240000Y-90750000D03*
X147740000Y-90750000D03*
X148340000Y-95650000D03*
%TD*%
D30*
%TO.C,L4*%
X179750000Y-56860000D03*
X178175000Y-56860000D03*
%TD*%
D11*
%TO.C,C6*%
X179294000Y-52258000D03*
X178334000Y-52258000D03*
%TD*%
D17*
%TO.C,R73*%
X165350000Y-76940000D03*
X166350000Y-76940000D03*
%TD*%
D29*
%TO.C,R78*%
X167580000Y-66810000D03*
X167580000Y-67810000D03*
%TD*%
D19*
%TO.C,R27*%
X150655000Y-50065000D03*
X150655000Y-49065000D03*
%TD*%
D67*
%TO.C,C54*%
X174090000Y-93400000D03*
X177040000Y-93400000D03*
%TD*%
D68*
%TO.C,C5*%
X179195000Y-50124000D03*
X179195000Y-43899000D03*
%TD*%
D69*
%TO.C,XS12*%
X159785000Y-91970000D03*
X159785000Y-84970000D03*
D70*
X163485000Y-95870000D03*
D71*
X163485000Y-83670000D03*
D72*
X156085000Y-91170000D03*
X163485000Y-93070000D03*
D73*
X159035000Y-79670000D03*
D70*
X156085000Y-93970000D03*
%TD*%
D20*
%TO.C,C61*%
X141110000Y-84970000D03*
X141110000Y-85930000D03*
%TD*%
D12*
%TO.C,C4*%
X157610000Y-50420000D03*
X155710000Y-50420000D03*
%TD*%
D51*
%TO.C,XS6*%
X112230000Y-71890000D03*
D52*
X112230000Y-73890000D03*
X112230000Y-75890000D03*
X112230000Y-77890000D03*
%TD*%
D74*
%TO.C,XS3*%
X186560000Y-59190000D03*
D52*
X186560000Y-57190000D03*
%TD*%
D22*
%TO.C,D20*%
X164219000Y-89301000D03*
X164219000Y-90876000D03*
%TD*%
D75*
%TO.C,XS2*%
X124992800Y-61398200D03*
X124992800Y-60298200D03*
X124992800Y-59198200D03*
X124992800Y-58098200D03*
X124992800Y-56998200D03*
X124992800Y-55898200D03*
X124992800Y-54798200D03*
X124992800Y-53698200D03*
D76*
X120692800Y-51798200D03*
D77*
X110342800Y-51798200D03*
D78*
X109892800Y-65298200D03*
D76*
X124992800Y-62948200D03*
D79*
X114492800Y-51798200D03*
D75*
X124992800Y-52748200D03*
%TD*%
D27*
%TO.C,XS5*%
X116910000Y-46790000D03*
D69*
X116910000Y-44250000D03*
X119450000Y-46790000D03*
X119450000Y-44250000D03*
X121990000Y-46790000D03*
X121990000Y-44250000D03*
X124530000Y-46790000D03*
X124530000Y-44250000D03*
X127070000Y-46790000D03*
X127070000Y-44250000D03*
X129610000Y-46790000D03*
X129610000Y-44250000D03*
X132150000Y-46790000D03*
X132150000Y-44250000D03*
X134690000Y-46790000D03*
X134690000Y-44250000D03*
X137230000Y-46790000D03*
X137230000Y-44250000D03*
X139770000Y-46790000D03*
X139770000Y-44250000D03*
X142310000Y-46790000D03*
X142310000Y-44250000D03*
X144850000Y-46790000D03*
X144850000Y-44250000D03*
X147390000Y-46790000D03*
X147390000Y-44250000D03*
X149930000Y-46790000D03*
X149930000Y-44250000D03*
X152470000Y-46790000D03*
X152470000Y-44250000D03*
X155010000Y-46790000D03*
X155010000Y-44250000D03*
X157550000Y-46790000D03*
X157550000Y-44250000D03*
X160090000Y-46790000D03*
X160090000Y-44250000D03*
X162630000Y-46790000D03*
X162630000Y-44250000D03*
X165170000Y-46790000D03*
X165170000Y-44250000D03*
%TD*%
D24*
%TO.C,R182*%
X120675000Y-81760000D03*
X120675000Y-80740000D03*
%TD*%
D32*
%TO.C,D12*%
X155555000Y-88800000D03*
X155555000Y-87225000D03*
%TD*%
D11*
%TO.C,C68*%
X129475000Y-61350000D03*
X128515000Y-61350000D03*
%TD*%
D49*
%TO.C,R178*%
X123210000Y-74290000D03*
X123210000Y-75310000D03*
%TD*%
D20*
%TO.C,C60*%
X142085873Y-84975595D03*
X142085873Y-85935595D03*
%TD*%
D29*
%TO.C,R22*%
X137010000Y-49065000D03*
X137010000Y-50065000D03*
%TD*%
D20*
%TO.C,C56*%
X145940000Y-84980000D03*
X145940000Y-85940000D03*
%TD*%
D80*
%TO.C,C3*%
X160910000Y-50745000D03*
X160910000Y-56970000D03*
%TD*%
D81*
%TO.C,D8*%
X169210000Y-56920000D03*
X164810000Y-56920000D03*
%TD*%
D49*
%TO.C,R168*%
X148610000Y-84770000D03*
X148610000Y-85790000D03*
%TD*%
D20*
%TO.C,C18*%
X135180000Y-80035000D03*
X135180000Y-80995000D03*
%TD*%
D31*
%TO.C,H4*%
X111980000Y-94650000D03*
%TD*%
D17*
%TO.C,R61*%
X140815000Y-54988000D03*
X141815000Y-54988000D03*
%TD*%
%TO.C,R79*%
X163445411Y-71224898D03*
X164445411Y-71224898D03*
%TD*%
D15*
%TO.C,C94*%
X124220000Y-87300000D03*
X125180000Y-87300000D03*
%TD*%
D29*
%TO.C,R40*%
X174860000Y-57860000D03*
X174860000Y-58860000D03*
%TD*%
D17*
%TO.C,C14*%
X152530000Y-52660000D03*
X153530000Y-52660000D03*
%TD*%
D82*
%TO.C,SW1*%
X176695000Y-69390000D03*
X177965000Y-69390000D03*
X179235000Y-69390000D03*
X180505000Y-69390000D03*
X180505000Y-64310000D03*
X179235000Y-64310000D03*
X177965000Y-64310000D03*
X176695000Y-64310000D03*
%TD*%
D19*
%TO.C,C102*%
X125200000Y-75300000D03*
X125200000Y-74300000D03*
%TD*%
%TO.C,R42*%
X171915000Y-58855000D03*
X171915000Y-57855000D03*
%TD*%
D23*
%TO.C,C92*%
X148600000Y-83790000D03*
X148600000Y-82830000D03*
%TD*%
D29*
%TO.C,R70*%
X171550000Y-66815000D03*
X171550000Y-67815000D03*
%TD*%
%TO.C,R17*%
X136000000Y-49065000D03*
X136000000Y-50065000D03*
%TD*%
D83*
%TO.C,U10*%
X126944600Y-59800400D03*
X127594600Y-59800400D03*
X128244600Y-59800400D03*
X128894600Y-59800400D03*
X129544600Y-59800400D03*
X130194600Y-59800400D03*
X130844600Y-59800400D03*
X131494600Y-59800400D03*
X131494600Y-54000400D03*
X130844600Y-54000400D03*
X130194600Y-54000400D03*
X129544600Y-54000400D03*
X128894600Y-54000400D03*
X128244600Y-54000400D03*
X127594600Y-54000400D03*
X126944600Y-54000400D03*
%TD*%
M02*
