M48
; DRILL file KiCad 10.0.1 date 2026-09-07T02:54:54
; FORMAT={-:-/ absolute / metric / decimal}
; #@! TF.CreationDate,2026-09-07T02:54:54+05:00
; #@! TF.GenerationSoftware,Kicad,Pcbnew,10.0.1
; #@! TF.FileFunction,Plated,1,6,PTH
FMAT,2
METRIC
; #@! TA.AperFunction,Plated,PTH,ViaDrill
T1C0.200
; #@! TA.AperFunction,Plated,PTH,ComponentDrill
T2C0.600
; #@! TA.AperFunction,Plated,PTH,ComponentDrill
T3C0.750
; #@! TA.AperFunction,Plated,PTH,ComponentDrill
T4C0.800
; #@! TA.AperFunction,Plated,PTH,ComponentDrill
T5C0.900
; #@! TA.AperFunction,Plated,PTH,ComponentDrill
T6C0.920
; #@! TA.AperFunction,Plated,PTH,ComponentDrill
T7C1.000
; #@! TA.AperFunction,Plated,PTH,ComponentDrill
T8C1.200
; #@! TA.AperFunction,Plated,PTH,ComponentDrill
T9C1.300
; #@! TA.AperFunction,Plated,PTH,ComponentDrill
T10C1.600
; #@! TA.AperFunction,Plated,PTH,ComponentDrill
T11C2.300
; #@! TA.AperFunction,Plated,PTH,ComponentDrill
T12C3.200
%
G90
G05
T1
X111.023Y-67.589
X111.17Y-70.206
X111.201Y-59.284
X111.354Y-76.86
X111.531Y-50.851
X112.268Y-51.079
X112.471Y-64.694
X112.979Y-55.296
X113.182Y-76.886
X113.284Y-80.747
X113.487Y-83.947
X113.69Y-68.809
X113.919Y-56.54
X114.86Y-89.57
X114.935Y-54.153
X114.935Y-56.439
X114.96Y-55.27
X115.47Y-87.64
X115.545Y-62.636
X115.926Y-49.174
X116.535Y-55.347
X116.637Y-50.8
X117.45Y-50.698
X117.45Y-60.3
X117.551Y-56.617
X117.577Y-64.186
X117.68Y-88.91
X118.085Y-54.28
X118.147Y-70.132
X118.161Y-55.423
X118.473Y-72.893
X118.91Y-87.5
X119.032Y-92.999
X119.05Y-49.88
X119.067Y-71.011
X119.179Y-62.611
X119.74Y-89.63
X119.8Y-48.45
X119.933Y-74.141
X120.071Y-49.933
X120.13Y-92.18
X120.269Y-63.576
X120.32Y-61.57
X120.38Y-84.53
X120.625Y-67.92
X120.777Y-52.807
X120.8Y-49.05
X120.972Y-89.532
X121.105Y-84.84
X121.234Y-54.458
X121.31Y-69.977
X121.514Y-63.525
X121.59Y-59.538
X122.05Y-73.316
X122.098Y-58.141
X122.199Y-55.956
X122.326Y-52.553
X122.36Y-77.33
X122.377Y-62.382
X122.69Y-92.975
X122.876Y-89.756
X123.088Y-64.897
X123.29Y-47.67
X123.359Y-81.152
X123.445Y-83.75
X123.466Y-80.039
X123.52Y-87.3
X123.876Y-50.419
X123.876Y-55.651
X124.003Y-60.503
X124.028Y-53.543
X124.028Y-54.559
X124.028Y-56.769
X124.028Y-59.487
X124.028Y-61.519
X124.866Y-70.637
X124.934Y-80.058
X125.095Y-69.977
X125.12Y-79.298
X125.21Y-88.06
X125.4Y-64.973
X125.49Y-72.96
X125.491Y-83.788
X125.603Y-49.911
X125.647Y-78.756
X125.755Y-70.663
X126.017Y-79.384
X126.111Y-52.857
X126.136Y-58.039
X126.2Y-88.035
X126.263Y-55.448
X126.271Y-78.75
X126.543Y-61.57
X126.568Y-70.663
X126.61Y-71.96
X126.644Y-50.673
X126.644Y-64.618
X126.8Y-94.07
X126.805Y-81.645
X126.898Y-66.802
X126.94Y-84.255
X127.015Y-75.964
X127.178Y-58.141
X127.31Y-89.72
X127.538Y-76.008
X127.584Y-55.931
X127.66Y-87.48
X127.7Y-84.06
X127.775Y-81.645
X127.813Y-51.13
X127.886Y-63.663
X127.945Y-48.2
X127.97Y-66.06
X128.118Y-56.591
X128.173Y-57.323
X128.175Y-58.176
X128.176Y-84.514
X128.57Y-81.65
X128.87Y-80.24
X128.875Y-84.375
X128.9Y-66.08
X128.972Y-56.694
X129.025Y-45.475
X129.075Y-50.175
X129.09Y-81.54
X129.203Y-72.719
X129.203Y-73.812
X129.245Y-87.955
X129.388Y-55.423
X129.465Y-80.58
X129.525Y-84.355
X129.54Y-52.832
X129.642Y-57.785
X129.667Y-67.894
X129.769Y-56.566
X129.875Y-68.8
X129.9Y-66.125
X129.905Y-87.175
X130.025Y-67.35
X130.375Y-47.9
X130.41Y-68.415
X130.629Y-64.521
X130.775Y-91.29
X130.845Y-67.455
X131.035Y-88.21
X131.62Y-75.27
X131.65Y-74.17
X131.675Y-51.95
X131.696Y-62.734
X132.0Y-78.02
X132.18Y-92.79
X132.22Y-80.24
X132.5Y-59.5
X132.525Y-48.3
X132.775Y-60.475
X132.9Y-51.625
X133.031Y-87.094
X133.325Y-69.393
X133.328Y-68.741
X133.372Y-69.992
X133.625Y-79.275
X133.685Y-81.715
X133.69Y-78.2
X133.74Y-75.09
X133.77Y-82.52
X133.86Y-47.7
X133.875Y-72.23
X133.91Y-93.86
X133.93Y-83.79
X133.96Y-71.47
X133.975Y-59.175
X134.205Y-72.965
X134.245Y-79.305
X134.3Y-69.35
X134.33Y-86.04
X134.48Y-69.91
X134.67Y-74.05
X134.775Y-59.9
X134.81Y-55.54
X134.84Y-56.785
X134.845Y-79.295
X134.865Y-81.7
X135.075Y-65.1
X135.075Y-67.123
X135.085Y-73.555
X135.1Y-64.45
X135.116Y-63.463
X135.15Y-62.8
X135.175Y-66.3
X135.24Y-53.125
X135.241Y-67.873
X135.265Y-90.71
X135.3Y-51.439
X135.306Y-97.355
X135.307Y-96.546
X135.31Y-72.46
X135.4Y-48.07
X135.4Y-70.175
X135.408Y-70.97
X135.425Y-54.45
X135.48Y-56.23
X135.53Y-82.88
X135.578Y-73.374
X135.88Y-80.64
X135.919Y-76.652
X136.05Y-59.95
X136.075Y-59.275
X136.089Y-88.348
X136.269Y-67.691
X136.31Y-72.48
X136.314Y-55.733
X136.32Y-77.277
X136.322Y-73.285
X136.325Y-70.02
X136.331Y-65.277
X136.338Y-70.895
X136.347Y-68.486
X136.397Y-63.247
X136.497Y-57.378
X136.631Y-51.519
X136.69Y-87.68
X136.725Y-56.275
X136.731Y-76.646
X136.925Y-60.55
X137.043Y-64.51
X137.11Y-75.644
X137.142Y-65.287
X137.15Y-67.75
X137.16Y-70.968
X137.165Y-66.087
X137.165Y-66.909
X137.165Y-72.465
X137.175Y-68.525
X137.205Y-70.11
X137.22Y-91.11
X137.24Y-88.52
X137.352Y-81.576
X137.372Y-77.104
X137.4Y-51.475
X137.53Y-63.306
X137.56Y-80.2
X137.71Y-87.61
X137.725Y-59.0
X137.905Y-75.69
X137.916Y-65.326
X137.917Y-64.571
X137.925Y-66.93
X137.929Y-66.126
X137.93Y-74.923
X137.956Y-68.521
X137.973Y-67.722
X137.998Y-70.917
X137.998Y-73.279
X138.047Y-60.453
X138.132Y-76.484
X138.24Y-88.5
X138.41Y-86.99
X138.45Y-59.025
X138.5Y-49.0
X138.638Y-81.106
X138.641Y-73.979
X138.698Y-65.33
X138.7Y-59.625
X138.71Y-70.891
X138.715Y-69.374
X138.73Y-73.323
X138.735Y-72.492
X138.741Y-66.943
X138.747Y-64.525
X138.747Y-75.7
X138.75Y-66.125
X138.75Y-74.87
X138.76Y-67.721
X138.768Y-68.556
X139.032Y-83.347
X139.24Y-88.51
X139.3Y-81.15
X139.325Y-53.43
X139.389Y-91.379
X139.501Y-64.564
X139.51Y-75.67
X139.514Y-74.059
X139.534Y-65.329
X139.54Y-73.3
X139.547Y-70.894
X139.57Y-67.733
X139.583Y-66.909
X139.595Y-66.013
X139.654Y-63.306
X139.757Y-57.627
X139.79Y-59.05
X139.84Y-55.529
X139.88Y-81.75
X139.9Y-54.922
X140.059Y-53.832
X140.105Y-53.095
X140.225Y-88.467
X140.226Y-73.374
X140.313Y-71.736
X140.34Y-74.9
X140.341Y-70.079
X140.352Y-75.689
X140.356Y-64.579
X140.357Y-65.329
X140.362Y-67.675
X140.37Y-70.937
X140.375Y-51.525
X140.375Y-66.9
X140.415Y-63.306
X140.543Y-91.211
X140.61Y-81.75
X140.81Y-52.39
X140.98Y-47.5
X141.07Y-60.02
X141.113Y-66.113
X141.117Y-71.736
X141.123Y-64.563
X141.124Y-74.1
X141.128Y-65.202
X141.13Y-70.928
X141.131Y-66.881
X141.147Y-68.501
X141.158Y-70.078
X141.175Y-72.425
X141.226Y-91.182
X141.48Y-95.31
X141.6Y-48.875
X141.74Y-88.5
X141.78Y-52.41
X141.84Y-81.68
X141.853Y-68.412
X141.867Y-74.931
X141.9Y-66.081
X141.92Y-71.736
X141.937Y-73.352
X141.945Y-66.875
X141.95Y-72.4
X141.953Y-74.1
X141.953Y-75.7
X141.959Y-70.937
X141.96Y-70.079
X141.98Y-76.7
X142.18Y-80.12
X142.181Y-60.144
X142.229Y-91.188
X142.61Y-81.67
X142.635Y-53.981
X142.657Y-66.081
X142.713Y-65.262
X142.713Y-70.106
X142.726Y-70.907
X142.752Y-74.85
X142.76Y-79.84
X142.781Y-64.542
X142.82Y-86.68
X142.85Y-72.4
X142.957Y-91.223
X143.005Y-53.165
X143.011Y-52.518
X143.015Y-63.346
X143.24Y-88.51
X143.465Y-65.328
X143.487Y-52.11
X143.51Y-70.08
X143.511Y-66.826
X143.53Y-71.736
X143.538Y-72.487
X143.567Y-70.937
X143.57Y-47.53
X143.67Y-59.666
X143.671Y-67.876
X143.792Y-91.15
X144.135Y-63.429
X144.261Y-64.469
X144.29Y-74.95
X144.3Y-66.125
X144.303Y-74.1
X144.31Y-65.328
X144.32Y-95.14
X144.326Y-70.885
X144.346Y-55.019
X144.347Y-69.368
X144.36Y-57.753
X144.452Y-67.837
X144.74Y-88.51
X144.796Y-52.317
X144.824Y-81.718
X144.912Y-91.201
X144.964Y-63.72
X145.054Y-64.538
X145.062Y-48.843
X145.12Y-66.925
X145.12Y-67.784
X145.14Y-70.92
X145.2Y-65.288
X145.295Y-60.36
X145.545Y-52.03
X145.655Y-81.375
X145.75Y-88.41
X145.83Y-66.889
X145.839Y-91.018
X145.885Y-63.125
X145.902Y-64.574
X145.915Y-72.485
X145.95Y-71.674
X146.0Y-63.708
X146.025Y-52.915
X146.212Y-84.161
X146.22Y-81.29
X146.415Y-52.535
X146.655Y-66.745
X146.725Y-72.485
X146.74Y-75.68
X146.755Y-70.954
X146.76Y-71.679
X146.765Y-67.695
X146.78Y-73.36
X147.025Y-51.675
X147.075Y-52.4
X147.15Y-63.425
X147.234Y-62.85
X147.45Y-66.86
X147.51Y-66.075
X147.7Y-52.425
X147.89Y-88.29
X147.955Y-55.019
X147.965Y-81.095
X147.97Y-48.525
X147.984Y-57.767
X148.25Y-62.925
X148.375Y-60.025
X148.45Y-51.675
X148.565Y-89.041
X148.58Y-76.105
X148.62Y-59.156
X148.75Y-86.47
X148.85Y-53.35
X148.895Y-70.875
X148.931Y-67.788
X149.4Y-70.25
X149.45Y-69.42
X149.5Y-48.975
X149.541Y-83.34
X149.57Y-81.62
X149.66Y-70.949
X149.684Y-66.476
X149.684Y-67.001
X149.688Y-62.9
X149.695Y-65.87
X149.718Y-51.4
X149.718Y-53.55
X149.88Y-91.01
X149.96Y-70.255
X149.975Y-48.575
X149.992Y-94.581
X150.485Y-64.461
X150.494Y-62.768
X150.53Y-83.433
X150.538Y-65.39
X150.563Y-66.012
X150.612Y-51.475
X150.825Y-63.175
X150.865Y-97.201
X151.36Y-65.47
X151.469Y-59.223
X151.55Y-51.35
X151.715Y-49.05
X151.92Y-54.09
X151.92Y-56.0
X152.068Y-91.262
X152.068Y-92.038
X152.105Y-69.865
X152.647Y-97.234
X152.725Y-48.375
X152.769Y-50.1
X152.775Y-56.93
X152.855Y-66.029
X153.055Y-64.635
X153.075Y-81.225
X153.09Y-69.82
X153.2Y-57.51
X153.27Y-82.95
X153.35Y-68.94
X153.55Y-58.74
X153.615Y-62.995
X153.625Y-52.125
X153.892Y-66.19
X153.9Y-64.875
X153.948Y-82.027
X153.95Y-96.69
X154.047Y-58.3
X154.14Y-55.04
X154.15Y-88.21
X154.23Y-53.49
X154.23Y-54.08
X154.42Y-65.255
X154.43Y-67.8
X154.445Y-87.235
X155.205Y-91.92
X155.21Y-93.435
X155.21Y-94.575
X155.22Y-90.55
X155.285Y-65.57
X155.702Y-49.213
X155.71Y-51.817
X155.72Y-62.94
X155.805Y-65.035
X155.875Y-81.051
X156.26Y-62.93
X156.7Y-52.48
X156.75Y-62.935
X156.78Y-65.38
X156.995Y-91.91
X157.0Y-90.54
X157.01Y-93.435
X157.01Y-94.57
X157.335Y-63.96
X157.48Y-55.0
X157.55Y-54.1
X157.57Y-53.51
X157.79Y-89.45
X157.805Y-63.98
X158.225Y-77.626
X158.36Y-57.78
X158.69Y-50.49
X158.77Y-52.51
X158.81Y-64.84
X159.07Y-54.16
X159.08Y-94.08
X159.23Y-50.72
X159.265Y-74.738
X159.313Y-77.626
X159.48Y-48.76
X159.48Y-96.04
X159.643Y-67.843
X159.9Y-50.72
X159.933Y-81.707
X160.03Y-56.94
X160.07Y-52.77
X160.215Y-65.046
X160.55Y-50.72
X160.64Y-56.95
X160.856Y-83.039
X160.856Y-84.113
X160.9Y-93.64
X161.02Y-88.98
X161.23Y-56.95
X161.25Y-50.69
X161.251Y-65.656
X161.267Y-65.056
X161.431Y-77.075
X161.83Y-56.959
X161.91Y-50.7
X162.18Y-88.554
X162.67Y-50.72
X162.688Y-84.476
X162.713Y-82.96
X162.788Y-95.468
X162.809Y-96.353
X162.81Y-56.96
X163.01Y-67.794
X163.04Y-66.69
X163.28Y-50.7
X163.37Y-54.48
X163.46Y-70.58
X163.539Y-92.804
X163.56Y-56.94
X164.29Y-58.58
X164.361Y-95.448
X164.361Y-96.373
X164.418Y-82.917
X164.427Y-84.502
X164.76Y-69.7
X164.79Y-54.82
X164.82Y-55.43
X165.47Y-78.79
X165.535Y-87.845
X165.71Y-64.26
X166.19Y-83.43
X166.2Y-71.68
X166.55Y-71.225
X166.75Y-85.34
X166.84Y-67.025
X166.877Y-62.944
X167.42Y-80.89
X167.42Y-83.36
X167.51Y-68.72
X167.861Y-62.944
X168.058Y-69.265
X168.2Y-77.645
X168.311Y-65.554
X168.61Y-49.79
X168.61Y-80.77
X168.688Y-71.45
X168.688Y-72.145
X168.688Y-72.785
X168.688Y-73.48
X169.055Y-75.715
X169.14Y-59.79
X169.446Y-71.45
X169.446Y-72.145
X169.446Y-72.785
X169.446Y-73.48
X169.555Y-68.395
X169.88Y-83.35
X169.89Y-80.88
X170.06Y-69.355
X170.205Y-71.45
X170.205Y-72.145
X170.205Y-72.785
X170.205Y-73.48
X170.409Y-63.002
X170.5Y-60.677
X170.56Y-68.44
X170.83Y-80.795
X170.964Y-71.45
X170.964Y-72.145
X170.964Y-72.785
X170.964Y-73.48
X171.044Y-60.677
X171.55Y-68.49
X171.79Y-80.815
X172.195Y-75.155
X172.285Y-52.467
X172.285Y-53.065
X172.29Y-53.665
X172.51Y-68.38
X172.96Y-52.467
X172.96Y-53.065
X172.965Y-53.665
X173.335Y-71.72
X173.37Y-71.1
X173.605Y-68.585
X173.635Y-52.467
X173.635Y-53.065
X173.64Y-53.665
X173.65Y-83.31
X173.67Y-80.84
X173.91Y-49.28
X173.936Y-56.94
X174.3Y-66.81
X174.31Y-52.467
X174.31Y-53.065
X174.315Y-53.665
X174.87Y-59.54
X174.94Y-46.28
X175.0Y-80.76
X175.42Y-43.83
X175.44Y-60.33
X175.57Y-73.46
X175.675Y-63.6
X175.68Y-70.74
X175.73Y-72.5
X176.095Y-77.345
X176.28Y-83.28
X176.3Y-80.85
X176.41Y-52.28
X176.5Y-70.75
X176.675Y-68.2
X176.7Y-65.7
X176.79Y-46.36
X177.03Y-91.995
X177.045Y-94.97
X177.06Y-56.86
X177.43Y-76.96
X177.61Y-80.76
X177.63Y-79.47
X177.95Y-68.2
X178.05Y-65.75
X178.06Y-62.09
X178.075Y-70.825
X178.21Y-58.81
X178.5Y-60.41
X179.183Y-45.281
X179.192Y-45.875
X179.225Y-68.2
X179.249Y-48.731
X179.263Y-48.186
X179.35Y-65.6
X179.7Y-70.875
X179.88Y-79.35
X180.14Y-60.21
X180.475Y-68.25
X180.55Y-65.6
X180.6Y-70.775
X180.68Y-78.87
X180.99Y-55.72
X181.51Y-63.59
X182.38Y-88.87
X182.42Y-84.79
X182.699Y-45.686
X182.699Y-46.269
X182.93Y-86.12
X183.0Y-70.375
X183.025Y-69.8
X183.23Y-57.75
X183.24Y-88.02
X183.3Y-56.18
X183.3Y-93.99
X183.56Y-81.22
X183.886Y-52.436
X184.06Y-54.09
X184.9Y-92.98
X185.03Y-60.28
X185.46Y-82.03
X187.13Y-93.29
X188.1Y-56.5
X188.32Y-60.68
X189.94Y-56.29
X191.43Y-84.13
X191.8Y-79.93
X191.99Y-83.6
T3
X112.23Y-71.89
X112.23Y-73.89
X112.23Y-75.89
X112.23Y-77.89
X112.23Y-82.88
X112.23Y-84.88
X112.23Y-86.88
X112.23Y-88.88
X186.56Y-57.19
X186.56Y-59.19
T4
X116.665Y-75.09
X116.665Y-77.09
X116.665Y-79.09
X116.665Y-81.09
X116.665Y-83.09
X116.665Y-85.09
X116.665Y-87.09
T5
X181.0Y-80.94
X181.0Y-83.23
X181.0Y-92.37
X181.0Y-94.66
X185.82Y-85.27
X185.82Y-87.3
X185.82Y-89.33
X185.82Y-91.36
X187.6Y-84.25
X187.6Y-86.28
X187.6Y-88.31
X187.6Y-90.34
T6
X184.6Y-66.9
X184.6Y-69.4
X184.6Y-71.4
X184.6Y-73.9
X187.22Y-66.9
X187.22Y-69.4
X187.22Y-71.4
X187.22Y-73.9
T7
X116.91Y-44.25
X116.91Y-46.79
X119.45Y-44.25
X119.45Y-46.79
X121.99Y-44.25
X121.99Y-46.79
X124.53Y-44.25
X124.53Y-46.79
X127.07Y-44.25
X127.07Y-46.79
X128.525Y-92.17
X128.525Y-94.71
X129.61Y-44.25
X129.61Y-46.79
X132.15Y-44.25
X132.15Y-46.79
X134.69Y-44.25
X134.69Y-46.79
X137.23Y-44.25
X137.23Y-46.79
X139.77Y-44.25
X139.77Y-46.79
X142.31Y-44.25
X142.31Y-46.79
X144.85Y-44.25
X144.85Y-46.79
X147.39Y-44.25
X147.39Y-46.79
X149.93Y-44.25
X149.93Y-46.79
X152.47Y-44.25
X152.47Y-46.79
X155.01Y-44.25
X155.01Y-46.79
X157.55Y-44.25
X157.55Y-46.79
X160.09Y-44.25
X160.09Y-46.79
X162.63Y-44.25
X162.63Y-46.79
X165.17Y-44.25
X165.17Y-46.79
T8
X189.45Y-47.08
X189.45Y-52.08
T9
X132.64Y-95.65
X133.24Y-90.75
X147.74Y-90.75
X148.34Y-95.65
T10
X186.71Y-79.67
X186.71Y-95.93
T11
X184.25Y-63.83
X184.25Y-76.97
X189.93Y-63.83
X189.93Y-76.97
T12
X111.98Y-45.65
X111.98Y-94.65
X169.98Y-45.65
X169.98Y-94.65
T2
G00X116.65Y-91.1
M15
G01X116.65Y-92.2
M16
G05
G00X116.65Y-95.53
M15
G01X116.65Y-96.13
M16
G05
G00X125.29Y-91.1
M15
G01X125.29Y-92.2
M16
G05
G00X125.29Y-95.53
M15
G01X125.29Y-96.13
M16
G05
M30
