%TF.GenerationSoftware,KiCad,Pcbnew,7.0.2*%
%TF.CreationDate,2023-10-25T01:51:15+05:00*%
%TF.ProjectId,Karnix_ASB,4b61726e-6978-45f4-9153-422e6b696361,V1.0*%
%TF.SameCoordinates,Original*%
%TF.FileFunction,Soldermask,Bot*%
%TF.FilePolarity,Negative*%
%FSLAX46Y46*%
G04 Gerber Fmt 4.6, Leading zero omitted, Abs format (unit mm)*
G04 Created by KiCad (PCBNEW 7.0.2) date 2023-10-25 01:51:15*
%MOMM*%
%LPD*%
G01*
G04 APERTURE LIST*
G04 Aperture macros list*
%AMRoundRect*
0 Rectangle with rounded corners*
0 $1 Rounding radius*
0 $2 $3 $4 $5 $6 $7 $8 $9 X,Y pos of 4 corners*
0 Add a 4 corners polygon primitive as box body*
4,1,4,$2,$3,$4,$5,$6,$7,$8,$9,$2,$3,0*
0 Add four circle primitives for the rounded corners*
1,1,$1+$1,$2,$3*
1,1,$1+$1,$4,$5*
1,1,$1+$1,$6,$7*
1,1,$1+$1,$8,$9*
0 Add four rect primitives between the rounded corners*
20,1,$1+$1,$2,$3,$4,$5,0*
20,1,$1+$1,$4,$5,$6,$7,0*
20,1,$1+$1,$6,$7,$8,$9,0*
20,1,$1+$1,$8,$9,$2,$3,0*%
G04 Aperture macros list end*
%ADD10C,0.200000*%
%ADD11C,0.100000*%
%ADD12C,0.000000*%
%ADD13C,0.150000*%
%ADD14R,1.700000X1.700000*%
%ADD15O,1.700000X1.700000*%
%ADD16C,5.500000*%
%ADD17C,0.650000*%
%ADD18O,1.000000X2.100000*%
%ADD19O,1.000000X1.600000*%
%ADD20RoundRect,0.250000X-0.625000X0.350000X-0.625000X-0.350000X0.625000X-0.350000X0.625000X0.350000X0*%
%ADD21O,1.750000X1.200000*%
%ADD22C,3.200000*%
%ADD23C,3.300000*%
%ADD24C,1.600000*%
%ADD25C,2.400000*%
%ADD26R,1.350000X1.350000*%
%ADD27O,1.350000X1.350000*%
%ADD28C,1.800000*%
%ADD29C,1.700000*%
%ADD30RoundRect,0.250000X0.625000X-0.350000X0.625000X0.350000X-0.625000X0.350000X-0.625000X-0.350000X0*%
%ADD31RoundRect,0.150000X-0.150000X0.150000X-0.150000X-0.150000X0.150000X-0.150000X0.150000X0.150000X0*%
%ADD32RoundRect,0.150000X-0.150000X-0.150000X0.150000X-0.150000X0.150000X0.150000X-0.150000X0.150000X0*%
%ADD33RoundRect,0.200000X-0.200000X0.250000X-0.200000X-0.250000X0.200000X-0.250000X0.200000X0.250000X0*%
%ADD34RoundRect,0.150000X0.150000X-0.150000X0.150000X0.150000X-0.150000X0.150000X-0.150000X-0.150000X0*%
%ADD35RoundRect,0.150000X0.587500X0.150000X-0.587500X0.150000X-0.587500X-0.150000X0.587500X-0.150000X0*%
%ADD36RoundRect,0.150000X0.150000X0.150000X-0.150000X0.150000X-0.150000X-0.150000X0.150000X-0.150000X0*%
%ADD37RoundRect,0.140000X-0.140000X-0.170000X0.140000X-0.170000X0.140000X0.170000X-0.140000X0.170000X0*%
%ADD38RoundRect,0.135000X0.185000X-0.135000X0.185000X0.135000X-0.185000X0.135000X-0.185000X-0.135000X0*%
%ADD39RoundRect,0.400000X1.500000X-0.400000X1.500000X0.400000X-1.500000X0.400000X-1.500000X-0.400000X0*%
%ADD40RoundRect,0.225000X0.575000X-0.225000X0.575000X0.225000X-0.575000X0.225000X-0.575000X-0.225000X0*%
%ADD41RoundRect,0.140000X0.170000X-0.140000X0.170000X0.140000X-0.170000X0.140000X-0.170000X-0.140000X0*%
%ADD42RoundRect,0.140000X-0.170000X0.140000X-0.170000X-0.140000X0.170000X-0.140000X0.170000X0.140000X0*%
%ADD43RoundRect,0.140000X0.140000X0.170000X-0.140000X0.170000X-0.140000X-0.170000X0.140000X-0.170000X0*%
%ADD44RoundRect,0.135000X0.135000X0.185000X-0.135000X0.185000X-0.135000X-0.185000X0.135000X-0.185000X0*%
%ADD45RoundRect,0.135000X-0.135000X-0.185000X0.135000X-0.185000X0.135000X0.185000X-0.135000X0.185000X0*%
%ADD46RoundRect,0.225000X-0.225000X-0.250000X0.225000X-0.250000X0.225000X0.250000X-0.225000X0.250000X0*%
%ADD47RoundRect,0.218750X-0.256250X0.218750X-0.256250X-0.218750X0.256250X-0.218750X0.256250X0.218750X0*%
%ADD48RoundRect,0.135000X-0.185000X0.135000X-0.185000X-0.135000X0.185000X-0.135000X0.185000X0.135000X0*%
%ADD49RoundRect,0.218750X0.256250X-0.218750X0.256250X0.218750X-0.256250X0.218750X-0.256250X-0.218750X0*%
%ADD50RoundRect,0.150000X-0.725000X-0.150000X0.725000X-0.150000X0.725000X0.150000X-0.725000X0.150000X0*%
%ADD51RoundRect,0.450000X-0.450000X0.800000X-0.450000X-0.800000X0.450000X-0.800000X0.450000X0.800000X0*%
%ADD52RoundRect,0.250000X-0.250000X-0.475000X0.250000X-0.475000X0.250000X0.475000X-0.250000X0.475000X0*%
%ADD53RoundRect,0.250000X0.250000X0.475000X-0.250000X0.475000X-0.250000X-0.475000X0.250000X-0.475000X0*%
%ADD54RoundRect,0.225000X-0.250000X0.225000X-0.250000X-0.225000X0.250000X-0.225000X0.250000X0.225000X0*%
%ADD55RoundRect,0.150000X0.512500X0.150000X-0.512500X0.150000X-0.512500X-0.150000X0.512500X-0.150000X0*%
%ADD56RoundRect,0.218750X0.218750X0.256250X-0.218750X0.256250X-0.218750X-0.256250X0.218750X-0.256250X0*%
%ADD57RoundRect,0.275000X-0.275000X0.275000X-0.275000X-0.275000X0.275000X-0.275000X0.275000X0.275000X0*%
%ADD58RoundRect,0.150000X-0.150000X0.725000X-0.150000X-0.725000X0.150000X-0.725000X0.150000X0.725000X0*%
%ADD59RoundRect,0.250000X0.450000X-0.262500X0.450000X0.262500X-0.450000X0.262500X-0.450000X-0.262500X0*%
%ADD60RoundRect,0.150000X0.150000X-0.725000X0.150000X0.725000X-0.150000X0.725000X-0.150000X-0.725000X0*%
%ADD61RoundRect,0.243750X-0.243750X-0.456250X0.243750X-0.456250X0.243750X0.456250X-0.243750X0.456250X0*%
%ADD62RoundRect,0.150000X0.725000X0.150000X-0.725000X0.150000X-0.725000X-0.150000X0.725000X-0.150000X0*%
%ADD63RoundRect,0.137500X0.137500X-0.625000X0.137500X0.625000X-0.137500X0.625000X-0.137500X-0.625000X0*%
%ADD64RoundRect,0.225000X0.225000X0.250000X-0.225000X0.250000X-0.225000X-0.250000X0.225000X-0.250000X0*%
%ADD65R,2.100000X1.700000*%
%ADD66RoundRect,0.225000X0.250000X-0.225000X0.250000X0.225000X-0.250000X0.225000X-0.250000X-0.225000X0*%
%ADD67RoundRect,0.218750X-0.218750X-0.256250X0.218750X-0.256250X0.218750X0.256250X-0.218750X0.256250X0*%
%ADD68RoundRect,0.275000X-0.275000X-0.275000X0.275000X-0.275000X0.275000X0.275000X-0.275000X0.275000X0*%
%ADD69RoundRect,0.350000X-0.450000X0.350000X-0.450000X-0.350000X0.450000X-0.350000X0.450000X0.350000X0*%
%ADD70RoundRect,0.162500X-0.162500X0.367500X-0.162500X-0.367500X0.162500X-0.367500X0.162500X0.367500X0*%
%ADD71RoundRect,0.243750X0.456250X-0.243750X0.456250X0.243750X-0.456250X0.243750X-0.456250X-0.243750X0*%
G04 APERTURE END LIST*
D10*
X173984326Y-54405719D02*
X173986095Y-54406123D01*
X173463466Y-52738455D02*
X173457222Y-52743546D01*
X174318661Y-49577895D02*
X174315193Y-49580069D01*
X170351460Y-51203817D02*
X170348698Y-51207361D01*
X173043368Y-50909151D02*
X173092917Y-50915448D01*
D11*
X175994768Y-56083429D02*
X175997352Y-56095445D01*
D10*
X173662610Y-52572939D02*
X173619500Y-52615927D01*
D11*
X176174184Y-56232377D02*
X176190388Y-56231921D01*
D10*
X175085062Y-49055624D02*
X175081153Y-49056727D01*
X175113299Y-49057092D02*
X175109387Y-49055918D01*
X176483320Y-52346667D02*
X176483753Y-52344689D01*
X175772198Y-54022515D02*
X175771270Y-54020724D01*
X172264469Y-49315872D02*
X172261357Y-49319243D01*
X171892776Y-54406816D02*
X171894604Y-54406687D01*
D11*
X176359577Y-56016079D02*
X176360864Y-55990040D01*
D10*
X170632564Y-50537193D02*
X170632459Y-50541743D01*
X171576643Y-49583700D02*
X171572676Y-49582004D01*
X170774814Y-54722174D02*
X170778818Y-54723028D01*
D11*
X176329774Y-55727615D02*
X176324344Y-55717632D01*
D10*
X171519082Y-54235514D02*
X171523334Y-54234422D01*
X173371382Y-51001675D02*
X173414073Y-51023540D01*
X170110495Y-49751842D02*
X170111252Y-49753714D01*
X171625315Y-49585790D02*
X171621150Y-49586899D01*
X175087106Y-54722851D02*
X175089117Y-54723190D01*
X173979185Y-54403973D02*
X173980867Y-54404643D01*
X172552370Y-52836768D02*
X172551704Y-52834856D01*
X174329940Y-54234291D02*
X174334259Y-54233493D01*
X175109387Y-49055918D02*
X175105383Y-49055061D01*
X173964837Y-54392737D02*
X173966021Y-54394214D01*
X172993088Y-50905328D02*
X173043368Y-50909151D01*
X171881638Y-54405568D02*
X171883499Y-54406022D01*
X175253809Y-50519147D02*
X175254986Y-50514845D01*
X170117960Y-49703662D02*
X170116716Y-49705255D01*
X171612384Y-49588317D02*
X171607854Y-49588632D01*
D11*
X176360862Y-55885563D02*
X176359572Y-55859277D01*
D10*
X174004510Y-54404973D02*
X174006353Y-54404313D01*
X170107520Y-49737974D02*
X170107958Y-49742034D01*
D11*
X176127946Y-56228595D02*
X176142409Y-56230678D01*
D10*
X170753825Y-54710546D02*
X170755283Y-54711933D01*
X175524685Y-51188837D02*
X175257985Y-50566749D01*
X172840914Y-50909151D02*
X172891193Y-50905328D01*
X170119280Y-49702129D02*
X170117960Y-49703662D01*
X175279161Y-53255098D02*
X175280528Y-53251112D01*
X172464580Y-48358014D02*
X172463029Y-48359355D01*
X169400120Y-51435355D02*
X169399877Y-51437363D01*
X175566720Y-52557050D02*
X175570228Y-52554116D01*
X175278062Y-53259272D02*
X175279161Y-53255098D01*
X169419845Y-51403105D02*
X169416669Y-51405672D01*
X175545111Y-51217154D02*
X175541701Y-51214053D01*
X176455647Y-51397951D02*
X176453782Y-51397160D01*
X176469084Y-51407049D02*
X176467571Y-51405670D01*
X173871307Y-52236770D02*
X173860115Y-52265664D01*
X170108725Y-49746032D02*
X170109822Y-49749936D01*
D11*
X176324344Y-55717632D02*
X176318335Y-55708120D01*
D10*
X173433884Y-48377509D02*
X173433099Y-48375647D01*
X170607910Y-53272628D02*
X170607954Y-53277208D01*
X175101318Y-49054523D02*
X175097223Y-49054308D01*
X169406417Y-52359875D02*
X169407497Y-52361619D01*
D12*
G36*
X171818825Y-57633770D02*
G01*
X171818464Y-57649116D01*
X171817384Y-57664214D01*
X171815593Y-57679051D01*
X171813096Y-57693609D01*
X171809900Y-57707874D01*
X171806012Y-57721829D01*
X171801438Y-57735459D01*
X171796185Y-57748747D01*
X171790260Y-57761679D01*
X171783668Y-57774238D01*
X171776417Y-57786408D01*
X171768512Y-57798174D01*
X171759961Y-57809520D01*
X171750770Y-57820430D01*
X171740946Y-57830888D01*
X171730494Y-57840879D01*
X171719422Y-57850387D01*
X171707736Y-57859396D01*
X171695443Y-57867890D01*
X171682549Y-57875853D01*
X171669061Y-57883270D01*
X171654985Y-57890125D01*
X171640328Y-57896402D01*
X171625096Y-57902085D01*
X171609295Y-57907158D01*
X171592934Y-57911607D01*
X171576017Y-57915414D01*
X171558551Y-57918565D01*
X171540543Y-57921042D01*
X171522000Y-57922832D01*
X171502928Y-57923917D01*
X171483333Y-57924282D01*
X171459830Y-57923930D01*
X171437764Y-57922867D01*
X171417078Y-57921086D01*
X171397720Y-57918577D01*
X171379634Y-57915332D01*
X171362765Y-57911343D01*
X171347059Y-57906601D01*
X171332461Y-57901099D01*
X171318917Y-57894826D01*
X171306372Y-57887776D01*
X171294771Y-57879939D01*
X171284060Y-57871307D01*
X171274184Y-57861872D01*
X171265088Y-57851625D01*
X171256717Y-57840558D01*
X171249018Y-57828662D01*
X171245314Y-57828662D01*
X171245314Y-57913011D01*
X171054073Y-57913011D01*
X171054073Y-57579370D01*
X171245261Y-57579370D01*
X171245422Y-57592875D01*
X171245910Y-57605631D01*
X171246736Y-57617660D01*
X171247907Y-57628983D01*
X171249435Y-57639620D01*
X171251326Y-57649592D01*
X171253592Y-57658922D01*
X171256241Y-57667628D01*
X171259283Y-57675733D01*
X171262727Y-57683258D01*
X171266581Y-57690222D01*
X171270856Y-57696648D01*
X171275560Y-57702557D01*
X171280704Y-57707968D01*
X171286295Y-57712904D01*
X171292344Y-57717384D01*
X171298859Y-57721431D01*
X171305851Y-57725065D01*
X171313327Y-57728307D01*
X171321298Y-57731177D01*
X171329773Y-57733698D01*
X171338760Y-57735889D01*
X171348270Y-57737773D01*
X171358311Y-57739369D01*
X171380025Y-57741783D01*
X171403976Y-57743300D01*
X171430239Y-57744087D01*
X171458886Y-57744313D01*
X171482211Y-57743665D01*
X171503733Y-57741771D01*
X171523495Y-57738702D01*
X171541536Y-57734529D01*
X171549925Y-57732051D01*
X171557899Y-57729323D01*
X171565463Y-57726356D01*
X171572623Y-57723157D01*
X171579384Y-57719737D01*
X171585751Y-57716102D01*
X171591729Y-57712264D01*
X171597323Y-57708230D01*
X171602538Y-57704009D01*
X171607380Y-57699611D01*
X171611853Y-57695045D01*
X171615962Y-57690318D01*
X171619714Y-57685441D01*
X171623112Y-57680422D01*
X171626163Y-57675270D01*
X171628870Y-57669995D01*
X171633277Y-57659108D01*
X171636374Y-57647832D01*
X171638203Y-57636240D01*
X171638803Y-57624403D01*
X171638649Y-57617971D01*
X171638186Y-57611686D01*
X171637413Y-57605550D01*
X171636328Y-57599569D01*
X171634930Y-57593746D01*
X171633217Y-57588084D01*
X171631189Y-57582587D01*
X171628844Y-57577260D01*
X171626180Y-57572105D01*
X171623196Y-57567128D01*
X171619891Y-57562330D01*
X171616264Y-57557718D01*
X171612312Y-57553293D01*
X171608035Y-57549060D01*
X171603432Y-57545022D01*
X171598500Y-57541185D01*
X171593239Y-57537550D01*
X171587647Y-57534123D01*
X171581723Y-57530906D01*
X171575466Y-57527904D01*
X171568873Y-57525120D01*
X171561944Y-57522559D01*
X171554678Y-57520223D01*
X171547073Y-57518117D01*
X171539127Y-57516245D01*
X171530840Y-57514610D01*
X171522209Y-57513216D01*
X171513234Y-57512068D01*
X171503913Y-57511167D01*
X171494245Y-57510520D01*
X171484228Y-57510128D01*
X171473862Y-57509997D01*
X171245262Y-57509997D01*
X171245262Y-57579370D01*
X171245261Y-57579370D01*
X171054073Y-57579370D01*
X171054073Y-57264570D01*
X171054543Y-57243066D01*
X171055941Y-57222459D01*
X171058252Y-57202735D01*
X171061459Y-57183880D01*
X171065546Y-57165879D01*
X171070497Y-57148719D01*
X171076296Y-57132386D01*
X171082926Y-57116865D01*
X171090372Y-57102143D01*
X171098617Y-57088205D01*
X171107646Y-57075038D01*
X171117441Y-57062627D01*
X171127987Y-57050959D01*
X171139267Y-57040019D01*
X171151267Y-57029793D01*
X171163968Y-57020267D01*
X171177356Y-57011428D01*
X171191413Y-57003260D01*
X171206125Y-56995751D01*
X171221474Y-56988886D01*
X171237445Y-56982650D01*
X171254021Y-56977031D01*
X171271186Y-56972013D01*
X171288924Y-56967583D01*
X171307219Y-56963727D01*
X171326055Y-56960431D01*
X171365284Y-56955462D01*
X171406482Y-56952562D01*
X171449520Y-56951621D01*
X171475783Y-56952066D01*
X171501179Y-56953426D01*
X171525715Y-56955741D01*
X171549398Y-56959049D01*
X171572238Y-56963389D01*
X171594242Y-56968799D01*
X171615418Y-56975319D01*
X171635773Y-56982987D01*
X171655316Y-56991842D01*
X171674055Y-57001923D01*
X171691997Y-57013268D01*
X171709150Y-57025916D01*
X171725523Y-57039906D01*
X171741123Y-57055277D01*
X171755958Y-57072067D01*
X171770036Y-57090316D01*
X171620070Y-57204616D01*
X171616870Y-57199625D01*
X171613587Y-57194838D01*
X171610213Y-57190254D01*
X171606740Y-57185868D01*
X171603162Y-57181679D01*
X171599471Y-57177682D01*
X171595660Y-57173874D01*
X171591722Y-57170254D01*
X171587649Y-57166817D01*
X171583435Y-57163561D01*
X171579072Y-57160482D01*
X171574553Y-57157578D01*
X171569870Y-57154845D01*
X171565017Y-57152280D01*
X171559987Y-57149881D01*
X171554771Y-57147644D01*
X171549363Y-57145567D01*
X171543755Y-57143645D01*
X171537941Y-57141877D01*
X171531913Y-57140258D01*
X171525664Y-57138787D01*
X171519186Y-57137460D01*
X171512473Y-57136273D01*
X171505517Y-57135225D01*
X171490847Y-57133529D01*
X171475120Y-57132347D01*
X171458276Y-57131657D01*
X171440259Y-57131432D01*
X171415519Y-57131813D01*
X171392594Y-57132981D01*
X171371454Y-57134974D01*
X171352068Y-57137831D01*
X171334408Y-57141589D01*
X171318441Y-57146286D01*
X171304139Y-57151961D01*
X171297603Y-57155177D01*
X171291471Y-57158651D01*
X171285740Y-57162389D01*
X171280406Y-57166395D01*
X171275465Y-57170674D01*
X171270914Y-57175231D01*
X171266749Y-57180070D01*
X171262966Y-57185196D01*
X171259561Y-57190614D01*
X171256531Y-57196329D01*
X171253871Y-57202345D01*
X171251578Y-57208668D01*
X171249648Y-57215301D01*
X171248078Y-57222250D01*
X171246863Y-57229520D01*
X171246000Y-57237115D01*
X171245314Y-57253299D01*
X171245314Y-57352623D01*
X171509580Y-57352623D01*
X171528434Y-57352999D01*
X171546705Y-57354113D01*
X171564394Y-57355947D01*
X171581497Y-57358479D01*
X171598016Y-57361691D01*
X171613948Y-57365564D01*
X171629293Y-57370077D01*
X171644049Y-57375210D01*
X171658215Y-57380946D01*
X171671791Y-57387263D01*
X171684775Y-57394142D01*
X171697166Y-57401564D01*
X171708963Y-57409508D01*
X171720165Y-57417957D01*
X171730771Y-57426889D01*
X171740780Y-57436285D01*
X171750190Y-57446126D01*
X171759001Y-57456391D01*
X171767212Y-57467063D01*
X171774821Y-57478120D01*
X171781828Y-57489543D01*
X171788231Y-57501313D01*
X171794030Y-57513410D01*
X171799222Y-57525815D01*
X171803808Y-57538507D01*
X171807786Y-57551468D01*
X171811154Y-57564678D01*
X171813913Y-57578116D01*
X171816061Y-57591765D01*
X171817596Y-57605603D01*
X171818518Y-57619611D01*
X171818622Y-57624403D01*
X171818825Y-57633770D01*
G37*
D10*
X175771173Y-49757338D02*
X175772104Y-49755547D01*
X175769703Y-49708610D02*
X175768613Y-49706906D01*
X172178158Y-51264348D02*
X172209277Y-51228422D01*
X173607860Y-51161252D02*
X173642248Y-51194036D01*
X173740619Y-52479391D02*
X173703027Y-52527383D01*
X173339213Y-52822490D02*
X173336923Y-52825806D01*
X175115264Y-54720252D02*
X175117141Y-54719473D01*
X175070289Y-49062063D02*
X174318661Y-49577895D01*
X171568937Y-49580069D02*
X171565460Y-49577895D01*
X170801008Y-49056133D02*
X170799044Y-49055624D01*
X173703027Y-52527383D02*
X173662610Y-52572939D01*
X175577659Y-52548929D02*
X175581530Y-52546722D01*
X174314269Y-54240224D02*
X174317877Y-54238328D01*
D11*
X176157811Y-56231948D02*
X176174184Y-56232377D01*
D10*
X172548285Y-52827536D02*
X172547248Y-52825806D01*
X170810447Y-54718204D02*
X170812191Y-54717196D01*
X174009998Y-54402678D02*
X174314269Y-54240224D01*
X172433347Y-52748490D02*
X172427045Y-52743546D01*
X170604382Y-53299647D02*
X170602928Y-53303801D01*
X172454976Y-48368572D02*
X172453871Y-48370280D01*
D11*
X176059266Y-56200568D02*
X176068706Y-56206951D01*
D10*
X175251644Y-50537193D02*
X175251800Y-50532624D01*
X169436184Y-51395320D02*
X169434236Y-51395842D01*
X172554796Y-52852672D02*
X172554786Y-52850658D01*
D11*
X176278591Y-56205641D02*
X176287938Y-56198979D01*
D10*
X170111652Y-49714006D02*
X170110170Y-49717799D01*
X172237990Y-49335225D02*
X172236072Y-49335907D01*
X172466183Y-48356734D02*
X172464580Y-48358014D01*
X172547248Y-52825806D02*
X172546140Y-52824123D01*
D12*
G36*
X169599036Y-55452440D02*
G01*
X169619361Y-55454513D01*
X169639531Y-55457438D01*
X169659507Y-55461227D01*
X169679252Y-55465894D01*
X169698729Y-55471452D01*
X169717901Y-55477914D01*
X169736729Y-55485293D01*
X169755177Y-55493601D01*
X169773208Y-55502853D01*
X169790783Y-55513060D01*
X169807865Y-55524236D01*
X169824418Y-55536394D01*
X169840403Y-55549547D01*
X169855783Y-55563709D01*
X169870520Y-55578891D01*
X169884578Y-55595107D01*
X169897919Y-55612370D01*
X169910506Y-55630694D01*
X169922300Y-55650090D01*
X169933266Y-55670573D01*
X169943364Y-55692155D01*
X169952558Y-55714849D01*
X169960811Y-55738668D01*
X169968085Y-55763625D01*
X169974342Y-55789734D01*
X169979546Y-55817007D01*
X169983658Y-55845457D01*
X169986641Y-55875097D01*
X169988459Y-55905941D01*
X169989073Y-55938002D01*
X169988459Y-55969912D01*
X169986641Y-56000616D01*
X169983658Y-56030124D01*
X169979546Y-56058450D01*
X169974342Y-56085607D01*
X169968085Y-56111607D01*
X169960811Y-56136464D01*
X169952558Y-56160189D01*
X169943364Y-56182796D01*
X169933266Y-56204298D01*
X169922300Y-56224707D01*
X169910506Y-56244035D01*
X169897919Y-56262297D01*
X169884578Y-56279504D01*
X169870520Y-56295669D01*
X169855783Y-56310805D01*
X169840403Y-56324926D01*
X169824418Y-56338042D01*
X169807865Y-56350168D01*
X169790783Y-56361316D01*
X169773208Y-56371499D01*
X169755177Y-56380729D01*
X169736729Y-56389020D01*
X169717901Y-56396384D01*
X169679252Y-56408382D01*
X169639531Y-56416826D01*
X169599036Y-56421817D01*
X169558067Y-56423458D01*
X169531361Y-56422656D01*
X169505358Y-56420291D01*
X169480063Y-56416427D01*
X169455479Y-56411127D01*
X169431607Y-56404455D01*
X169408453Y-56396474D01*
X169386018Y-56387247D01*
X169364306Y-56376839D01*
X169343320Y-56365311D01*
X169323064Y-56352729D01*
X169303540Y-56339154D01*
X169284751Y-56324651D01*
X169266702Y-56309283D01*
X169249394Y-56293114D01*
X169232832Y-56276206D01*
X169217018Y-56258623D01*
X169357565Y-56133052D01*
X169366586Y-56143743D01*
X169376076Y-56154002D01*
X169386022Y-56163794D01*
X169396410Y-56173084D01*
X169407227Y-56181835D01*
X169418457Y-56190013D01*
X169430088Y-56197581D01*
X169442106Y-56204503D01*
X169454497Y-56210745D01*
X169467246Y-56216270D01*
X169480340Y-56221043D01*
X169493765Y-56225028D01*
X169507508Y-56228190D01*
X169521553Y-56230492D01*
X169528686Y-56231310D01*
X169535888Y-56231900D01*
X169543160Y-56232257D01*
X169550499Y-56232377D01*
X169564892Y-56232118D01*
X169578907Y-56231337D01*
X169592539Y-56230028D01*
X169605783Y-56228186D01*
X169618633Y-56225806D01*
X169631085Y-56222882D01*
X169643133Y-56219409D01*
X169654772Y-56215380D01*
X169665997Y-56210791D01*
X169676803Y-56205637D01*
X169687183Y-56199911D01*
X169697135Y-56193608D01*
X169706651Y-56186723D01*
X169715727Y-56179251D01*
X169724358Y-56171185D01*
X169732539Y-56162520D01*
X169740264Y-56153252D01*
X169747528Y-56143374D01*
X169754326Y-56132880D01*
X169760653Y-56121766D01*
X169766504Y-56110026D01*
X169771873Y-56097655D01*
X169776755Y-56084646D01*
X169781145Y-56070995D01*
X169785039Y-56056696D01*
X169788430Y-56041744D01*
X169791313Y-56026133D01*
X169793684Y-56009857D01*
X169795537Y-55992912D01*
X169796867Y-55975291D01*
X169797669Y-55956989D01*
X169797937Y-55938002D01*
X169796868Y-55900406D01*
X169793686Y-55865574D01*
X169791316Y-55849180D01*
X169788434Y-55833459D01*
X169785045Y-55818406D01*
X169781153Y-55804015D01*
X169776764Y-55790280D01*
X169771883Y-55777194D01*
X169766516Y-55764753D01*
X169760667Y-55752951D01*
X169754342Y-55741781D01*
X169747545Y-55731237D01*
X169740283Y-55721315D01*
X169732559Y-55712008D01*
X169724380Y-55703310D01*
X169715750Y-55695215D01*
X169706674Y-55687718D01*
X169697158Y-55680813D01*
X169687207Y-55674494D01*
X169676826Y-55668755D01*
X169666020Y-55663590D01*
X169654795Y-55658993D01*
X169643155Y-55654960D01*
X169631105Y-55651482D01*
X169618651Y-55648556D01*
X169605798Y-55646175D01*
X169578916Y-55643025D01*
X169550499Y-55641986D01*
X169535888Y-55642463D01*
X169521551Y-55643870D01*
X169507503Y-55646173D01*
X169493758Y-55649334D01*
X169480329Y-55653320D01*
X169467232Y-55658093D01*
X169454479Y-55663618D01*
X169442086Y-55669860D01*
X169430067Y-55676782D01*
X169418434Y-55684350D01*
X169407203Y-55692528D01*
X169396388Y-55701279D01*
X169386002Y-55710569D01*
X169376061Y-55720361D01*
X169366577Y-55730620D01*
X169357565Y-55741310D01*
X169217018Y-55615739D01*
X169232841Y-55598129D01*
X169249411Y-55581198D01*
X169266726Y-55565010D01*
X169284781Y-55549627D01*
X169303573Y-55535112D01*
X169323100Y-55521530D01*
X169343359Y-55508941D01*
X169364345Y-55497410D01*
X169386056Y-55487000D01*
X169408489Y-55477774D01*
X169431641Y-55469793D01*
X169455508Y-55463123D01*
X169480087Y-55457825D01*
X169505376Y-55453963D01*
X169518285Y-55452590D01*
X169531370Y-55451599D01*
X169544631Y-55450999D01*
X169558067Y-55450798D01*
X169599036Y-55452440D01*
G37*
D10*
X169399687Y-51441408D02*
X169399793Y-52336705D01*
X169404476Y-52356270D02*
X169405410Y-52358090D01*
D11*
X176219935Y-55645991D02*
X176205624Y-55643787D01*
D10*
X175105436Y-54722975D02*
X175109440Y-54722121D01*
X175530247Y-51200169D02*
X175528061Y-51196442D01*
X174290069Y-49588028D02*
X174285489Y-49588485D01*
X170631314Y-50523567D02*
X170631990Y-50528071D01*
X173860115Y-52265664D02*
X173848052Y-52294113D01*
X170756807Y-54713245D02*
X170758393Y-54714481D01*
X176459268Y-51399781D02*
X176457476Y-51398825D01*
X174325747Y-54235363D02*
X174329940Y-54234291D01*
X174369300Y-54236840D02*
X174373229Y-54238462D01*
D11*
X176346279Y-55771610D02*
X176342877Y-55760066D01*
D10*
X171922579Y-54387918D02*
X171923473Y-54386152D01*
X176484094Y-52342695D02*
X176484340Y-52340690D01*
D11*
X176361465Y-55911925D02*
X176360862Y-55885563D01*
D10*
X171970694Y-52086180D02*
X171960435Y-52023393D01*
X172428759Y-51047381D02*
X172470220Y-51023540D01*
X175257985Y-50566749D02*
X175256267Y-50563024D01*
X170115121Y-54017338D02*
X170114018Y-54019032D01*
X170804949Y-54720721D02*
X170806822Y-54719966D01*
D11*
X176361615Y-55938107D02*
X176361465Y-55911925D01*
D10*
X170112069Y-54022567D02*
X170111223Y-54024401D01*
X175276992Y-53286327D02*
X175276525Y-53281751D01*
X175773710Y-49751842D02*
X175774386Y-49749936D01*
X174000799Y-54405987D02*
X174002658Y-54405531D01*
X170597138Y-53314975D02*
X170115121Y-54017338D01*
D11*
X176359572Y-55859277D02*
X176357361Y-55833327D01*
X176101724Y-55652262D02*
X176089906Y-55656621D01*
D10*
X175124228Y-54715590D02*
X175125875Y-54714429D01*
X172536515Y-52813960D02*
X172534888Y-52812783D01*
D11*
X176353998Y-55807969D02*
X176351810Y-55795594D01*
D10*
X169423411Y-52377313D02*
X169425160Y-52378343D01*
X173977538Y-54403217D02*
X173979185Y-54403973D01*
D11*
X175986951Y-56019537D02*
X175989176Y-56045746D01*
D10*
X175768613Y-49706906D02*
X175767447Y-49705255D01*
X169402149Y-52350616D02*
X169402844Y-52352529D01*
X170115549Y-49706906D02*
X170114459Y-49708610D01*
X173343160Y-52817932D02*
X173341777Y-52819391D01*
X174365190Y-54235484D02*
X174369300Y-54236840D01*
X172549250Y-52829310D02*
X172548285Y-52827536D01*
X171983240Y-51646712D02*
X171996582Y-51599727D01*
X175073789Y-54718152D02*
X175075583Y-54719075D01*
X173603545Y-49285001D02*
X173436117Y-48385259D01*
X173982582Y-54405225D02*
X173984326Y-54405719D01*
X172258076Y-49322419D02*
X172254646Y-49325373D01*
X176455576Y-52380110D02*
X176457404Y-52379241D01*
X172209277Y-51228422D02*
X172242060Y-51194036D01*
X172439609Y-52753201D02*
X172433347Y-52748490D01*
X174343143Y-54232713D02*
X174347639Y-54232730D01*
X172243697Y-49332645D02*
X172241805Y-49333591D01*
X171507334Y-54240393D02*
X171511049Y-54238499D01*
D11*
X176318335Y-55708120D02*
X176311716Y-55699111D01*
D10*
X175767552Y-54072857D02*
X175768717Y-54071205D01*
D11*
X176245886Y-55652844D02*
X176233346Y-55649021D01*
D10*
X172077509Y-52376618D02*
X172049181Y-52322098D01*
X173444647Y-52753200D02*
X173438531Y-52757591D01*
X175776035Y-49725720D02*
X175775176Y-49721714D01*
X173636613Y-49330512D02*
X173632953Y-49328080D01*
D12*
G36*
X171008035Y-56028013D02*
G01*
X171008270Y-56039973D01*
X171008967Y-56051611D01*
X171010116Y-56062924D01*
X171011707Y-56073908D01*
X171013731Y-56084559D01*
X171016177Y-56094873D01*
X171019037Y-56104846D01*
X171022298Y-56114474D01*
X171025952Y-56123755D01*
X171029990Y-56132683D01*
X171034399Y-56141256D01*
X171039172Y-56149468D01*
X171044298Y-56157318D01*
X171049767Y-56164800D01*
X171055568Y-56171911D01*
X171061693Y-56178646D01*
X171068131Y-56185004D01*
X171074872Y-56190978D01*
X171081907Y-56196567D01*
X171089224Y-56201765D01*
X171096816Y-56206569D01*
X171104670Y-56210975D01*
X171112778Y-56214980D01*
X171121130Y-56218579D01*
X171129715Y-56221770D01*
X171138524Y-56224547D01*
X171147547Y-56226907D01*
X171156774Y-56228847D01*
X171166194Y-56230362D01*
X171175798Y-56231449D01*
X171185577Y-56232105D01*
X171195519Y-56232324D01*
X171205620Y-56232105D01*
X171215547Y-56231449D01*
X171225291Y-56230362D01*
X171234841Y-56228847D01*
X171244188Y-56226907D01*
X171253324Y-56224547D01*
X171262237Y-56221770D01*
X171270918Y-56218579D01*
X171279358Y-56214980D01*
X171287547Y-56210975D01*
X171295475Y-56206569D01*
X171303134Y-56201765D01*
X171310512Y-56196567D01*
X171317602Y-56190978D01*
X171324392Y-56185004D01*
X171330873Y-56178646D01*
X171337036Y-56171911D01*
X171342872Y-56164800D01*
X171348370Y-56157318D01*
X171353520Y-56149468D01*
X171358314Y-56141256D01*
X171362742Y-56132683D01*
X171366793Y-56123755D01*
X171370459Y-56114474D01*
X171373730Y-56104846D01*
X171376595Y-56094873D01*
X171379047Y-56084559D01*
X171381074Y-56073908D01*
X171382667Y-56062924D01*
X171383817Y-56051611D01*
X171384514Y-56039973D01*
X171384749Y-56028013D01*
X171384749Y-55462068D01*
X171575831Y-55462068D01*
X171575831Y-56093682D01*
X171575343Y-56113587D01*
X171573900Y-56132895D01*
X171571538Y-56151607D01*
X171568290Y-56169718D01*
X171564191Y-56187227D01*
X171559275Y-56204131D01*
X171553576Y-56220427D01*
X171547130Y-56236114D01*
X171539969Y-56251189D01*
X171532130Y-56265650D01*
X171523644Y-56279493D01*
X171514549Y-56292718D01*
X171504876Y-56305320D01*
X171494661Y-56317299D01*
X171483939Y-56328651D01*
X171472743Y-56339374D01*
X171461108Y-56349466D01*
X171449068Y-56358924D01*
X171436657Y-56367747D01*
X171423910Y-56375930D01*
X171410862Y-56383473D01*
X171397545Y-56390373D01*
X171383996Y-56396627D01*
X171370247Y-56402232D01*
X171356335Y-56407188D01*
X171342291Y-56411490D01*
X171313952Y-56418126D01*
X171285503Y-56422122D01*
X171271323Y-56423124D01*
X171257220Y-56423458D01*
X171238771Y-56423019D01*
X171220644Y-56421700D01*
X171202860Y-56419502D01*
X171185437Y-56416425D01*
X171168395Y-56412470D01*
X171151755Y-56407636D01*
X171135535Y-56401924D01*
X171119756Y-56395333D01*
X171104437Y-56387865D01*
X171089597Y-56379518D01*
X171075257Y-56370294D01*
X171061437Y-56360192D01*
X171048155Y-56349213D01*
X171035432Y-56337356D01*
X171023287Y-56324622D01*
X171011739Y-56311011D01*
X171008035Y-56311011D01*
X171008035Y-56412294D01*
X170816953Y-56412294D01*
X170816953Y-55462068D01*
X171008035Y-55462068D01*
X171008035Y-56028013D01*
G37*
D10*
X169415347Y-52371080D02*
X169416861Y-52372460D01*
X172490376Y-48346883D02*
X172488371Y-48347130D01*
X172538082Y-52815213D02*
X172536515Y-52813960D01*
X171898207Y-54406153D02*
X171899976Y-54405750D01*
X170107365Y-54044254D02*
X170107580Y-54048354D01*
X175283066Y-53307711D02*
X175281360Y-53303748D01*
X170767116Y-54719526D02*
X170770903Y-54721006D01*
X170107580Y-54048354D02*
X170108118Y-54052425D01*
X170107913Y-54036091D02*
X170107475Y-54040156D01*
X172552958Y-52838705D02*
X172552370Y-52836768D01*
X169428774Y-52380162D02*
X169430634Y-52380946D01*
D11*
X176351810Y-55795594D02*
X176349247Y-55783463D01*
X175992564Y-56071122D02*
X175994768Y-56083429D01*
D10*
X170107619Y-49729786D02*
X170107408Y-49733880D01*
X175280528Y-53251112D02*
X175282168Y-53247348D01*
X170114018Y-54019032D02*
X170113001Y-54020776D01*
X173430250Y-48370280D02*
X173429146Y-48368572D01*
X172544963Y-52822490D02*
X172543718Y-52820912D01*
X171565460Y-49577895D02*
X170813779Y-49062063D01*
X169402009Y-51427487D02*
X169401403Y-51429423D01*
X172414764Y-52733305D02*
X172409005Y-52728183D01*
X175597445Y-52541017D02*
X176445964Y-52383113D01*
X169420042Y-52375027D02*
X169421705Y-52376206D01*
X170812191Y-54717196D02*
X170813885Y-54716103D01*
X175776793Y-49733880D02*
X175776575Y-49729786D01*
X173435187Y-48381329D02*
X173434581Y-48379404D01*
X175072040Y-54717144D02*
X175073789Y-54718152D01*
X169408646Y-52363321D02*
X169409862Y-52364976D01*
X172478603Y-48349727D02*
X172476721Y-48350502D01*
X170605117Y-53255151D02*
X170606213Y-53259325D01*
X173189574Y-50935211D02*
X173236557Y-50948553D01*
X176467571Y-51405670D02*
X176466005Y-51404354D01*
D11*
X176287915Y-55675425D02*
X176278569Y-55668751D01*
X176190388Y-56231921D02*
X176205633Y-56230576D01*
D10*
X172449540Y-48379404D02*
X172448933Y-48381329D01*
X173611501Y-49304847D02*
X173609300Y-49300955D01*
D11*
X176349261Y-56091352D02*
X176354008Y-56066996D01*
D10*
X169418427Y-52373777D02*
X169420042Y-52375027D01*
X173605768Y-49293003D02*
X173604481Y-49288995D01*
X170770903Y-54721006D02*
X170774814Y-54722174D01*
X170607741Y-53281803D02*
X170607275Y-53286379D01*
X173329493Y-52848645D02*
X173329395Y-52852672D01*
X172534888Y-52812783D02*
X172533201Y-52811685D01*
X173848052Y-52294113D02*
X173835135Y-52322098D01*
X175127465Y-54713192D02*
X175128993Y-54711881D01*
X170335478Y-51220063D02*
X170331763Y-51222756D01*
X172694711Y-50935211D02*
X172742610Y-50924155D01*
X170114026Y-49759082D02*
X170115120Y-49760775D01*
X173433099Y-48375647D02*
X173432230Y-48373820D01*
X173632953Y-49328080D02*
X173629398Y-49325373D01*
X175572167Y-51232201D02*
X175568144Y-51230923D01*
X170624136Y-50502983D02*
X170626071Y-50506729D01*
X169425160Y-52378343D02*
X169426949Y-52379294D01*
X172264814Y-52615927D02*
X172221702Y-52572938D01*
X175252885Y-50523567D02*
X175253809Y-50519147D01*
X169413703Y-51408493D02*
X169410965Y-51411543D01*
X169438157Y-51394894D02*
X169436184Y-51395320D01*
X170109191Y-54030122D02*
X170108682Y-54032090D01*
X170765214Y-49059442D02*
X170763416Y-49060381D01*
X170334053Y-52578010D02*
X170335808Y-52581827D01*
X170626190Y-50566749D02*
X170359542Y-51188837D01*
X170298873Y-52544856D02*
X170302810Y-52546774D01*
X169401016Y-52346719D02*
X169401539Y-52348679D01*
X175770258Y-54018979D02*
X175769160Y-54017286D01*
D11*
X176174184Y-55641986D02*
X176157811Y-55642415D01*
D10*
X169403620Y-52354415D02*
X169404476Y-52356270D01*
X170108256Y-54034081D02*
X170107913Y-54036091D01*
X173414073Y-51023540D02*
X173455537Y-51047381D01*
X176484394Y-51437320D02*
X176484148Y-51435316D01*
X173407419Y-48350502D02*
X173405540Y-48349727D01*
X170782816Y-49054523D02*
X170778755Y-49055061D01*
X172550961Y-52832974D02*
X172550142Y-52831124D01*
X175770157Y-49759082D02*
X175771173Y-49757338D01*
X176480783Y-51423672D02*
X176479931Y-51421823D01*
D11*
X176190383Y-55642441D02*
X176174184Y-55641986D01*
D10*
X170761663Y-49061396D02*
X170759960Y-49062489D01*
X170770843Y-49057092D02*
X170768932Y-49057797D01*
X173913635Y-52086180D02*
X173907042Y-52117060D01*
X173329395Y-52852672D02*
X173329648Y-52856687D01*
X173987888Y-54406437D02*
X173989700Y-54406658D01*
D12*
G36*
X172522049Y-55973441D02*
G01*
X172520970Y-56007829D01*
X172519149Y-56039611D01*
X172516566Y-56068976D01*
X172513203Y-56096112D01*
X172509041Y-56121210D01*
X172504060Y-56144458D01*
X172498242Y-56166046D01*
X172491567Y-56186164D01*
X172484017Y-56204999D01*
X172475572Y-56222742D01*
X172466215Y-56239583D01*
X172455925Y-56255709D01*
X172444683Y-56271311D01*
X172432471Y-56286578D01*
X172419270Y-56301699D01*
X172409005Y-56312641D01*
X172397871Y-56323612D01*
X172385832Y-56334511D01*
X172372852Y-56345236D01*
X172358896Y-56355685D01*
X172343927Y-56365758D01*
X172327911Y-56375352D01*
X172310811Y-56384367D01*
X172301844Y-56388626D01*
X172292592Y-56392701D01*
X172283051Y-56396581D01*
X172273218Y-56400253D01*
X172263086Y-56403704D01*
X172252653Y-56406922D01*
X172241913Y-56409893D01*
X172230861Y-56412605D01*
X172219495Y-56415045D01*
X172207808Y-56417201D01*
X172195796Y-56419061D01*
X172183456Y-56420610D01*
X172170782Y-56421838D01*
X172157771Y-56422730D01*
X172144417Y-56423275D01*
X172130716Y-56423459D01*
X172103642Y-56422730D01*
X172077940Y-56420610D01*
X172053575Y-56417201D01*
X172030509Y-56412605D01*
X172008707Y-56406921D01*
X171988134Y-56400253D01*
X171968752Y-56392701D01*
X171950528Y-56384367D01*
X171933423Y-56375352D01*
X171917404Y-56365757D01*
X171902433Y-56355685D01*
X171888475Y-56345235D01*
X171875494Y-56334511D01*
X171863455Y-56323612D01*
X171852320Y-56312641D01*
X171842055Y-56301699D01*
X171828855Y-56286577D01*
X171816647Y-56271309D01*
X171805410Y-56255705D01*
X171795127Y-56239575D01*
X171785777Y-56222732D01*
X171777342Y-56204986D01*
X171769801Y-56186147D01*
X171763137Y-56166027D01*
X171757328Y-56144437D01*
X171752357Y-56121187D01*
X171748203Y-56096089D01*
X171744848Y-56068954D01*
X171742272Y-56039592D01*
X171740456Y-56007814D01*
X171739381Y-55973432D01*
X171739044Y-55938108D01*
X171930214Y-55938108D01*
X171930764Y-55984983D01*
X171931480Y-56005338D01*
X171932516Y-56023857D01*
X171933893Y-56040706D01*
X171935628Y-56056050D01*
X171937743Y-56070053D01*
X171940255Y-56082881D01*
X171943186Y-56094699D01*
X171946555Y-56105672D01*
X171950380Y-56115965D01*
X171954682Y-56125743D01*
X171959480Y-56135171D01*
X171964794Y-56144413D01*
X171970642Y-56153636D01*
X171977046Y-56163004D01*
X171979773Y-56166667D01*
X171982681Y-56170271D01*
X171989025Y-56177288D01*
X171996039Y-56184026D01*
X172003684Y-56190453D01*
X172011922Y-56196539D01*
X172020715Y-56202255D01*
X172030024Y-56207571D01*
X172039812Y-56212455D01*
X172050039Y-56216877D01*
X172060667Y-56220808D01*
X172071659Y-56224217D01*
X172082974Y-56227075D01*
X172094577Y-56229349D01*
X172106426Y-56231012D01*
X172118486Y-56232031D01*
X172130716Y-56232378D01*
X172142929Y-56232032D01*
X172154975Y-56231014D01*
X172166815Y-56229354D01*
X172178411Y-56227082D01*
X172189723Y-56224228D01*
X172200713Y-56220822D01*
X172211340Y-56216894D01*
X172221567Y-56212475D01*
X172231355Y-56207593D01*
X172240663Y-56202279D01*
X172249454Y-56196563D01*
X172257689Y-56190475D01*
X172265327Y-56184045D01*
X172272332Y-56177304D01*
X172278662Y-56170280D01*
X172284280Y-56163004D01*
X172290685Y-56153636D01*
X172296537Y-56144410D01*
X172301856Y-56135158D01*
X172306661Y-56125714D01*
X172310971Y-56115909D01*
X172314805Y-56105575D01*
X172318183Y-56094544D01*
X172321123Y-56082650D01*
X172323646Y-56069723D01*
X172325770Y-56055597D01*
X172327515Y-56040104D01*
X172328899Y-56023076D01*
X172329942Y-56004344D01*
X172330663Y-55983742D01*
X172331082Y-55961102D01*
X172331217Y-55936256D01*
X172330663Y-55889376D01*
X172329942Y-55869017D01*
X172328899Y-55850492D01*
X172327515Y-55833637D01*
X172325770Y-55818286D01*
X172323646Y-55804277D01*
X172321123Y-55791443D01*
X172318183Y-55779620D01*
X172314805Y-55768645D01*
X172310971Y-55758352D01*
X172306661Y-55748576D01*
X172301856Y-55739154D01*
X172296537Y-55729920D01*
X172290685Y-55720710D01*
X172284280Y-55711360D01*
X172281563Y-55707697D01*
X172278662Y-55704093D01*
X172272332Y-55697075D01*
X172265327Y-55690338D01*
X172257689Y-55683911D01*
X172249454Y-55677824D01*
X172240663Y-55672108D01*
X172231355Y-55666793D01*
X172221567Y-55661909D01*
X172211340Y-55657486D01*
X172200713Y-55653555D01*
X172189723Y-55650146D01*
X172178411Y-55647289D01*
X172166815Y-55645014D01*
X172154975Y-55643352D01*
X172142929Y-55642332D01*
X172130716Y-55641986D01*
X172118486Y-55642332D01*
X172106426Y-55643350D01*
X172094577Y-55645009D01*
X172082974Y-55647281D01*
X172071659Y-55650135D01*
X172060667Y-55653541D01*
X172050039Y-55657469D01*
X172039812Y-55661889D01*
X172030024Y-55666771D01*
X172020715Y-55672085D01*
X172011922Y-55677800D01*
X172003684Y-55683888D01*
X171996039Y-55690318D01*
X171989025Y-55697060D01*
X171982681Y-55704084D01*
X171977046Y-55711360D01*
X171970642Y-55720710D01*
X171964794Y-55729923D01*
X171959480Y-55739166D01*
X171954682Y-55748605D01*
X171950380Y-55758408D01*
X171946555Y-55768742D01*
X171943186Y-55779775D01*
X171940255Y-55791674D01*
X171937743Y-55804606D01*
X171935628Y-55818739D01*
X171933893Y-55834239D01*
X171932516Y-55851274D01*
X171931480Y-55870011D01*
X171930764Y-55890617D01*
X171930349Y-55913261D01*
X171930214Y-55938108D01*
X171739044Y-55938108D01*
X171739026Y-55936256D01*
X171739381Y-55899388D01*
X171740456Y-55865278D01*
X171742272Y-55833739D01*
X171744848Y-55804584D01*
X171748203Y-55777626D01*
X171752357Y-55752678D01*
X171757328Y-55729553D01*
X171763137Y-55708065D01*
X171769801Y-55688028D01*
X171777342Y-55669253D01*
X171785777Y-55651554D01*
X171795127Y-55634745D01*
X171805410Y-55618638D01*
X171816647Y-55603047D01*
X171828855Y-55587785D01*
X171842055Y-55572665D01*
X171852320Y-55561721D01*
X171863455Y-55550747D01*
X171875494Y-55539843D01*
X171888475Y-55529111D01*
X171902433Y-55518654D01*
X171917404Y-55508572D01*
X171933423Y-55498968D01*
X171950528Y-55489943D01*
X171959498Y-55485680D01*
X171968752Y-55481599D01*
X171978296Y-55477714D01*
X171988133Y-55474038D01*
X171998269Y-55470582D01*
X172008707Y-55467360D01*
X172019452Y-55464385D01*
X172030509Y-55461669D01*
X172041881Y-55459225D01*
X172053575Y-55457066D01*
X172065593Y-55455204D01*
X172077940Y-55453652D01*
X172090622Y-55452422D01*
X172103642Y-55451529D01*
X172117005Y-55450983D01*
X172130716Y-55450798D01*
X172157770Y-55451529D01*
X172183456Y-55453652D01*
X172207807Y-55457066D01*
X172230861Y-55461669D01*
X172252653Y-55467361D01*
X172273218Y-55474038D01*
X172292592Y-55481599D01*
X172310811Y-55489943D01*
X172327911Y-55498968D01*
X172343927Y-55508573D01*
X172358895Y-55518654D01*
X172372852Y-55529112D01*
X172385832Y-55539843D01*
X172397871Y-55550747D01*
X172409005Y-55561721D01*
X172419270Y-55572665D01*
X172432471Y-55587793D01*
X172444683Y-55603062D01*
X172455925Y-55618657D01*
X172466215Y-55634767D01*
X172475572Y-55651577D01*
X172484017Y-55669276D01*
X172491567Y-55688049D01*
X172498242Y-55708085D01*
X172504060Y-55729570D01*
X172509041Y-55752692D01*
X172513203Y-55777636D01*
X172516566Y-55804591D01*
X172519149Y-55833744D01*
X172520970Y-55865281D01*
X172522049Y-55899389D01*
X172522405Y-55936256D01*
X172522049Y-55973441D01*
G37*
D10*
X173334917Y-52829310D02*
X173333206Y-52832974D01*
X173429146Y-48368572D02*
X173427968Y-48366909D01*
X172512910Y-51001675D02*
X172556766Y-50981847D01*
X171523334Y-54234422D02*
X171527697Y-54233600D01*
X174360936Y-54234394D02*
X174365190Y-54235484D01*
D11*
X175989176Y-55829353D02*
X175986951Y-55855779D01*
D10*
X169402844Y-52352529D02*
X169403620Y-52354415D01*
X175773040Y-54024349D02*
X175772198Y-54022515D01*
X174307501Y-49583700D02*
X174303347Y-49585152D01*
X172049704Y-51464899D02*
X172071568Y-51422207D01*
D11*
X176329795Y-56146939D02*
X176334673Y-56136558D01*
D10*
X170110461Y-54026274D02*
X170109784Y-54028183D01*
X170108151Y-49725720D02*
X170107619Y-49729786D01*
X173980867Y-54404643D02*
X173982582Y-54405225D01*
X169432526Y-52381641D02*
X169434447Y-52382244D01*
X175557339Y-52566936D02*
X175560250Y-52563483D01*
X171911451Y-54400485D02*
X171912923Y-54399398D01*
X170348698Y-51207361D02*
X170345692Y-51210781D01*
X170110150Y-54060355D02*
X170110855Y-54062271D01*
X173891014Y-52177709D02*
X173881612Y-52207446D01*
X173806805Y-52376618D02*
X173775256Y-52429092D01*
X169413888Y-52369638D02*
X169415347Y-52371080D01*
X169399993Y-52340742D02*
X169400240Y-52342748D01*
X171607854Y-49588632D02*
X171603271Y-49588687D01*
X171923473Y-54386152D02*
X171924288Y-54384316D01*
X172239902Y-49334452D02*
X172237990Y-49335225D01*
X175252752Y-50550651D02*
X175252118Y-50546240D01*
X174338672Y-54232968D02*
X174343143Y-54232713D01*
X175262165Y-50499492D02*
X175769054Y-49760775D01*
X175097223Y-49054308D02*
X175093128Y-49054417D01*
X171914343Y-54398232D02*
X171915708Y-54396986D01*
X171545585Y-54233006D02*
X171549997Y-54233535D01*
X172247434Y-49330512D02*
X172243697Y-49332645D01*
X170786978Y-54723781D02*
X170791073Y-54723674D01*
X173425408Y-48363728D02*
X173422593Y-48360757D01*
X171905114Y-54404007D02*
X171906759Y-54403252D01*
X176453782Y-51397160D02*
X176451884Y-51396456D01*
X172553945Y-52860658D02*
X172554294Y-52858680D01*
X175075583Y-54719075D02*
X175077420Y-54719914D01*
X172474870Y-48351356D02*
X172473053Y-48352288D01*
X175287195Y-53314923D02*
X175285011Y-53311447D01*
X170317586Y-52557103D02*
X170320911Y-52560233D01*
X175528061Y-51196442D02*
X175526198Y-51192657D01*
X171953358Y-51843211D02*
X171957181Y-51792927D01*
X170342470Y-51214053D02*
X170339056Y-51217154D01*
D11*
X176287938Y-56198979D02*
X176296558Y-56191688D01*
D10*
X174002658Y-54405531D02*
X174004510Y-54404973D01*
X175774386Y-49749936D02*
X175774978Y-49747997D01*
X176457404Y-52379241D02*
X176459193Y-52378290D01*
X173998938Y-54406343D02*
X174000799Y-54405987D01*
X175277231Y-53263599D02*
X175278062Y-53259272D01*
D11*
X176012074Y-55734504D02*
X176007676Y-55745125D01*
D10*
X176451819Y-52381588D02*
X176453714Y-52380893D01*
D11*
X176311739Y-56175350D02*
X176318357Y-56166368D01*
D10*
X169399732Y-51439382D02*
X169399687Y-51441408D01*
X176457476Y-51398825D02*
X176455647Y-51397951D01*
X173604481Y-49288995D02*
X173603545Y-49285001D01*
X172310490Y-52656217D02*
X172264814Y-52615927D01*
X175079242Y-49057404D02*
X175077367Y-49058165D01*
X174294596Y-49587319D02*
X174290069Y-49588028D01*
X173963720Y-54391186D02*
X173964837Y-54392737D01*
X176474560Y-51413140D02*
X176473282Y-51411537D01*
X170759960Y-49062489D02*
X170758310Y-49063658D01*
D11*
X176035229Y-55696627D02*
X176028546Y-55705350D01*
D10*
X175117088Y-49058581D02*
X175113299Y-49057092D01*
X175254824Y-50559077D02*
X175253653Y-50554942D01*
D12*
G36*
X177498916Y-55973441D02*
G01*
X177497840Y-56007829D01*
X177496024Y-56039611D01*
X177493448Y-56068976D01*
X177490093Y-56096112D01*
X177485940Y-56121210D01*
X177480968Y-56144458D01*
X177475160Y-56166046D01*
X177468495Y-56186164D01*
X177460955Y-56204999D01*
X177452519Y-56222742D01*
X177443169Y-56239583D01*
X177432886Y-56255709D01*
X177421650Y-56271311D01*
X177409441Y-56286578D01*
X177396241Y-56301699D01*
X177385975Y-56312641D01*
X177374839Y-56323612D01*
X177362797Y-56334511D01*
X177349813Y-56345236D01*
X177335852Y-56355685D01*
X177320878Y-56365758D01*
X177304856Y-56375352D01*
X177287749Y-56384367D01*
X177278778Y-56388626D01*
X177269522Y-56392701D01*
X177259977Y-56396581D01*
X177250140Y-56400253D01*
X177240004Y-56403704D01*
X177229566Y-56406922D01*
X177218821Y-56409893D01*
X177207765Y-56412605D01*
X177196394Y-56415045D01*
X177184702Y-56417201D01*
X177172686Y-56419061D01*
X177160341Y-56420610D01*
X177147662Y-56421838D01*
X177134646Y-56422730D01*
X177121287Y-56423275D01*
X177107581Y-56423459D01*
X177080525Y-56422730D01*
X177054838Y-56420610D01*
X177030484Y-56417201D01*
X177007427Y-56412605D01*
X176985632Y-56406921D01*
X176965062Y-56400253D01*
X176945683Y-56392701D01*
X176927459Y-56384367D01*
X176910354Y-56375352D01*
X176894333Y-56365757D01*
X176879361Y-56355685D01*
X176865400Y-56345235D01*
X176852417Y-56334511D01*
X176840375Y-56323612D01*
X176829239Y-56312641D01*
X176818973Y-56301699D01*
X176805773Y-56286577D01*
X176793563Y-56271309D01*
X176782324Y-56255705D01*
X176772037Y-56239575D01*
X176762683Y-56222732D01*
X176754243Y-56204986D01*
X176746698Y-56186147D01*
X176740028Y-56166027D01*
X176734215Y-56144437D01*
X176729239Y-56121187D01*
X176725081Y-56096089D01*
X176721722Y-56068954D01*
X176719142Y-56039592D01*
X176717324Y-56007814D01*
X176716247Y-55973432D01*
X176715910Y-55938108D01*
X176907080Y-55938108D01*
X176907631Y-55984983D01*
X176908350Y-56005338D01*
X176909389Y-56023857D01*
X176910768Y-56040706D01*
X176912507Y-56056050D01*
X176914625Y-56070053D01*
X176917140Y-56082881D01*
X176920073Y-56094699D01*
X176923443Y-56105672D01*
X176927269Y-56115965D01*
X176931569Y-56125743D01*
X176936365Y-56135171D01*
X176941674Y-56144413D01*
X176947516Y-56153636D01*
X176953911Y-56163004D01*
X176956642Y-56166667D01*
X176959556Y-56170271D01*
X176965907Y-56177288D01*
X176972928Y-56184026D01*
X176980578Y-56190453D01*
X176988821Y-56196539D01*
X176997617Y-56202255D01*
X177006928Y-56207571D01*
X177016716Y-56212455D01*
X177026943Y-56216877D01*
X177037569Y-56220808D01*
X177048558Y-56224217D01*
X177059869Y-56227075D01*
X177071466Y-56229349D01*
X177083309Y-56231012D01*
X177095360Y-56232031D01*
X177107581Y-56232378D01*
X177119811Y-56232032D01*
X177131871Y-56231014D01*
X177143720Y-56229354D01*
X177155322Y-56227082D01*
X177166638Y-56224228D01*
X177177630Y-56220822D01*
X177188258Y-56216894D01*
X177198485Y-56212475D01*
X177208273Y-56207593D01*
X177217582Y-56202279D01*
X177226375Y-56196563D01*
X177234613Y-56190475D01*
X177242258Y-56184045D01*
X177249272Y-56177304D01*
X177255615Y-56170280D01*
X177261251Y-56163004D01*
X177267646Y-56153636D01*
X177273490Y-56144410D01*
X177278802Y-56135158D01*
X177283601Y-56125714D01*
X177287906Y-56115909D01*
X177291736Y-56105575D01*
X177295110Y-56094544D01*
X177298048Y-56082650D01*
X177300568Y-56069723D01*
X177302691Y-56055597D01*
X177304434Y-56040104D01*
X177305817Y-56023076D01*
X177306860Y-56004344D01*
X177307581Y-55983742D01*
X177308000Y-55961102D01*
X177308135Y-55936256D01*
X177307581Y-55889376D01*
X177306860Y-55869017D01*
X177305817Y-55850492D01*
X177304434Y-55833637D01*
X177302691Y-55818286D01*
X177300568Y-55804277D01*
X177298048Y-55791443D01*
X177295110Y-55779620D01*
X177291736Y-55768645D01*
X177287906Y-55758352D01*
X177283601Y-55748576D01*
X177278802Y-55739154D01*
X177273490Y-55729920D01*
X177267646Y-55720710D01*
X177261251Y-55711360D01*
X177258524Y-55707697D01*
X177255615Y-55704093D01*
X177249272Y-55697075D01*
X177242258Y-55690338D01*
X177234613Y-55683911D01*
X177226375Y-55677824D01*
X177217582Y-55672108D01*
X177208273Y-55666793D01*
X177198485Y-55661909D01*
X177188258Y-55657486D01*
X177177630Y-55653555D01*
X177166638Y-55650146D01*
X177155322Y-55647289D01*
X177143720Y-55645014D01*
X177131871Y-55643352D01*
X177119811Y-55642332D01*
X177107581Y-55641986D01*
X177095360Y-55642332D01*
X177083309Y-55643350D01*
X177071466Y-55645009D01*
X177059869Y-55647281D01*
X177048558Y-55650135D01*
X177037569Y-55653541D01*
X177026943Y-55657469D01*
X177016716Y-55661889D01*
X177006928Y-55666771D01*
X176997617Y-55672085D01*
X176988821Y-55677800D01*
X176980578Y-55683888D01*
X176972928Y-55690318D01*
X176965907Y-55697060D01*
X176959556Y-55704084D01*
X176953911Y-55711360D01*
X176947516Y-55720710D01*
X176941674Y-55729923D01*
X176936365Y-55739166D01*
X176931569Y-55748605D01*
X176927269Y-55758408D01*
X176923443Y-55768742D01*
X176920073Y-55779775D01*
X176917140Y-55791674D01*
X176914625Y-55804606D01*
X176912507Y-55818739D01*
X176910768Y-55834239D01*
X176909389Y-55851274D01*
X176908350Y-55870011D01*
X176907631Y-55890617D01*
X176907214Y-55913261D01*
X176907080Y-55938108D01*
X176715910Y-55938108D01*
X176715892Y-55936256D01*
X176716247Y-55899388D01*
X176717324Y-55865278D01*
X176719142Y-55833739D01*
X176721722Y-55804584D01*
X176725081Y-55777626D01*
X176729239Y-55752678D01*
X176734215Y-55729553D01*
X176740028Y-55708065D01*
X176746698Y-55688028D01*
X176754243Y-55669253D01*
X176762683Y-55651554D01*
X176772037Y-55634745D01*
X176782324Y-55618638D01*
X176793563Y-55603047D01*
X176805773Y-55587785D01*
X176818973Y-55572665D01*
X176829239Y-55561721D01*
X176840375Y-55550747D01*
X176852417Y-55539843D01*
X176865400Y-55529111D01*
X176879361Y-55518654D01*
X176894333Y-55508572D01*
X176910354Y-55498968D01*
X176927459Y-55489943D01*
X176936429Y-55485680D01*
X176945683Y-55481599D01*
X176955226Y-55477714D01*
X176965062Y-55474038D01*
X176975196Y-55470582D01*
X176985632Y-55467360D01*
X176996374Y-55464385D01*
X177007427Y-55461669D01*
X177018796Y-55459225D01*
X177030484Y-55457066D01*
X177042497Y-55455204D01*
X177054838Y-55453652D01*
X177067513Y-55452422D01*
X177080525Y-55451529D01*
X177093880Y-55450983D01*
X177107581Y-55450798D01*
X177134646Y-55451529D01*
X177160341Y-55453652D01*
X177184702Y-55457066D01*
X177207765Y-55461669D01*
X177229566Y-55467361D01*
X177250140Y-55474038D01*
X177269522Y-55481599D01*
X177287749Y-55489943D01*
X177304856Y-55498968D01*
X177320878Y-55508573D01*
X177335852Y-55518654D01*
X177349813Y-55529112D01*
X177362797Y-55539843D01*
X177374839Y-55550747D01*
X177385975Y-55561721D01*
X177396241Y-55572665D01*
X177409441Y-55587793D01*
X177421650Y-55603062D01*
X177432886Y-55618657D01*
X177443169Y-55634767D01*
X177452519Y-55651577D01*
X177460955Y-55669276D01*
X177468495Y-55688049D01*
X177475160Y-55708085D01*
X177480968Y-55729570D01*
X177485940Y-55752692D01*
X177490093Y-55777636D01*
X177493448Y-55804591D01*
X177496024Y-55833744D01*
X177497840Y-55865281D01*
X177498916Y-55899389D01*
X177499270Y-55936256D01*
X177498916Y-55973441D01*
G37*
D10*
X170626071Y-50506729D02*
X170627758Y-50510694D01*
X172451021Y-48375647D02*
X172450237Y-48377509D01*
X175560250Y-52563483D02*
X175563386Y-52560181D01*
X173401702Y-48348425D02*
X173399748Y-48347903D01*
X172891193Y-50905328D02*
X172942140Y-50904040D01*
X172095409Y-51380743D02*
X172121162Y-51340571D01*
X173920855Y-51743375D02*
X173927152Y-51792927D01*
X171896416Y-54406466D02*
X171898207Y-54406153D01*
X175122474Y-49061396D02*
X175120724Y-49060381D01*
X172553505Y-52862619D02*
X172553945Y-52860658D01*
X170358019Y-51192657D02*
X170356147Y-51196442D01*
X174352126Y-54233016D02*
X174356570Y-54233571D01*
D11*
X176205624Y-55643787D02*
X176190383Y-55642441D01*
D10*
X173609300Y-49300955D02*
X173607381Y-49296998D01*
X169399793Y-52336705D02*
X169399843Y-52338727D01*
X172942140Y-50904040D02*
X172993088Y-50905328D01*
X174258823Y-49585790D02*
X174254842Y-49584413D01*
X172121162Y-51340571D02*
X172148766Y-51301752D01*
D11*
X176349247Y-55783463D02*
X176346279Y-55771610D01*
D10*
X176447999Y-51395320D02*
X176446017Y-51394894D01*
X175550216Y-52577957D02*
X175552296Y-52574196D01*
X169406255Y-51418240D02*
X169404323Y-51421840D01*
X173629398Y-49325373D02*
X173625969Y-49322419D01*
X171877936Y-54404356D02*
X171879782Y-54405013D01*
X175079296Y-54720668D02*
X175081206Y-54721339D01*
X172448004Y-48385259D02*
X172280522Y-49285001D01*
D12*
G36*
X175659887Y-57633770D02*
G01*
X175659525Y-57649116D01*
X175658446Y-57664214D01*
X175656655Y-57679051D01*
X175654159Y-57693609D01*
X175650965Y-57707874D01*
X175647078Y-57721829D01*
X175642506Y-57735459D01*
X175637255Y-57748747D01*
X175631331Y-57761679D01*
X175624742Y-57774238D01*
X175617492Y-57786408D01*
X175609590Y-57798174D01*
X175601042Y-57809520D01*
X175591853Y-57820430D01*
X175582031Y-57830888D01*
X175571582Y-57840879D01*
X175560513Y-57850387D01*
X175548829Y-57859396D01*
X175536539Y-57867890D01*
X175523647Y-57875853D01*
X175510161Y-57883270D01*
X175496087Y-57890125D01*
X175481432Y-57896402D01*
X175466202Y-57902085D01*
X175450403Y-57907158D01*
X175434043Y-57911607D01*
X175417128Y-57915414D01*
X175399663Y-57918565D01*
X175381657Y-57921042D01*
X175363114Y-57922832D01*
X175344042Y-57923917D01*
X175324448Y-57924282D01*
X175300936Y-57923930D01*
X175278863Y-57922867D01*
X175258174Y-57921086D01*
X175238813Y-57918577D01*
X175220726Y-57915332D01*
X175203859Y-57911343D01*
X175188156Y-57906601D01*
X175173563Y-57901099D01*
X175160024Y-57894826D01*
X175147486Y-57887776D01*
X175135892Y-57879939D01*
X175125189Y-57871307D01*
X175115322Y-57861872D01*
X175106236Y-57851625D01*
X175097875Y-57840558D01*
X175090186Y-57828662D01*
X175086429Y-57828662D01*
X175086429Y-57913011D01*
X174895241Y-57913011D01*
X174895241Y-57579370D01*
X175086429Y-57579370D01*
X175086590Y-57592875D01*
X175087078Y-57605631D01*
X175087903Y-57617660D01*
X175089075Y-57628983D01*
X175090602Y-57639620D01*
X175092494Y-57649592D01*
X175094760Y-57658922D01*
X175097409Y-57667628D01*
X175100451Y-57675733D01*
X175103894Y-57683258D01*
X175107749Y-57690222D01*
X175112024Y-57696648D01*
X175116728Y-57702557D01*
X175121871Y-57707968D01*
X175127463Y-57712904D01*
X175133511Y-57717384D01*
X175140027Y-57721431D01*
X175147018Y-57725065D01*
X175154495Y-57728307D01*
X175162466Y-57731177D01*
X175170940Y-57733698D01*
X175179928Y-57735889D01*
X175189437Y-57737773D01*
X175199479Y-57739369D01*
X175221193Y-57741783D01*
X175245144Y-57743300D01*
X175271406Y-57744087D01*
X175300053Y-57744313D01*
X175323387Y-57743665D01*
X175344918Y-57741771D01*
X175364686Y-57738702D01*
X175382734Y-57734529D01*
X175391125Y-57732051D01*
X175399102Y-57729323D01*
X175406668Y-57726356D01*
X175413831Y-57723157D01*
X175420593Y-57719737D01*
X175426962Y-57716102D01*
X175432941Y-57712264D01*
X175438536Y-57708230D01*
X175443753Y-57704009D01*
X175448595Y-57699611D01*
X175453069Y-57695045D01*
X175457180Y-57690318D01*
X175460932Y-57685441D01*
X175464331Y-57680422D01*
X175467382Y-57675270D01*
X175470089Y-57669995D01*
X175474497Y-57659108D01*
X175477594Y-57647832D01*
X175479423Y-57636240D01*
X175480023Y-57624403D01*
X175479869Y-57617971D01*
X175479406Y-57611686D01*
X175478633Y-57605550D01*
X175477548Y-57599569D01*
X175476150Y-57593746D01*
X175474437Y-57588084D01*
X175472409Y-57582587D01*
X175470063Y-57577260D01*
X175467399Y-57572105D01*
X175464415Y-57567128D01*
X175461109Y-57562330D01*
X175457481Y-57557718D01*
X175453529Y-57553293D01*
X175449251Y-57549060D01*
X175444646Y-57545022D01*
X175439714Y-57541185D01*
X175434451Y-57537550D01*
X175428858Y-57534123D01*
X175422932Y-57530906D01*
X175416673Y-57527904D01*
X175410078Y-57525120D01*
X175403147Y-57522559D01*
X175395879Y-57520223D01*
X175388270Y-57518117D01*
X175380322Y-57516245D01*
X175372031Y-57514610D01*
X175363397Y-57513216D01*
X175354419Y-57512068D01*
X175345094Y-57511167D01*
X175335421Y-57510520D01*
X175325400Y-57510128D01*
X175315029Y-57509997D01*
X175086429Y-57509997D01*
X175086429Y-57579370D01*
X174895241Y-57579370D01*
X174895241Y-57264570D01*
X174895711Y-57243066D01*
X174897108Y-57222459D01*
X174899418Y-57202735D01*
X174902625Y-57183880D01*
X174906710Y-57165879D01*
X174911660Y-57148719D01*
X174917458Y-57132386D01*
X174924086Y-57116865D01*
X174931531Y-57102143D01*
X174939774Y-57088205D01*
X174948801Y-57075038D01*
X174958594Y-57062627D01*
X174969139Y-57050959D01*
X174980418Y-57040019D01*
X174992416Y-57029793D01*
X175005116Y-57020267D01*
X175018502Y-57011428D01*
X175032559Y-57003260D01*
X175047270Y-56995751D01*
X175062618Y-56988886D01*
X175078589Y-56982650D01*
X175095165Y-56977031D01*
X175112331Y-56972013D01*
X175130070Y-56967583D01*
X175148366Y-56963727D01*
X175167203Y-56960431D01*
X175206437Y-56955462D01*
X175247641Y-56952562D01*
X175290687Y-56951621D01*
X175316959Y-56952066D01*
X175342359Y-56953426D01*
X175366897Y-56955741D01*
X175390580Y-56959049D01*
X175413417Y-56963389D01*
X175435416Y-56968799D01*
X175456586Y-56975319D01*
X175476934Y-56982987D01*
X175496469Y-56991842D01*
X175515200Y-57001923D01*
X175533134Y-57013268D01*
X175550281Y-57025916D01*
X175566647Y-57039906D01*
X175582242Y-57055277D01*
X175597074Y-57072067D01*
X175611150Y-57090316D01*
X175461238Y-57204616D01*
X175458038Y-57199625D01*
X175454753Y-57194838D01*
X175451378Y-57190254D01*
X175447903Y-57185868D01*
X175444322Y-57181679D01*
X175440628Y-57177682D01*
X175436814Y-57173874D01*
X175432873Y-57170254D01*
X175428796Y-57166817D01*
X175424578Y-57163561D01*
X175420211Y-57160482D01*
X175415687Y-57157578D01*
X175411000Y-57154845D01*
X175406142Y-57152280D01*
X175401106Y-57149881D01*
X175395886Y-57147644D01*
X175390473Y-57145567D01*
X175384860Y-57143645D01*
X175379041Y-57141877D01*
X175373008Y-57140258D01*
X175366755Y-57138787D01*
X175360273Y-57137460D01*
X175353555Y-57136273D01*
X175346595Y-57135225D01*
X175331919Y-57133529D01*
X175316186Y-57132347D01*
X175299339Y-57131657D01*
X175281321Y-57131432D01*
X175256590Y-57131813D01*
X175233673Y-57132981D01*
X175212540Y-57134974D01*
X175193161Y-57137831D01*
X175175505Y-57141589D01*
X175159543Y-57146286D01*
X175145244Y-57151961D01*
X175138709Y-57155177D01*
X175132579Y-57158651D01*
X175126849Y-57162389D01*
X175121516Y-57166395D01*
X175116576Y-57170674D01*
X175112026Y-57175231D01*
X175107862Y-57180070D01*
X175104079Y-57185196D01*
X175100675Y-57190614D01*
X175097645Y-57196329D01*
X175094985Y-57202345D01*
X175092692Y-57208668D01*
X175090763Y-57215301D01*
X175089193Y-57222250D01*
X175087978Y-57229520D01*
X175087115Y-57237115D01*
X175086429Y-57253299D01*
X175086429Y-57352623D01*
X175350695Y-57352623D01*
X175369553Y-57352999D01*
X175387828Y-57354113D01*
X175405519Y-57355947D01*
X175422625Y-57358479D01*
X175439145Y-57361691D01*
X175455077Y-57365564D01*
X175470422Y-57370077D01*
X175485177Y-57375210D01*
X175499343Y-57380946D01*
X175512917Y-57387263D01*
X175525898Y-57394142D01*
X175538287Y-57401564D01*
X175550081Y-57409508D01*
X175561280Y-57417957D01*
X175571882Y-57426889D01*
X175581888Y-57436285D01*
X175591294Y-57446126D01*
X175600101Y-57456391D01*
X175608308Y-57467063D01*
X175615914Y-57478120D01*
X175622916Y-57489543D01*
X175629316Y-57501313D01*
X175635110Y-57513410D01*
X175640299Y-57525815D01*
X175644882Y-57538507D01*
X175648856Y-57551468D01*
X175652223Y-57564678D01*
X175654979Y-57578116D01*
X175657124Y-57591765D01*
X175658658Y-57605603D01*
X175659579Y-57619611D01*
X175659683Y-57624403D01*
X175659887Y-57633770D01*
G37*
D10*
X169434447Y-52382244D02*
X169436395Y-52382754D01*
D11*
X176035229Y-56177805D02*
X176042556Y-56185968D01*
D10*
X175763604Y-54077452D02*
X175764995Y-54075984D01*
X173434581Y-48379404D02*
X173433884Y-48377509D01*
X173329910Y-52858680D02*
X173330263Y-52860658D01*
X172461532Y-48360757D02*
X172460094Y-48362215D01*
X172358597Y-52693680D02*
X172310490Y-52656217D01*
X175130402Y-49067620D02*
X175128940Y-49066224D01*
X169400456Y-51433360D02*
X169400120Y-51435355D01*
X172251092Y-49328080D02*
X172247434Y-49330512D01*
X173141673Y-50924155D02*
X173189574Y-50935211D01*
X173391779Y-48346733D02*
X173389762Y-48346683D01*
X175769054Y-49760775D02*
X175770157Y-49759082D01*
X172278298Y-49293003D02*
X172276682Y-49296998D01*
X173351027Y-52811685D02*
X173349330Y-52812783D01*
X170810342Y-49059943D02*
X170808553Y-49059012D01*
D11*
X176003777Y-56118494D02*
X176007676Y-56129473D01*
D10*
X173613963Y-49308647D02*
X173611501Y-49304847D01*
X170758393Y-54714481D02*
X170760037Y-54715643D01*
X171589562Y-49587319D02*
X171585121Y-49586359D01*
X169432316Y-51396456D02*
X169430425Y-51397160D01*
X171952070Y-51894163D02*
X171953358Y-51843211D01*
X170308054Y-51233128D02*
X169438157Y-51394894D01*
X175117141Y-54719473D02*
X175118980Y-54718618D01*
X173431280Y-48372030D02*
X173430250Y-48370280D01*
X170791073Y-54723674D02*
X170795135Y-54723243D01*
X175073735Y-49059943D02*
X175071987Y-49060961D01*
X170632407Y-50532624D02*
X170632564Y-50537193D01*
D11*
X176334654Y-55738036D02*
X176329774Y-55727615D01*
D10*
X172554718Y-52854683D02*
X172554796Y-52852672D01*
X176462727Y-51401923D02*
X176461019Y-51400815D01*
X173389762Y-48346683D02*
X172494412Y-48346683D01*
X175278681Y-53295283D02*
X175277712Y-53290849D01*
X172791365Y-50915448D02*
X172840914Y-50909151D01*
X170116715Y-54072910D02*
X170117960Y-54074504D01*
X171960435Y-52023393D02*
X171954183Y-51959344D01*
X170113446Y-49710364D02*
X170111652Y-49714006D01*
X172349771Y-51100739D02*
X172388588Y-51073134D01*
X176475774Y-51414791D02*
X176474560Y-51413140D01*
X172029876Y-51508758D02*
X172049704Y-51464899D01*
X176482798Y-52348626D02*
X176483320Y-52346667D01*
D11*
X176357361Y-55833327D02*
X176353998Y-55807969D01*
D10*
X175776686Y-49737974D02*
X175776793Y-49733880D01*
X173966021Y-54394214D02*
X173967270Y-54395616D01*
X171558514Y-54235411D02*
X171562551Y-54236758D01*
X171541115Y-54232749D02*
X171545585Y-54233006D01*
X174321714Y-54236708D02*
X174325747Y-54235363D01*
X170324024Y-51227406D02*
X170320053Y-51229317D01*
D12*
G36*
X170420615Y-56952060D02*
G01*
X170439040Y-56953379D01*
X170457081Y-56955577D01*
X170474721Y-56958654D01*
X170491945Y-56962609D01*
X170508734Y-56967443D01*
X170525074Y-56973156D01*
X170540947Y-56979746D01*
X170556337Y-56987215D01*
X170571228Y-56995561D01*
X170585602Y-57004786D01*
X170599444Y-57014888D01*
X170612737Y-57025867D01*
X170625464Y-57037724D01*
X170637609Y-57050458D01*
X170649155Y-57064069D01*
X170652965Y-57064069D01*
X170652965Y-56962892D01*
X170844047Y-56962892D01*
X170844047Y-57913011D01*
X170652965Y-57913011D01*
X170652965Y-57341352D01*
X170652699Y-57328589D01*
X170651912Y-57316283D01*
X170650619Y-57304430D01*
X170648839Y-57293027D01*
X170646587Y-57282070D01*
X170643879Y-57271557D01*
X170640732Y-57261483D01*
X170637163Y-57251846D01*
X170633187Y-57242642D01*
X170628822Y-57233868D01*
X170624083Y-57225520D01*
X170618988Y-57217595D01*
X170613552Y-57210090D01*
X170607792Y-57203001D01*
X170601724Y-57196324D01*
X170595365Y-57190057D01*
X170588732Y-57184196D01*
X170581840Y-57178738D01*
X170574707Y-57173679D01*
X170567348Y-57169015D01*
X170559780Y-57164745D01*
X170552019Y-57160863D01*
X170544083Y-57157367D01*
X170535986Y-57154253D01*
X170519380Y-57149160D01*
X170502333Y-57145555D01*
X170484975Y-57143412D01*
X170467439Y-57142704D01*
X170458483Y-57142859D01*
X170449881Y-57143333D01*
X170441588Y-57144137D01*
X170433561Y-57145282D01*
X170425756Y-57146779D01*
X170418127Y-57148639D01*
X170410632Y-57150873D01*
X170403225Y-57153492D01*
X170395863Y-57156507D01*
X170388502Y-57159930D01*
X170381097Y-57163771D01*
X170373603Y-57168041D01*
X170365978Y-57172753D01*
X170358177Y-57177915D01*
X170350155Y-57183541D01*
X170341868Y-57189640D01*
X170203173Y-57024699D01*
X170214136Y-57016466D01*
X170225242Y-57008645D01*
X170236502Y-57001252D01*
X170247927Y-56994305D01*
X170259528Y-56987818D01*
X170271315Y-56981810D01*
X170283300Y-56976296D01*
X170295493Y-56971292D01*
X170307905Y-56966816D01*
X170320546Y-56962883D01*
X170333428Y-56959510D01*
X170346562Y-56956714D01*
X170359957Y-56954510D01*
X170373625Y-56952916D01*
X170387577Y-56951947D01*
X170401823Y-56951621D01*
X170420615Y-56952060D01*
G37*
D10*
X173625969Y-49322419D02*
X173622688Y-49319243D01*
D11*
X176339011Y-55748864D02*
X176334654Y-55738036D01*
D10*
X175552403Y-51222756D02*
X175548687Y-51220063D01*
X176481497Y-52352477D02*
X176482190Y-52350564D01*
X175281360Y-53303748D02*
X175279898Y-53299594D01*
X176473209Y-52366530D02*
X176475704Y-52363268D01*
X173432230Y-48373820D02*
X173431280Y-48372030D01*
D11*
X176296535Y-55682731D02*
X176287915Y-55675425D01*
D10*
X172473053Y-48352288D02*
X172471273Y-48353294D01*
X171616828Y-49587740D02*
X171612384Y-49588317D01*
D11*
X176311716Y-55699111D02*
X176304459Y-55690637D01*
D10*
X175563386Y-52560181D02*
X175566720Y-52557050D01*
X175772613Y-54064100D02*
X175774097Y-54060302D01*
X172542406Y-52819391D02*
X172541029Y-52817932D01*
X172533201Y-52811685D02*
X172457054Y-52765066D01*
X170115546Y-54071258D02*
X170116715Y-54072910D01*
X169421705Y-52376206D02*
X169423411Y-52377313D01*
X170113001Y-54020776D02*
X170112069Y-54022567D01*
X176484540Y-52336652D02*
X176484593Y-51441355D01*
X172601726Y-50964119D02*
X172647729Y-50948553D01*
D11*
X176342894Y-56114627D02*
X176349261Y-56091352D01*
D10*
X173993369Y-54406820D02*
X173995219Y-54406758D01*
X171549997Y-54233535D02*
X171554318Y-54234337D01*
X172427045Y-52743546D02*
X172420814Y-52738455D01*
X175252214Y-50528071D02*
X175252885Y-50523567D01*
X175125822Y-49063658D02*
X175124175Y-49062489D01*
X173931733Y-51926887D02*
X173930150Y-51959344D01*
X172553897Y-52842640D02*
X172553468Y-52840663D01*
X173675033Y-51228422D02*
X173706154Y-51264348D01*
X172554509Y-52846635D02*
X172554244Y-52844632D01*
X170113438Y-54067797D02*
X170114453Y-54069552D01*
D12*
G36*
X170183760Y-55451238D02*
G01*
X170202189Y-55452557D01*
X170220235Y-55454755D01*
X170237882Y-55457831D01*
X170255113Y-55461787D01*
X170271912Y-55466621D01*
X170288261Y-55472333D01*
X170304144Y-55478924D01*
X170319544Y-55486392D01*
X170334444Y-55494739D01*
X170348828Y-55503963D01*
X170362677Y-55514065D01*
X170375977Y-55525045D01*
X170388709Y-55536902D01*
X170400857Y-55549636D01*
X170412405Y-55563246D01*
X170416110Y-55563246D01*
X170416110Y-55462069D01*
X170607298Y-55462069D01*
X170607298Y-56412188D01*
X170416110Y-56412188D01*
X170416110Y-55840636D01*
X170415844Y-55827863D01*
X170415056Y-55815549D01*
X170413764Y-55803689D01*
X170411984Y-55792280D01*
X170409731Y-55781318D01*
X170407024Y-55770801D01*
X170403877Y-55760724D01*
X170400307Y-55751085D01*
X170396332Y-55741880D01*
X170391966Y-55733105D01*
X170387228Y-55724757D01*
X170382132Y-55716832D01*
X170376696Y-55709328D01*
X170370936Y-55702240D01*
X170364869Y-55695565D01*
X170358510Y-55689301D01*
X170351877Y-55683442D01*
X170344985Y-55677987D01*
X170337851Y-55672931D01*
X170330492Y-55668270D01*
X170322924Y-55664003D01*
X170315164Y-55660125D01*
X170307227Y-55656632D01*
X170299131Y-55653521D01*
X170282525Y-55648434D01*
X170265478Y-55644833D01*
X170248120Y-55642694D01*
X170230584Y-55641986D01*
X170221628Y-55642142D01*
X170213025Y-55642616D01*
X170204733Y-55643420D01*
X170196706Y-55644564D01*
X170188900Y-55646059D01*
X170181272Y-55647916D01*
X170173776Y-55650147D01*
X170166370Y-55652762D01*
X170159008Y-55655772D01*
X170151646Y-55659187D01*
X170144241Y-55663020D01*
X170136748Y-55667280D01*
X170129123Y-55671979D01*
X170121321Y-55677128D01*
X170113299Y-55682737D01*
X170105013Y-55688818D01*
X169966318Y-55523876D01*
X169977297Y-55515643D01*
X169988412Y-55507822D01*
X169999676Y-55500430D01*
X170011101Y-55493482D01*
X170022698Y-55486996D01*
X170034478Y-55480988D01*
X170046454Y-55475473D01*
X170058637Y-55470470D01*
X170071039Y-55465994D01*
X170083672Y-55462061D01*
X170096547Y-55458688D01*
X170109676Y-55455891D01*
X170123071Y-55453688D01*
X170136743Y-55452093D01*
X170150704Y-55451125D01*
X170164967Y-55450798D01*
X170183760Y-55451238D01*
G37*
D10*
X173972841Y-54400445D02*
X173974363Y-54401452D01*
X173282561Y-50964119D02*
X173327523Y-50981847D01*
X170110170Y-49717799D02*
X170109002Y-49721714D01*
X171906759Y-54403252D02*
X171908366Y-54402413D01*
X171924288Y-54384316D02*
X172551616Y-52868359D01*
X172280522Y-49285001D02*
X172280099Y-49286995D01*
X173763155Y-51340571D02*
X173788911Y-51380743D01*
X170631452Y-50550651D02*
X170630545Y-50554942D01*
X170761735Y-54716728D02*
X170763483Y-54717737D01*
X175568144Y-51230923D02*
X175564129Y-51229317D01*
X171566394Y-54238380D02*
X171570011Y-54240277D01*
X175573883Y-52551401D02*
X175577659Y-52548929D01*
X170758310Y-49063658D02*
X170756717Y-49064903D01*
X175560150Y-51227406D02*
X175556233Y-51225211D01*
X175277712Y-53290849D02*
X175276992Y-53286327D01*
X172270090Y-49308647D02*
X172267387Y-49312331D01*
X171963478Y-51743375D02*
X171972185Y-51694616D01*
D11*
X176339030Y-56125777D02*
X176342894Y-56114627D01*
D10*
X173341777Y-52819391D02*
X173339213Y-52822490D01*
X170755185Y-49066223D02*
X170753718Y-49067620D01*
X173872179Y-51553721D02*
X173887746Y-51599727D01*
D11*
X176127946Y-55645766D02*
X176114395Y-55648635D01*
D10*
X172409005Y-52728183D02*
X172358597Y-52693680D01*
X175776251Y-49742034D02*
X175776686Y-49737974D01*
D12*
G36*
X176134243Y-55451372D02*
G01*
X176152156Y-55452912D01*
X176169793Y-55455434D01*
X176187129Y-55458904D01*
X176204134Y-55463285D01*
X176220782Y-55468543D01*
X176237046Y-55474640D01*
X176252897Y-55481542D01*
X176268310Y-55489213D01*
X176283257Y-55497618D01*
X176297710Y-55506720D01*
X176311642Y-55516484D01*
X176325025Y-55526874D01*
X176337834Y-55537855D01*
X176350039Y-55549391D01*
X176361615Y-55561447D01*
X176361615Y-55462122D01*
X176553490Y-55462122D01*
X176553490Y-57913011D01*
X176362303Y-57913011D01*
X176362303Y-57347067D01*
X176362068Y-57335097D01*
X176361372Y-57323451D01*
X176360222Y-57312131D01*
X176358630Y-57301141D01*
X176356604Y-57290486D01*
X176354154Y-57280168D01*
X176351289Y-57270192D01*
X176348020Y-57260561D01*
X176344356Y-57251279D01*
X176340306Y-57242350D01*
X176335880Y-57233777D01*
X176331088Y-57225565D01*
X176325939Y-57217717D01*
X176320443Y-57210236D01*
X176314609Y-57203127D01*
X176308447Y-57196394D01*
X176301966Y-57190039D01*
X176295177Y-57184067D01*
X176288089Y-57178482D01*
X176280711Y-57173287D01*
X176273053Y-57168486D01*
X176265124Y-57164083D01*
X176256935Y-57160082D01*
X176248494Y-57156486D01*
X176239811Y-57153298D01*
X176230897Y-57150524D01*
X176221760Y-57148166D01*
X176212410Y-57146228D01*
X176202857Y-57144715D01*
X176193110Y-57143629D01*
X176183178Y-57142975D01*
X176173073Y-57142756D01*
X176163135Y-57142975D01*
X176153361Y-57143629D01*
X176143761Y-57144715D01*
X176134345Y-57146228D01*
X176125122Y-57148166D01*
X176116102Y-57150524D01*
X176107297Y-57153298D01*
X176098714Y-57156485D01*
X176090365Y-57160082D01*
X176082259Y-57164083D01*
X176074407Y-57168486D01*
X176066818Y-57173287D01*
X176059502Y-57178482D01*
X176052469Y-57184067D01*
X176045729Y-57190039D01*
X176039293Y-57196393D01*
X176033169Y-57203127D01*
X176027369Y-57210236D01*
X176021901Y-57217716D01*
X176016776Y-57225564D01*
X176012004Y-57233777D01*
X176007594Y-57242349D01*
X176003558Y-57251278D01*
X175999904Y-57260560D01*
X175996642Y-57270191D01*
X175993784Y-57280168D01*
X175991337Y-57290485D01*
X175989314Y-57301141D01*
X175987722Y-57312131D01*
X175986573Y-57323451D01*
X175985876Y-57335097D01*
X175985642Y-57347067D01*
X175985642Y-57913010D01*
X175794507Y-57913010D01*
X175794507Y-57281397D01*
X175794995Y-57261493D01*
X175796437Y-57242184D01*
X175798798Y-57223473D01*
X175802043Y-57205361D01*
X175806137Y-57187853D01*
X175811046Y-57170949D01*
X175816736Y-57154652D01*
X175823171Y-57138965D01*
X175830317Y-57123890D01*
X175838140Y-57109430D01*
X175846604Y-57095586D01*
X175855675Y-57082362D01*
X175865319Y-57069759D01*
X175875500Y-57057780D01*
X175886185Y-57046428D01*
X175897337Y-57035705D01*
X175908924Y-57025613D01*
X175920910Y-57016154D01*
X175933260Y-57007332D01*
X175945940Y-56999148D01*
X175958915Y-56991606D01*
X175972150Y-56984706D01*
X175985612Y-56978452D01*
X175999265Y-56972846D01*
X176013074Y-56967891D01*
X176027005Y-56963589D01*
X176041024Y-56959942D01*
X176055095Y-56956952D01*
X176069184Y-56954623D01*
X176083257Y-56952956D01*
X176097278Y-56951954D01*
X176111213Y-56951620D01*
X176130007Y-56952060D01*
X176148438Y-56953378D01*
X176166496Y-56955576D01*
X176184170Y-56958653D01*
X176201450Y-56962608D01*
X176218323Y-56967442D01*
X176234779Y-56973155D01*
X176250807Y-56979745D01*
X176266396Y-56987214D01*
X176281536Y-56995560D01*
X176296214Y-57004785D01*
X176310420Y-57014887D01*
X176324143Y-57025866D01*
X176337371Y-57037723D01*
X176350095Y-57050457D01*
X176362303Y-57064068D01*
X176361615Y-56311064D01*
X176348191Y-56323445D01*
X176334613Y-56335266D01*
X176320860Y-56346495D01*
X176306909Y-56357097D01*
X176292739Y-56367041D01*
X176278327Y-56376292D01*
X176263652Y-56384819D01*
X176248691Y-56392589D01*
X176233422Y-56399567D01*
X176217824Y-56405722D01*
X176201874Y-56411021D01*
X176185551Y-56415430D01*
X176168832Y-56418916D01*
X176151696Y-56421447D01*
X176134119Y-56422990D01*
X176116082Y-56423512D01*
X176105285Y-56423359D01*
X176094675Y-56422905D01*
X176084250Y-56422155D01*
X176074010Y-56421117D01*
X176063954Y-56419796D01*
X176054083Y-56418198D01*
X176044397Y-56416330D01*
X176034894Y-56414197D01*
X176025575Y-56411806D01*
X176016439Y-56409163D01*
X176007486Y-56406275D01*
X175998716Y-56403147D01*
X175990128Y-56399785D01*
X175981722Y-56396196D01*
X175965454Y-56388362D01*
X175949911Y-56379693D01*
X175935090Y-56370239D01*
X175920988Y-56360049D01*
X175907603Y-56349172D01*
X175894932Y-56337659D01*
X175882974Y-56325558D01*
X175871724Y-56312920D01*
X175861182Y-56299793D01*
X175851783Y-56287183D01*
X175843229Y-56274444D01*
X175835487Y-56261317D01*
X175828525Y-56247545D01*
X175822309Y-56232869D01*
X175816806Y-56217034D01*
X175811984Y-56199780D01*
X175807809Y-56180850D01*
X175804249Y-56159986D01*
X175801270Y-56136932D01*
X175798840Y-56111428D01*
X175796925Y-56083218D01*
X175794512Y-56017648D01*
X175793766Y-55938160D01*
X175793947Y-55896204D01*
X175794512Y-55858030D01*
X175795494Y-55823378D01*
X175796925Y-55791985D01*
X175798840Y-55763592D01*
X175801270Y-55737937D01*
X175804249Y-55714759D01*
X175807809Y-55693797D01*
X175811984Y-55674791D01*
X175814312Y-55665940D01*
X175816806Y-55657479D01*
X175819470Y-55649377D01*
X175822309Y-55641600D01*
X175825326Y-55634117D01*
X175828525Y-55626893D01*
X175835487Y-55613098D01*
X175843229Y-55599953D01*
X175851783Y-55587197D01*
X175861182Y-55574570D01*
X175871724Y-55561443D01*
X175882974Y-55548804D01*
X175894932Y-55536704D01*
X175907603Y-55525191D01*
X175920988Y-55514314D01*
X175935090Y-55504124D01*
X175949911Y-55494670D01*
X175965454Y-55486001D01*
X175981721Y-55478166D01*
X175998716Y-55471216D01*
X176016439Y-55465200D01*
X176034894Y-55460166D01*
X176054083Y-55456165D01*
X176074009Y-55453246D01*
X176094675Y-55451458D01*
X176116081Y-55450851D01*
X176134243Y-55451372D01*
G37*
D10*
X175547069Y-52585625D02*
X175547721Y-52583697D01*
X172543718Y-52820912D02*
X172542406Y-52819391D01*
D11*
X176268489Y-56211641D02*
X176278591Y-56205641D01*
D10*
X170799044Y-49055624D02*
X170797057Y-49055198D01*
X169400582Y-52344742D02*
X169401016Y-52346719D01*
X173347694Y-52813960D02*
X173346120Y-52815213D01*
X173349330Y-52812783D02*
X173347694Y-52813960D01*
X169436395Y-52382754D02*
X169438368Y-52383166D01*
X172280099Y-49286995D02*
X172279585Y-49288995D01*
X173923897Y-52023393D02*
X173919259Y-52054952D01*
X170120676Y-49700662D02*
X170119280Y-49702129D01*
X170753718Y-49067620D02*
X170120676Y-49700662D01*
D11*
X176089906Y-56217745D02*
X176101724Y-56222101D01*
D10*
X173327523Y-50981847D02*
X173371382Y-51001675D01*
X171915708Y-54396986D02*
X171917016Y-54395662D01*
X172460094Y-48362215D02*
X172458716Y-48363728D01*
D11*
X176068706Y-55667426D02*
X176059266Y-55673818D01*
D10*
X173961702Y-54387866D02*
X173962674Y-54389562D01*
X173919259Y-52054952D02*
X173913635Y-52086180D01*
X171899976Y-54405750D02*
X171901719Y-54405257D01*
X175772950Y-49753714D02*
X175773710Y-49751842D01*
X172148766Y-51301752D02*
X172178158Y-51264348D01*
X176484340Y-52340690D02*
X176484490Y-52338674D01*
X169438368Y-52383166D02*
X170286887Y-52541069D01*
X176476920Y-51416488D02*
X176475774Y-51414791D01*
X173962674Y-54389562D02*
X173963720Y-54391186D01*
D11*
X175985050Y-55965497D02*
X175985655Y-55992714D01*
D10*
X170599304Y-53311500D02*
X170597138Y-53314975D01*
X176461019Y-51400815D02*
X176459268Y-51399781D01*
X170117960Y-54074504D02*
X170119280Y-54076037D01*
X175532730Y-51203817D02*
X175530247Y-51200169D01*
X171876102Y-54403596D02*
X171877936Y-54404356D01*
X175552296Y-52574196D02*
X175554679Y-52570514D01*
X173927533Y-51991518D02*
X173923897Y-52023393D01*
X172541029Y-52817932D02*
X172539587Y-52816538D01*
X173974363Y-54401452D02*
X173975929Y-54402376D01*
X175081206Y-54721339D02*
X175083147Y-54721926D01*
X171629288Y-49584413D02*
X171625315Y-49585790D01*
D11*
X176003777Y-55756154D02*
X175997352Y-55779323D01*
D10*
X170326941Y-52566989D02*
X170329594Y-52570567D01*
X175764995Y-54075984D02*
X175766311Y-54074451D01*
X172448933Y-48381329D02*
X172448420Y-48383282D01*
D11*
X176022479Y-55714589D02*
X176016998Y-55724316D01*
D10*
X169430634Y-52380946D02*
X169432526Y-52381641D01*
X175276664Y-53268045D02*
X175277231Y-53263599D01*
X170631990Y-50528071D02*
X170632407Y-50532624D01*
X175774472Y-54028130D02*
X175773798Y-54026222D01*
X173932264Y-51894163D02*
X173931733Y-51926887D01*
X176484543Y-51439334D02*
X176484394Y-51437320D01*
X173967270Y-54395616D02*
X173968579Y-54396941D01*
X176460943Y-52377260D02*
X176462651Y-52376154D01*
X173336923Y-52825806D02*
X173334917Y-52829310D01*
D11*
X176219948Y-56228373D02*
X176233361Y-56225345D01*
D10*
X172012148Y-51553721D02*
X172029876Y-51508758D01*
X172553468Y-52840663D02*
X172552958Y-52838705D01*
X173834620Y-51464899D02*
X173854449Y-51508758D01*
X171996582Y-51599727D02*
X172012148Y-51553721D01*
X169404323Y-51421840D02*
X169403471Y-51423692D01*
X172071568Y-51422207D02*
X172095409Y-51380743D01*
X173927152Y-51792927D02*
X173930976Y-51843211D01*
X175101371Y-54723512D02*
X175105436Y-54722975D01*
D11*
X176304459Y-55690637D02*
X176296535Y-55682731D01*
D10*
X174280889Y-49588687D02*
X174276304Y-49588632D01*
X175769806Y-54069500D02*
X175770818Y-54067744D01*
X176451884Y-51396456D02*
X176449956Y-51395842D01*
X174271771Y-49588317D02*
X174267323Y-49587740D01*
X170336555Y-52583750D02*
X170337212Y-52585678D01*
X170755283Y-54711933D02*
X170756807Y-54713245D01*
X173412861Y-48353294D02*
X173409268Y-48351356D01*
X173887746Y-51599727D02*
X173901090Y-51646712D01*
X172279585Y-49288995D02*
X172278298Y-49293003D01*
D11*
X175984901Y-55938107D02*
X175985050Y-55965497D01*
D10*
X172458716Y-48363728D02*
X172457402Y-48365294D01*
D11*
X176334673Y-56136558D02*
X176339030Y-56125777D01*
D10*
X170288885Y-52541478D02*
X170290887Y-52541980D01*
X176466005Y-51404354D02*
X176464390Y-51403104D01*
X175774097Y-54060302D02*
X175775268Y-54056383D01*
X173330704Y-52840663D02*
X173329932Y-52844632D01*
X173997077Y-54406600D02*
X173998938Y-54406343D01*
X173329932Y-52844632D02*
X173329493Y-52848645D01*
X171901719Y-54405257D02*
X171903433Y-54404675D01*
X173525728Y-52693680D02*
X173475329Y-52728183D01*
X173427174Y-52765066D02*
X173351027Y-52811685D01*
X171570011Y-54240277D02*
X171874282Y-54402730D01*
D11*
X175986951Y-55855779D02*
X175985655Y-55882858D01*
X176042556Y-55688446D02*
X176035229Y-55696627D01*
X176357369Y-56041818D02*
X176359577Y-56016079D01*
D10*
X170113017Y-49757338D02*
X170114026Y-49759082D01*
X169428566Y-51397951D02*
X169426742Y-51398826D01*
X172181283Y-52527383D02*
X172143691Y-52479391D01*
X170607607Y-53268098D02*
X170607910Y-53272628D01*
X175771270Y-54020724D02*
X175770258Y-54018979D01*
X169399877Y-51437363D02*
X169399732Y-51439382D01*
X173331798Y-52836768D02*
X173330704Y-52840663D01*
X171580803Y-49585152D02*
X171576643Y-49583700D01*
X172551616Y-52868359D02*
X172552341Y-52866473D01*
X170607043Y-53263652D02*
X170607607Y-53268098D01*
X176449894Y-52382192D02*
X176451819Y-52381588D01*
X175285011Y-53311447D02*
X175283066Y-53307711D01*
X172494412Y-48346683D02*
X172492390Y-48346733D01*
X171536621Y-54232762D02*
X171541115Y-54232749D01*
X176484593Y-51441355D02*
X176484543Y-51439334D01*
X175768717Y-54071205D02*
X175769806Y-54069500D01*
D11*
X176268468Y-55662741D02*
X176257583Y-55657428D01*
D10*
X175570228Y-52554116D02*
X175573883Y-52551401D01*
X173330708Y-52862619D02*
X173331247Y-52864559D01*
X175589453Y-52543198D02*
X175593454Y-52541928D01*
X175766206Y-49703662D02*
X175764889Y-49702129D01*
X170627916Y-50563024D02*
X170626190Y-50566749D01*
X173399748Y-48347903D02*
X173397776Y-48347470D01*
X170116716Y-49705255D02*
X170115549Y-49706906D01*
X172420814Y-52738455D02*
X172414764Y-52733305D01*
X175775268Y-54056383D02*
X175776123Y-54052372D01*
D12*
G36*
X174261783Y-56952060D02*
G01*
X174280210Y-56953379D01*
X174298253Y-56955577D01*
X174315897Y-56958654D01*
X174333124Y-56962609D01*
X174349919Y-56967443D01*
X174366263Y-56973156D01*
X174382141Y-56979746D01*
X174397536Y-56987215D01*
X174412432Y-56995561D01*
X174426810Y-57004786D01*
X174440656Y-57014888D01*
X174453952Y-57025867D01*
X174466682Y-57037724D01*
X174478829Y-57050458D01*
X174490376Y-57064069D01*
X174494133Y-57064069D01*
X174494133Y-56962892D01*
X174685268Y-56962892D01*
X174685268Y-57913011D01*
X174494133Y-57913011D01*
X174494133Y-57341352D01*
X174493866Y-57328589D01*
X174493078Y-57316283D01*
X174491785Y-57304430D01*
X174490002Y-57293027D01*
X174487748Y-57282070D01*
X174485037Y-57271557D01*
X174481887Y-57261483D01*
X174478315Y-57251846D01*
X174474335Y-57242642D01*
X174469966Y-57233868D01*
X174465224Y-57225520D01*
X174460124Y-57217595D01*
X174454684Y-57210090D01*
X174448920Y-57203001D01*
X174442849Y-57196324D01*
X174436486Y-57190057D01*
X174429849Y-57184196D01*
X174422954Y-57178738D01*
X174415818Y-57173679D01*
X174408456Y-57169015D01*
X174400885Y-57164745D01*
X174393123Y-57160863D01*
X174385184Y-57157367D01*
X174377087Y-57154253D01*
X174360480Y-57149160D01*
X174343435Y-57145555D01*
X174326082Y-57143412D01*
X174308554Y-57142704D01*
X174299606Y-57142859D01*
X174291010Y-57143333D01*
X174282722Y-57144137D01*
X174274698Y-57145282D01*
X174266893Y-57146779D01*
X174259265Y-57148639D01*
X174251768Y-57150873D01*
X174244359Y-57153492D01*
X174236995Y-57156507D01*
X174229630Y-57159930D01*
X174222221Y-57163771D01*
X174214725Y-57168041D01*
X174207097Y-57172753D01*
X174199293Y-57177915D01*
X174191270Y-57183541D01*
X174182982Y-57189640D01*
X174044341Y-57024699D01*
X174055302Y-57016466D01*
X174066405Y-57008645D01*
X174077660Y-57001252D01*
X174089080Y-56994305D01*
X174100674Y-56987818D01*
X174112455Y-56981810D01*
X174124433Y-56976296D01*
X174136621Y-56971292D01*
X174149029Y-56966816D01*
X174161668Y-56962883D01*
X174174549Y-56959510D01*
X174187685Y-56956714D01*
X174201085Y-56954510D01*
X174214762Y-56952916D01*
X174228727Y-56951947D01*
X174242990Y-56951621D01*
X174261783Y-56952060D01*
G37*
D10*
X171984830Y-52147575D02*
X171970694Y-52086180D01*
X171598672Y-49588485D02*
X171594090Y-49588028D01*
X175276313Y-53277155D02*
X175276359Y-53272575D01*
D11*
X176078910Y-55661685D02*
X176068706Y-55667426D01*
D10*
X175077367Y-49058165D02*
X175075530Y-49059012D01*
X170119280Y-54076037D02*
X170120677Y-54077505D01*
X169410965Y-51411543D02*
X169408475Y-51414800D01*
X171594090Y-49588028D02*
X171589562Y-49587319D01*
X172486380Y-48347470D02*
X172484404Y-48347903D01*
X176477996Y-51418227D02*
X176476920Y-51416488D01*
D11*
X176016998Y-55724316D02*
X176012074Y-55734504D01*
D10*
X173092917Y-50915448D02*
X173141673Y-50924155D01*
X171562551Y-54236758D02*
X171566394Y-54238380D01*
X174254842Y-49584413D02*
X174251086Y-49582763D01*
X173960807Y-54386099D02*
X173961702Y-54387866D01*
X175525396Y-51190750D02*
X175524685Y-51188837D01*
X174267323Y-49587740D02*
X174262995Y-49586899D01*
X169408475Y-51414800D02*
X169406255Y-51418240D01*
X172221702Y-52572938D02*
X172181283Y-52527383D01*
X171554318Y-54234337D02*
X171558514Y-54235411D01*
X175770818Y-54067744D02*
X175772613Y-54064100D01*
X172312369Y-51130132D02*
X172349771Y-51100739D01*
D11*
X176028546Y-56169105D02*
X176035229Y-56177805D01*
D10*
X175256267Y-50563024D02*
X175254824Y-50559077D01*
D12*
G36*
X169166007Y-55873632D02*
G01*
X169167785Y-55906078D01*
X169168387Y-55939959D01*
X169167731Y-55975636D01*
X169165793Y-56009615D01*
X169162621Y-56041934D01*
X169158263Y-56072630D01*
X169152766Y-56101740D01*
X169146176Y-56129301D01*
X169138543Y-56155350D01*
X169129912Y-56179924D01*
X169120331Y-56203060D01*
X169109847Y-56224795D01*
X169098509Y-56245166D01*
X169086362Y-56264210D01*
X169073455Y-56281964D01*
X169059835Y-56298466D01*
X169045549Y-56313751D01*
X169030645Y-56327858D01*
X169015169Y-56340823D01*
X168999170Y-56352683D01*
X168982694Y-56363476D01*
X168965790Y-56373237D01*
X168948503Y-56382005D01*
X168930882Y-56389817D01*
X168894826Y-56402718D01*
X168858001Y-56412236D01*
X168820784Y-56418668D01*
X168783556Y-56422310D01*
X168746694Y-56423458D01*
X168722873Y-56422927D01*
X168699215Y-56421313D01*
X168675754Y-56418591D01*
X168652523Y-56414732D01*
X168629555Y-56409709D01*
X168606884Y-56403495D01*
X168584542Y-56396062D01*
X168562564Y-56387382D01*
X168540982Y-56377429D01*
X168519829Y-56366175D01*
X168499139Y-56353592D01*
X168478945Y-56339653D01*
X168459280Y-56324331D01*
X168440178Y-56307598D01*
X168421672Y-56289426D01*
X168403794Y-56269789D01*
X168542489Y-56151784D01*
X168553291Y-56162391D01*
X168564578Y-56172413D01*
X168576307Y-56181838D01*
X168588437Y-56190650D01*
X168600929Y-56198837D01*
X168613741Y-56206384D01*
X168626831Y-56213278D01*
X168640160Y-56219504D01*
X168653686Y-56225050D01*
X168667368Y-56229901D01*
X168681166Y-56234044D01*
X168695038Y-56237464D01*
X168708943Y-56240149D01*
X168722841Y-56242083D01*
X168736691Y-56243254D01*
X168750451Y-56243647D01*
X168762648Y-56243417D01*
X168774624Y-56242725D01*
X168786369Y-56241573D01*
X168797872Y-56239960D01*
X168809122Y-56237887D01*
X168820108Y-56235355D01*
X168830819Y-56232364D01*
X168841245Y-56228913D01*
X168851373Y-56225004D01*
X168861193Y-56220637D01*
X168870695Y-56215812D01*
X168879867Y-56210529D01*
X168888698Y-56204789D01*
X168897177Y-56198593D01*
X168905294Y-56191939D01*
X168913038Y-56184830D01*
X168920397Y-56177265D01*
X168927360Y-56169245D01*
X168933918Y-56160769D01*
X168940058Y-56151839D01*
X168945769Y-56142454D01*
X168951042Y-56132615D01*
X168955864Y-56122323D01*
X168960225Y-56111577D01*
X168964114Y-56100378D01*
X168967520Y-56088727D01*
X168970432Y-56076623D01*
X168972839Y-56064068D01*
X168974730Y-56051060D01*
X168976095Y-56037602D01*
X168976922Y-56023692D01*
X168977200Y-56009333D01*
X168385009Y-56009333D01*
X168385009Y-55851959D01*
X168576197Y-55851959D01*
X168977200Y-55851959D01*
X168976618Y-55838619D01*
X168975574Y-55825677D01*
X168974075Y-55813135D01*
X168972134Y-55800994D01*
X168969758Y-55789256D01*
X168966957Y-55777922D01*
X168963742Y-55766995D01*
X168960122Y-55756475D01*
X168956106Y-55746366D01*
X168951705Y-55736668D01*
X168946926Y-55727382D01*
X168941782Y-55718512D01*
X168936280Y-55710058D01*
X168930431Y-55702021D01*
X168924244Y-55694405D01*
X168917728Y-55687210D01*
X168910894Y-55680438D01*
X168903752Y-55674091D01*
X168896309Y-55668170D01*
X168888578Y-55662678D01*
X168880566Y-55657615D01*
X168872283Y-55652983D01*
X168863740Y-55648785D01*
X168854945Y-55645022D01*
X168845909Y-55641695D01*
X168836641Y-55638806D01*
X168827150Y-55636357D01*
X168817447Y-55634349D01*
X168807541Y-55632785D01*
X168797441Y-55631666D01*
X168787157Y-55630993D01*
X168776699Y-55630768D01*
X168766247Y-55630993D01*
X168755979Y-55631666D01*
X168745904Y-55632785D01*
X168736031Y-55634349D01*
X168726369Y-55636357D01*
X168716925Y-55638806D01*
X168707708Y-55641695D01*
X168698728Y-55645022D01*
X168689992Y-55648785D01*
X168681509Y-55652983D01*
X168673288Y-55657615D01*
X168665336Y-55662678D01*
X168657664Y-55668170D01*
X168650279Y-55674091D01*
X168643189Y-55680438D01*
X168636404Y-55687210D01*
X168629931Y-55694405D01*
X168623780Y-55702022D01*
X168617959Y-55710058D01*
X168612476Y-55718512D01*
X168607341Y-55727383D01*
X168602561Y-55736668D01*
X168598145Y-55746366D01*
X168594101Y-55756476D01*
X168590439Y-55766995D01*
X168587167Y-55777922D01*
X168584293Y-55789256D01*
X168581826Y-55800994D01*
X168579774Y-55813135D01*
X168578147Y-55825678D01*
X168576951Y-55838620D01*
X168576197Y-55851959D01*
X168385009Y-55851959D01*
X168385009Y-55851906D01*
X168385537Y-55829148D01*
X168387103Y-55806930D01*
X168389679Y-55785264D01*
X168393236Y-55764161D01*
X168397746Y-55743634D01*
X168403181Y-55723694D01*
X168409513Y-55704354D01*
X168416713Y-55685626D01*
X168424753Y-55667521D01*
X168433606Y-55650052D01*
X168443242Y-55633231D01*
X168453634Y-55617069D01*
X168464753Y-55601579D01*
X168476572Y-55586772D01*
X168489061Y-55572661D01*
X168502193Y-55559257D01*
X168515940Y-55546573D01*
X168530273Y-55534620D01*
X168545164Y-55523410D01*
X168560585Y-55512957D01*
X168576508Y-55503270D01*
X168592904Y-55494363D01*
X168609745Y-55486247D01*
X168627004Y-55478935D01*
X168644651Y-55472438D01*
X168662659Y-55466769D01*
X168680999Y-55461939D01*
X168699643Y-55457960D01*
X168718564Y-55454844D01*
X168737732Y-55452604D01*
X168757120Y-55451251D01*
X168776698Y-55450798D01*
X168811383Y-55452235D01*
X168846294Y-55456675D01*
X168863727Y-55460080D01*
X168881090Y-55464307D01*
X168898339Y-55469378D01*
X168915432Y-55475318D01*
X168932326Y-55482150D01*
X168948980Y-55489899D01*
X168965350Y-55498587D01*
X168981394Y-55508238D01*
X168997069Y-55518876D01*
X169012334Y-55530525D01*
X169027145Y-55543208D01*
X169041460Y-55556949D01*
X169055237Y-55571771D01*
X169068433Y-55587698D01*
X169081005Y-55604754D01*
X169092912Y-55622963D01*
X169104110Y-55642348D01*
X169114557Y-55662932D01*
X169124211Y-55684740D01*
X169133030Y-55707794D01*
X169140970Y-55732119D01*
X169147989Y-55757739D01*
X169154044Y-55784676D01*
X169159094Y-55812955D01*
X169163096Y-55842599D01*
X169163974Y-55851959D01*
X169166007Y-55873632D01*
G37*
D10*
X169426742Y-51398826D02*
X169424956Y-51399782D01*
X176467495Y-52372408D02*
X176470466Y-52369585D01*
X170760037Y-54715643D02*
X170761735Y-54716728D01*
X174276304Y-49588632D02*
X174271771Y-49588317D01*
X175773798Y-54026222D02*
X175773040Y-54024349D01*
X173475329Y-52728183D02*
X173469537Y-52733305D01*
X173331247Y-52864559D02*
X173331882Y-52866473D01*
X169416669Y-51405672D02*
X169413703Y-51408493D01*
X170606213Y-53259325D02*
X170607043Y-53263652D01*
X172470220Y-51023540D02*
X172512910Y-51001675D01*
X170109002Y-49721714D02*
X170108151Y-49725720D01*
X173330263Y-52860658D02*
X173330708Y-52862619D01*
X170331974Y-52574249D02*
X170334053Y-52578010D01*
X175070342Y-54716051D02*
X175072040Y-54717144D01*
X171585121Y-49586359D02*
X171580803Y-49585152D01*
X175764889Y-49702129D02*
X175763498Y-49700662D01*
X170329594Y-52570567D02*
X170331974Y-52574249D01*
X169401539Y-52348679D02*
X169402149Y-52350616D01*
D12*
G36*
X175662480Y-55873632D02*
G01*
X175664259Y-55906078D01*
X175664861Y-55939959D01*
X175664204Y-55975636D01*
X175662267Y-56009615D01*
X175659095Y-56041934D01*
X175654737Y-56072630D01*
X175649240Y-56101740D01*
X175642651Y-56129301D01*
X175635017Y-56155350D01*
X175626386Y-56179924D01*
X175616806Y-56203060D01*
X175606323Y-56224795D01*
X175594985Y-56245166D01*
X175582839Y-56264210D01*
X175569933Y-56281964D01*
X175556314Y-56298466D01*
X175542029Y-56313751D01*
X175527125Y-56327858D01*
X175511651Y-56340823D01*
X175495653Y-56352683D01*
X175479179Y-56363476D01*
X175462276Y-56373237D01*
X175444992Y-56382005D01*
X175427373Y-56389817D01*
X175391322Y-56402718D01*
X175354503Y-56412236D01*
X175317294Y-56418668D01*
X175280073Y-56422310D01*
X175243221Y-56423458D01*
X175219392Y-56422927D01*
X175195729Y-56421313D01*
X175172266Y-56418591D01*
X175149034Y-56414732D01*
X175126068Y-56409709D01*
X175103399Y-56403495D01*
X175081060Y-56396062D01*
X175059084Y-56387382D01*
X175037504Y-56377429D01*
X175016352Y-56366175D01*
X174995661Y-56353592D01*
X174975464Y-56339653D01*
X174955794Y-56324331D01*
X174936682Y-56307598D01*
X174918163Y-56289426D01*
X174900268Y-56269789D01*
X175038963Y-56151784D01*
X175049756Y-56162391D01*
X175061036Y-56172413D01*
X175072761Y-56181838D01*
X175084889Y-56190650D01*
X175097379Y-56198837D01*
X175110191Y-56206384D01*
X175123283Y-56213278D01*
X175136614Y-56219504D01*
X175150142Y-56225050D01*
X175163828Y-56229901D01*
X175177629Y-56234044D01*
X175191504Y-56237464D01*
X175205412Y-56240149D01*
X175219313Y-56242083D01*
X175233164Y-56243254D01*
X175246925Y-56243647D01*
X175259122Y-56243417D01*
X175271099Y-56242725D01*
X175282845Y-56241573D01*
X175294349Y-56239960D01*
X175305600Y-56237887D01*
X175316587Y-56235355D01*
X175327300Y-56232364D01*
X175337727Y-56228913D01*
X175347857Y-56225004D01*
X175357679Y-56220637D01*
X175367183Y-56215812D01*
X175376357Y-56210529D01*
X175385191Y-56204789D01*
X175393673Y-56198593D01*
X175401792Y-56191939D01*
X175409538Y-56184830D01*
X175416900Y-56177265D01*
X175423866Y-56169245D01*
X175430425Y-56160769D01*
X175436567Y-56151839D01*
X175442281Y-56142454D01*
X175447556Y-56132615D01*
X175452380Y-56122323D01*
X175456743Y-56111577D01*
X175460634Y-56100378D01*
X175464041Y-56088727D01*
X175466955Y-56076623D01*
X175469363Y-56064068D01*
X175471256Y-56051060D01*
X175472621Y-56037602D01*
X175473448Y-56023692D01*
X175473726Y-56009333D01*
X174881535Y-56009333D01*
X174881535Y-55851959D01*
X175072670Y-55851959D01*
X175473726Y-55851959D01*
X175473139Y-55838619D01*
X175472090Y-55825677D01*
X175470588Y-55813135D01*
X175468642Y-55800994D01*
X175466262Y-55789256D01*
X175463459Y-55777922D01*
X175460241Y-55766995D01*
X175456617Y-55756475D01*
X175452599Y-55746366D01*
X175448195Y-55736668D01*
X175443414Y-55727382D01*
X175438268Y-55718512D01*
X175432764Y-55710058D01*
X175426913Y-55702021D01*
X175420725Y-55694405D01*
X175414208Y-55687210D01*
X175407373Y-55680438D01*
X175400229Y-55674091D01*
X175392786Y-55668170D01*
X175385053Y-55662678D01*
X175377041Y-55657615D01*
X175368758Y-55652983D01*
X175360214Y-55648785D01*
X175351419Y-55645022D01*
X175342383Y-55641695D01*
X175333114Y-55638806D01*
X175323623Y-55636357D01*
X175313920Y-55634349D01*
X175304014Y-55632785D01*
X175293914Y-55631666D01*
X175283630Y-55630993D01*
X175273172Y-55630768D01*
X175262719Y-55630993D01*
X175252451Y-55631666D01*
X175242375Y-55632785D01*
X175232502Y-55634349D01*
X175222838Y-55636357D01*
X175213393Y-55638806D01*
X175204175Y-55641695D01*
X175195193Y-55645022D01*
X175186456Y-55648785D01*
X175177971Y-55652983D01*
X175169748Y-55657615D01*
X175161795Y-55662678D01*
X175154121Y-55668170D01*
X175146734Y-55674091D01*
X175139643Y-55680438D01*
X175132857Y-55687210D01*
X175126383Y-55694405D01*
X175120231Y-55702022D01*
X175114409Y-55710058D01*
X175108926Y-55718512D01*
X175103790Y-55727383D01*
X175099010Y-55736668D01*
X175094595Y-55746366D01*
X175090552Y-55756476D01*
X175086891Y-55766995D01*
X175083621Y-55777922D01*
X175080749Y-55789256D01*
X175078284Y-55800994D01*
X175076235Y-55813135D01*
X175074611Y-55825678D01*
X175073420Y-55838620D01*
X175072670Y-55851959D01*
X174881535Y-55851959D01*
X174881535Y-55851906D01*
X174882063Y-55829148D01*
X174883628Y-55806930D01*
X174886202Y-55785264D01*
X174889756Y-55764161D01*
X174894262Y-55743634D01*
X174899693Y-55723694D01*
X174906021Y-55704354D01*
X174913216Y-55685626D01*
X174921251Y-55667521D01*
X174930098Y-55650052D01*
X174939729Y-55633231D01*
X174950115Y-55617069D01*
X174961229Y-55601579D01*
X174973042Y-55586772D01*
X174985526Y-55572661D01*
X174998653Y-55559257D01*
X175012395Y-55546573D01*
X175026724Y-55534620D01*
X175041611Y-55523410D01*
X175057029Y-55512957D01*
X175072949Y-55503270D01*
X175089343Y-55494363D01*
X175106183Y-55486247D01*
X175123441Y-55478935D01*
X175141088Y-55472438D01*
X175159098Y-55466769D01*
X175177441Y-55461939D01*
X175196089Y-55457960D01*
X175215014Y-55454844D01*
X175234188Y-55452604D01*
X175253584Y-55451251D01*
X175273172Y-55450798D01*
X175307848Y-55452235D01*
X175342752Y-55456675D01*
X175360183Y-55460080D01*
X175377544Y-55464307D01*
X175394791Y-55469378D01*
X175411883Y-55475318D01*
X175428777Y-55482150D01*
X175445430Y-55489899D01*
X175461800Y-55498587D01*
X175477844Y-55508238D01*
X175493520Y-55518876D01*
X175508785Y-55530525D01*
X175523597Y-55543208D01*
X175537914Y-55556949D01*
X175551692Y-55571771D01*
X175564889Y-55587698D01*
X175577463Y-55604754D01*
X175589372Y-55622963D01*
X175600571Y-55642348D01*
X175611020Y-55662932D01*
X175620676Y-55684740D01*
X175629496Y-55707794D01*
X175637437Y-55732119D01*
X175644458Y-55757739D01*
X175650515Y-55784676D01*
X175655566Y-55812955D01*
X175659569Y-55842599D01*
X175660447Y-55851959D01*
X175662480Y-55873632D01*
G37*
D10*
X170339056Y-51217154D02*
X170335478Y-51220063D01*
X173346120Y-52815213D02*
X173344608Y-52816538D01*
X174356570Y-54233571D02*
X174360936Y-54234394D01*
X172482448Y-48348425D02*
X172480513Y-48349033D01*
X176471942Y-51409985D02*
X176470541Y-51408488D01*
X174303347Y-49585152D02*
X174299034Y-49586359D01*
D11*
X176007676Y-56129473D02*
X176012074Y-56140051D01*
D10*
X173534529Y-51100739D02*
X173571933Y-51130132D01*
X170112499Y-54065996D02*
X170113438Y-54067797D01*
X173812753Y-51422207D02*
X173834620Y-51464899D01*
X171603271Y-49588687D02*
X171598672Y-49588485D01*
X172242060Y-51194036D02*
X172276444Y-51161252D01*
X175089117Y-54723190D02*
X175093181Y-54723622D01*
X173854449Y-51508758D02*
X173872179Y-51553721D01*
X173438531Y-52757591D02*
X173432670Y-52761575D01*
D11*
X176114395Y-56225727D02*
X176127946Y-56228595D01*
D10*
X169412486Y-52368138D02*
X169413888Y-52369638D01*
X173419547Y-48358014D02*
X173416295Y-48355520D01*
X170803041Y-54721391D02*
X170804949Y-54720721D01*
X172457402Y-48365294D02*
X172456154Y-48366909D01*
X176479931Y-51421823D02*
X176479001Y-51420007D01*
D11*
X176022479Y-56159894D02*
X176028546Y-56169105D01*
D10*
X173881612Y-52207446D02*
X173871307Y-52236770D01*
X170337212Y-52585678D02*
X170602112Y-53247401D01*
X175775176Y-49721714D02*
X175774001Y-49717799D01*
D11*
X176278569Y-55668751D02*
X176268468Y-55662741D01*
D10*
X176482856Y-51429395D02*
X176482249Y-51427462D01*
X170799135Y-54722483D02*
X170803041Y-54721391D01*
X171903433Y-54404675D02*
X171905114Y-54404007D01*
X175122528Y-54716676D02*
X175124228Y-54715590D01*
X175593454Y-52541928D02*
X175595452Y-52541426D01*
X169416861Y-52372460D02*
X169418427Y-52373777D01*
X173405540Y-48349727D02*
X173403633Y-48349033D01*
X175776334Y-54036039D02*
X175775569Y-54032037D01*
X170316050Y-51230923D02*
X170312042Y-51232201D01*
X176464390Y-51403104D02*
X176462727Y-51401923D01*
X175767447Y-49705255D02*
X175766206Y-49703662D01*
X169434236Y-51395842D02*
X169432316Y-51396456D01*
X173457222Y-52743546D02*
X173450914Y-52748489D01*
X172742610Y-50924155D02*
X172791365Y-50915448D01*
X175105383Y-49055061D02*
X175101318Y-49054523D01*
X173416295Y-48355520D02*
X173412861Y-48353294D01*
X175776123Y-54052372D02*
X175776661Y-54048302D01*
X172388588Y-51073134D02*
X172428759Y-51047381D01*
X170786906Y-49054307D02*
X170782816Y-49054523D01*
X175260004Y-50502983D02*
X175262165Y-50499492D01*
D11*
X176012074Y-56140051D02*
X176016998Y-56150200D01*
D10*
X175128993Y-54711881D02*
X175130456Y-54710494D01*
X172450237Y-48377509D02*
X172449540Y-48379404D01*
X172456154Y-48366909D02*
X172454976Y-48368572D01*
X172550142Y-52831124D02*
X172549250Y-52829310D01*
X175595452Y-52541426D02*
X175597445Y-52541017D01*
X175776877Y-54044202D02*
X175776768Y-54040104D01*
D11*
X176233346Y-55649021D02*
X176219935Y-55645991D01*
D10*
X174376946Y-54240349D02*
X174380415Y-54242499D01*
D11*
X176318357Y-56166368D02*
X176324366Y-56156886D01*
D10*
X173427968Y-48366909D02*
X173425408Y-48363728D01*
X171912923Y-54399398D02*
X171914343Y-54398232D01*
X170605593Y-53295335D02*
X170604382Y-53299647D01*
X169399843Y-52338727D02*
X169399993Y-52340742D01*
X173907042Y-52117060D02*
X173899496Y-52147575D01*
X172272556Y-49304847D02*
X172270090Y-49308647D01*
X170331763Y-51222756D02*
X170327936Y-51225211D01*
X173930976Y-51843211D02*
X173932264Y-51894163D01*
X172488371Y-48347130D02*
X172486380Y-48347470D01*
D11*
X176296558Y-56191688D02*
X176304483Y-56183801D01*
D10*
X176445964Y-52383113D02*
X176447942Y-52382701D01*
X171918263Y-54394262D02*
X171919446Y-54392786D01*
X175585470Y-52544804D02*
X175589453Y-52543198D01*
X175541701Y-51214053D02*
X175538483Y-51210781D01*
X170290887Y-52541980D02*
X170292890Y-52542572D01*
X170630382Y-50519147D02*
X170631314Y-50523567D01*
X172554690Y-52848645D02*
X172554509Y-52846635D01*
X173332612Y-52868359D02*
X173959992Y-54384263D01*
X174347639Y-54232730D02*
X174352126Y-54233016D01*
X172109056Y-52429092D02*
X172077509Y-52376618D01*
X171890935Y-54406850D02*
X171892776Y-54406816D01*
X175770717Y-49710364D02*
X175769703Y-49708610D01*
X170359542Y-51188837D02*
X170358019Y-51192657D01*
X175118980Y-54718618D02*
X175120777Y-54717685D01*
X173435700Y-48383282D02*
X173435187Y-48381329D01*
X175548687Y-51220063D02*
X175545111Y-51217154D01*
X175775910Y-49744043D02*
X175776251Y-49742034D01*
X175574173Y-51232710D02*
X175572167Y-51232201D01*
X176482190Y-52350564D02*
X176482798Y-52348626D01*
X176483377Y-51431351D02*
X176482856Y-51429395D01*
X172554786Y-52850658D02*
X172554690Y-52848645D01*
X172457054Y-52765066D02*
X172451573Y-52761575D01*
X172554244Y-52844632D02*
X172553897Y-52842640D01*
X170806720Y-49058165D02*
X170804850Y-49057404D01*
X171527697Y-54233600D02*
X171532137Y-54233046D01*
X170763416Y-49060381D02*
X170761663Y-49061396D01*
X172469532Y-48354372D02*
X172467835Y-48355520D01*
D11*
X176101724Y-56222101D02*
X176114395Y-56225727D01*
D10*
X174311462Y-49582005D02*
X174307501Y-49583700D01*
X173989700Y-54406658D02*
X173991527Y-54406787D01*
X171887224Y-54406631D02*
X171889083Y-54406789D01*
X176464314Y-52374974D02*
X176467495Y-52372408D01*
X170767054Y-49058581D02*
X170765214Y-49059442D01*
X173450914Y-52748489D02*
X173444647Y-52753200D01*
X169405410Y-52358090D02*
X169406417Y-52359875D01*
X173899496Y-52147575D02*
X173891014Y-52177709D01*
X174373229Y-54238462D02*
X174376946Y-54240349D01*
X170632459Y-50541743D02*
X170632089Y-50546240D01*
X173995219Y-54406758D02*
X173997077Y-54406600D01*
X170778818Y-54723028D02*
X170782883Y-54723564D01*
X175771654Y-49712164D02*
X175770717Y-49710364D01*
X175279898Y-53299594D02*
X175278681Y-53295283D01*
X175538483Y-51210781D02*
X175535484Y-51207361D01*
X172261357Y-49319243D02*
X172258076Y-49322419D01*
X176481557Y-51425553D02*
X176480783Y-51423672D01*
D11*
X175985655Y-55992714D02*
X175986951Y-56019537D01*
D10*
X170312042Y-51232201D02*
X170308054Y-51233128D01*
D11*
X176233361Y-56225345D02*
X176245904Y-56221526D01*
D10*
X175256412Y-50510694D02*
X175258085Y-50506729D01*
D11*
X175989176Y-56045746D02*
X175992564Y-56071122D01*
D10*
X169403471Y-51423692D02*
X169402699Y-51425575D01*
X175282168Y-53247348D02*
X175547069Y-52585625D01*
X170602112Y-53247401D02*
X170603751Y-53251164D01*
X175093128Y-49054417D02*
X175089064Y-49054855D01*
X176459193Y-52378290D02*
X176460943Y-52377260D01*
X173642248Y-51194036D02*
X173675033Y-51228422D01*
X170804850Y-49057404D02*
X170802944Y-49056726D01*
X171889083Y-54406789D02*
X171890935Y-54406850D01*
X176470541Y-51408488D02*
X176469084Y-51407049D01*
X170335808Y-52581827D02*
X170336555Y-52583750D01*
X173619579Y-49315872D02*
X173616663Y-49312331D01*
X173706154Y-51264348D02*
X173735549Y-51301752D01*
X170108975Y-54056435D02*
X170110150Y-54060355D01*
D11*
X176142409Y-56230678D02*
X176157811Y-56231948D01*
D10*
X173930150Y-51959344D02*
X173927533Y-51991518D01*
X170621956Y-50499492D02*
X170624136Y-50502983D01*
X172274760Y-49300955D02*
X172272556Y-49304847D01*
X175071987Y-49060961D02*
X175070289Y-49062063D01*
X170606558Y-53290901D02*
X170605593Y-53295335D01*
X171503866Y-54242552D02*
X171507334Y-54240393D01*
D11*
X176324366Y-56156886D02*
X176329795Y-56146939D01*
D10*
X170302810Y-52546774D02*
X170306675Y-52548981D01*
X170632089Y-50546240D02*
X170631452Y-50550651D01*
X170110855Y-54062271D02*
X170111638Y-54064152D01*
X173329648Y-52856687D02*
X173329910Y-52858680D01*
D12*
G36*
X172217711Y-57628160D02*
G01*
X172221574Y-57628160D01*
X172437050Y-56962892D01*
X172575745Y-56962892D01*
X172791221Y-57628160D01*
X172794978Y-57628160D01*
X172976800Y-56962892D01*
X173179154Y-56962892D01*
X172875571Y-57913011D01*
X172706925Y-57913011D01*
X172508276Y-57247689D01*
X172504519Y-57247689D01*
X172305870Y-57913011D01*
X172137119Y-57913011D01*
X171833589Y-56962892D01*
X172036048Y-56962892D01*
X172217711Y-57628160D01*
G37*
D10*
X173393789Y-48346883D02*
X173391779Y-48346733D01*
X171532137Y-54233046D02*
X171536621Y-54232762D01*
D11*
X176245904Y-56221526D02*
X176257603Y-56216947D01*
D10*
X175130456Y-54710494D02*
X175763604Y-54077452D01*
X170763483Y-54717737D02*
X170767116Y-54719526D01*
X175097276Y-54723728D02*
X175101371Y-54723512D01*
X176475704Y-52363268D02*
X176477929Y-52359822D01*
X176470466Y-52369585D02*
X176473209Y-52366530D01*
X175776575Y-49729786D02*
X175776035Y-49725720D01*
X170320911Y-52560233D02*
X170324038Y-52563536D01*
X171954183Y-51959344D02*
X171952070Y-51894163D01*
X174251086Y-49582763D02*
X173647995Y-49335907D01*
X173975929Y-54402376D02*
X173977538Y-54403217D01*
X175772104Y-49755547D02*
X175772950Y-49753714D01*
X175556233Y-51225211D02*
X175552403Y-51222756D01*
X176483808Y-51433325D02*
X176483377Y-51431351D01*
D12*
G36*
X174039679Y-57517173D02*
G01*
X174037265Y-57583192D01*
X174035350Y-57611575D01*
X174032919Y-57637221D01*
X174029938Y-57660392D01*
X174026376Y-57681348D01*
X174022198Y-57700350D01*
X174017372Y-57717659D01*
X174011865Y-57733535D01*
X174005644Y-57748240D01*
X173998676Y-57762035D01*
X173990927Y-57775179D01*
X173982365Y-57787935D01*
X173972957Y-57800563D01*
X173962415Y-57813690D01*
X173951169Y-57826328D01*
X173939215Y-57838429D01*
X173926551Y-57849942D01*
X173913173Y-57860818D01*
X173899079Y-57871008D01*
X173884266Y-57880463D01*
X173868730Y-57889132D01*
X173852470Y-57896966D01*
X173844067Y-57900555D01*
X173835482Y-57903916D01*
X173826714Y-57907044D01*
X173817763Y-57909933D01*
X173808629Y-57912576D01*
X173799311Y-57914967D01*
X173789809Y-57917099D01*
X173780122Y-57918968D01*
X173770251Y-57920566D01*
X173760195Y-57921887D01*
X173749953Y-57922925D01*
X173739525Y-57923675D01*
X173728910Y-57924129D01*
X173718110Y-57924282D01*
X173699948Y-57923759D01*
X173682033Y-57922216D01*
X173664393Y-57919689D01*
X173647055Y-57916213D01*
X173630046Y-57911826D01*
X173613395Y-57906562D01*
X173597128Y-57900458D01*
X173581274Y-57893550D01*
X173565859Y-57885875D01*
X173550911Y-57877468D01*
X173536458Y-57868365D01*
X173522527Y-57858604D01*
X173509146Y-57848219D01*
X173496342Y-57837247D01*
X173484143Y-57825724D01*
X173472576Y-57813686D01*
X173472576Y-57913011D01*
X173281441Y-57913011D01*
X173281441Y-57437078D01*
X173472576Y-57437078D01*
X173473327Y-57489618D01*
X173474614Y-57515899D01*
X173476822Y-57541843D01*
X173480183Y-57567192D01*
X173484930Y-57591689D01*
X173491297Y-57615077D01*
X173495161Y-57626274D01*
X173499518Y-57637096D01*
X173504396Y-57647513D01*
X173509825Y-57657491D01*
X173515834Y-57666998D01*
X173522452Y-57676002D01*
X173529709Y-57684471D01*
X173537633Y-57692373D01*
X173546254Y-57699675D01*
X173555600Y-57706345D01*
X173565702Y-57712351D01*
X173576588Y-57717661D01*
X173588288Y-57722242D01*
X173600830Y-57726063D01*
X173614243Y-57729090D01*
X173628558Y-57731293D01*
X173643803Y-57732638D01*
X173660007Y-57733094D01*
X173676380Y-57732664D01*
X173691782Y-57731395D01*
X173706245Y-57729313D01*
X173719796Y-57726445D01*
X173732467Y-57722818D01*
X173744285Y-57718459D01*
X173755281Y-57713396D01*
X173765485Y-57707655D01*
X173774925Y-57701263D01*
X173783632Y-57694249D01*
X173791635Y-57686638D01*
X173798963Y-57678458D01*
X173805645Y-57669736D01*
X173811712Y-57660499D01*
X173817193Y-57650774D01*
X173822118Y-57640589D01*
X173826515Y-57629970D01*
X173830414Y-57618944D01*
X173833846Y-57607539D01*
X173836839Y-57595782D01*
X173839423Y-57583699D01*
X173841627Y-57571318D01*
X173845016Y-57545771D01*
X173847240Y-57519357D01*
X173848536Y-57492292D01*
X173849141Y-57464794D01*
X173849290Y-57437078D01*
X173848536Y-57382436D01*
X173847240Y-57355599D01*
X173845016Y-57329378D01*
X173841627Y-57303992D01*
X173836839Y-57279661D01*
X173830414Y-57256604D01*
X173826515Y-57245623D01*
X173822118Y-57235042D01*
X173817193Y-57224890D01*
X173811712Y-57215194D01*
X173805645Y-57205981D01*
X173798963Y-57197280D01*
X173791635Y-57189116D01*
X173783632Y-57181519D01*
X173774925Y-57174514D01*
X173765485Y-57168131D01*
X173755281Y-57162395D01*
X173744285Y-57157336D01*
X173732467Y-57152979D01*
X173719796Y-57149353D01*
X173706245Y-57146485D01*
X173691782Y-57144402D01*
X173676380Y-57143132D01*
X173660007Y-57142703D01*
X173643803Y-57143159D01*
X173628558Y-57144505D01*
X173614243Y-57146710D01*
X173600830Y-57149739D01*
X173588288Y-57153561D01*
X173576588Y-57158143D01*
X173565702Y-57163452D01*
X173555600Y-57169455D01*
X173546254Y-57176121D01*
X173537633Y-57183416D01*
X173529709Y-57191308D01*
X173522452Y-57199764D01*
X173515834Y-57208751D01*
X173509825Y-57218237D01*
X173504396Y-57228189D01*
X173499518Y-57238575D01*
X173495161Y-57249361D01*
X173491297Y-57260516D01*
X173487897Y-57272007D01*
X173484930Y-57283800D01*
X173482369Y-57295864D01*
X173480183Y-57308166D01*
X173476822Y-57333352D01*
X173474614Y-57359097D01*
X173473327Y-57385141D01*
X173472725Y-57411221D01*
X173472576Y-57437078D01*
X173281441Y-57437078D01*
X173281441Y-56578611D01*
X173472576Y-56578611D01*
X173472576Y-57064069D01*
X173486001Y-57051688D01*
X173499578Y-57039866D01*
X173513332Y-57028638D01*
X173527282Y-57018036D01*
X173541453Y-57008092D01*
X173555864Y-56998840D01*
X173570540Y-56990313D01*
X173585500Y-56982544D01*
X173600769Y-56975566D01*
X173616367Y-56969411D01*
X173632317Y-56964112D01*
X173648640Y-56959703D01*
X173665359Y-56956216D01*
X173682495Y-56953685D01*
X173700072Y-56952142D01*
X173718110Y-56951621D01*
X173739525Y-56952227D01*
X173760195Y-56954011D01*
X173780122Y-56956926D01*
X173799311Y-56960921D01*
X173817763Y-56965948D01*
X173835482Y-56971958D01*
X173852470Y-56978902D01*
X173868730Y-56986731D01*
X173884266Y-56995396D01*
X173899079Y-57004848D01*
X173913173Y-57015037D01*
X173926551Y-57025916D01*
X173939215Y-57037434D01*
X173951169Y-57049544D01*
X173962415Y-57062195D01*
X173972957Y-57075340D01*
X173982365Y-57087948D01*
X173990927Y-57100685D01*
X173998676Y-57113808D01*
X174005644Y-57127575D01*
X174008846Y-57134781D01*
X174011865Y-57142246D01*
X174014706Y-57150000D01*
X174017372Y-57158077D01*
X174019868Y-57166509D01*
X174022198Y-57175328D01*
X174026376Y-57194257D01*
X174029938Y-57215121D01*
X174032919Y-57238180D01*
X174035350Y-57263692D01*
X174037265Y-57291915D01*
X174038697Y-57323106D01*
X174039679Y-57357525D01*
X174040244Y-57395430D01*
X174040425Y-57437078D01*
X174039679Y-57517173D01*
G37*
D10*
X172452842Y-48372030D02*
X172451891Y-48373820D01*
X171894604Y-54406687D02*
X171896416Y-54406466D01*
D11*
X175997352Y-55779323D02*
X175992564Y-55803795D01*
D10*
X173969946Y-54398188D02*
X173971368Y-54399357D01*
X170327936Y-51225211D02*
X170324024Y-51227406D01*
X173640355Y-49332645D02*
X173636613Y-49330512D01*
X170601235Y-53307763D02*
X170599304Y-53311500D01*
X172254646Y-49325373D02*
X172251092Y-49328080D01*
X170778755Y-49055061D02*
X170774754Y-49055918D01*
X170808656Y-54719127D02*
X170810447Y-54718204D01*
X172451891Y-48373820D02*
X172451021Y-48375647D01*
X174008183Y-54403548D02*
X174009998Y-54402678D01*
X170813885Y-54716103D02*
X171503866Y-54242552D01*
X171908366Y-54402413D02*
X171909931Y-54401490D01*
X170774754Y-49055918D02*
X170770843Y-49057092D01*
X170320053Y-51229317D02*
X170316050Y-51230923D01*
X169400240Y-52342748D02*
X169400582Y-52344742D01*
X170109822Y-49749936D02*
X170110495Y-49751842D01*
X171921607Y-54389613D02*
X171922579Y-54387918D01*
X172546140Y-52824123D02*
X172544963Y-52822490D01*
D11*
X176205633Y-56230576D02*
X176219948Y-56228373D01*
D10*
X175258085Y-50506729D02*
X175260004Y-50502983D01*
X171909931Y-54401490D02*
X171911451Y-54400485D01*
X175763498Y-49700662D02*
X175130402Y-49067620D01*
X173495709Y-51073134D02*
X173534529Y-51100739D01*
X175120777Y-54717685D02*
X175122528Y-54716676D01*
D11*
X176157811Y-55642415D02*
X176142409Y-55643684D01*
D10*
X172551704Y-52834856D02*
X172550961Y-52832974D01*
X170802944Y-49056726D02*
X170801008Y-49056133D01*
X170768932Y-49057797D02*
X170767054Y-49058581D01*
X173971368Y-54399357D02*
X173972841Y-54400445D01*
X173901090Y-51646712D02*
X173912147Y-51694616D01*
X171919446Y-54392786D02*
X171920562Y-54391236D01*
X171633034Y-49582763D02*
X171629288Y-49584413D01*
D11*
X176304483Y-56183801D02*
X176311739Y-56175350D01*
D10*
X172463029Y-48359355D02*
X172461532Y-48360757D01*
X170111223Y-54024401D02*
X170110461Y-54026274D01*
X175775486Y-49746032D02*
X175775910Y-49744043D01*
X172484404Y-48347903D02*
X172482448Y-48348425D01*
D12*
G36*
X173063613Y-55452067D02*
G01*
X173099378Y-55455549D01*
X173133733Y-55461343D01*
X173166520Y-55469440D01*
X173197584Y-55479832D01*
X173212420Y-55485886D01*
X173226767Y-55492511D01*
X173240605Y-55499705D01*
X173253914Y-55507468D01*
X173266675Y-55515799D01*
X173278868Y-55524696D01*
X173290474Y-55534159D01*
X173301472Y-55544186D01*
X173311844Y-55554777D01*
X173321570Y-55565930D01*
X173330630Y-55577645D01*
X173339006Y-55589920D01*
X173346676Y-55602755D01*
X173353622Y-55616148D01*
X173359824Y-55630098D01*
X173365263Y-55644604D01*
X173369918Y-55659666D01*
X173373771Y-55675282D01*
X173376802Y-55691451D01*
X173378991Y-55708173D01*
X173380319Y-55725445D01*
X173380766Y-55743268D01*
X173380428Y-55758345D01*
X173379422Y-55773014D01*
X173377763Y-55787273D01*
X173375465Y-55801120D01*
X173372541Y-55814554D01*
X173369004Y-55827571D01*
X173364869Y-55840170D01*
X173360150Y-55852349D01*
X173354859Y-55864106D01*
X173349011Y-55875439D01*
X173342620Y-55886344D01*
X173335699Y-55896822D01*
X173328261Y-55906868D01*
X173320322Y-55916482D01*
X173311894Y-55925661D01*
X173302991Y-55934403D01*
X173293628Y-55942706D01*
X173283816Y-55950568D01*
X173273572Y-55957987D01*
X173262907Y-55964960D01*
X173251837Y-55971486D01*
X173240374Y-55977563D01*
X173228532Y-55983187D01*
X173216325Y-55988359D01*
X173203768Y-55993074D01*
X173190873Y-55997331D01*
X173177654Y-56001129D01*
X173164125Y-56004464D01*
X173136193Y-56009741D01*
X173107187Y-56013143D01*
X172938488Y-56028119D01*
X172926361Y-56029346D01*
X172914641Y-56030974D01*
X172903379Y-56033049D01*
X172892627Y-56035619D01*
X172882437Y-56038728D01*
X172872861Y-56042424D01*
X172863952Y-56046752D01*
X172859763Y-56049168D01*
X172855759Y-56051760D01*
X172851949Y-56054533D01*
X172848337Y-56057493D01*
X172844930Y-56060647D01*
X172841736Y-56063999D01*
X172838759Y-56067555D01*
X172836008Y-56071322D01*
X172833488Y-56075305D01*
X172831205Y-56079510D01*
X172829167Y-56083943D01*
X172827379Y-56088609D01*
X172825849Y-56093514D01*
X172824583Y-56098665D01*
X172823586Y-56104067D01*
X172822866Y-56109725D01*
X172822430Y-56115646D01*
X172822283Y-56121835D01*
X172822512Y-56129275D01*
X172823194Y-56136483D01*
X172824320Y-56143460D01*
X172825881Y-56150205D01*
X172827867Y-56156718D01*
X172830270Y-56162998D01*
X172833082Y-56169045D01*
X172836292Y-56174859D01*
X172839892Y-56180440D01*
X172843873Y-56185787D01*
X172848226Y-56190899D01*
X172852942Y-56195777D01*
X172858013Y-56200420D01*
X172863428Y-56204828D01*
X172869180Y-56209000D01*
X172875259Y-56212937D01*
X172881656Y-56216638D01*
X172888363Y-56220102D01*
X172895370Y-56223329D01*
X172902668Y-56226319D01*
X172910249Y-56229072D01*
X172918103Y-56231587D01*
X172926222Y-56233865D01*
X172934596Y-56235903D01*
X172943217Y-56237704D01*
X172952075Y-56239265D01*
X172961162Y-56240587D01*
X172970469Y-56241669D01*
X172979987Y-56242511D01*
X172989706Y-56243113D01*
X172999618Y-56243475D01*
X173009714Y-56243595D01*
X173033174Y-56243114D01*
X173055800Y-56241671D01*
X173077635Y-56239269D01*
X173098725Y-56235911D01*
X173119111Y-56231598D01*
X173138839Y-56226333D01*
X173157952Y-56220119D01*
X173176494Y-56212957D01*
X173194509Y-56204850D01*
X173212040Y-56195800D01*
X173229133Y-56185810D01*
X173245830Y-56174882D01*
X173262175Y-56163018D01*
X173278212Y-56150221D01*
X173293986Y-56136492D01*
X173309540Y-56121835D01*
X173442573Y-56252962D01*
X173419493Y-56273713D01*
X173395943Y-56293107D01*
X173371937Y-56311145D01*
X173347489Y-56327831D01*
X173322613Y-56343166D01*
X173297322Y-56357155D01*
X173271630Y-56369798D01*
X173245550Y-56381100D01*
X173219098Y-56391062D01*
X173192286Y-56399687D01*
X173165128Y-56406978D01*
X173137639Y-56412937D01*
X173109831Y-56417568D01*
X173081719Y-56420872D01*
X173053316Y-56422853D01*
X173024637Y-56423513D01*
X172983774Y-56422268D01*
X172944236Y-56418562D01*
X172906201Y-56412435D01*
X172869853Y-56403928D01*
X172835371Y-56393082D01*
X172802938Y-56379939D01*
X172772733Y-56364538D01*
X172758524Y-56356005D01*
X172744939Y-56346922D01*
X172732002Y-56337296D01*
X172719736Y-56327132D01*
X172708164Y-56316434D01*
X172697306Y-56305207D01*
X172687188Y-56293458D01*
X172677830Y-56281190D01*
X172669256Y-56268410D01*
X172661489Y-56255121D01*
X172654550Y-56241330D01*
X172648464Y-56227042D01*
X172643251Y-56212261D01*
X172638935Y-56196993D01*
X172635540Y-56181242D01*
X172633086Y-56165015D01*
X172631597Y-56148315D01*
X172631096Y-56131149D01*
X172632027Y-56103092D01*
X172634859Y-56075889D01*
X172639650Y-56049649D01*
X172642798Y-56036925D01*
X172646458Y-56024483D01*
X172650636Y-56012336D01*
X172655341Y-56000499D01*
X172660579Y-55988986D01*
X172666357Y-55977810D01*
X172672683Y-55966985D01*
X172679563Y-55956524D01*
X172687006Y-55946442D01*
X172695019Y-55936753D01*
X172703608Y-55927469D01*
X172712781Y-55918605D01*
X172722546Y-55910175D01*
X172732909Y-55902192D01*
X172743877Y-55894670D01*
X172755459Y-55887623D01*
X172767660Y-55881064D01*
X172780489Y-55875008D01*
X172793953Y-55869468D01*
X172808059Y-55864458D01*
X172822814Y-55859992D01*
X172838225Y-55856083D01*
X172854300Y-55852746D01*
X172871046Y-55849993D01*
X172888470Y-55847840D01*
X172906580Y-55846298D01*
X173064007Y-55835133D01*
X173081166Y-55833328D01*
X173096839Y-55830783D01*
X173111078Y-55827548D01*
X173123937Y-55823673D01*
X173135466Y-55819206D01*
X173140749Y-55816766D01*
X173145719Y-55814196D01*
X173150383Y-55811504D01*
X173154748Y-55808694D01*
X173158819Y-55805773D01*
X173162604Y-55802748D01*
X173166109Y-55799624D01*
X173169340Y-55796407D01*
X173175009Y-55789721D01*
X173179662Y-55782740D01*
X173183352Y-55775512D01*
X173186131Y-55768087D01*
X173188052Y-55760514D01*
X173189166Y-55752842D01*
X173189525Y-55745121D01*
X173189403Y-55739030D01*
X173189033Y-55733042D01*
X173188406Y-55727164D01*
X173187516Y-55721401D01*
X173186356Y-55715760D01*
X173184919Y-55710247D01*
X173183196Y-55704866D01*
X173181182Y-55699625D01*
X173178868Y-55694528D01*
X173176249Y-55689583D01*
X173173315Y-55684794D01*
X173170061Y-55680167D01*
X173166479Y-55675709D01*
X173162562Y-55671426D01*
X173158303Y-55667322D01*
X173153694Y-55663405D01*
X173148729Y-55659679D01*
X173143399Y-55656152D01*
X173137698Y-55652828D01*
X173131619Y-55649713D01*
X173125155Y-55646814D01*
X173118298Y-55644137D01*
X173111040Y-55641686D01*
X173103376Y-55639468D01*
X173095297Y-55637490D01*
X173086797Y-55635756D01*
X173077869Y-55634273D01*
X173068504Y-55633046D01*
X173058696Y-55632082D01*
X173048438Y-55631385D01*
X173037722Y-55630963D01*
X173026542Y-55630821D01*
X173007506Y-55631235D01*
X172989049Y-55632456D01*
X172971137Y-55634458D01*
X172953733Y-55637213D01*
X172936801Y-55640692D01*
X172920307Y-55644869D01*
X172904215Y-55649715D01*
X172888489Y-55655203D01*
X172873093Y-55661304D01*
X172857992Y-55667992D01*
X172843151Y-55675238D01*
X172828533Y-55683015D01*
X172814104Y-55691295D01*
X172799827Y-55700050D01*
X172785668Y-55709252D01*
X172771589Y-55718875D01*
X172653585Y-55580286D01*
X172671384Y-55565857D01*
X172689674Y-55552119D01*
X172708506Y-55539107D01*
X172727934Y-55526851D01*
X172748009Y-55515387D01*
X172768784Y-55504746D01*
X172790312Y-55494962D01*
X172812646Y-55486067D01*
X172835837Y-55478096D01*
X172859938Y-55471080D01*
X172885001Y-55465053D01*
X172911080Y-55460047D01*
X172938226Y-55456097D01*
X172966492Y-55453234D01*
X172995931Y-55451492D01*
X173026594Y-55450904D01*
X173063613Y-55452067D01*
G37*
D10*
X172492390Y-48346733D02*
X172490376Y-48346883D01*
X175075530Y-49059012D02*
X175073735Y-49059943D01*
X176477929Y-52359822D02*
X176479867Y-52356217D01*
D11*
X176000345Y-56107142D02*
X176003777Y-56118494D01*
D10*
X172554551Y-52856687D02*
X172554718Y-52854683D01*
X169430425Y-51397160D02*
X169428566Y-51397951D01*
X170306675Y-52548981D02*
X170310443Y-52551454D01*
D11*
X176050559Y-55680834D02*
X176042556Y-55688446D01*
X176342877Y-55760066D02*
X176339011Y-55748864D01*
D10*
X175776661Y-54048302D02*
X175776877Y-54044202D01*
D11*
X176007676Y-55745125D02*
X176003777Y-55756154D01*
D10*
X169426949Y-52379294D02*
X169428774Y-52380162D01*
X175128940Y-49066224D02*
X175127412Y-49064903D01*
X176483753Y-52344689D02*
X176484094Y-52342695D01*
X176453714Y-52380893D02*
X176455576Y-52380110D01*
X173236557Y-50948553D02*
X173282561Y-50964119D01*
X173835135Y-52322098D02*
X173806805Y-52376618D01*
X175113352Y-54720953D02*
X175115264Y-54720252D01*
X170107408Y-49733880D02*
X170107520Y-49737974D01*
X170602928Y-53303801D02*
X170601235Y-53307763D01*
X175085115Y-54722430D02*
X175087106Y-54722851D01*
D11*
X176114395Y-55648635D02*
X176101724Y-55652262D01*
X176028546Y-55705350D02*
X176022479Y-55714589D01*
D10*
X170790994Y-49054417D02*
X170786906Y-49054307D01*
X175127412Y-49064903D02*
X175125822Y-49063658D01*
D11*
X176059266Y-55673818D02*
X176050559Y-55680834D01*
D10*
X175773297Y-49715885D02*
X175772514Y-49714006D01*
X171917016Y-54395662D02*
X171918263Y-54394262D01*
X172241805Y-49333591D02*
X172239902Y-49334452D01*
X173912147Y-51694616D02*
X173920855Y-51743375D01*
X175120724Y-49060381D02*
X175117088Y-49058581D01*
X169402699Y-51425575D02*
X169402009Y-51427487D01*
X171572676Y-49582004D02*
X171568937Y-49580069D01*
X175109440Y-54722121D02*
X175113352Y-54720953D01*
X172556766Y-50981847D02*
X172601726Y-50964119D01*
X173991527Y-54406787D02*
X173993369Y-54406820D01*
X173422593Y-48360757D02*
X173419547Y-48358014D01*
X175548465Y-52581775D02*
X175550216Y-52577957D01*
X169424956Y-51399782D02*
X169423209Y-51400815D01*
X173455537Y-51047381D02*
X173495709Y-51073134D01*
X175276525Y-53281751D02*
X175276313Y-53277155D01*
X174299034Y-49586359D02*
X174294596Y-49587319D01*
X175772514Y-49714006D02*
X175771654Y-49712164D01*
X175526198Y-51192657D02*
X175525396Y-51190750D01*
X173344608Y-52816538D02*
X173343160Y-52817932D01*
X175251750Y-50541743D02*
X175251644Y-50537193D01*
X171511049Y-54238499D02*
X171514976Y-54236873D01*
X172002711Y-52207446D02*
X171984830Y-52147575D01*
D11*
X176257603Y-56216947D02*
X176268489Y-56211641D01*
D10*
X172276682Y-49296998D02*
X172274760Y-49300955D01*
X173647995Y-49335907D02*
X173644156Y-49334452D01*
X172024205Y-52265664D02*
X172002711Y-52207446D01*
X174285489Y-49588485D02*
X174280889Y-49588687D01*
X169409862Y-52364976D02*
X169411143Y-52366583D01*
X171883499Y-54406022D02*
X171885362Y-54406376D01*
X176479001Y-51420007D02*
X176477996Y-51418227D01*
X173409268Y-48351356D02*
X173407419Y-48350502D01*
X174380415Y-54242499D02*
X175070342Y-54716051D01*
X174006353Y-54404313D02*
X174008183Y-54403548D01*
X169401403Y-51429423D02*
X169400885Y-51431382D01*
X172467835Y-48355520D02*
X172466183Y-48356734D01*
X176482249Y-51427462D02*
X176481557Y-51425553D01*
X170111638Y-54064152D02*
X170112499Y-54065996D01*
D11*
X176360864Y-55990040D02*
X176361615Y-55938107D01*
D10*
X170112093Y-49755547D02*
X170113017Y-49757338D01*
X169407497Y-52361619D02*
X169408646Y-52363321D01*
X170630545Y-50554942D02*
X170629368Y-50559077D01*
X170314088Y-52554169D02*
X170317586Y-52557103D01*
X173616663Y-49312331D02*
X173613963Y-49308647D01*
X170808553Y-49059012D02*
X170806720Y-49058165D01*
X170292890Y-52542572D02*
X170294891Y-52543251D01*
X174315193Y-49580069D02*
X174311462Y-49582005D01*
X172267387Y-49312331D02*
X172264469Y-49315872D01*
X175093181Y-54723622D02*
X175097276Y-54723728D01*
X175535484Y-51207361D02*
X175532730Y-51203817D01*
X175564129Y-51229317D02*
X175560150Y-51227406D01*
X170115120Y-49760775D02*
X170621956Y-50499492D01*
X171920562Y-54391236D02*
X171921607Y-54389613D01*
X174317877Y-54238328D02*
X174321714Y-54236708D01*
X173432670Y-52761575D02*
X173427174Y-52765066D01*
X175252118Y-50546240D02*
X175251750Y-50541743D01*
D11*
X175985655Y-55882858D02*
X175984901Y-55938107D01*
D12*
G36*
X170197246Y-57374298D02*
G01*
X170199025Y-57406742D01*
X170199627Y-57440624D01*
X170198971Y-57476310D01*
X170197033Y-57510298D01*
X170193861Y-57542626D01*
X170189503Y-57573330D01*
X170184006Y-57602447D01*
X170177417Y-57630015D01*
X170169783Y-57656070D01*
X170161152Y-57680650D01*
X170151571Y-57703791D01*
X170141087Y-57725531D01*
X170129749Y-57745906D01*
X170117602Y-57764955D01*
X170104695Y-57782713D01*
X170091075Y-57799218D01*
X170076789Y-57814506D01*
X170061885Y-57828616D01*
X170046410Y-57841583D01*
X170030410Y-57853445D01*
X170013935Y-57864239D01*
X169997030Y-57874003D01*
X169979743Y-57882772D01*
X169962122Y-57890585D01*
X169926066Y-57903487D01*
X169889241Y-57913006D01*
X169852024Y-57919439D01*
X169814796Y-57923081D01*
X169777934Y-57924230D01*
X169754114Y-57923698D01*
X169730460Y-57922085D01*
X169707004Y-57919362D01*
X169683778Y-57915503D01*
X169660817Y-57910480D01*
X169638152Y-57904266D01*
X169615817Y-57896833D01*
X169593844Y-57888153D01*
X169572266Y-57878200D01*
X169551116Y-57866946D01*
X169530426Y-57854363D01*
X169510230Y-57840424D01*
X169490560Y-57825102D01*
X169471449Y-57808368D01*
X169452930Y-57790197D01*
X169435035Y-57770559D01*
X169573730Y-57652449D01*
X169584533Y-57663073D01*
X169595823Y-57673109D01*
X169607556Y-57682542D01*
X169619693Y-57691360D01*
X169632191Y-57699549D01*
X169645009Y-57707095D01*
X169658106Y-57713987D01*
X169671440Y-57720209D01*
X169684970Y-57725749D01*
X169698655Y-57730594D01*
X169712453Y-57734730D01*
X169726323Y-57738144D01*
X169740223Y-57740823D01*
X169754112Y-57742753D01*
X169767949Y-57743920D01*
X169781692Y-57744313D01*
X169793888Y-57744082D01*
X169805865Y-57743390D01*
X169817610Y-57742238D01*
X169829113Y-57740626D01*
X169840363Y-57738553D01*
X169851349Y-57736021D01*
X169862060Y-57733030D01*
X169872485Y-57729580D01*
X169882613Y-57725672D01*
X169892433Y-57721305D01*
X169901935Y-57716481D01*
X169911107Y-57711200D01*
X169919938Y-57705462D01*
X169928418Y-57699267D01*
X169936535Y-57692616D01*
X169944278Y-57685509D01*
X169951637Y-57677946D01*
X169958601Y-57669929D01*
X169965158Y-57661456D01*
X169971298Y-57652530D01*
X169977009Y-57643149D01*
X169982282Y-57633315D01*
X169987104Y-57623027D01*
X169991465Y-57612287D01*
X169995354Y-57601094D01*
X169998760Y-57589449D01*
X170001672Y-57577352D01*
X170004079Y-57564803D01*
X170005971Y-57551804D01*
X170007335Y-57538354D01*
X170008162Y-57524453D01*
X170008440Y-57510103D01*
X169416355Y-57510103D01*
X169416355Y-57352622D01*
X169607437Y-57352622D01*
X170008440Y-57352622D01*
X170007858Y-57339292D01*
X170006813Y-57326358D01*
X170005315Y-57313822D01*
X170003373Y-57301687D01*
X170000997Y-57289954D01*
X169998197Y-57278624D01*
X169994982Y-57267700D01*
X169991361Y-57257183D01*
X169987346Y-57247075D01*
X169982944Y-57237378D01*
X169978166Y-57228092D01*
X169973021Y-57219221D01*
X169967519Y-57210766D01*
X169961670Y-57202728D01*
X169955483Y-57195110D01*
X169948968Y-57187913D01*
X169942134Y-57181138D01*
X169934991Y-57174788D01*
X169927549Y-57168864D01*
X169919817Y-57163369D01*
X169911805Y-57158302D01*
X169903523Y-57153668D01*
X169894979Y-57149466D01*
X169886185Y-57145699D01*
X169877149Y-57142370D01*
X169867881Y-57139478D01*
X169858390Y-57137026D01*
X169848687Y-57135017D01*
X169838780Y-57133451D01*
X169828680Y-57132330D01*
X169818397Y-57131656D01*
X169807939Y-57131431D01*
X169797486Y-57131656D01*
X169787217Y-57132330D01*
X169777141Y-57133451D01*
X169767266Y-57135017D01*
X169757601Y-57137026D01*
X169748155Y-57139478D01*
X169738936Y-57142370D01*
X169729952Y-57145700D01*
X169721213Y-57149466D01*
X169712727Y-57153668D01*
X169704502Y-57158303D01*
X169696548Y-57163369D01*
X169688872Y-57168865D01*
X169681484Y-57174788D01*
X169674391Y-57181139D01*
X169667603Y-57187913D01*
X169661128Y-57195110D01*
X169654975Y-57202729D01*
X169649153Y-57210766D01*
X169643669Y-57219222D01*
X169638533Y-57228093D01*
X169633753Y-57237378D01*
X169629338Y-57247075D01*
X169625296Y-57257183D01*
X169621637Y-57267700D01*
X169618368Y-57278625D01*
X169615498Y-57289954D01*
X169613036Y-57301687D01*
X169610990Y-57313823D01*
X169609369Y-57326358D01*
X169608182Y-57339292D01*
X169607437Y-57352622D01*
X169416355Y-57352622D01*
X169416355Y-57352570D01*
X169416883Y-57329822D01*
X169418447Y-57307612D01*
X169421020Y-57285954D01*
X169424573Y-57264860D01*
X169429079Y-57244340D01*
X169434508Y-57224407D01*
X169440834Y-57205074D01*
X169448028Y-57186351D01*
X169456061Y-57168252D01*
X169464906Y-57150788D01*
X169474535Y-57133971D01*
X169484919Y-57117813D01*
X169496030Y-57102326D01*
X169507841Y-57087523D01*
X169520322Y-57073415D01*
X169533447Y-57060013D01*
X169547186Y-57047332D01*
X169561512Y-57035381D01*
X169576397Y-57024173D01*
X169591812Y-57013721D01*
X169607730Y-57004036D01*
X169624122Y-56995130D01*
X169640960Y-56987015D01*
X169658216Y-56979703D01*
X169675862Y-56973207D01*
X169693870Y-56967538D01*
X169712211Y-56962708D01*
X169730858Y-56958729D01*
X169749782Y-56955614D01*
X169768956Y-56953374D01*
X169788351Y-56952021D01*
X169807939Y-56951567D01*
X169842606Y-56953004D01*
X169877503Y-56957441D01*
X169894932Y-56960843D01*
X169912290Y-56965067D01*
X169929536Y-56970135D01*
X169946627Y-56976071D01*
X169963520Y-56982900D01*
X169980173Y-56990644D01*
X169996542Y-56999328D01*
X170012587Y-57008974D01*
X170028263Y-57019608D01*
X170043530Y-57031252D01*
X170058343Y-57043930D01*
X170072660Y-57057666D01*
X170086440Y-57072483D01*
X170099638Y-57088405D01*
X170112214Y-57105457D01*
X170124124Y-57123661D01*
X170135325Y-57143041D01*
X170145776Y-57163621D01*
X170155433Y-57185424D01*
X170164255Y-57208475D01*
X170172198Y-57232797D01*
X170179220Y-57258413D01*
X170185278Y-57285348D01*
X170190330Y-57313624D01*
X170194334Y-57343266D01*
X170195212Y-57352622D01*
X170197246Y-57374298D01*
G37*
D10*
X176462651Y-52376154D02*
X176464314Y-52374974D01*
X172480513Y-48349033D02*
X172478603Y-48349727D01*
X169411143Y-52366583D02*
X169412486Y-52368138D01*
X173331882Y-52866473D02*
X173332612Y-52868359D01*
X175253653Y-50554942D02*
X175252752Y-50550651D01*
X172647729Y-50948553D02*
X172694711Y-50935211D01*
X176484490Y-52338674D02*
X176484540Y-52336652D01*
X175089064Y-49054855D02*
X175085062Y-49055624D01*
X170813779Y-49062063D02*
X170812086Y-49060960D01*
X175576173Y-51233128D02*
X175574173Y-51232710D01*
X170806822Y-54719966D02*
X170808656Y-54719127D01*
X170353951Y-51200169D02*
X170351460Y-51203817D01*
X172471273Y-48353294D02*
X172469532Y-48354372D01*
X175769160Y-54017286D02*
X175287195Y-53314923D01*
X171879782Y-54405013D02*
X171881638Y-54405568D01*
X176449956Y-51395842D02*
X176447999Y-51395320D01*
X170310443Y-52551454D02*
X170314088Y-52554169D01*
X173968579Y-54396941D02*
X173969946Y-54398188D01*
D11*
X176042556Y-56185968D02*
X176050559Y-56193564D01*
D10*
X175124175Y-49062489D02*
X175122474Y-49061396D01*
X174334259Y-54233493D02*
X174338672Y-54232968D01*
X175581530Y-52546722D02*
X175585470Y-52544804D01*
X174262995Y-49586899D02*
X174258823Y-49585790D01*
X171874282Y-54402730D02*
X171876102Y-54403596D01*
X171514976Y-54236873D02*
X171519082Y-54235514D01*
X172236072Y-49335907D02*
X171633034Y-49582763D01*
X170120677Y-54077505D02*
X170753825Y-54710546D01*
X172451573Y-52761575D02*
X172445721Y-52757591D01*
X170356147Y-51196442D02*
X170353951Y-51200169D01*
X175251800Y-50532624D02*
X175252214Y-50528071D01*
X170107958Y-49742034D02*
X170108725Y-49746032D01*
X175254986Y-50514845D02*
X175256412Y-50510694D01*
D11*
X176078910Y-56212686D02*
X176089906Y-56217745D01*
D10*
X172552341Y-52866473D02*
X172552970Y-52864559D01*
X170797057Y-49055198D02*
X170795050Y-49054855D01*
X170114453Y-54069552D02*
X170115546Y-54071258D01*
X173775256Y-52429092D02*
X173740619Y-52479391D01*
X170108118Y-54052425D02*
X170108975Y-54056435D01*
D11*
X176016998Y-56150200D02*
X176022479Y-56159894D01*
D10*
X175554679Y-52570514D02*
X175557339Y-52566936D01*
X170108682Y-54032090D02*
X170108256Y-54034081D01*
X170795050Y-49054855D02*
X170790994Y-49054417D01*
X173644156Y-49334452D02*
X173640355Y-49332645D01*
X173959992Y-54384263D02*
X173960807Y-54386099D01*
X170294891Y-52543251D02*
X170298873Y-52544856D01*
X171972185Y-51694616D02*
X171983240Y-51646712D01*
D11*
X175997352Y-56095445D02*
X176000345Y-56107142D01*
D10*
X170795135Y-54723243D02*
X170799135Y-54722483D01*
D11*
X176050559Y-56193564D02*
X176059266Y-56200568D01*
D10*
X172453871Y-48370280D02*
X172452842Y-48372030D01*
X170756717Y-49064903D02*
X170755185Y-49066223D01*
X170107475Y-54040156D02*
X170107365Y-54044254D01*
X172476721Y-48350502D02*
X172474870Y-48351356D01*
X175083147Y-54721926D02*
X175085115Y-54722430D01*
D11*
X175992564Y-55803795D02*
X175989176Y-55829353D01*
D10*
X169400885Y-51431382D02*
X169400456Y-51433360D01*
D11*
X176068706Y-56206951D02*
X176078910Y-56212686D01*
D10*
X172143691Y-52479391D02*
X172109056Y-52429092D01*
X172445721Y-52757591D02*
X172439609Y-52753201D01*
X170782883Y-54723564D02*
X170786978Y-54723781D01*
X172276444Y-51161252D02*
X172312369Y-51130132D01*
X175125875Y-54714429D02*
X175127465Y-54713192D01*
D11*
X176142409Y-55643684D02*
X176127946Y-55645766D01*
D10*
X176479867Y-52356217D02*
X176481497Y-52352477D01*
X172049181Y-52322098D02*
X172024205Y-52265664D01*
X170109784Y-54028183D02*
X170109191Y-54030122D01*
X173735549Y-51301752D02*
X173763155Y-51340571D01*
X173986095Y-54406123D02*
X173987888Y-54406437D01*
X170345692Y-51210781D02*
X170342470Y-51214053D01*
D11*
X176257583Y-55657428D02*
X176245886Y-55652844D01*
D10*
X175081153Y-49056727D02*
X175079242Y-49057404D01*
X173403633Y-48349033D02*
X173401702Y-48348425D01*
X173469537Y-52733305D02*
X173463466Y-52738455D01*
X170607275Y-53286379D02*
X170606558Y-53290901D01*
X169423209Y-51400815D02*
X169419845Y-51403105D01*
D11*
X176089906Y-55656621D02*
X176078910Y-55661685D01*
D10*
X170286887Y-52541069D02*
X170288885Y-52541478D01*
X175547721Y-52583697D02*
X175548465Y-52581775D01*
X170627758Y-50510694D02*
X170629196Y-50514845D01*
X172552970Y-52864559D02*
X172553505Y-52862619D01*
X170629368Y-50559077D02*
X170627916Y-50563024D01*
X173397776Y-48347470D02*
X173395789Y-48347130D01*
X171957181Y-51792927D02*
X171963478Y-51743375D01*
X172448420Y-48383282D02*
X172448004Y-48385259D01*
X175077420Y-54719914D02*
X175079296Y-54720668D01*
X175774978Y-49747997D02*
X175775486Y-49746032D01*
X173333206Y-52832974D02*
X173331798Y-52836768D01*
X173571933Y-51130132D02*
X173607860Y-51161252D01*
X173573829Y-52656217D02*
X173525728Y-52693680D01*
X176484148Y-51435316D02*
X176483808Y-51433325D01*
X170607954Y-53277208D02*
X170607741Y-53281803D01*
X173607381Y-49296998D02*
X173605768Y-49293003D01*
X175775569Y-54032037D02*
X175774472Y-54028130D01*
X176473282Y-51411537D02*
X176471942Y-51409985D01*
X173622688Y-49319243D02*
X173619579Y-49315872D01*
X172554294Y-52858680D02*
X172554551Y-52856687D01*
X173788911Y-51380743D02*
X173812753Y-51422207D01*
X171621150Y-49586899D02*
X171616828Y-49587740D01*
X175776768Y-54040104D02*
X175776334Y-54036039D01*
X170629196Y-50514845D02*
X170630382Y-50519147D01*
X176446017Y-51394894D02*
X175576173Y-51233128D01*
X175774001Y-49717799D02*
X175773297Y-49715885D01*
X173395789Y-48347130D02*
X173393789Y-48346883D01*
X170114459Y-49708610D02*
X170113446Y-49710364D01*
X173436117Y-48385259D02*
X173435700Y-48383282D01*
X175766311Y-54074451D02*
X175767552Y-54072857D01*
X170111252Y-49753714D02*
X170112093Y-49755547D01*
X173619500Y-52615927D02*
X173573829Y-52656217D01*
X170812086Y-49060960D02*
X170810342Y-49059943D01*
X175276359Y-53272575D02*
X175276664Y-53268045D01*
X170324038Y-52563536D02*
X170326941Y-52566989D01*
D12*
G36*
X174294909Y-55451238D02*
G01*
X174313336Y-55452557D01*
X174331379Y-55454755D01*
X174349022Y-55457831D01*
X174366249Y-55461787D01*
X174383042Y-55466621D01*
X174399385Y-55472333D01*
X174415261Y-55478924D01*
X174430653Y-55486392D01*
X174445545Y-55494739D01*
X174459919Y-55503963D01*
X174473760Y-55514065D01*
X174487050Y-55525045D01*
X174499773Y-55536902D01*
X174511911Y-55549636D01*
X174523449Y-55563246D01*
X174527259Y-55563246D01*
X174527259Y-55462069D01*
X174718394Y-55462069D01*
X174718394Y-56412188D01*
X174527259Y-56412188D01*
X174527259Y-55846351D01*
X174527024Y-55834382D01*
X174526327Y-55822735D01*
X174525177Y-55811415D01*
X174523583Y-55800425D01*
X174521556Y-55789770D01*
X174519105Y-55779452D01*
X174516239Y-55769475D01*
X174512968Y-55759844D01*
X174509302Y-55750562D01*
X174505250Y-55741633D01*
X174500822Y-55733061D01*
X174496027Y-55724848D01*
X174490876Y-55717000D01*
X174485377Y-55709520D01*
X174479541Y-55702411D01*
X174473376Y-55695677D01*
X174466893Y-55689323D01*
X174460102Y-55683351D01*
X174453011Y-55677766D01*
X174445631Y-55672571D01*
X174437970Y-55667770D01*
X174430039Y-55663367D01*
X174421848Y-55659365D01*
X174413405Y-55655769D01*
X174404721Y-55652582D01*
X174395805Y-55649807D01*
X174386666Y-55647450D01*
X174377315Y-55645512D01*
X174367761Y-55643999D01*
X174358013Y-55642913D01*
X174348081Y-55642259D01*
X174337976Y-55642040D01*
X174328038Y-55642259D01*
X174318264Y-55642913D01*
X174308664Y-55643999D01*
X174299248Y-55645512D01*
X174290025Y-55647450D01*
X174281005Y-55649808D01*
X174272199Y-55652582D01*
X174263617Y-55655769D01*
X174255268Y-55659365D01*
X174247162Y-55663367D01*
X174239310Y-55667770D01*
X174231721Y-55672571D01*
X174224405Y-55677766D01*
X174217372Y-55683351D01*
X174210632Y-55689323D01*
X174204196Y-55695678D01*
X174198072Y-55702411D01*
X174192271Y-55709520D01*
X174186804Y-55717001D01*
X174181679Y-55724849D01*
X174176907Y-55733061D01*
X174172497Y-55741634D01*
X174168461Y-55750563D01*
X174164807Y-55759845D01*
X174161545Y-55769476D01*
X174158687Y-55779452D01*
X174156240Y-55789770D01*
X174154216Y-55800426D01*
X174152625Y-55811415D01*
X174151476Y-55822735D01*
X174150779Y-55834382D01*
X174150545Y-55846351D01*
X174150545Y-56412188D01*
X173959410Y-56412188D01*
X173959410Y-55780680D01*
X173959898Y-55760767D01*
X173961340Y-55741449D01*
X173963701Y-55722729D01*
X173966946Y-55704610D01*
X173971040Y-55687094D01*
X173975949Y-55670183D01*
X173981639Y-55653880D01*
X173988074Y-55638188D01*
X173995220Y-55623107D01*
X174003043Y-55608642D01*
X174011507Y-55594794D01*
X174020578Y-55581565D01*
X174030222Y-55568959D01*
X174040403Y-55556977D01*
X174051087Y-55545622D01*
X174062240Y-55534896D01*
X174073827Y-55524802D01*
X174085812Y-55515341D01*
X174098163Y-55506517D01*
X174110843Y-55498332D01*
X174123818Y-55490788D01*
X174137053Y-55483887D01*
X174150515Y-55477633D01*
X174164168Y-55472026D01*
X174191908Y-55462768D01*
X174219998Y-55456131D01*
X174248160Y-55452135D01*
X174262181Y-55451133D01*
X174276116Y-55450798D01*
X174294909Y-55451238D01*
G37*
D10*
X170603751Y-53251164D02*
X170605117Y-53255151D01*
X171885362Y-54406376D02*
X171887224Y-54406631D01*
D11*
X176354008Y-56066996D02*
X176357369Y-56041818D01*
D10*
X172539587Y-52816538D02*
X172538082Y-52815213D01*
X176447942Y-52382701D02*
X176449894Y-52382192D01*
D13*
X179701904Y-86767619D02*
X179701904Y-85767619D01*
X179130476Y-86767619D02*
X179559047Y-86196190D01*
X179130476Y-85767619D02*
X179701904Y-86339047D01*
X178273333Y-86767619D02*
X178273333Y-86243809D01*
X178273333Y-86243809D02*
X178320952Y-86148571D01*
X178320952Y-86148571D02*
X178416190Y-86100952D01*
X178416190Y-86100952D02*
X178606666Y-86100952D01*
X178606666Y-86100952D02*
X178701904Y-86148571D01*
X178273333Y-86720000D02*
X178368571Y-86767619D01*
X178368571Y-86767619D02*
X178606666Y-86767619D01*
X178606666Y-86767619D02*
X178701904Y-86720000D01*
X178701904Y-86720000D02*
X178749523Y-86624761D01*
X178749523Y-86624761D02*
X178749523Y-86529523D01*
X178749523Y-86529523D02*
X178701904Y-86434285D01*
X178701904Y-86434285D02*
X178606666Y-86386666D01*
X178606666Y-86386666D02*
X178368571Y-86386666D01*
X178368571Y-86386666D02*
X178273333Y-86339047D01*
X177797142Y-86767619D02*
X177797142Y-86100952D01*
X177797142Y-86291428D02*
X177749523Y-86196190D01*
X177749523Y-86196190D02*
X177701904Y-86148571D01*
X177701904Y-86148571D02*
X177606666Y-86100952D01*
X177606666Y-86100952D02*
X177511428Y-86100952D01*
X177178094Y-86100952D02*
X177178094Y-86767619D01*
X177178094Y-86196190D02*
X177130475Y-86148571D01*
X177130475Y-86148571D02*
X177035237Y-86100952D01*
X177035237Y-86100952D02*
X176892380Y-86100952D01*
X176892380Y-86100952D02*
X176797142Y-86148571D01*
X176797142Y-86148571D02*
X176749523Y-86243809D01*
X176749523Y-86243809D02*
X176749523Y-86767619D01*
X176273332Y-86767619D02*
X176273332Y-86100952D01*
X176273332Y-85767619D02*
X176320951Y-85815238D01*
X176320951Y-85815238D02*
X176273332Y-85862857D01*
X176273332Y-85862857D02*
X176225713Y-85815238D01*
X176225713Y-85815238D02*
X176273332Y-85767619D01*
X176273332Y-85767619D02*
X176273332Y-85862857D01*
X175892380Y-86767619D02*
X175368571Y-86100952D01*
X175892380Y-86100952D02*
X175368571Y-86767619D01*
X174273332Y-86481904D02*
X173797142Y-86481904D01*
X174368570Y-86767619D02*
X174035237Y-85767619D01*
X174035237Y-85767619D02*
X173701904Y-86767619D01*
X173416189Y-86720000D02*
X173273332Y-86767619D01*
X173273332Y-86767619D02*
X173035237Y-86767619D01*
X173035237Y-86767619D02*
X172939999Y-86720000D01*
X172939999Y-86720000D02*
X172892380Y-86672380D01*
X172892380Y-86672380D02*
X172844761Y-86577142D01*
X172844761Y-86577142D02*
X172844761Y-86481904D01*
X172844761Y-86481904D02*
X172892380Y-86386666D01*
X172892380Y-86386666D02*
X172939999Y-86339047D01*
X172939999Y-86339047D02*
X173035237Y-86291428D01*
X173035237Y-86291428D02*
X173225713Y-86243809D01*
X173225713Y-86243809D02*
X173320951Y-86196190D01*
X173320951Y-86196190D02*
X173368570Y-86148571D01*
X173368570Y-86148571D02*
X173416189Y-86053333D01*
X173416189Y-86053333D02*
X173416189Y-85958095D01*
X173416189Y-85958095D02*
X173368570Y-85862857D01*
X173368570Y-85862857D02*
X173320951Y-85815238D01*
X173320951Y-85815238D02*
X173225713Y-85767619D01*
X173225713Y-85767619D02*
X172987618Y-85767619D01*
X172987618Y-85767619D02*
X172844761Y-85815238D01*
X172082856Y-86243809D02*
X171939999Y-86291428D01*
X171939999Y-86291428D02*
X171892380Y-86339047D01*
X171892380Y-86339047D02*
X171844761Y-86434285D01*
X171844761Y-86434285D02*
X171844761Y-86577142D01*
X171844761Y-86577142D02*
X171892380Y-86672380D01*
X171892380Y-86672380D02*
X171939999Y-86720000D01*
X171939999Y-86720000D02*
X172035237Y-86767619D01*
X172035237Y-86767619D02*
X172416189Y-86767619D01*
X172416189Y-86767619D02*
X172416189Y-85767619D01*
X172416189Y-85767619D02*
X172082856Y-85767619D01*
X172082856Y-85767619D02*
X171987618Y-85815238D01*
X171987618Y-85815238D02*
X171939999Y-85862857D01*
X171939999Y-85862857D02*
X171892380Y-85958095D01*
X171892380Y-85958095D02*
X171892380Y-86053333D01*
X171892380Y-86053333D02*
X171939999Y-86148571D01*
X171939999Y-86148571D02*
X171987618Y-86196190D01*
X171987618Y-86196190D02*
X172082856Y-86243809D01*
X172082856Y-86243809D02*
X172416189Y-86243809D01*
X171416189Y-86386666D02*
X170654285Y-86386666D01*
X170225713Y-85862857D02*
X170178094Y-85815238D01*
X170178094Y-85815238D02*
X170082856Y-85767619D01*
X170082856Y-85767619D02*
X169844761Y-85767619D01*
X169844761Y-85767619D02*
X169749523Y-85815238D01*
X169749523Y-85815238D02*
X169701904Y-85862857D01*
X169701904Y-85862857D02*
X169654285Y-85958095D01*
X169654285Y-85958095D02*
X169654285Y-86053333D01*
X169654285Y-86053333D02*
X169701904Y-86196190D01*
X169701904Y-86196190D02*
X170273332Y-86767619D01*
X170273332Y-86767619D02*
X169654285Y-86767619D01*
X168749523Y-85767619D02*
X169225713Y-85767619D01*
X169225713Y-85767619D02*
X169273332Y-86243809D01*
X169273332Y-86243809D02*
X169225713Y-86196190D01*
X169225713Y-86196190D02*
X169130475Y-86148571D01*
X169130475Y-86148571D02*
X168892380Y-86148571D01*
X168892380Y-86148571D02*
X168797142Y-86196190D01*
X168797142Y-86196190D02*
X168749523Y-86243809D01*
X168749523Y-86243809D02*
X168701904Y-86339047D01*
X168701904Y-86339047D02*
X168701904Y-86577142D01*
X168701904Y-86577142D02*
X168749523Y-86672380D01*
X168749523Y-86672380D02*
X168797142Y-86720000D01*
X168797142Y-86720000D02*
X168892380Y-86767619D01*
X168892380Y-86767619D02*
X169130475Y-86767619D01*
X169130475Y-86767619D02*
X169225713Y-86720000D01*
X169225713Y-86720000D02*
X169273332Y-86672380D01*
X167844761Y-86100952D02*
X167844761Y-86767619D01*
X168082856Y-85720000D02*
X168320951Y-86434285D01*
X168320951Y-86434285D02*
X167701904Y-86434285D01*
X179844761Y-87387619D02*
X179511428Y-88387619D01*
X179511428Y-88387619D02*
X179178095Y-87387619D01*
X178320952Y-88387619D02*
X178892380Y-88387619D01*
X178606666Y-88387619D02*
X178606666Y-87387619D01*
X178606666Y-87387619D02*
X178701904Y-87530476D01*
X178701904Y-87530476D02*
X178797142Y-87625714D01*
X178797142Y-87625714D02*
X178892380Y-87673333D01*
X177892380Y-88292380D02*
X177844761Y-88340000D01*
X177844761Y-88340000D02*
X177892380Y-88387619D01*
X177892380Y-88387619D02*
X177939999Y-88340000D01*
X177939999Y-88340000D02*
X177892380Y-88292380D01*
X177892380Y-88292380D02*
X177892380Y-88387619D01*
X177225714Y-87387619D02*
X177130476Y-87387619D01*
X177130476Y-87387619D02*
X177035238Y-87435238D01*
X177035238Y-87435238D02*
X176987619Y-87482857D01*
X176987619Y-87482857D02*
X176940000Y-87578095D01*
X176940000Y-87578095D02*
X176892381Y-87768571D01*
X176892381Y-87768571D02*
X176892381Y-88006666D01*
X176892381Y-88006666D02*
X176940000Y-88197142D01*
X176940000Y-88197142D02*
X176987619Y-88292380D01*
X176987619Y-88292380D02*
X177035238Y-88340000D01*
X177035238Y-88340000D02*
X177130476Y-88387619D01*
X177130476Y-88387619D02*
X177225714Y-88387619D01*
X177225714Y-88387619D02*
X177320952Y-88340000D01*
X177320952Y-88340000D02*
X177368571Y-88292380D01*
X177368571Y-88292380D02*
X177416190Y-88197142D01*
X177416190Y-88197142D02*
X177463809Y-88006666D01*
X177463809Y-88006666D02*
X177463809Y-87768571D01*
X177463809Y-87768571D02*
X177416190Y-87578095D01*
X177416190Y-87578095D02*
X177368571Y-87482857D01*
X177368571Y-87482857D02*
X177320952Y-87435238D01*
X177320952Y-87435238D02*
X177225714Y-87387619D01*
X175749523Y-87482857D02*
X175701904Y-87435238D01*
X175701904Y-87435238D02*
X175606666Y-87387619D01*
X175606666Y-87387619D02*
X175368571Y-87387619D01*
X175368571Y-87387619D02*
X175273333Y-87435238D01*
X175273333Y-87435238D02*
X175225714Y-87482857D01*
X175225714Y-87482857D02*
X175178095Y-87578095D01*
X175178095Y-87578095D02*
X175178095Y-87673333D01*
X175178095Y-87673333D02*
X175225714Y-87816190D01*
X175225714Y-87816190D02*
X175797142Y-88387619D01*
X175797142Y-88387619D02*
X175178095Y-88387619D01*
X174559047Y-87387619D02*
X174463809Y-87387619D01*
X174463809Y-87387619D02*
X174368571Y-87435238D01*
X174368571Y-87435238D02*
X174320952Y-87482857D01*
X174320952Y-87482857D02*
X174273333Y-87578095D01*
X174273333Y-87578095D02*
X174225714Y-87768571D01*
X174225714Y-87768571D02*
X174225714Y-88006666D01*
X174225714Y-88006666D02*
X174273333Y-88197142D01*
X174273333Y-88197142D02*
X174320952Y-88292380D01*
X174320952Y-88292380D02*
X174368571Y-88340000D01*
X174368571Y-88340000D02*
X174463809Y-88387619D01*
X174463809Y-88387619D02*
X174559047Y-88387619D01*
X174559047Y-88387619D02*
X174654285Y-88340000D01*
X174654285Y-88340000D02*
X174701904Y-88292380D01*
X174701904Y-88292380D02*
X174749523Y-88197142D01*
X174749523Y-88197142D02*
X174797142Y-88006666D01*
X174797142Y-88006666D02*
X174797142Y-87768571D01*
X174797142Y-87768571D02*
X174749523Y-87578095D01*
X174749523Y-87578095D02*
X174701904Y-87482857D01*
X174701904Y-87482857D02*
X174654285Y-87435238D01*
X174654285Y-87435238D02*
X174559047Y-87387619D01*
X173844761Y-87482857D02*
X173797142Y-87435238D01*
X173797142Y-87435238D02*
X173701904Y-87387619D01*
X173701904Y-87387619D02*
X173463809Y-87387619D01*
X173463809Y-87387619D02*
X173368571Y-87435238D01*
X173368571Y-87435238D02*
X173320952Y-87482857D01*
X173320952Y-87482857D02*
X173273333Y-87578095D01*
X173273333Y-87578095D02*
X173273333Y-87673333D01*
X173273333Y-87673333D02*
X173320952Y-87816190D01*
X173320952Y-87816190D02*
X173892380Y-88387619D01*
X173892380Y-88387619D02*
X173273333Y-88387619D01*
X172939999Y-87387619D02*
X172320952Y-87387619D01*
X172320952Y-87387619D02*
X172654285Y-87768571D01*
X172654285Y-87768571D02*
X172511428Y-87768571D01*
X172511428Y-87768571D02*
X172416190Y-87816190D01*
X172416190Y-87816190D02*
X172368571Y-87863809D01*
X172368571Y-87863809D02*
X172320952Y-87959047D01*
X172320952Y-87959047D02*
X172320952Y-88197142D01*
X172320952Y-88197142D02*
X172368571Y-88292380D01*
X172368571Y-88292380D02*
X172416190Y-88340000D01*
X172416190Y-88340000D02*
X172511428Y-88387619D01*
X172511428Y-88387619D02*
X172797142Y-88387619D01*
X172797142Y-88387619D02*
X172892380Y-88340000D01*
X172892380Y-88340000D02*
X172939999Y-88292380D01*
X171892380Y-88006666D02*
X171130476Y-88006666D01*
X170130476Y-88387619D02*
X170701904Y-88387619D01*
X170416190Y-88387619D02*
X170416190Y-87387619D01*
X170416190Y-87387619D02*
X170511428Y-87530476D01*
X170511428Y-87530476D02*
X170606666Y-87625714D01*
X170606666Y-87625714D02*
X170701904Y-87673333D01*
X169511428Y-87387619D02*
X169416190Y-87387619D01*
X169416190Y-87387619D02*
X169320952Y-87435238D01*
X169320952Y-87435238D02*
X169273333Y-87482857D01*
X169273333Y-87482857D02*
X169225714Y-87578095D01*
X169225714Y-87578095D02*
X169178095Y-87768571D01*
X169178095Y-87768571D02*
X169178095Y-88006666D01*
X169178095Y-88006666D02*
X169225714Y-88197142D01*
X169225714Y-88197142D02*
X169273333Y-88292380D01*
X169273333Y-88292380D02*
X169320952Y-88340000D01*
X169320952Y-88340000D02*
X169416190Y-88387619D01*
X169416190Y-88387619D02*
X169511428Y-88387619D01*
X169511428Y-88387619D02*
X169606666Y-88340000D01*
X169606666Y-88340000D02*
X169654285Y-88292380D01*
X169654285Y-88292380D02*
X169701904Y-88197142D01*
X169701904Y-88197142D02*
X169749523Y-88006666D01*
X169749523Y-88006666D02*
X169749523Y-87768571D01*
X169749523Y-87768571D02*
X169701904Y-87578095D01*
X169701904Y-87578095D02*
X169654285Y-87482857D01*
X169654285Y-87482857D02*
X169606666Y-87435238D01*
X169606666Y-87435238D02*
X169511428Y-87387619D01*
X168749523Y-88006666D02*
X167987619Y-88006666D01*
X167559047Y-87482857D02*
X167511428Y-87435238D01*
X167511428Y-87435238D02*
X167416190Y-87387619D01*
X167416190Y-87387619D02*
X167178095Y-87387619D01*
X167178095Y-87387619D02*
X167082857Y-87435238D01*
X167082857Y-87435238D02*
X167035238Y-87482857D01*
X167035238Y-87482857D02*
X166987619Y-87578095D01*
X166987619Y-87578095D02*
X166987619Y-87673333D01*
X166987619Y-87673333D02*
X167035238Y-87816190D01*
X167035238Y-87816190D02*
X167606666Y-88387619D01*
X167606666Y-88387619D02*
X166987619Y-88387619D01*
X166082857Y-87387619D02*
X166559047Y-87387619D01*
X166559047Y-87387619D02*
X166606666Y-87863809D01*
X166606666Y-87863809D02*
X166559047Y-87816190D01*
X166559047Y-87816190D02*
X166463809Y-87768571D01*
X166463809Y-87768571D02*
X166225714Y-87768571D01*
X166225714Y-87768571D02*
X166130476Y-87816190D01*
X166130476Y-87816190D02*
X166082857Y-87863809D01*
X166082857Y-87863809D02*
X166035238Y-87959047D01*
X166035238Y-87959047D02*
X166035238Y-88197142D01*
X166035238Y-88197142D02*
X166082857Y-88292380D01*
X166082857Y-88292380D02*
X166130476Y-88340000D01*
X166130476Y-88340000D02*
X166225714Y-88387619D01*
X166225714Y-88387619D02*
X166463809Y-88387619D01*
X166463809Y-88387619D02*
X166559047Y-88340000D01*
X166559047Y-88340000D02*
X166606666Y-88292380D01*
X179416190Y-90388571D02*
X179463809Y-90340952D01*
X179463809Y-90340952D02*
X179559047Y-90198095D01*
X179559047Y-90198095D02*
X179606666Y-90102857D01*
X179606666Y-90102857D02*
X179654285Y-89960000D01*
X179654285Y-89960000D02*
X179701904Y-89721904D01*
X179701904Y-89721904D02*
X179701904Y-89531428D01*
X179701904Y-89531428D02*
X179654285Y-89293333D01*
X179654285Y-89293333D02*
X179606666Y-89150476D01*
X179606666Y-89150476D02*
X179559047Y-89055238D01*
X179559047Y-89055238D02*
X179463809Y-88912380D01*
X179463809Y-88912380D02*
X179416190Y-88864761D01*
X178463809Y-89912380D02*
X178511428Y-89960000D01*
X178511428Y-89960000D02*
X178654285Y-90007619D01*
X178654285Y-90007619D02*
X178749523Y-90007619D01*
X178749523Y-90007619D02*
X178892380Y-89960000D01*
X178892380Y-89960000D02*
X178987618Y-89864761D01*
X178987618Y-89864761D02*
X179035237Y-89769523D01*
X179035237Y-89769523D02*
X179082856Y-89579047D01*
X179082856Y-89579047D02*
X179082856Y-89436190D01*
X179082856Y-89436190D02*
X179035237Y-89245714D01*
X179035237Y-89245714D02*
X178987618Y-89150476D01*
X178987618Y-89150476D02*
X178892380Y-89055238D01*
X178892380Y-89055238D02*
X178749523Y-89007619D01*
X178749523Y-89007619D02*
X178654285Y-89007619D01*
X178654285Y-89007619D02*
X178511428Y-89055238D01*
X178511428Y-89055238D02*
X178463809Y-89102857D01*
X178130475Y-90388571D02*
X178082856Y-90340952D01*
X178082856Y-90340952D02*
X177987618Y-90198095D01*
X177987618Y-90198095D02*
X177939999Y-90102857D01*
X177939999Y-90102857D02*
X177892380Y-89960000D01*
X177892380Y-89960000D02*
X177844761Y-89721904D01*
X177844761Y-89721904D02*
X177844761Y-89531428D01*
X177844761Y-89531428D02*
X177892380Y-89293333D01*
X177892380Y-89293333D02*
X177939999Y-89150476D01*
X177939999Y-89150476D02*
X177987618Y-89055238D01*
X177987618Y-89055238D02*
X178082856Y-88912380D01*
X178082856Y-88912380D02*
X178130475Y-88864761D01*
X176273332Y-89483809D02*
X176606665Y-89483809D01*
X176606665Y-90007619D02*
X176606665Y-89007619D01*
X176606665Y-89007619D02*
X176130475Y-89007619D01*
X175320951Y-90007619D02*
X175320951Y-89483809D01*
X175320951Y-89483809D02*
X175368570Y-89388571D01*
X175368570Y-89388571D02*
X175463808Y-89340952D01*
X175463808Y-89340952D02*
X175654284Y-89340952D01*
X175654284Y-89340952D02*
X175749522Y-89388571D01*
X175320951Y-89960000D02*
X175416189Y-90007619D01*
X175416189Y-90007619D02*
X175654284Y-90007619D01*
X175654284Y-90007619D02*
X175749522Y-89960000D01*
X175749522Y-89960000D02*
X175797141Y-89864761D01*
X175797141Y-89864761D02*
X175797141Y-89769523D01*
X175797141Y-89769523D02*
X175749522Y-89674285D01*
X175749522Y-89674285D02*
X175654284Y-89626666D01*
X175654284Y-89626666D02*
X175416189Y-89626666D01*
X175416189Y-89626666D02*
X175320951Y-89579047D01*
X174844760Y-90007619D02*
X174844760Y-89007619D01*
X174844760Y-89388571D02*
X174749522Y-89340952D01*
X174749522Y-89340952D02*
X174559046Y-89340952D01*
X174559046Y-89340952D02*
X174463808Y-89388571D01*
X174463808Y-89388571D02*
X174416189Y-89436190D01*
X174416189Y-89436190D02*
X174368570Y-89531428D01*
X174368570Y-89531428D02*
X174368570Y-89817142D01*
X174368570Y-89817142D02*
X174416189Y-89912380D01*
X174416189Y-89912380D02*
X174463808Y-89960000D01*
X174463808Y-89960000D02*
X174559046Y-90007619D01*
X174559046Y-90007619D02*
X174749522Y-90007619D01*
X174749522Y-90007619D02*
X174844760Y-89960000D01*
X173939998Y-90007619D02*
X173939998Y-89340952D01*
X173939998Y-89436190D02*
X173892379Y-89388571D01*
X173892379Y-89388571D02*
X173797141Y-89340952D01*
X173797141Y-89340952D02*
X173654284Y-89340952D01*
X173654284Y-89340952D02*
X173559046Y-89388571D01*
X173559046Y-89388571D02*
X173511427Y-89483809D01*
X173511427Y-89483809D02*
X173511427Y-90007619D01*
X173511427Y-89483809D02*
X173463808Y-89388571D01*
X173463808Y-89388571D02*
X173368570Y-89340952D01*
X173368570Y-89340952D02*
X173225713Y-89340952D01*
X173225713Y-89340952D02*
X173130474Y-89388571D01*
X173130474Y-89388571D02*
X173082855Y-89483809D01*
X173082855Y-89483809D02*
X173082855Y-90007619D01*
X172606665Y-90007619D02*
X172606665Y-89340952D01*
X172606665Y-89007619D02*
X172654284Y-89055238D01*
X172654284Y-89055238D02*
X172606665Y-89102857D01*
X172606665Y-89102857D02*
X172559046Y-89055238D01*
X172559046Y-89055238D02*
X172606665Y-89007619D01*
X172606665Y-89007619D02*
X172606665Y-89102857D01*
X171701904Y-89960000D02*
X171797142Y-90007619D01*
X171797142Y-90007619D02*
X171987618Y-90007619D01*
X171987618Y-90007619D02*
X172082856Y-89960000D01*
X172082856Y-89960000D02*
X172130475Y-89912380D01*
X172130475Y-89912380D02*
X172178094Y-89817142D01*
X172178094Y-89817142D02*
X172178094Y-89531428D01*
X172178094Y-89531428D02*
X172130475Y-89436190D01*
X172130475Y-89436190D02*
X172082856Y-89388571D01*
X172082856Y-89388571D02*
X171987618Y-89340952D01*
X171987618Y-89340952D02*
X171797142Y-89340952D01*
X171797142Y-89340952D02*
X171701904Y-89388571D01*
X171273332Y-90007619D02*
X171273332Y-89340952D01*
X171273332Y-89531428D02*
X171225713Y-89436190D01*
X171225713Y-89436190D02*
X171178094Y-89388571D01*
X171178094Y-89388571D02*
X171082856Y-89340952D01*
X171082856Y-89340952D02*
X170987618Y-89340952D01*
X170511427Y-90007619D02*
X170606665Y-89960000D01*
X170606665Y-89960000D02*
X170654284Y-89912380D01*
X170654284Y-89912380D02*
X170701903Y-89817142D01*
X170701903Y-89817142D02*
X170701903Y-89531428D01*
X170701903Y-89531428D02*
X170654284Y-89436190D01*
X170654284Y-89436190D02*
X170606665Y-89388571D01*
X170606665Y-89388571D02*
X170511427Y-89340952D01*
X170511427Y-89340952D02*
X170368570Y-89340952D01*
X170368570Y-89340952D02*
X170273332Y-89388571D01*
X170273332Y-89388571D02*
X170225713Y-89436190D01*
X170225713Y-89436190D02*
X170178094Y-89531428D01*
X170178094Y-89531428D02*
X170178094Y-89817142D01*
X170178094Y-89817142D02*
X170225713Y-89912380D01*
X170225713Y-89912380D02*
X170273332Y-89960000D01*
X170273332Y-89960000D02*
X170368570Y-90007619D01*
X170368570Y-90007619D02*
X170511427Y-90007619D01*
X169701903Y-89960000D02*
X169701903Y-90007619D01*
X169701903Y-90007619D02*
X169749522Y-90102857D01*
X169749522Y-90102857D02*
X169797141Y-90150476D01*
X168035237Y-90007619D02*
X168511427Y-90007619D01*
X168511427Y-90007619D02*
X168511427Y-89007619D01*
X167225713Y-90007619D02*
X167701903Y-90007619D01*
X167701903Y-90007619D02*
X167701903Y-89007619D01*
X166320951Y-89912380D02*
X166368570Y-89960000D01*
X166368570Y-89960000D02*
X166511427Y-90007619D01*
X166511427Y-90007619D02*
X166606665Y-90007619D01*
X166606665Y-90007619D02*
X166749522Y-89960000D01*
X166749522Y-89960000D02*
X166844760Y-89864761D01*
X166844760Y-89864761D02*
X166892379Y-89769523D01*
X166892379Y-89769523D02*
X166939998Y-89579047D01*
X166939998Y-89579047D02*
X166939998Y-89436190D01*
X166939998Y-89436190D02*
X166892379Y-89245714D01*
X166892379Y-89245714D02*
X166844760Y-89150476D01*
X166844760Y-89150476D02*
X166749522Y-89055238D01*
X166749522Y-89055238D02*
X166606665Y-89007619D01*
X166606665Y-89007619D02*
X166511427Y-89007619D01*
X166511427Y-89007619D02*
X166368570Y-89055238D01*
X166368570Y-89055238D02*
X166320951Y-89102857D01*
X165892379Y-89912380D02*
X165844760Y-89960000D01*
X165844760Y-89960000D02*
X165892379Y-90007619D01*
X165892379Y-90007619D02*
X165939998Y-89960000D01*
X165939998Y-89960000D02*
X165892379Y-89912380D01*
X165892379Y-89912380D02*
X165892379Y-90007619D01*
D14*
%TO.C,J2*%
X128525000Y-92170000D03*
D15*
X128525000Y-94710000D03*
%TD*%
D16*
%TO.C,H2*%
X169980000Y-45650000D03*
%TD*%
D17*
%TO.C,J1*%
X118080000Y-92180000D03*
X123860000Y-92180000D03*
D18*
X116650000Y-91650000D03*
D19*
X116650000Y-95830000D03*
D18*
X125290000Y-91650000D03*
D19*
X125290000Y-95830000D03*
%TD*%
D16*
%TO.C,H1*%
X111980000Y-45650000D03*
%TD*%
D20*
%TO.C,XS11*%
X112230000Y-86900000D03*
D21*
X112230000Y-88900000D03*
%TD*%
D16*
%TO.C,H3*%
X169980000Y-94650000D03*
%TD*%
D20*
%TO.C,XS8*%
X112230000Y-65826000D03*
D21*
X112230000Y-67826000D03*
%TD*%
D20*
%TO.C,XS7*%
X112230000Y-58820000D03*
D21*
X112230000Y-60820000D03*
%TD*%
D22*
%TO.C,XS1*%
X189450000Y-52080000D03*
X189450000Y-47080000D03*
%TD*%
D20*
%TO.C,XS10*%
X112230000Y-79870000D03*
D21*
X112230000Y-81870000D03*
%TD*%
D23*
%TO.C,XS4*%
X190140000Y-94150000D03*
X190140000Y-81450000D03*
D24*
X187600000Y-84250000D03*
X185820000Y-85270000D03*
X187600000Y-86280000D03*
X185820000Y-87300000D03*
X187600000Y-88310000D03*
X185820000Y-89330000D03*
X187600000Y-90340000D03*
X185820000Y-91360000D03*
X181000000Y-80940000D03*
X181000000Y-83230000D03*
X181000000Y-94660000D03*
X181000000Y-92370000D03*
D25*
X186710000Y-79670000D03*
X186710000Y-95930000D03*
%TD*%
D26*
%TO.C,J4*%
X116665000Y-87090000D03*
D27*
X116665000Y-85090000D03*
X116665000Y-83090000D03*
X116665000Y-81090000D03*
X116665000Y-79090000D03*
X116665000Y-77090000D03*
X116665000Y-75090000D03*
%TD*%
D20*
%TO.C,XS9*%
X112230000Y-72838000D03*
D21*
X112230000Y-74838000D03*
%TD*%
D28*
%TO.C,J3*%
X132640000Y-95650000D03*
X133240000Y-90750000D03*
X147740000Y-90750000D03*
X148340000Y-95650000D03*
%TD*%
D29*
%TO.C,XS12*%
X159785000Y-91970000D03*
X159785000Y-84970000D03*
%TD*%
D20*
%TO.C,XS6*%
X112230000Y-51790000D03*
D21*
X112230000Y-53790000D03*
%TD*%
D30*
%TO.C,XS3*%
X186560000Y-59190000D03*
D21*
X186560000Y-57190000D03*
%TD*%
D14*
%TO.C,XS5*%
X116910000Y-46790000D03*
D15*
X116910000Y-44250000D03*
X119450000Y-46790000D03*
X119450000Y-44250000D03*
X121990000Y-46790000D03*
X121990000Y-44250000D03*
X124530000Y-46790000D03*
X124530000Y-44250000D03*
X127070000Y-46790000D03*
X127070000Y-44250000D03*
X129610000Y-46790000D03*
X129610000Y-44250000D03*
X132150000Y-46790000D03*
X132150000Y-44250000D03*
X134690000Y-46790000D03*
X134690000Y-44250000D03*
X137230000Y-46790000D03*
X137230000Y-44250000D03*
X139770000Y-46790000D03*
X139770000Y-44250000D03*
X142310000Y-46790000D03*
X142310000Y-44250000D03*
X144850000Y-46790000D03*
X144850000Y-44250000D03*
X147390000Y-46790000D03*
X147390000Y-44250000D03*
X149930000Y-46790000D03*
X149930000Y-44250000D03*
X152470000Y-46790000D03*
X152470000Y-44250000D03*
X155010000Y-46790000D03*
X155010000Y-44250000D03*
X157550000Y-46790000D03*
X157550000Y-44250000D03*
X160090000Y-46790000D03*
X160090000Y-44250000D03*
X162630000Y-46790000D03*
X162630000Y-44250000D03*
X165170000Y-46790000D03*
X165170000Y-44250000D03*
%TD*%
D16*
%TO.C,H4*%
X111980000Y-94650000D03*
%TD*%
D31*
%TO.C,R162*%
X144824000Y-82423000D03*
X144824000Y-83423000D03*
%TD*%
D32*
%TO.C,C45*%
X174050000Y-71595000D03*
X175050000Y-71595000D03*
%TD*%
D33*
%TO.C,Q2*%
X139902000Y-84586000D03*
X141802000Y-84586000D03*
X140852000Y-86586000D03*
%TD*%
D34*
%TO.C,R114*%
X143100000Y-93030000D03*
X143100000Y-92030000D03*
%TD*%
D35*
%TO.C,Q1*%
X182740000Y-48970000D03*
X182740000Y-50870000D03*
X180865000Y-49920000D03*
%TD*%
D36*
%TO.C,C8*%
X169737000Y-60677000D03*
X168737000Y-60677000D03*
%TD*%
D37*
%TO.C,C35*%
X150577000Y-74372000D03*
X151537000Y-74372000D03*
%TD*%
D31*
%TO.C,R12*%
X131990000Y-48510000D03*
X131990000Y-49510000D03*
%TD*%
%TO.C,R32*%
X164300000Y-49860000D03*
X164300000Y-50860000D03*
%TD*%
D38*
%TO.C,R164*%
X129725000Y-83275000D03*
X129725000Y-82255000D03*
%TD*%
D39*
%TO.C,L2*%
X161331500Y-62053500D03*
X161331500Y-59253500D03*
%TD*%
D32*
%TO.C,R88*%
X163455000Y-72245000D03*
X164455000Y-72245000D03*
%TD*%
D40*
%TO.C,D7*%
X182670000Y-47319000D03*
X182670000Y-44119000D03*
%TD*%
D41*
%TO.C,C88*%
X149640000Y-93585000D03*
X149640000Y-92625000D03*
%TD*%
D34*
%TO.C,R99*%
X173655000Y-82635000D03*
X173655000Y-81635000D03*
%TD*%
D42*
%TO.C,C99*%
X124235000Y-80720000D03*
X124235000Y-81680000D03*
%TD*%
D34*
%TO.C,R115*%
X144094000Y-93035000D03*
X144094000Y-92035000D03*
%TD*%
D43*
%TO.C,C47*%
X170580000Y-77190000D03*
X169620000Y-77190000D03*
%TD*%
D44*
%TO.C,R134*%
X131467000Y-57209000D03*
X130447000Y-57209000D03*
%TD*%
D34*
%TO.C,R117*%
X146086000Y-93031000D03*
X146086000Y-92031000D03*
%TD*%
D45*
%TO.C,R147*%
X149545000Y-88535000D03*
X150565000Y-88535000D03*
%TD*%
D41*
%TO.C,C70*%
X116804000Y-59957000D03*
X116804000Y-58997000D03*
%TD*%
D45*
%TO.C,R146*%
X124336000Y-53128000D03*
X125356000Y-53128000D03*
%TD*%
D42*
%TO.C,C25*%
X134215000Y-80030000D03*
X134215000Y-80990000D03*
%TD*%
D46*
%TO.C,C48*%
X164485000Y-73510000D03*
X166035000Y-73510000D03*
%TD*%
D37*
%TO.C,C78*%
X123172000Y-62606000D03*
X124132000Y-62606000D03*
%TD*%
D47*
%TO.C,L12*%
X130772000Y-59421000D03*
X130772000Y-60996000D03*
%TD*%
D44*
%TO.C,R107*%
X189570000Y-60880000D03*
X188550000Y-60880000D03*
%TD*%
D31*
%TO.C,R50*%
X129910000Y-64505000D03*
X129910000Y-65505000D03*
%TD*%
D48*
%TO.C,R149*%
X147014000Y-83066000D03*
X147014000Y-84086000D03*
%TD*%
D49*
%TO.C,D19*%
X110132000Y-74635500D03*
X110132000Y-73060500D03*
%TD*%
D38*
%TO.C,R136*%
X127868000Y-53225000D03*
X127868000Y-52205000D03*
%TD*%
D50*
%TO.C,U16*%
X152175000Y-88285000D03*
X152175000Y-87015000D03*
X152175000Y-85745000D03*
X152175000Y-84475000D03*
X157325000Y-84475000D03*
X157325000Y-85745000D03*
X157325000Y-87015000D03*
X157325000Y-88285000D03*
%TD*%
D51*
%TO.C,D9*%
X185630000Y-45710000D03*
X185630000Y-49710000D03*
%TD*%
D45*
%TO.C,R141*%
X112157000Y-57575000D03*
X113177000Y-57575000D03*
%TD*%
D31*
%TO.C,R158*%
X140873000Y-82396000D03*
X140873000Y-83396000D03*
%TD*%
D44*
%TO.C,R132*%
X131480000Y-58199000D03*
X130460000Y-58199000D03*
%TD*%
D52*
%TO.C,C46*%
X173345000Y-77340000D03*
X175245000Y-77340000D03*
%TD*%
D47*
%TO.C,D13*%
X110132000Y-79995000D03*
X110132000Y-81570000D03*
%TD*%
D34*
%TO.C,R116*%
X145094000Y-93031000D03*
X145094000Y-92031000D03*
%TD*%
D49*
%TO.C,L16*%
X148270000Y-83809000D03*
X148270000Y-82234000D03*
%TD*%
D53*
%TO.C,C11*%
X158132500Y-59520500D03*
X156232500Y-59520500D03*
%TD*%
D34*
%TO.C,R112*%
X141090000Y-93020000D03*
X141090000Y-92020000D03*
%TD*%
D41*
%TO.C,C77*%
X132027000Y-60366000D03*
X132027000Y-59406000D03*
%TD*%
D31*
%TO.C,R93*%
X172595000Y-71730000D03*
X172595000Y-72730000D03*
%TD*%
D54*
%TO.C,C90*%
X137257000Y-95332000D03*
X137257000Y-96882000D03*
%TD*%
D55*
%TO.C,U3*%
X171546000Y-62052000D03*
X171546000Y-63002000D03*
X171546000Y-63952000D03*
X169271000Y-63952000D03*
X169271000Y-62052000D03*
%TD*%
D47*
%TO.C,L10*%
X120199000Y-69170000D03*
X120199000Y-70745000D03*
%TD*%
D31*
%TO.C,R26*%
X152770000Y-49435000D03*
X152770000Y-50435000D03*
%TD*%
D45*
%TO.C,R137*%
X153433000Y-80437000D03*
X154453000Y-80437000D03*
%TD*%
D56*
%TO.C,L14*%
X125095000Y-49973000D03*
X123520000Y-49973000D03*
%TD*%
D31*
%TO.C,R121*%
X135025000Y-87858000D03*
X135025000Y-88858000D03*
%TD*%
D45*
%TO.C,R109*%
X178960000Y-61870000D03*
X179980000Y-61870000D03*
%TD*%
D37*
%TO.C,C37*%
X150577000Y-73401000D03*
X151537000Y-73401000D03*
%TD*%
D34*
%TO.C,R36*%
X167285000Y-50865000D03*
X167285000Y-49865000D03*
%TD*%
D57*
%TO.C,D22*%
X135304000Y-92035000D03*
X135304000Y-94835000D03*
%TD*%
D31*
%TO.C,R103*%
X183570000Y-91505000D03*
X183570000Y-92505000D03*
%TD*%
D36*
%TO.C,R58*%
X131480000Y-92170000D03*
X130480000Y-92170000D03*
%TD*%
D58*
%TO.C,U12*%
X119734000Y-54819000D03*
X121004000Y-54819000D03*
X122274000Y-54819000D03*
X123544000Y-54819000D03*
X123544000Y-59969000D03*
X122274000Y-59969000D03*
X121004000Y-59969000D03*
X119734000Y-59969000D03*
%TD*%
D41*
%TO.C,C75*%
X127909000Y-63585000D03*
X127909000Y-62625000D03*
%TD*%
D31*
%TO.C,R94*%
X169315000Y-69185000D03*
X169315000Y-70185000D03*
%TD*%
D44*
%TO.C,R127*%
X164333000Y-77889000D03*
X163313000Y-77889000D03*
%TD*%
%TO.C,R139*%
X122239000Y-62621000D03*
X121219000Y-62621000D03*
%TD*%
D34*
%TO.C,R110*%
X139070000Y-93020000D03*
X139070000Y-92020000D03*
%TD*%
D31*
%TO.C,R92*%
X173700000Y-69190000D03*
X173700000Y-70190000D03*
%TD*%
D37*
%TO.C,C81*%
X123393000Y-51241000D03*
X124353000Y-51241000D03*
%TD*%
D45*
%TO.C,R150*%
X149568000Y-85982000D03*
X150588000Y-85982000D03*
%TD*%
D36*
%TO.C,R21*%
X143455000Y-48470000D03*
X142455000Y-48470000D03*
%TD*%
D34*
%TO.C,R100*%
X176295000Y-82605000D03*
X176295000Y-81605000D03*
%TD*%
D43*
%TO.C,C13*%
X167874000Y-63952000D03*
X166914000Y-63952000D03*
%TD*%
D37*
%TO.C,C32*%
X150542000Y-68828000D03*
X151502000Y-68828000D03*
%TD*%
D49*
%TO.C,D29*%
X121600000Y-95097500D03*
X121600000Y-93522500D03*
%TD*%
D42*
%TO.C,C26*%
X132280000Y-70850000D03*
X132280000Y-71810000D03*
%TD*%
D37*
%TO.C,C34*%
X150542000Y-66855000D03*
X151502000Y-66855000D03*
%TD*%
D45*
%TO.C,R145*%
X123130000Y-61626000D03*
X124150000Y-61626000D03*
%TD*%
D38*
%TO.C,R163*%
X130675000Y-83285000D03*
X130675000Y-82265000D03*
%TD*%
D44*
%TO.C,R104*%
X179970000Y-59150000D03*
X178950000Y-59150000D03*
%TD*%
D42*
%TO.C,C79*%
X129845000Y-52248000D03*
X129845000Y-53208000D03*
%TD*%
D31*
%TO.C,R120*%
X139882000Y-82390000D03*
X139882000Y-83390000D03*
%TD*%
D45*
%TO.C,R125*%
X118700000Y-53040000D03*
X119720000Y-53040000D03*
%TD*%
D38*
%TO.C,R167*%
X127785000Y-83260000D03*
X127785000Y-82240000D03*
%TD*%
D59*
%TO.C,R106*%
X190080000Y-59265000D03*
X190080000Y-57440000D03*
%TD*%
D31*
%TO.C,R84*%
X173560000Y-66810000D03*
X173560000Y-67810000D03*
%TD*%
D60*
%TO.C,U13*%
X129163000Y-59989000D03*
X127893000Y-59989000D03*
X126623000Y-59989000D03*
X125353000Y-59989000D03*
X125353000Y-54839000D03*
X126623000Y-54839000D03*
X127893000Y-54839000D03*
X129163000Y-54839000D03*
%TD*%
D61*
%TO.C,F1*%
X184762500Y-52240000D03*
X186637500Y-52240000D03*
%TD*%
D42*
%TO.C,C73*%
X118949000Y-69170000D03*
X118949000Y-70130000D03*
%TD*%
D43*
%TO.C,C76*%
X117136000Y-57108000D03*
X116176000Y-57108000D03*
%TD*%
D42*
%TO.C,C20*%
X131310000Y-70850000D03*
X131310000Y-71810000D03*
%TD*%
D49*
%TO.C,D15*%
X110132000Y-67612000D03*
X110132000Y-66037000D03*
%TD*%
D34*
%TO.C,R44*%
X158827500Y-66555500D03*
X158827500Y-65555500D03*
%TD*%
D62*
%TO.C,U14*%
X161496000Y-77886000D03*
X161496000Y-79156000D03*
X161496000Y-80426000D03*
X161496000Y-81696000D03*
X156346000Y-81696000D03*
X156346000Y-80426000D03*
X156346000Y-79156000D03*
X156346000Y-77886000D03*
%TD*%
D31*
%TO.C,C87*%
X132012000Y-87854000D03*
X132012000Y-88854000D03*
%TD*%
D63*
%TO.C,U21*%
X150844000Y-61598000D03*
X150044000Y-61598000D03*
X149244000Y-61598000D03*
X148444000Y-61598000D03*
X147644000Y-61598000D03*
X146844000Y-61598000D03*
X146044000Y-61598000D03*
X145244000Y-61598000D03*
X144444000Y-61598000D03*
X143644000Y-61598000D03*
X142844000Y-61598000D03*
X142044000Y-61598000D03*
X141244000Y-61598000D03*
X140444000Y-61598000D03*
X139644000Y-61598000D03*
X138844000Y-61598000D03*
X138044000Y-61598000D03*
X137244000Y-61598000D03*
X136444000Y-61598000D03*
X135644000Y-61598000D03*
X134844000Y-61598000D03*
X134044000Y-61598000D03*
X134044000Y-50423000D03*
X134844000Y-50423000D03*
X135644000Y-50423000D03*
X136444000Y-50423000D03*
X137244000Y-50423000D03*
X138044000Y-50423000D03*
X138844000Y-50423000D03*
X139644000Y-50423000D03*
X140444000Y-50423000D03*
X141244000Y-50423000D03*
X142044000Y-50423000D03*
X142844000Y-50423000D03*
X143644000Y-50423000D03*
X144444000Y-50423000D03*
X145244000Y-50423000D03*
X146044000Y-50423000D03*
X146844000Y-50423000D03*
X147644000Y-50423000D03*
X148444000Y-50423000D03*
X149244000Y-50423000D03*
X150044000Y-50423000D03*
X150844000Y-50423000D03*
%TD*%
D38*
%TO.C,R166*%
X126780000Y-83255000D03*
X126780000Y-82235000D03*
%TD*%
D31*
%TO.C,R11*%
X129835000Y-48500000D03*
X129835000Y-49500000D03*
%TD*%
D54*
%TO.C,C83*%
X152120000Y-80505000D03*
X152120000Y-82055000D03*
%TD*%
D32*
%TO.C,R18*%
X139760000Y-48330000D03*
X140760000Y-48330000D03*
%TD*%
D45*
%TO.C,R148*%
X149548000Y-89509000D03*
X150568000Y-89509000D03*
%TD*%
D49*
%TO.C,D28*%
X120080000Y-95077500D03*
X120080000Y-93502500D03*
%TD*%
%TO.C,D18*%
X110132000Y-60678500D03*
X110132000Y-59103500D03*
%TD*%
D34*
%TO.C,R97*%
X167425000Y-82700000D03*
X167425000Y-81700000D03*
%TD*%
D64*
%TO.C,C10*%
X162172500Y-67845500D03*
X160622500Y-67845500D03*
%TD*%
D49*
%TO.C,D14*%
X110132000Y-53529500D03*
X110132000Y-51954500D03*
%TD*%
D34*
%TO.C,R111*%
X140080000Y-93020000D03*
X140080000Y-92020000D03*
%TD*%
%TO.C,R98*%
X169880000Y-82645000D03*
X169880000Y-81645000D03*
%TD*%
D44*
%TO.C,R124*%
X128942000Y-61645000D03*
X127922000Y-61645000D03*
%TD*%
D34*
%TO.C,R4*%
X121770000Y-49850000D03*
X121770000Y-48850000D03*
%TD*%
D43*
%TO.C,C43*%
X166275000Y-67025000D03*
X165315000Y-67025000D03*
%TD*%
D65*
%TO.C,Y1*%
X129473000Y-78632000D03*
X123573000Y-78632000D03*
X123573000Y-75932000D03*
X129473000Y-75932000D03*
%TD*%
D34*
%TO.C,R34*%
X165280000Y-50870000D03*
X165280000Y-49870000D03*
%TD*%
D32*
%TO.C,R8*%
X187615000Y-67870000D03*
X188615000Y-67870000D03*
%TD*%
D48*
%TO.C,R140*%
X128866000Y-52208000D03*
X128866000Y-53228000D03*
%TD*%
D31*
%TO.C,R119*%
X145821000Y-82440000D03*
X145821000Y-83440000D03*
%TD*%
D62*
%TO.C,U15*%
X127882000Y-68164000D03*
X127882000Y-69434000D03*
X127882000Y-70704000D03*
X127882000Y-71974000D03*
X122732000Y-71974000D03*
X122732000Y-70704000D03*
X122732000Y-69434000D03*
X122732000Y-68164000D03*
%TD*%
D32*
%TO.C,R87*%
X165650000Y-68685000D03*
X166650000Y-68685000D03*
%TD*%
D66*
%TO.C,C49*%
X171150000Y-83480000D03*
X171150000Y-81930000D03*
%TD*%
D31*
%TO.C,R96*%
X172400000Y-82500000D03*
X172400000Y-83500000D03*
%TD*%
D34*
%TO.C,R28*%
X153765000Y-50435000D03*
X153765000Y-49435000D03*
%TD*%
D31*
%TO.C,R89*%
X170750000Y-69190000D03*
X170750000Y-70190000D03*
%TD*%
D42*
%TO.C,C74*%
X118130000Y-54200000D03*
X118130000Y-55160000D03*
%TD*%
D44*
%TO.C,R108*%
X185330000Y-55250000D03*
X184310000Y-55250000D03*
%TD*%
D38*
%TO.C,R156*%
X159670000Y-88170000D03*
X159670000Y-87150000D03*
%TD*%
D56*
%TO.C,L15*%
X153540000Y-90086000D03*
X151965000Y-90086000D03*
%TD*%
D47*
%TO.C,D17*%
X110132000Y-87069000D03*
X110132000Y-88644000D03*
%TD*%
D53*
%TO.C,C12*%
X158152500Y-61550500D03*
X156252500Y-61550500D03*
%TD*%
D36*
%TO.C,R16*%
X134665000Y-48595000D03*
X133665000Y-48595000D03*
%TD*%
D37*
%TO.C,C36*%
X150580000Y-72430000D03*
X151540000Y-72430000D03*
%TD*%
D31*
%TO.C,R174*%
X123400000Y-93880000D03*
X123400000Y-94880000D03*
%TD*%
%TO.C,R51*%
X127920000Y-64545000D03*
X127920000Y-65545000D03*
%TD*%
%TO.C,R29*%
X154755000Y-49435000D03*
X154755000Y-50435000D03*
%TD*%
%TO.C,R83*%
X171500000Y-66790000D03*
X171500000Y-67790000D03*
%TD*%
D37*
%TO.C,C44*%
X174055000Y-72570000D03*
X175015000Y-72570000D03*
%TD*%
D31*
%TO.C,R161*%
X143842000Y-82416000D03*
X143842000Y-83416000D03*
%TD*%
%TO.C,R3*%
X118375000Y-48875000D03*
X118375000Y-49875000D03*
%TD*%
D46*
%TO.C,C85*%
X148744000Y-87240000D03*
X150294000Y-87240000D03*
%TD*%
D34*
%TO.C,R113*%
X142100000Y-93030000D03*
X142100000Y-92030000D03*
%TD*%
D36*
%TO.C,R95*%
X166645000Y-69680000D03*
X165645000Y-69680000D03*
%TD*%
D53*
%TO.C,C42*%
X167495000Y-65515000D03*
X165595000Y-65515000D03*
%TD*%
D34*
%TO.C,R35*%
X166265000Y-50855000D03*
X166265000Y-49855000D03*
%TD*%
D36*
%TO.C,C9*%
X167874000Y-62019000D03*
X166874000Y-62019000D03*
%TD*%
D42*
%TO.C,C91*%
X138492000Y-95078000D03*
X138492000Y-96038000D03*
%TD*%
D34*
%TO.C,R33*%
X157745000Y-50460000D03*
X157745000Y-49460000D03*
%TD*%
D31*
%TO.C,R160*%
X137352000Y-82366000D03*
X137352000Y-83366000D03*
%TD*%
%TO.C,R159*%
X138342000Y-82366000D03*
X138342000Y-83366000D03*
%TD*%
D34*
%TO.C,C52*%
X173675000Y-79920000D03*
X173675000Y-78920000D03*
%TD*%
D67*
%TO.C,D10*%
X185065000Y-61200000D03*
X186640000Y-61200000D03*
%TD*%
D32*
%TO.C,R7*%
X178330000Y-66420000D03*
X179330000Y-66420000D03*
%TD*%
%TO.C,R67*%
X163450000Y-71210000D03*
X164450000Y-71210000D03*
%TD*%
D45*
%TO.C,R142*%
X112223000Y-71386000D03*
X113243000Y-71386000D03*
%TD*%
D31*
%TO.C,R81*%
X183545000Y-82115000D03*
X183545000Y-83115000D03*
%TD*%
D68*
%TO.C,D21*%
X151130000Y-95535000D03*
X153930000Y-95535000D03*
%TD*%
D54*
%TO.C,C82*%
X164045000Y-79210000D03*
X164045000Y-80760000D03*
%TD*%
D38*
%TO.C,R123*%
X120700000Y-53080000D03*
X120700000Y-52060000D03*
%TD*%
D45*
%TO.C,R157*%
X147558000Y-85019000D03*
X148578000Y-85019000D03*
%TD*%
D31*
%TO.C,R176*%
X118230000Y-93850000D03*
X118230000Y-94850000D03*
%TD*%
%TO.C,R154*%
X141842000Y-82396000D03*
X141842000Y-83396000D03*
%TD*%
D48*
%TO.C,R153*%
X133014000Y-87839000D03*
X133014000Y-88859000D03*
%TD*%
D47*
%TO.C,L3*%
X171800000Y-77290000D03*
X171800000Y-78865000D03*
%TD*%
D69*
%TO.C,D23*%
X191250000Y-85720000D03*
X191250000Y-90120000D03*
%TD*%
D31*
%TO.C,R49*%
X128915000Y-64535000D03*
X128915000Y-65535000D03*
%TD*%
D42*
%TO.C,C19*%
X133240000Y-70850000D03*
X133240000Y-71810000D03*
%TD*%
D45*
%TO.C,R131*%
X116130000Y-56138000D03*
X117150000Y-56138000D03*
%TD*%
%TO.C,R130*%
X112230000Y-64300000D03*
X113250000Y-64300000D03*
%TD*%
D31*
%TO.C,R91*%
X172710000Y-69190000D03*
X172710000Y-70190000D03*
%TD*%
D66*
%TO.C,C89*%
X150900000Y-93625000D03*
X150900000Y-92075000D03*
%TD*%
D70*
%TO.C,U2*%
X160317500Y-64015500D03*
X161267500Y-64015500D03*
X162217500Y-64015500D03*
X162217500Y-66215500D03*
X160317500Y-66215500D03*
%TD*%
D48*
%TO.C,R144*%
X125339000Y-51169000D03*
X125339000Y-52189000D03*
%TD*%
D33*
%TO.C,Q3*%
X136354000Y-84575000D03*
X138254000Y-84575000D03*
X137304000Y-86575000D03*
%TD*%
D48*
%TO.C,R151*%
X150516000Y-84028000D03*
X150516000Y-85048000D03*
%TD*%
D34*
%TO.C,R31*%
X156770000Y-50455000D03*
X156770000Y-49455000D03*
%TD*%
D37*
%TO.C,C72*%
X157446000Y-74748000D03*
X158406000Y-74748000D03*
%TD*%
D47*
%TO.C,L23*%
X125550000Y-80945000D03*
X125550000Y-82520000D03*
%TD*%
D38*
%TO.C,R126*%
X128893000Y-63606000D03*
X128893000Y-62586000D03*
%TD*%
D56*
%TO.C,D11*%
X188085000Y-55310000D03*
X186510000Y-55310000D03*
%TD*%
D34*
%TO.C,C50*%
X167335000Y-79860000D03*
X167335000Y-78860000D03*
%TD*%
D31*
%TO.C,R6*%
X126390000Y-48700000D03*
X126390000Y-49700000D03*
%TD*%
D37*
%TO.C,C31*%
X150569000Y-69896000D03*
X151529000Y-69896000D03*
%TD*%
D45*
%TO.C,R138*%
X112190000Y-85204000D03*
X113210000Y-85204000D03*
%TD*%
D32*
%TO.C,R1*%
X178315000Y-64850000D03*
X179315000Y-64850000D03*
%TD*%
D71*
%TO.C,F2*%
X137469000Y-93824000D03*
X137469000Y-91949000D03*
%TD*%
D42*
%TO.C,C84*%
X153554000Y-91341000D03*
X153554000Y-92301000D03*
%TD*%
D48*
%TO.C,R133*%
X117142000Y-54176000D03*
X117142000Y-55196000D03*
%TD*%
D45*
%TO.C,R135*%
X121204000Y-61628000D03*
X122224000Y-61628000D03*
%TD*%
D34*
%TO.C,C51*%
X169870000Y-79895000D03*
X169870000Y-78895000D03*
%TD*%
D32*
%TO.C,R2*%
X187540000Y-63720000D03*
X188540000Y-63720000D03*
%TD*%
D31*
%TO.C,R118*%
X136362000Y-82366000D03*
X136362000Y-83366000D03*
%TD*%
D44*
%TO.C,R105*%
X189570000Y-61920000D03*
X188550000Y-61920000D03*
%TD*%
D31*
%TO.C,R86*%
X169520000Y-66780000D03*
X169520000Y-67780000D03*
%TD*%
D37*
%TO.C,C33*%
X150546000Y-67842000D03*
X151506000Y-67842000D03*
%TD*%
D34*
%TO.C,R152*%
X134018000Y-88858000D03*
X134018000Y-87858000D03*
%TD*%
D31*
%TO.C,R85*%
X174680000Y-69195000D03*
X174680000Y-70195000D03*
%TD*%
D32*
%TO.C,R19*%
X187535000Y-76145000D03*
X188535000Y-76145000D03*
%TD*%
D47*
%TO.C,L8*%
X130762000Y-54422000D03*
X130762000Y-55997000D03*
%TD*%
D42*
%TO.C,C27*%
X130330000Y-70850000D03*
X130330000Y-71810000D03*
%TD*%
D34*
%TO.C,C53*%
X176220000Y-79920000D03*
X176220000Y-78920000D03*
%TD*%
D32*
%TO.C,R20*%
X178330000Y-69560000D03*
X179330000Y-69560000D03*
%TD*%
D44*
%TO.C,R143*%
X126066000Y-61649000D03*
X125046000Y-61649000D03*
%TD*%
D36*
%TO.C,R23*%
X147335000Y-48560000D03*
X146335000Y-48560000D03*
%TD*%
D31*
%TO.C,R41*%
X180575000Y-44115000D03*
X180575000Y-45115000D03*
%TD*%
D42*
%TO.C,C86*%
X149552000Y-84063000D03*
X149552000Y-85023000D03*
%TD*%
D49*
%TO.C,L7*%
X118064000Y-59972000D03*
X118064000Y-58397000D03*
%TD*%
%TO.C,L11*%
X115881000Y-54897000D03*
X115881000Y-53322000D03*
%TD*%
D31*
%TO.C,R66*%
X168070000Y-67185000D03*
X168070000Y-68185000D03*
%TD*%
D45*
%TO.C,R129*%
X112234000Y-50525000D03*
X113254000Y-50525000D03*
%TD*%
D32*
%TO.C,R14*%
X187540000Y-72035000D03*
X188540000Y-72035000D03*
%TD*%
%TO.C,R13*%
X178325000Y-67975000D03*
X179325000Y-67975000D03*
%TD*%
D33*
%TO.C,Q4*%
X143423000Y-84617000D03*
X145323000Y-84617000D03*
X144373000Y-86617000D03*
%TD*%
D38*
%TO.C,R165*%
X128770000Y-83260000D03*
X128770000Y-82240000D03*
%TD*%
D31*
%TO.C,R82*%
X170500000Y-66790000D03*
X170500000Y-67790000D03*
%TD*%
%TO.C,R43*%
X157805500Y-65554500D03*
X157805500Y-66554500D03*
%TD*%
D42*
%TO.C,C71*%
X130815000Y-52244000D03*
X130815000Y-53204000D03*
%TD*%
%TO.C,C24*%
X135170000Y-80050000D03*
X135170000Y-81010000D03*
%TD*%
D37*
%TO.C,C30*%
X150558000Y-70845000D03*
X151518000Y-70845000D03*
%TD*%
D31*
%TO.C,R52*%
X130990000Y-68415000D03*
X130990000Y-69415000D03*
%TD*%
D45*
%TO.C,R128*%
X112219000Y-78239000D03*
X113239000Y-78239000D03*
%TD*%
D31*
%TO.C,R90*%
X171730000Y-69190000D03*
X171730000Y-70190000D03*
%TD*%
D34*
%TO.C,R155*%
X142852000Y-83419000D03*
X142852000Y-82419000D03*
%TD*%
D67*
%TO.C,L9*%
X157441000Y-76074000D03*
X159016000Y-76074000D03*
%TD*%
M02*
