%TF.GenerationSoftware,KiCad,Pcbnew,7.0.2*%
%TF.CreationDate,2023-10-25T01:51:15+05:00*%
%TF.ProjectId,Karnix_ASB,4b61726e-6978-45f4-9153-422e6b696361,V1.0*%
%TF.SameCoordinates,Original*%
%TF.FileFunction,Soldermask,Top*%
%TF.FilePolarity,Negative*%
%FSLAX46Y46*%
G04 Gerber Fmt 4.6, Leading zero omitted, Abs format (unit mm)*
G04 Created by KiCad (PCBNEW 7.0.2) date 2023-10-25 01:51:15*
%MOMM*%
%LPD*%
G01*
G04 APERTURE LIST*
G04 Aperture macros list*
%AMRoundRect*
0 Rectangle with rounded corners*
0 $1 Rounding radius*
0 $2 $3 $4 $5 $6 $7 $8 $9 X,Y pos of 4 corners*
0 Add a 4 corners polygon primitive as box body*
4,1,4,$2,$3,$4,$5,$6,$7,$8,$9,$2,$3,0*
0 Add four circle primitives for the rounded corners*
1,1,$1+$1,$2,$3*
1,1,$1+$1,$4,$5*
1,1,$1+$1,$6,$7*
1,1,$1+$1,$8,$9*
0 Add four rect primitives between the rounded corners*
20,1,$1+$1,$2,$3,$4,$5,0*
20,1,$1+$1,$4,$5,$6,$7,0*
20,1,$1+$1,$6,$7,$8,$9,0*
20,1,$1+$1,$8,$9,$2,$3,0*%
G04 Aperture macros list end*
%ADD10C,0.150000*%
%ADD11RoundRect,0.140000X0.140000X0.170000X-0.140000X0.170000X-0.140000X-0.170000X0.140000X-0.170000X0*%
%ADD12RoundRect,0.250000X-0.475000X0.250000X-0.475000X-0.250000X0.475000X-0.250000X0.475000X0.250000X0*%
%ADD13RoundRect,0.150000X0.150000X0.150000X-0.150000X0.150000X-0.150000X-0.150000X0.150000X-0.150000X0*%
%ADD14RoundRect,0.150000X-0.825000X-0.150000X0.825000X-0.150000X0.825000X0.150000X-0.825000X0.150000X0*%
%ADD15RoundRect,0.140000X-0.140000X-0.170000X0.140000X-0.170000X0.140000X0.170000X-0.140000X0.170000X0*%
%ADD16RoundRect,0.150000X-0.512500X-0.150000X0.512500X-0.150000X0.512500X0.150000X-0.512500X0.150000X0*%
%ADD17RoundRect,0.150000X-0.150000X-0.150000X0.150000X-0.150000X0.150000X0.150000X-0.150000X0.150000X0*%
%ADD18RoundRect,0.150000X0.150000X-0.150000X0.150000X0.150000X-0.150000X0.150000X-0.150000X-0.150000X0*%
%ADD19RoundRect,0.140000X-0.170000X0.140000X-0.170000X-0.140000X0.170000X-0.140000X0.170000X0.140000X0*%
%ADD20RoundRect,0.218750X-0.218750X-0.256250X0.218750X-0.256250X0.218750X0.256250X-0.218750X0.256250X0*%
%ADD21RoundRect,0.140000X0.170000X-0.140000X0.170000X0.140000X-0.170000X0.140000X-0.170000X-0.140000X0*%
%ADD22RoundRect,0.135000X0.185000X-0.135000X0.185000X0.135000X-0.185000X0.135000X-0.185000X-0.135000X0*%
%ADD23R,2.000000X1.600000*%
%ADD24RoundRect,0.135000X-0.135000X-0.185000X0.135000X-0.185000X0.135000X0.185000X-0.135000X0.185000X0*%
%ADD25RoundRect,0.102000X-0.736600X-0.177800X0.736600X-0.177800X0.736600X0.177800X-0.736600X0.177800X0*%
%ADD26RoundRect,0.250000X-0.250000X-0.475000X0.250000X-0.475000X0.250000X0.475000X-0.250000X0.475000X0*%
%ADD27R,1.700000X1.700000*%
%ADD28O,1.700000X1.700000*%
%ADD29RoundRect,0.150000X-0.150000X0.150000X-0.150000X-0.150000X0.150000X-0.150000X0.150000X0.150000X0*%
%ADD30RoundRect,0.218750X0.218750X0.256250X-0.218750X0.256250X-0.218750X-0.256250X0.218750X-0.256250X0*%
%ADD31C,5.500000*%
%ADD32C,0.650000*%
%ADD33R,0.600000X1.450000*%
%ADD34R,0.300000X1.450000*%
%ADD35O,1.000000X2.100000*%
%ADD36O,1.000000X1.600000*%
%ADD37RoundRect,0.062500X0.375000X0.062500X-0.375000X0.062500X-0.375000X-0.062500X0.375000X-0.062500X0*%
%ADD38RoundRect,0.062500X0.062500X0.375000X-0.062500X0.375000X-0.062500X-0.375000X0.062500X-0.375000X0*%
%ADD39R,3.300000X3.300000*%
%ADD40RoundRect,0.218750X-0.256250X0.218750X-0.256250X-0.218750X0.256250X-0.218750X0.256250X0.218750X0*%
%ADD41RoundRect,0.500000X0.500000X0.900000X-0.500000X0.900000X-0.500000X-0.900000X0.500000X-0.900000X0*%
%ADD42RoundRect,0.125000X-0.125000X0.250000X-0.125000X-0.250000X0.125000X-0.250000X0.125000X0.250000X0*%
%ADD43R,4.300000X3.400000*%
%ADD44RoundRect,0.187500X-0.187500X-0.662500X0.187500X-0.662500X0.187500X0.662500X-0.187500X0.662500X0*%
%ADD45C,0.350000*%
%ADD46R,1.300000X1.100000*%
%ADD47RoundRect,0.250000X-0.625000X0.350000X-0.625000X-0.350000X0.625000X-0.350000X0.625000X0.350000X0*%
%ADD48O,1.750000X1.200000*%
%ADD49RoundRect,0.250000X0.475000X-0.250000X0.475000X0.250000X-0.475000X0.250000X-0.475000X-0.250000X0*%
%ADD50RoundRect,0.135000X-0.185000X0.135000X-0.185000X-0.135000X0.185000X-0.135000X0.185000X0.135000X0*%
%ADD51C,3.200000*%
%ADD52RoundRect,0.075000X-0.662500X-0.075000X0.662500X-0.075000X0.662500X0.075000X-0.662500X0.075000X0*%
%ADD53RoundRect,0.075000X-0.075000X-0.662500X0.075000X-0.662500X0.075000X0.662500X-0.075000X0.662500X0*%
%ADD54RoundRect,0.150000X0.150000X-0.825000X0.150000X0.825000X-0.150000X0.825000X-0.150000X-0.825000X0*%
%ADD55RoundRect,0.249600X1.400400X-0.950400X1.400400X0.950400X-1.400400X0.950400X-1.400400X-0.950400X0*%
%ADD56C,3.300000*%
%ADD57C,1.600000*%
%ADD58C,2.400000*%
%ADD59R,1.350000X1.350000*%
%ADD60O,1.350000X1.350000*%
%ADD61R,0.300000X1.900000*%
%ADD62C,1.800000*%
%ADD63RoundRect,0.250000X-0.325000X-0.650000X0.325000X-0.650000X0.325000X0.650000X-0.325000X0.650000X0*%
%ADD64RoundRect,0.250000X1.025000X-0.787500X1.025000X0.787500X-1.025000X0.787500X-1.025000X-0.787500X0*%
%ADD65C,1.700000*%
%ADD66RoundRect,0.102000X-1.400000X1.000000X-1.400000X-1.000000X1.400000X-1.000000X1.400000X1.000000X0*%
%ADD67RoundRect,0.102000X-1.400000X1.400000X-1.400000X-1.400000X1.400000X-1.400000X1.400000X1.400000X0*%
%ADD68RoundRect,0.102000X-1.400000X1.100000X-1.400000X-1.100000X1.400000X-1.100000X1.400000X1.100000X0*%
%ADD69RoundRect,0.102000X-1.400000X1.300000X-1.400000X-1.300000X1.400000X-1.300000X1.400000X1.300000X0*%
%ADD70RoundRect,0.250000X0.250000X0.475000X-0.250000X0.475000X-0.250000X-0.475000X0.250000X-0.475000X0*%
%ADD71RoundRect,0.250000X0.625000X-0.350000X0.625000X0.350000X-0.625000X0.350000X-0.625000X-0.350000X0*%
%ADD72RoundRect,0.218750X0.256250X-0.218750X0.256250X0.218750X-0.256250X0.218750X-0.256250X-0.218750X0*%
%ADD73RoundRect,0.250000X-1.025000X0.787500X-1.025000X-0.787500X1.025000X-0.787500X1.025000X0.787500X0*%
%ADD74RoundRect,0.350000X0.350000X0.450000X-0.350000X0.450000X-0.350000X-0.450000X0.350000X-0.450000X0*%
%ADD75RoundRect,0.100000X-0.650000X-0.100000X0.650000X-0.100000X0.650000X0.100000X-0.650000X0.100000X0*%
G04 APERTURE END LIST*
D10*
X154187618Y-60176095D02*
X154187618Y-59376095D01*
X154187618Y-59376095D02*
X154644761Y-59376095D01*
X154644761Y-59376095D02*
X154644761Y-60176095D01*
X155025713Y-59376095D02*
X155025713Y-60176095D01*
X155025713Y-60176095D02*
X155482856Y-59376095D01*
X155482856Y-59376095D02*
X155482856Y-60176095D01*
X155863808Y-60176095D02*
X155863808Y-59376095D01*
X155863808Y-59376095D02*
X156168570Y-59376095D01*
X156168570Y-59376095D02*
X156244760Y-59414190D01*
X156244760Y-59414190D02*
X156282855Y-59452285D01*
X156282855Y-59452285D02*
X156320951Y-59528476D01*
X156320951Y-59528476D02*
X156320951Y-59642761D01*
X156320951Y-59642761D02*
X156282855Y-59718952D01*
X156282855Y-59718952D02*
X156244760Y-59757047D01*
X156244760Y-59757047D02*
X156168570Y-59795142D01*
X156168570Y-59795142D02*
X155863808Y-59795142D01*
X157730475Y-60099904D02*
X157692379Y-60138000D01*
X157692379Y-60138000D02*
X157578094Y-60176095D01*
X157578094Y-60176095D02*
X157501903Y-60176095D01*
X157501903Y-60176095D02*
X157387617Y-60138000D01*
X157387617Y-60138000D02*
X157311427Y-60061809D01*
X157311427Y-60061809D02*
X157273332Y-59985619D01*
X157273332Y-59985619D02*
X157235236Y-59833238D01*
X157235236Y-59833238D02*
X157235236Y-59718952D01*
X157235236Y-59718952D02*
X157273332Y-59566571D01*
X157273332Y-59566571D02*
X157311427Y-59490380D01*
X157311427Y-59490380D02*
X157387617Y-59414190D01*
X157387617Y-59414190D02*
X157501903Y-59376095D01*
X157501903Y-59376095D02*
X157578094Y-59376095D01*
X157578094Y-59376095D02*
X157692379Y-59414190D01*
X157692379Y-59414190D02*
X157730475Y-59452285D01*
X158530475Y-59376095D02*
X158530475Y-60176095D01*
X158073332Y-59376095D02*
X158073332Y-60176095D01*
X158073332Y-60176095D02*
X158606665Y-60176095D01*
X158606665Y-60176095D02*
X158606665Y-60366571D01*
X158835236Y-59376095D02*
X159368570Y-60176095D01*
X159368570Y-59376095D02*
X158835236Y-60176095D01*
X159673332Y-59871333D02*
X160282856Y-59871333D01*
X160625712Y-59452285D02*
X160663808Y-59414190D01*
X160663808Y-59414190D02*
X160739998Y-59376095D01*
X160739998Y-59376095D02*
X160930474Y-59376095D01*
X160930474Y-59376095D02*
X161006665Y-59414190D01*
X161006665Y-59414190D02*
X161044760Y-59452285D01*
X161044760Y-59452285D02*
X161082855Y-59528476D01*
X161082855Y-59528476D02*
X161082855Y-59604666D01*
X161082855Y-59604666D02*
X161044760Y-59718952D01*
X161044760Y-59718952D02*
X160587617Y-60176095D01*
X160587617Y-60176095D02*
X161082855Y-60176095D01*
X161806665Y-59376095D02*
X161425713Y-59376095D01*
X161425713Y-59376095D02*
X161387617Y-59757047D01*
X161387617Y-59757047D02*
X161425713Y-59718952D01*
X161425713Y-59718952D02*
X161501903Y-59680857D01*
X161501903Y-59680857D02*
X161692379Y-59680857D01*
X161692379Y-59680857D02*
X161768570Y-59718952D01*
X161768570Y-59718952D02*
X161806665Y-59757047D01*
X161806665Y-59757047D02*
X161844760Y-59833238D01*
X161844760Y-59833238D02*
X161844760Y-60023714D01*
X161844760Y-60023714D02*
X161806665Y-60099904D01*
X161806665Y-60099904D02*
X161768570Y-60138000D01*
X161768570Y-60138000D02*
X161692379Y-60176095D01*
X161692379Y-60176095D02*
X161501903Y-60176095D01*
X161501903Y-60176095D02*
X161425713Y-60138000D01*
X161425713Y-60138000D02*
X161387617Y-60099904D01*
X162530475Y-59642761D02*
X162530475Y-60176095D01*
X162339999Y-59338000D02*
X162149522Y-59909428D01*
X162149522Y-59909428D02*
X162644761Y-59909428D01*
X163520951Y-59376095D02*
X163520951Y-59528476D01*
X163825713Y-59376095D02*
X163825713Y-59528476D01*
X164168571Y-60176095D02*
X164168571Y-59376095D01*
X164625714Y-60176095D02*
X164282856Y-59718952D01*
X164625714Y-59376095D02*
X164168571Y-59833238D01*
X165311428Y-60176095D02*
X165311428Y-59757047D01*
X165311428Y-59757047D02*
X165273333Y-59680857D01*
X165273333Y-59680857D02*
X165197142Y-59642761D01*
X165197142Y-59642761D02*
X165044761Y-59642761D01*
X165044761Y-59642761D02*
X164968571Y-59680857D01*
X165311428Y-60138000D02*
X165235237Y-60176095D01*
X165235237Y-60176095D02*
X165044761Y-60176095D01*
X165044761Y-60176095D02*
X164968571Y-60138000D01*
X164968571Y-60138000D02*
X164930475Y-60061809D01*
X164930475Y-60061809D02*
X164930475Y-59985619D01*
X164930475Y-59985619D02*
X164968571Y-59909428D01*
X164968571Y-59909428D02*
X165044761Y-59871333D01*
X165044761Y-59871333D02*
X165235237Y-59871333D01*
X165235237Y-59871333D02*
X165311428Y-59833238D01*
X165692381Y-59642761D02*
X165692381Y-60442761D01*
X165692381Y-59680857D02*
X165768571Y-59642761D01*
X165768571Y-59642761D02*
X165920952Y-59642761D01*
X165920952Y-59642761D02*
X165997143Y-59680857D01*
X165997143Y-59680857D02*
X166035238Y-59718952D01*
X166035238Y-59718952D02*
X166073333Y-59795142D01*
X166073333Y-59795142D02*
X166073333Y-60023714D01*
X166073333Y-60023714D02*
X166035238Y-60099904D01*
X166035238Y-60099904D02*
X165997143Y-60138000D01*
X165997143Y-60138000D02*
X165920952Y-60176095D01*
X165920952Y-60176095D02*
X165768571Y-60176095D01*
X165768571Y-60176095D02*
X165692381Y-60138000D01*
X166416191Y-59909428D02*
X166759048Y-59909428D01*
X166416191Y-59642761D02*
X166416191Y-60176095D01*
X166759048Y-59642761D02*
X166759048Y-60176095D01*
X167254286Y-60176095D02*
X167178096Y-60138000D01*
X167178096Y-60138000D02*
X167140001Y-60099904D01*
X167140001Y-60099904D02*
X167101905Y-60023714D01*
X167101905Y-60023714D02*
X167101905Y-59795142D01*
X167101905Y-59795142D02*
X167140001Y-59718952D01*
X167140001Y-59718952D02*
X167178096Y-59680857D01*
X167178096Y-59680857D02*
X167254286Y-59642761D01*
X167254286Y-59642761D02*
X167368572Y-59642761D01*
X167368572Y-59642761D02*
X167444763Y-59680857D01*
X167444763Y-59680857D02*
X167482858Y-59718952D01*
X167482858Y-59718952D02*
X167520953Y-59795142D01*
X167520953Y-59795142D02*
X167520953Y-60023714D01*
X167520953Y-60023714D02*
X167482858Y-60099904D01*
X167482858Y-60099904D02*
X167444763Y-60138000D01*
X167444763Y-60138000D02*
X167368572Y-60176095D01*
X167368572Y-60176095D02*
X167254286Y-60176095D01*
X167825715Y-59376095D02*
X167825715Y-59528476D01*
X168130477Y-59376095D02*
X168130477Y-59528476D01*
X156111427Y-61472095D02*
X156111427Y-60672095D01*
X156035237Y-60786380D02*
X156187618Y-60786380D01*
X156187618Y-60786380D02*
X156301903Y-60824476D01*
X156301903Y-60824476D02*
X156378094Y-60900666D01*
X156378094Y-60900666D02*
X156416189Y-60976857D01*
X156416189Y-60976857D02*
X156416189Y-61129238D01*
X156416189Y-61129238D02*
X156378094Y-61205428D01*
X156378094Y-61205428D02*
X156301903Y-61281619D01*
X156301903Y-61281619D02*
X156187618Y-61319714D01*
X156187618Y-61319714D02*
X156035237Y-61319714D01*
X156035237Y-61319714D02*
X155920951Y-61281619D01*
X155920951Y-61281619D02*
X155844760Y-61205428D01*
X155844760Y-61205428D02*
X155806665Y-61129238D01*
X155806665Y-61129238D02*
X155806665Y-60976857D01*
X155806665Y-60976857D02*
X155844760Y-60900666D01*
X155844760Y-60900666D02*
X155920951Y-60824476D01*
X155920951Y-60824476D02*
X156035237Y-60786380D01*
X156720951Y-61472095D02*
X156720951Y-60672095D01*
X156720951Y-60672095D02*
X156987617Y-61243523D01*
X156987617Y-61243523D02*
X157254284Y-60672095D01*
X157254284Y-60672095D02*
X157254284Y-61472095D01*
X157520951Y-60672095D02*
X157978094Y-60672095D01*
X157749522Y-61472095D02*
X157749522Y-60672095D01*
X158854285Y-61662571D02*
X158854285Y-61472095D01*
X158854285Y-61472095D02*
X158168570Y-61472095D01*
X158168570Y-61472095D02*
X158168570Y-61662571D01*
X158701904Y-61472095D02*
X158701904Y-60672095D01*
X158701904Y-60672095D02*
X158511427Y-60672095D01*
X158511427Y-60672095D02*
X158435237Y-60710190D01*
X158435237Y-60710190D02*
X158397142Y-60748285D01*
X158397142Y-60748285D02*
X158359046Y-60824476D01*
X158359046Y-60824476D02*
X158282856Y-61472095D01*
X159159047Y-61395904D02*
X159197142Y-61434000D01*
X159197142Y-61434000D02*
X159159047Y-61472095D01*
X159159047Y-61472095D02*
X159120951Y-61434000D01*
X159120951Y-61434000D02*
X159159047Y-61395904D01*
X159159047Y-61395904D02*
X159159047Y-61472095D01*
X159882856Y-60938761D02*
X159882856Y-61472095D01*
X159692380Y-60634000D02*
X159501903Y-61205428D01*
X159501903Y-61205428D02*
X159997142Y-61205428D01*
X160644761Y-60672095D02*
X160492380Y-60672095D01*
X160492380Y-60672095D02*
X160416189Y-60710190D01*
X160416189Y-60710190D02*
X160378094Y-60748285D01*
X160378094Y-60748285D02*
X160301904Y-60862571D01*
X160301904Y-60862571D02*
X160263808Y-61014952D01*
X160263808Y-61014952D02*
X160263808Y-61319714D01*
X160263808Y-61319714D02*
X160301904Y-61395904D01*
X160301904Y-61395904D02*
X160339999Y-61434000D01*
X160339999Y-61434000D02*
X160416189Y-61472095D01*
X160416189Y-61472095D02*
X160568570Y-61472095D01*
X160568570Y-61472095D02*
X160644761Y-61434000D01*
X160644761Y-61434000D02*
X160682856Y-61395904D01*
X160682856Y-61395904D02*
X160720951Y-61319714D01*
X160720951Y-61319714D02*
X160720951Y-61129238D01*
X160720951Y-61129238D02*
X160682856Y-61053047D01*
X160682856Y-61053047D02*
X160644761Y-61014952D01*
X160644761Y-61014952D02*
X160568570Y-60976857D01*
X160568570Y-60976857D02*
X160416189Y-60976857D01*
X160416189Y-60976857D02*
X160339999Y-61014952D01*
X160339999Y-61014952D02*
X160301904Y-61053047D01*
X160301904Y-61053047D02*
X160263808Y-61129238D01*
X161406666Y-60672095D02*
X161254285Y-60672095D01*
X161254285Y-60672095D02*
X161178094Y-60710190D01*
X161178094Y-60710190D02*
X161139999Y-60748285D01*
X161139999Y-60748285D02*
X161063809Y-60862571D01*
X161063809Y-60862571D02*
X161025713Y-61014952D01*
X161025713Y-61014952D02*
X161025713Y-61319714D01*
X161025713Y-61319714D02*
X161063809Y-61395904D01*
X161063809Y-61395904D02*
X161101904Y-61434000D01*
X161101904Y-61434000D02*
X161178094Y-61472095D01*
X161178094Y-61472095D02*
X161330475Y-61472095D01*
X161330475Y-61472095D02*
X161406666Y-61434000D01*
X161406666Y-61434000D02*
X161444761Y-61395904D01*
X161444761Y-61395904D02*
X161482856Y-61319714D01*
X161482856Y-61319714D02*
X161482856Y-61129238D01*
X161482856Y-61129238D02*
X161444761Y-61053047D01*
X161444761Y-61053047D02*
X161406666Y-61014952D01*
X161406666Y-61014952D02*
X161330475Y-60976857D01*
X161330475Y-60976857D02*
X161178094Y-60976857D01*
X161178094Y-60976857D02*
X161101904Y-61014952D01*
X161101904Y-61014952D02*
X161063809Y-61053047D01*
X161063809Y-61053047D02*
X161025713Y-61129238D01*
X161863809Y-61472095D02*
X162016190Y-61472095D01*
X162016190Y-61472095D02*
X162092380Y-61434000D01*
X162092380Y-61434000D02*
X162130476Y-61395904D01*
X162130476Y-61395904D02*
X162206666Y-61281619D01*
X162206666Y-61281619D02*
X162244761Y-61129238D01*
X162244761Y-61129238D02*
X162244761Y-60824476D01*
X162244761Y-60824476D02*
X162206666Y-60748285D01*
X162206666Y-60748285D02*
X162168571Y-60710190D01*
X162168571Y-60710190D02*
X162092380Y-60672095D01*
X162092380Y-60672095D02*
X161939999Y-60672095D01*
X161939999Y-60672095D02*
X161863809Y-60710190D01*
X161863809Y-60710190D02*
X161825714Y-60748285D01*
X161825714Y-60748285D02*
X161787618Y-60824476D01*
X161787618Y-60824476D02*
X161787618Y-61014952D01*
X161787618Y-61014952D02*
X161825714Y-61091142D01*
X161825714Y-61091142D02*
X161863809Y-61129238D01*
X161863809Y-61129238D02*
X161939999Y-61167333D01*
X161939999Y-61167333D02*
X162092380Y-61167333D01*
X162092380Y-61167333D02*
X162168571Y-61129238D01*
X162168571Y-61129238D02*
X162206666Y-61091142D01*
X162206666Y-61091142D02*
X162244761Y-61014952D01*
X162930476Y-60672095D02*
X162778095Y-60672095D01*
X162778095Y-60672095D02*
X162701904Y-60710190D01*
X162701904Y-60710190D02*
X162663809Y-60748285D01*
X162663809Y-60748285D02*
X162587619Y-60862571D01*
X162587619Y-60862571D02*
X162549523Y-61014952D01*
X162549523Y-61014952D02*
X162549523Y-61319714D01*
X162549523Y-61319714D02*
X162587619Y-61395904D01*
X162587619Y-61395904D02*
X162625714Y-61434000D01*
X162625714Y-61434000D02*
X162701904Y-61472095D01*
X162701904Y-61472095D02*
X162854285Y-61472095D01*
X162854285Y-61472095D02*
X162930476Y-61434000D01*
X162930476Y-61434000D02*
X162968571Y-61395904D01*
X162968571Y-61395904D02*
X163006666Y-61319714D01*
X163006666Y-61319714D02*
X163006666Y-61129238D01*
X163006666Y-61129238D02*
X162968571Y-61053047D01*
X162968571Y-61053047D02*
X162930476Y-61014952D01*
X162930476Y-61014952D02*
X162854285Y-60976857D01*
X162854285Y-60976857D02*
X162701904Y-60976857D01*
X162701904Y-60976857D02*
X162625714Y-61014952D01*
X162625714Y-61014952D02*
X162587619Y-61053047D01*
X162587619Y-61053047D02*
X162549523Y-61129238D01*
X163768571Y-61472095D02*
X163311428Y-61472095D01*
X163540000Y-61472095D02*
X163540000Y-60672095D01*
X163540000Y-60672095D02*
X163463809Y-60786380D01*
X163463809Y-60786380D02*
X163387619Y-60862571D01*
X163387619Y-60862571D02*
X163311428Y-60900666D01*
X164111429Y-61395904D02*
X164149524Y-61434000D01*
X164149524Y-61434000D02*
X164111429Y-61472095D01*
X164111429Y-61472095D02*
X164073333Y-61434000D01*
X164073333Y-61434000D02*
X164111429Y-61395904D01*
X164111429Y-61395904D02*
X164111429Y-61472095D01*
X164644762Y-60672095D02*
X164720952Y-60672095D01*
X164720952Y-60672095D02*
X164797143Y-60710190D01*
X164797143Y-60710190D02*
X164835238Y-60748285D01*
X164835238Y-60748285D02*
X164873333Y-60824476D01*
X164873333Y-60824476D02*
X164911428Y-60976857D01*
X164911428Y-60976857D02*
X164911428Y-61167333D01*
X164911428Y-61167333D02*
X164873333Y-61319714D01*
X164873333Y-61319714D02*
X164835238Y-61395904D01*
X164835238Y-61395904D02*
X164797143Y-61434000D01*
X164797143Y-61434000D02*
X164720952Y-61472095D01*
X164720952Y-61472095D02*
X164644762Y-61472095D01*
X164644762Y-61472095D02*
X164568571Y-61434000D01*
X164568571Y-61434000D02*
X164530476Y-61395904D01*
X164530476Y-61395904D02*
X164492381Y-61319714D01*
X164492381Y-61319714D02*
X164454285Y-61167333D01*
X164454285Y-61167333D02*
X164454285Y-60976857D01*
X164454285Y-60976857D02*
X164492381Y-60824476D01*
X164492381Y-60824476D02*
X164530476Y-60748285D01*
X164530476Y-60748285D02*
X164568571Y-60710190D01*
X164568571Y-60710190D02*
X164644762Y-60672095D01*
X165216190Y-60748285D02*
X165254286Y-60710190D01*
X165254286Y-60710190D02*
X165330476Y-60672095D01*
X165330476Y-60672095D02*
X165520952Y-60672095D01*
X165520952Y-60672095D02*
X165597143Y-60710190D01*
X165597143Y-60710190D02*
X165635238Y-60748285D01*
X165635238Y-60748285D02*
X165673333Y-60824476D01*
X165673333Y-60824476D02*
X165673333Y-60900666D01*
X165673333Y-60900666D02*
X165635238Y-61014952D01*
X165635238Y-61014952D02*
X165178095Y-61472095D01*
X165178095Y-61472095D02*
X165673333Y-61472095D01*
X166054286Y-61472095D02*
X166206667Y-61472095D01*
X166206667Y-61472095D02*
X166282857Y-61434000D01*
X166282857Y-61434000D02*
X166320953Y-61395904D01*
X166320953Y-61395904D02*
X166397143Y-61281619D01*
X166397143Y-61281619D02*
X166435238Y-61129238D01*
X166435238Y-61129238D02*
X166435238Y-60824476D01*
X166435238Y-60824476D02*
X166397143Y-60748285D01*
X166397143Y-60748285D02*
X166359048Y-60710190D01*
X166359048Y-60710190D02*
X166282857Y-60672095D01*
X166282857Y-60672095D02*
X166130476Y-60672095D01*
X166130476Y-60672095D02*
X166054286Y-60710190D01*
X166054286Y-60710190D02*
X166016191Y-60748285D01*
X166016191Y-60748285D02*
X165978095Y-60824476D01*
X165978095Y-60824476D02*
X165978095Y-61014952D01*
X165978095Y-61014952D02*
X166016191Y-61091142D01*
X166016191Y-61091142D02*
X166054286Y-61129238D01*
X166054286Y-61129238D02*
X166130476Y-61167333D01*
X166130476Y-61167333D02*
X166282857Y-61167333D01*
X166282857Y-61167333D02*
X166359048Y-61129238D01*
X166359048Y-61129238D02*
X166397143Y-61091142D01*
X166397143Y-61091142D02*
X166435238Y-61014952D01*
D11*
%TO.C,C96*%
X121760000Y-76080000D03*
X120800000Y-76080000D03*
%TD*%
D12*
%TO.C,C65*%
X119585000Y-62491000D03*
X119585000Y-64391000D03*
%TD*%
D13*
%TO.C,R30*%
X154310000Y-49155000D03*
X153310000Y-49155000D03*
%TD*%
D14*
%TO.C,U9*%
X176760000Y-58490000D03*
X176760000Y-59760000D03*
X176760000Y-61030000D03*
X176760000Y-62300000D03*
X181710000Y-62300000D03*
X181710000Y-61030000D03*
X181710000Y-59760000D03*
X181710000Y-58490000D03*
%TD*%
D15*
%TO.C,C55*%
X181010000Y-57070000D03*
X181970000Y-57070000D03*
%TD*%
D16*
%TO.C,U4*%
X153022500Y-54090000D03*
X153022500Y-55040000D03*
X153022500Y-55990000D03*
X155297500Y-55990000D03*
X155297500Y-54090000D03*
%TD*%
D17*
%TO.C,R60*%
X140812000Y-55987000D03*
X141812000Y-55987000D03*
%TD*%
D13*
%TO.C,R37*%
X183258000Y-51139000D03*
X182258000Y-51139000D03*
%TD*%
D18*
%TO.C,R25*%
X148610000Y-50050000D03*
X148610000Y-49050000D03*
%TD*%
D19*
%TO.C,C59*%
X143050000Y-84980000D03*
X143050000Y-85940000D03*
%TD*%
D20*
%TO.C,D6*%
X181495000Y-54120000D03*
X183070000Y-54120000D03*
%TD*%
D17*
%TO.C,R65*%
X140835000Y-59111000D03*
X141835000Y-59111000D03*
%TD*%
D20*
%TO.C,L5*%
X118302000Y-66807000D03*
X119877000Y-66807000D03*
%TD*%
D21*
%TO.C,C16*%
X156730000Y-55990000D03*
X156730000Y-55030000D03*
%TD*%
D22*
%TO.C,R183*%
X132226000Y-83824000D03*
X132226000Y-82804000D03*
%TD*%
D23*
%TO.C,SW3*%
X190720000Y-72016760D03*
X185320000Y-72016760D03*
%TD*%
D24*
%TO.C,R173*%
X147580000Y-60355000D03*
X148600000Y-60355000D03*
%TD*%
D13*
%TO.C,R55*%
X133374000Y-70835000D03*
X132374000Y-70835000D03*
%TD*%
D19*
%TO.C,C21*%
X134215000Y-80035000D03*
X134215000Y-80995000D03*
%TD*%
D25*
%TO.C,U11*%
X121711200Y-61161600D03*
X121711200Y-61822000D03*
X121711200Y-62482400D03*
X121711200Y-63117400D03*
X121711200Y-63777800D03*
X121711200Y-64412800D03*
X121711200Y-65073200D03*
X121711200Y-65733600D03*
X127350000Y-65733600D03*
X127350000Y-65073200D03*
X127350000Y-64412800D03*
X127350000Y-63777800D03*
X127350000Y-63117400D03*
X127350000Y-62482400D03*
X127350000Y-61822000D03*
X127350000Y-61161600D03*
%TD*%
D26*
%TO.C,C69*%
X121400000Y-51810000D03*
X123300000Y-51810000D03*
%TD*%
D27*
%TO.C,J2*%
X128525000Y-92170000D03*
D28*
X128525000Y-94710000D03*
%TD*%
D18*
%TO.C,R9*%
X128420000Y-50130000D03*
X128420000Y-49130000D03*
%TD*%
%TO.C,R38*%
X173860000Y-58860000D03*
X173860000Y-57860000D03*
%TD*%
D29*
%TO.C,R71*%
X172525000Y-66815000D03*
X172525000Y-67815000D03*
%TD*%
D13*
%TO.C,R39*%
X179290000Y-54100000D03*
X178290000Y-54100000D03*
%TD*%
D17*
%TO.C,R46*%
X133485000Y-52810000D03*
X134485000Y-52810000D03*
%TD*%
D23*
%TO.C,SW2*%
X190720000Y-67876760D03*
X185320000Y-67876760D03*
%TD*%
D15*
%TO.C,C80*%
X123701000Y-59961000D03*
X124661000Y-59961000D03*
%TD*%
%TO.C,C41*%
X149731000Y-59187000D03*
X150691000Y-59187000D03*
%TD*%
D30*
%TO.C,D5*%
X183062500Y-52480000D03*
X181487500Y-52480000D03*
%TD*%
D14*
%TO.C,U6*%
X133431000Y-54259000D03*
X133431000Y-55529000D03*
X133431000Y-56799000D03*
X133431000Y-58069000D03*
X138381000Y-58069000D03*
X138381000Y-56799000D03*
X138381000Y-55529000D03*
X138381000Y-54259000D03*
%TD*%
D11*
%TO.C,C40*%
X132530000Y-65420000D03*
X131570000Y-65420000D03*
%TD*%
D18*
%TO.C,R10*%
X130850000Y-50085000D03*
X130850000Y-49085000D03*
%TD*%
D29*
%TO.C,R77*%
X168565878Y-66815412D03*
X168565878Y-67815412D03*
%TD*%
D22*
%TO.C,R172*%
X128215000Y-75314000D03*
X128215000Y-74294000D03*
%TD*%
D29*
%TO.C,R5*%
X125710000Y-49090000D03*
X125710000Y-50090000D03*
%TD*%
D31*
%TO.C,H2*%
X169980000Y-45650000D03*
%TD*%
D19*
%TO.C,C17*%
X133245000Y-80035000D03*
X133245000Y-80995000D03*
%TD*%
D15*
%TO.C,C23*%
X151325000Y-66045000D03*
X152285000Y-66045000D03*
%TD*%
D29*
%TO.C,R15*%
X133385000Y-49060000D03*
X133385000Y-50060000D03*
%TD*%
%TO.C,R102*%
X175030000Y-90690000D03*
X175030000Y-91690000D03*
%TD*%
%TO.C,R45*%
X139860000Y-60560000D03*
X139860000Y-61560000D03*
%TD*%
D30*
%TO.C,D4*%
X182795000Y-69590000D03*
X181220000Y-69590000D03*
%TD*%
D15*
%TO.C,C39*%
X130473000Y-70865000D03*
X131433000Y-70865000D03*
%TD*%
D17*
%TO.C,R68*%
X163455000Y-72245000D03*
X164455000Y-72245000D03*
%TD*%
D13*
%TO.C,R74*%
X175055000Y-71760000D03*
X174055000Y-71760000D03*
%TD*%
D11*
%TO.C,C97*%
X121750000Y-75080000D03*
X120790000Y-75080000D03*
%TD*%
D19*
%TO.C,C58*%
X144020000Y-84980000D03*
X144020000Y-85940000D03*
%TD*%
D22*
%TO.C,R180*%
X120450000Y-87265000D03*
X120450000Y-86245000D03*
%TD*%
D15*
%TO.C,C28*%
X150570000Y-70850000D03*
X151530000Y-70850000D03*
%TD*%
D32*
%TO.C,J1*%
X118080000Y-92180000D03*
X123860000Y-92180000D03*
D33*
X117720000Y-90735000D03*
X118520000Y-90735000D03*
D34*
X119720000Y-90735000D03*
X120720000Y-90735000D03*
X121220000Y-90735000D03*
X122220000Y-90735000D03*
D33*
X123420000Y-90735000D03*
X124220000Y-90735000D03*
X124220000Y-90735000D03*
X123420000Y-90735000D03*
D34*
X122720000Y-90735000D03*
X121720000Y-90735000D03*
X120220000Y-90735000D03*
X119220000Y-90735000D03*
D33*
X118520000Y-90735000D03*
X117720000Y-90735000D03*
D35*
X116650000Y-91650000D03*
D36*
X116650000Y-95830000D03*
D35*
X125290000Y-91650000D03*
D36*
X125290000Y-95830000D03*
%TD*%
D21*
%TO.C,C66*%
X118045000Y-63142000D03*
X118045000Y-62182000D03*
%TD*%
D29*
%TO.C,R24*%
X146075000Y-49405000D03*
X146075000Y-50405000D03*
%TD*%
D37*
%TO.C,U8*%
X172245500Y-74218000D03*
X172245500Y-73718000D03*
X172245500Y-73218000D03*
X172245500Y-72718000D03*
X172245500Y-72218000D03*
X172245500Y-71718000D03*
X172245500Y-71218000D03*
X172245500Y-70718000D03*
D38*
X171558000Y-70030500D03*
X171058000Y-70030500D03*
X170558000Y-70030500D03*
X170058000Y-70030500D03*
X169558000Y-70030500D03*
X169058000Y-70030500D03*
X168558000Y-70030500D03*
X168058000Y-70030500D03*
D37*
X167370500Y-70718000D03*
X167370500Y-71218000D03*
X167370500Y-71718000D03*
X167370500Y-72218000D03*
X167370500Y-72718000D03*
X167370500Y-73218000D03*
X167370500Y-73718000D03*
X167370500Y-74218000D03*
D38*
X168058000Y-74905500D03*
X168558000Y-74905500D03*
X169058000Y-74905500D03*
X169558000Y-74905500D03*
X170058000Y-74905500D03*
X170558000Y-74905500D03*
X171058000Y-74905500D03*
X171558000Y-74905500D03*
D39*
X169808000Y-72468000D03*
%TD*%
D31*
%TO.C,H1*%
X111980000Y-45650000D03*
%TD*%
D40*
%TO.C,D16*%
X164225000Y-86275000D03*
X164225000Y-87850000D03*
%TD*%
D41*
%TO.C,L1*%
X164530000Y-52170000D03*
X169330000Y-52170000D03*
%TD*%
D15*
%TO.C,C100*%
X142855000Y-50575000D03*
X143815000Y-50575000D03*
%TD*%
D17*
%TO.C,R48*%
X140815000Y-53000000D03*
X141815000Y-53000000D03*
%TD*%
%TO.C,R47*%
X131550000Y-66400000D03*
X132550000Y-66400000D03*
%TD*%
D42*
%TO.C,U7*%
X148068000Y-53696000D03*
X146798000Y-53696000D03*
X145528000Y-53696000D03*
X144258000Y-53696000D03*
X144258000Y-59096000D03*
X145528000Y-59096000D03*
X146798000Y-59096000D03*
X148068000Y-59096000D03*
D43*
X146163000Y-56396000D03*
%TD*%
D44*
%TO.C,TR1*%
X167343000Y-88242000D03*
X168613000Y-88242000D03*
X169883000Y-88242000D03*
X171153000Y-88242000D03*
X172423000Y-88242000D03*
X173693000Y-88242000D03*
X174963000Y-88242000D03*
X176233000Y-88242000D03*
X176233000Y-79402800D03*
X174963000Y-79402800D03*
X173693000Y-79402800D03*
X172423000Y-79402800D03*
X171153000Y-79402800D03*
X169883000Y-79402800D03*
X168613000Y-79402800D03*
X167343000Y-79402800D03*
%TD*%
D45*
%TO.C,U5*%
X147930000Y-76100000D03*
X147130000Y-76100000D03*
X146330000Y-76100000D03*
X145530000Y-76100000D03*
X144730000Y-76100000D03*
X143930000Y-76100000D03*
X143130000Y-76100000D03*
X142330000Y-76100000D03*
X141530000Y-76100000D03*
X140730000Y-76100000D03*
X139930000Y-76100000D03*
X139130000Y-76100000D03*
X138330000Y-76100000D03*
X137530000Y-76100000D03*
X136730000Y-76100000D03*
X135930000Y-76100000D03*
X147930000Y-75300000D03*
X147130000Y-75300000D03*
X146330000Y-75300000D03*
X145530000Y-75300000D03*
X144730000Y-75300000D03*
X143930000Y-75300000D03*
X143130000Y-75300000D03*
X142330000Y-75300000D03*
X141530000Y-75300000D03*
X140730000Y-75300000D03*
X139930000Y-75300000D03*
X139130000Y-75300000D03*
X138330000Y-75300000D03*
X137530000Y-75300000D03*
X136730000Y-75300000D03*
X135930000Y-75300000D03*
X147930000Y-74500000D03*
X147130000Y-74500000D03*
X146330000Y-74500000D03*
X145530000Y-74500000D03*
X144730000Y-74500000D03*
X143930000Y-74500000D03*
X143130000Y-74500000D03*
X142330000Y-74500000D03*
X141530000Y-74500000D03*
X140730000Y-74500000D03*
X139930000Y-74500000D03*
X139130000Y-74500000D03*
X138330000Y-74500000D03*
X137530000Y-74500000D03*
X136730000Y-74500000D03*
X135930000Y-74500000D03*
X147930000Y-73700000D03*
X147130000Y-73700000D03*
X146330000Y-73700000D03*
X145530000Y-73700000D03*
X144730000Y-73700000D03*
X143930000Y-73700000D03*
X143130000Y-73700000D03*
X142330000Y-73700000D03*
X141530000Y-73700000D03*
X140730000Y-73700000D03*
X139930000Y-73700000D03*
X139130000Y-73700000D03*
X138330000Y-73700000D03*
X137530000Y-73700000D03*
X136730000Y-73700000D03*
X135930000Y-73700000D03*
X147930000Y-72900000D03*
X147130000Y-72900000D03*
X146330000Y-72900000D03*
X145530000Y-72900000D03*
X144730000Y-72900000D03*
X143930000Y-72900000D03*
X143130000Y-72900000D03*
X142330000Y-72900000D03*
X141530000Y-72900000D03*
X140730000Y-72900000D03*
X139930000Y-72900000D03*
X139130000Y-72900000D03*
X138330000Y-72900000D03*
X137530000Y-72900000D03*
X136730000Y-72900000D03*
X135930000Y-72900000D03*
X147930000Y-72100000D03*
X147130000Y-72100000D03*
X146330000Y-72100000D03*
X145530000Y-72100000D03*
X144730000Y-72100000D03*
X143930000Y-72100000D03*
X143130000Y-72100000D03*
X142330000Y-72100000D03*
X141530000Y-72100000D03*
X140730000Y-72100000D03*
X139930000Y-72100000D03*
X139130000Y-72100000D03*
X138330000Y-72100000D03*
X137530000Y-72100000D03*
X136730000Y-72100000D03*
X135930000Y-72100000D03*
X147930000Y-71300000D03*
X147130000Y-71300000D03*
X146330000Y-71300000D03*
X145530000Y-71300000D03*
X144730000Y-71300000D03*
X143930000Y-71300000D03*
X143130000Y-71300000D03*
X142330000Y-71300000D03*
X141530000Y-71300000D03*
X140730000Y-71300000D03*
X139930000Y-71300000D03*
X139130000Y-71300000D03*
X138330000Y-71300000D03*
X137530000Y-71300000D03*
X136730000Y-71300000D03*
X135930000Y-71300000D03*
X147930000Y-70500000D03*
X147130000Y-70500000D03*
X146330000Y-70500000D03*
X145530000Y-70500000D03*
X144730000Y-70500000D03*
X143930000Y-70500000D03*
X143130000Y-70500000D03*
X142330000Y-70500000D03*
X141530000Y-70500000D03*
X140730000Y-70500000D03*
X139930000Y-70500000D03*
X139130000Y-70500000D03*
X138330000Y-70500000D03*
X137530000Y-70500000D03*
X136730000Y-70500000D03*
X135930000Y-70500000D03*
X147930000Y-69700000D03*
X147130000Y-69700000D03*
X146330000Y-69700000D03*
X145530000Y-69700000D03*
X144730000Y-69700000D03*
X143930000Y-69700000D03*
X143130000Y-69700000D03*
X142330000Y-69700000D03*
X141530000Y-69700000D03*
X140730000Y-69700000D03*
X139930000Y-69700000D03*
X139130000Y-69700000D03*
X138330000Y-69700000D03*
X137530000Y-69700000D03*
X136730000Y-69700000D03*
X135930000Y-69700000D03*
X147930000Y-68900000D03*
X147130000Y-68900000D03*
X146330000Y-68900000D03*
X145530000Y-68900000D03*
X144730000Y-68900000D03*
X143930000Y-68900000D03*
X143130000Y-68900000D03*
X142330000Y-68900000D03*
X141530000Y-68900000D03*
X140730000Y-68900000D03*
X139930000Y-68900000D03*
X139130000Y-68900000D03*
X138330000Y-68900000D03*
X137530000Y-68900000D03*
X136730000Y-68900000D03*
X135930000Y-68900000D03*
X147930000Y-68100000D03*
X147130000Y-68100000D03*
X146330000Y-68100000D03*
X145530000Y-68100000D03*
X144730000Y-68100000D03*
X143930000Y-68100000D03*
X143130000Y-68100000D03*
X142330000Y-68100000D03*
X141530000Y-68100000D03*
X140730000Y-68100000D03*
X139930000Y-68100000D03*
X139130000Y-68100000D03*
X138330000Y-68100000D03*
X137530000Y-68100000D03*
X136730000Y-68100000D03*
X135930000Y-68100000D03*
X147930000Y-67300000D03*
X147130000Y-67300000D03*
X146330000Y-67300000D03*
X145530000Y-67300000D03*
X144730000Y-67300000D03*
X143930000Y-67300000D03*
X143130000Y-67300000D03*
X142330000Y-67300000D03*
X141530000Y-67300000D03*
X140730000Y-67300000D03*
X139930000Y-67300000D03*
X139130000Y-67300000D03*
X138330000Y-67300000D03*
X137530000Y-67300000D03*
X136730000Y-67300000D03*
X135930000Y-67300000D03*
X147930000Y-66500000D03*
X147130000Y-66500000D03*
X146330000Y-66500000D03*
X145530000Y-66500000D03*
X144730000Y-66500000D03*
X143930000Y-66500000D03*
X143130000Y-66500000D03*
X142330000Y-66500000D03*
X141530000Y-66500000D03*
X140730000Y-66500000D03*
X139930000Y-66500000D03*
X139130000Y-66500000D03*
X138330000Y-66500000D03*
X137530000Y-66500000D03*
X136730000Y-66500000D03*
X135930000Y-66500000D03*
X147930000Y-65700000D03*
X147130000Y-65700000D03*
X146330000Y-65700000D03*
X145530000Y-65700000D03*
X144730000Y-65700000D03*
X143930000Y-65700000D03*
X143130000Y-65700000D03*
X142330000Y-65700000D03*
X141530000Y-65700000D03*
X140730000Y-65700000D03*
X139930000Y-65700000D03*
X139130000Y-65700000D03*
X138330000Y-65700000D03*
X137530000Y-65700000D03*
X136730000Y-65700000D03*
X135930000Y-65700000D03*
X147930000Y-64900000D03*
X147130000Y-64900000D03*
X146330000Y-64900000D03*
X145530000Y-64900000D03*
X144730000Y-64900000D03*
X143930000Y-64900000D03*
X143130000Y-64900000D03*
X142330000Y-64900000D03*
X141530000Y-64900000D03*
X140730000Y-64900000D03*
X139930000Y-64900000D03*
X139130000Y-64900000D03*
X138330000Y-64900000D03*
X137530000Y-64900000D03*
X136730000Y-64900000D03*
X135930000Y-64900000D03*
X147930000Y-64100000D03*
X147130000Y-64100000D03*
X146330000Y-64100000D03*
X145530000Y-64100000D03*
X144730000Y-64100000D03*
X143930000Y-64100000D03*
X143130000Y-64100000D03*
X142330000Y-64100000D03*
X141530000Y-64100000D03*
X140730000Y-64100000D03*
X139930000Y-64100000D03*
X139130000Y-64100000D03*
X138330000Y-64100000D03*
X137530000Y-64100000D03*
X136730000Y-64100000D03*
X135930000Y-64100000D03*
%TD*%
D18*
%TO.C,C101*%
X126202000Y-75296000D03*
X126202000Y-74296000D03*
%TD*%
D15*
%TO.C,C38*%
X138363000Y-52795000D03*
X139323000Y-52795000D03*
%TD*%
D30*
%TO.C,D2*%
X182800000Y-66388000D03*
X181225000Y-66388000D03*
%TD*%
D17*
%TO.C,R62*%
X140815000Y-53981000D03*
X141815000Y-53981000D03*
%TD*%
D20*
%TO.C,L6*%
X121764000Y-50000000D03*
X123339000Y-50000000D03*
%TD*%
D46*
%TO.C,Y2*%
X130476000Y-74009000D03*
X132776000Y-74009000D03*
X132776000Y-72209000D03*
X130476000Y-72209000D03*
%TD*%
D17*
%TO.C,R53*%
X151330000Y-67010000D03*
X152330000Y-67010000D03*
%TD*%
D47*
%TO.C,XS11*%
X112230000Y-86900000D03*
D48*
X112230000Y-88900000D03*
%TD*%
D31*
%TO.C,H3*%
X169980000Y-94650000D03*
%TD*%
D21*
%TO.C,C95*%
X132230000Y-81860000D03*
X132230000Y-80900000D03*
%TD*%
D17*
%TO.C,R80*%
X173405000Y-75060000D03*
X174405000Y-75060000D03*
%TD*%
D47*
%TO.C,XS8*%
X112230000Y-65826000D03*
D48*
X112230000Y-67826000D03*
%TD*%
D49*
%TO.C,C7*%
X182703000Y-49804000D03*
X182703000Y-47904000D03*
%TD*%
D30*
%TO.C,D3*%
X182800000Y-67984000D03*
X181225000Y-67984000D03*
%TD*%
D29*
%TO.C,R69*%
X170550000Y-66810000D03*
X170550000Y-67810000D03*
%TD*%
D17*
%TO.C,R76*%
X174065000Y-72735000D03*
X175065000Y-72735000D03*
%TD*%
D50*
%TO.C,R179*%
X120665000Y-82650000D03*
X120665000Y-83670000D03*
%TD*%
D22*
%TO.C,R181*%
X121425000Y-87265000D03*
X121425000Y-86245000D03*
%TD*%
D17*
%TO.C,R63*%
X140844000Y-58139000D03*
X141844000Y-58139000D03*
%TD*%
D47*
%TO.C,XS7*%
X112230000Y-58820000D03*
D48*
X112230000Y-60820000D03*
%TD*%
D51*
%TO.C,XS1*%
X189450000Y-52080000D03*
X189450000Y-47080000D03*
%TD*%
D29*
%TO.C,R75*%
X169555000Y-66815000D03*
X169555000Y-67815000D03*
%TD*%
D17*
%TO.C,R56*%
X138333000Y-51844000D03*
X139333000Y-51844000D03*
%TD*%
D22*
%TO.C,R171*%
X127205000Y-75312000D03*
X127205000Y-74292000D03*
%TD*%
D47*
%TO.C,XS10*%
X112230000Y-79870000D03*
D48*
X112230000Y-81870000D03*
%TD*%
D18*
%TO.C,C15*%
X156720000Y-54110000D03*
X156720000Y-53110000D03*
%TD*%
D52*
%TO.C,U20*%
X122287500Y-78797500D03*
X122287500Y-79297500D03*
X122287500Y-79797500D03*
X122287500Y-80297500D03*
X122287500Y-80797500D03*
X122287500Y-81297500D03*
X122287500Y-81797500D03*
X122287500Y-82297500D03*
X122287500Y-82797500D03*
X122287500Y-83297500D03*
X122287500Y-83797500D03*
X122287500Y-84297500D03*
D53*
X123700000Y-85710000D03*
X124200000Y-85710000D03*
X124700000Y-85710000D03*
X125200000Y-85710000D03*
X125700000Y-85710000D03*
X126200000Y-85710000D03*
X126700000Y-85710000D03*
X127200000Y-85710000D03*
X127700000Y-85710000D03*
X128200000Y-85710000D03*
X128700000Y-85710000D03*
X129200000Y-85710000D03*
D52*
X130612500Y-84297500D03*
X130612500Y-83797500D03*
X130612500Y-83297500D03*
X130612500Y-82797500D03*
X130612500Y-82297500D03*
X130612500Y-81797500D03*
X130612500Y-81297500D03*
X130612500Y-80797500D03*
X130612500Y-80297500D03*
X130612500Y-79797500D03*
X130612500Y-79297500D03*
X130612500Y-78797500D03*
D53*
X129200000Y-77385000D03*
X128700000Y-77385000D03*
X128200000Y-77385000D03*
X127700000Y-77385000D03*
X127200000Y-77385000D03*
X126700000Y-77385000D03*
X126200000Y-77385000D03*
X125700000Y-77385000D03*
X125200000Y-77385000D03*
X124700000Y-77385000D03*
X124200000Y-77385000D03*
X123700000Y-77385000D03*
%TD*%
D15*
%TO.C,C103*%
X149755000Y-58195000D03*
X150715000Y-58195000D03*
%TD*%
D17*
%TO.C,R54*%
X147585000Y-61400000D03*
X148585000Y-61400000D03*
%TD*%
D54*
%TO.C,U1*%
X171371000Y-55570000D03*
X172641000Y-55570000D03*
X173911000Y-55570000D03*
X175181000Y-55570000D03*
X175181000Y-50620000D03*
X173911000Y-50620000D03*
X172641000Y-50620000D03*
X171371000Y-50620000D03*
D55*
X173276000Y-53095000D03*
%TD*%
D19*
%TO.C,C62*%
X140120000Y-84970000D03*
X140120000Y-85930000D03*
%TD*%
D17*
%TO.C,R64*%
X140839000Y-57132000D03*
X141839000Y-57132000D03*
%TD*%
D29*
%TO.C,R101*%
X173985000Y-90700000D03*
X173985000Y-91700000D03*
%TD*%
D13*
%TO.C,R122*%
X133380000Y-76650000D03*
X132380000Y-76650000D03*
%TD*%
D15*
%TO.C,C29*%
X150565000Y-68850000D03*
X151525000Y-68850000D03*
%TD*%
D19*
%TO.C,C63*%
X139150000Y-84980000D03*
X139150000Y-85940000D03*
%TD*%
D21*
%TO.C,C98*%
X124210000Y-75280000D03*
X124210000Y-74320000D03*
%TD*%
D18*
%TO.C,C2*%
X172905000Y-58855000D03*
X172905000Y-57855000D03*
%TD*%
D56*
%TO.C,XS4*%
X190140000Y-94150000D03*
X190140000Y-81450000D03*
D57*
X187600000Y-84250000D03*
X185820000Y-85270000D03*
X187600000Y-86280000D03*
X185820000Y-87300000D03*
X187600000Y-88310000D03*
X185820000Y-89330000D03*
X187600000Y-90340000D03*
X185820000Y-91360000D03*
X181000000Y-80940000D03*
X181000000Y-83230000D03*
X181000000Y-94660000D03*
X181000000Y-92370000D03*
D58*
X186710000Y-79670000D03*
X186710000Y-95930000D03*
%TD*%
D15*
%TO.C,C22*%
X150570000Y-69890000D03*
X151530000Y-69890000D03*
%TD*%
D30*
%TO.C,D1*%
X182795000Y-64785000D03*
X181220000Y-64785000D03*
%TD*%
D59*
%TO.C,J4*%
X116665000Y-87090000D03*
D60*
X116665000Y-85090000D03*
X116665000Y-83090000D03*
X116665000Y-81090000D03*
X116665000Y-79090000D03*
X116665000Y-77090000D03*
X116665000Y-75090000D03*
%TD*%
D47*
%TO.C,XS9*%
X112230000Y-72838000D03*
D48*
X112230000Y-74838000D03*
%TD*%
D29*
%TO.C,R72*%
X173530000Y-66810000D03*
X173530000Y-67810000D03*
%TD*%
%TO.C,C64*%
X118054000Y-64079000D03*
X118054000Y-65079000D03*
%TD*%
%TO.C,C1*%
X170925000Y-57325000D03*
X170925000Y-58325000D03*
%TD*%
D17*
%TO.C,R59*%
X131541891Y-64434532D03*
X132541891Y-64434532D03*
%TD*%
%TO.C,R57*%
X129475000Y-75398000D03*
X130475000Y-75398000D03*
%TD*%
D19*
%TO.C,C67*%
X124592000Y-49996000D03*
X124592000Y-50956000D03*
%TD*%
%TO.C,C57*%
X144980000Y-84980000D03*
X144980000Y-85940000D03*
%TD*%
D61*
%TO.C,J3*%
X145240000Y-89750000D03*
X144740000Y-89750000D03*
X144240000Y-89750000D03*
X143740000Y-89750000D03*
X143240000Y-89750000D03*
X142740000Y-89750000D03*
X142240000Y-89750000D03*
X141740000Y-89750000D03*
X141240000Y-89750000D03*
X140740000Y-89750000D03*
X140240000Y-89750000D03*
X139740000Y-89750000D03*
X139240000Y-89750000D03*
X138740000Y-89750000D03*
X138240000Y-89750000D03*
X137740000Y-89750000D03*
X137240000Y-89750000D03*
X136740000Y-89750000D03*
X136240000Y-89750000D03*
D62*
X132640000Y-95650000D03*
X133240000Y-90750000D03*
X147740000Y-90750000D03*
X148340000Y-95650000D03*
%TD*%
D30*
%TO.C,L4*%
X179750000Y-56860000D03*
X178175000Y-56860000D03*
%TD*%
D11*
%TO.C,C6*%
X179294000Y-52258000D03*
X178334000Y-52258000D03*
%TD*%
D17*
%TO.C,R73*%
X165350000Y-76940000D03*
X166350000Y-76940000D03*
%TD*%
D29*
%TO.C,R78*%
X167580000Y-66810000D03*
X167580000Y-67810000D03*
%TD*%
D18*
%TO.C,R27*%
X150655000Y-50065000D03*
X150655000Y-49065000D03*
%TD*%
D63*
%TO.C,C54*%
X174090000Y-93400000D03*
X177040000Y-93400000D03*
%TD*%
D64*
%TO.C,C5*%
X179195000Y-50124000D03*
X179195000Y-43899000D03*
%TD*%
D65*
%TO.C,XS12*%
X159785000Y-91970000D03*
X159785000Y-84970000D03*
D66*
X163485000Y-95870000D03*
D67*
X163485000Y-83670000D03*
D68*
X156085000Y-91170000D03*
X163485000Y-93070000D03*
D69*
X159035000Y-79670000D03*
D66*
X156085000Y-93970000D03*
%TD*%
D19*
%TO.C,C61*%
X141110000Y-84970000D03*
X141110000Y-85930000D03*
%TD*%
D70*
%TO.C,C4*%
X157610000Y-50420000D03*
X155710000Y-50420000D03*
%TD*%
D47*
%TO.C,XS6*%
X112230000Y-51790000D03*
D48*
X112230000Y-53790000D03*
%TD*%
D71*
%TO.C,XS3*%
X186560000Y-59190000D03*
D48*
X186560000Y-57190000D03*
%TD*%
D40*
%TO.C,D20*%
X164219000Y-89301000D03*
X164219000Y-90876000D03*
%TD*%
D27*
%TO.C,XS5*%
X116910000Y-46790000D03*
D28*
X116910000Y-44250000D03*
X119450000Y-46790000D03*
X119450000Y-44250000D03*
X121990000Y-46790000D03*
X121990000Y-44250000D03*
X124530000Y-46790000D03*
X124530000Y-44250000D03*
X127070000Y-46790000D03*
X127070000Y-44250000D03*
X129610000Y-46790000D03*
X129610000Y-44250000D03*
X132150000Y-46790000D03*
X132150000Y-44250000D03*
X134690000Y-46790000D03*
X134690000Y-44250000D03*
X137230000Y-46790000D03*
X137230000Y-44250000D03*
X139770000Y-46790000D03*
X139770000Y-44250000D03*
X142310000Y-46790000D03*
X142310000Y-44250000D03*
X144850000Y-46790000D03*
X144850000Y-44250000D03*
X147390000Y-46790000D03*
X147390000Y-44250000D03*
X149930000Y-46790000D03*
X149930000Y-44250000D03*
X152470000Y-46790000D03*
X152470000Y-44250000D03*
X155010000Y-46790000D03*
X155010000Y-44250000D03*
X157550000Y-46790000D03*
X157550000Y-44250000D03*
X160090000Y-46790000D03*
X160090000Y-44250000D03*
X162630000Y-46790000D03*
X162630000Y-44250000D03*
X165170000Y-46790000D03*
X165170000Y-44250000D03*
%TD*%
D22*
%TO.C,R182*%
X120675000Y-81760000D03*
X120675000Y-80740000D03*
%TD*%
D72*
%TO.C,D12*%
X155555000Y-88800000D03*
X155555000Y-87225000D03*
%TD*%
D21*
%TO.C,C68*%
X120089000Y-51648000D03*
X120089000Y-50688000D03*
%TD*%
D23*
%TO.C,SW1*%
X190720000Y-63736760D03*
X185320000Y-63736760D03*
%TD*%
D50*
%TO.C,R178*%
X123210000Y-74290000D03*
X123210000Y-75310000D03*
%TD*%
D19*
%TO.C,C60*%
X142085873Y-84975595D03*
X142085873Y-85935595D03*
%TD*%
D23*
%TO.C,SW4*%
X190720000Y-76156760D03*
X185320000Y-76156760D03*
%TD*%
D29*
%TO.C,R22*%
X137010000Y-49065000D03*
X137010000Y-50065000D03*
%TD*%
D19*
%TO.C,C56*%
X145940000Y-84980000D03*
X145940000Y-85940000D03*
%TD*%
D73*
%TO.C,C3*%
X160910000Y-50745000D03*
X160910000Y-56970000D03*
%TD*%
D74*
%TO.C,D8*%
X169210000Y-56920000D03*
X164810000Y-56920000D03*
%TD*%
D19*
%TO.C,C18*%
X135180000Y-80035000D03*
X135180000Y-80995000D03*
%TD*%
D31*
%TO.C,H4*%
X111980000Y-94650000D03*
%TD*%
D17*
%TO.C,R61*%
X140815000Y-54988000D03*
X141815000Y-54988000D03*
%TD*%
%TO.C,R79*%
X163445411Y-71224898D03*
X164445411Y-71224898D03*
%TD*%
D15*
%TO.C,C94*%
X124220000Y-87300000D03*
X125180000Y-87300000D03*
%TD*%
D29*
%TO.C,R40*%
X174860000Y-57860000D03*
X174860000Y-58860000D03*
%TD*%
D17*
%TO.C,C14*%
X152530000Y-52790000D03*
X153530000Y-52790000D03*
%TD*%
D18*
%TO.C,C102*%
X125200000Y-75300000D03*
X125200000Y-74300000D03*
%TD*%
%TO.C,R42*%
X171915000Y-58855000D03*
X171915000Y-57855000D03*
%TD*%
D29*
%TO.C,R70*%
X171550000Y-66815000D03*
X171550000Y-67815000D03*
%TD*%
%TO.C,R17*%
X136000000Y-49065000D03*
X136000000Y-50065000D03*
%TD*%
D75*
%TO.C,U10*%
X121590000Y-53342000D03*
X121590000Y-53992000D03*
X121590000Y-54642000D03*
X121590000Y-55292000D03*
X121590000Y-55942000D03*
X121590000Y-56592000D03*
X121590000Y-57242000D03*
X121590000Y-57892000D03*
X127390000Y-57892000D03*
X127390000Y-57242000D03*
X127390000Y-56592000D03*
X127390000Y-55942000D03*
X127390000Y-55292000D03*
X127390000Y-54642000D03*
X127390000Y-53992000D03*
X127390000Y-53342000D03*
%TD*%
D20*
%TO.C,L13*%
X125872000Y-60013000D03*
X127447000Y-60013000D03*
%TD*%
M02*
