M48
; DRILL file {KiCad 7.0.2} date Wed 25 Oct 01:53:10 2023
; FORMAT={-:-/ absolute / metric / decimal}
; #@! TF.CreationDate,2023-10-25T01:53:10+05:00
; #@! TF.GenerationSoftware,Kicad,Pcbnew,7.0.2
; #@! TF.FileFunction,Plated,1,6,PTH
FMAT,2
METRIC
; #@! TA.AperFunction,Plated,PTH,ViaDrill
T1C0.200
; #@! TA.AperFunction,Plated,PTH,ComponentDrill
T2C0.600
; #@! TA.AperFunction,Plated,PTH,ComponentDrill
T3C0.750
; #@! TA.AperFunction,Plated,PTH,ComponentDrill
T4C0.800
; #@! TA.AperFunction,Plated,PTH,ComponentDrill
T5C0.900
; #@! TA.AperFunction,Plated,PTH,ComponentDrill
T6C1.000
; #@! TA.AperFunction,Plated,PTH,ComponentDrill
T7C1.200
; #@! TA.AperFunction,Plated,PTH,ComponentDrill
T8C1.300
; #@! TA.AperFunction,Plated,PTH,ComponentDrill
T9C1.600
; #@! TA.AperFunction,Plated,PTH,ComponentDrill
T10C3.200
%
G90
G05
T1
X110.74Y-76.68
X111.09Y-55.85
X111.15Y-62.41
X111.17Y-69.88
X113.82Y-76.49
X113.83Y-83.69
X113.93Y-55.3
X113.934Y-69.296
X114.22Y-52.12
X114.43Y-80.975
X114.45Y-59.09
X114.75Y-61.48
X114.86Y-89.57
X115.47Y-87.64
X115.815Y-64.845
X115.87Y-52.47
X116.16Y-49.02
X116.814Y-58.357
X117.13Y-53.41
X117.17Y-50.64
X117.205Y-66.818
X117.68Y-88.91
X117.905Y-56.952
X118.06Y-53.01
X118.147Y-70.132
X118.473Y-72.893
X118.91Y-87.5
X118.987Y-58.306
X119.032Y-92.999
X119.05Y-49.88
X119.067Y-71.011
X119.74Y-89.63
X119.8Y-48.45
X119.933Y-74.141
X120.071Y-49.933
X120.13Y-92.18
X120.75Y-49.17
X120.972Y-89.532
X121.105Y-84.84
X122.05Y-73.316
X122.36Y-77.33
X122.69Y-92.975
X122.74Y-89.62
X122.781Y-56.072
X122.875Y-53.611
X122.991Y-57.887
X123.114Y-65.018
X123.29Y-47.67
X123.359Y-81.152
X123.445Y-83.75
X123.466Y-80.039
X123.5Y-49.031
X123.53Y-56.174
X123.875Y-64.777
X124.146Y-71.917
X124.515Y-52.011
X124.636Y-64.306
X124.81Y-62.37
X124.85Y-56.41
X124.934Y-80.058
X125.12Y-79.298
X125.21Y-88.06
X125.26Y-64.945
X125.29Y-62.915
X125.49Y-72.96
X125.491Y-83.788
X125.647Y-78.756
X125.722Y-71.168
X125.787Y-62.5
X125.916Y-58.598
X125.919Y-63.249
X126.01Y-64.457
X126.017Y-79.384
X126.03Y-55.88
X126.05Y-53.59
X126.056Y-51.653
X126.2Y-88.035
X126.271Y-78.75
X126.474Y-70.734
X126.76Y-51.66
X126.8Y-94.07
X126.805Y-81.645
X126.93Y-50.83
X126.94Y-84.255
X126.979Y-66.659
X127.015Y-75.964
X127.15Y-49.81
X127.31Y-89.72
X127.538Y-76.008
X127.66Y-87.48
X127.7Y-84.06
X127.76Y-50.84
X127.775Y-81.645
X127.81Y-48.26
X127.975Y-66.75
X128.176Y-84.514
X128.51Y-53.86
X128.57Y-81.65
X128.87Y-80.24
X128.875Y-84.375
X128.9Y-66.08
X128.972Y-56.694
X129.07Y-48.19
X129.09Y-81.54
X129.11Y-50.175
X129.203Y-72.719
X129.203Y-73.812
X129.245Y-87.955
X129.42Y-80.949
X129.525Y-84.355
X129.53Y-56.185
X129.8Y-50.42
X129.843Y-51.43
X129.847Y-63.387
X129.9Y-66.125
X130.255Y-67.58
X130.283Y-62.757
X130.41Y-68.415
X130.505Y-61.74
X130.775Y-91.29
X130.845Y-67.455
X130.859Y-62.855
X130.892Y-66.361
X130.96Y-64.36
X131.035Y-88.21
X131.077Y-65.335
X131.16Y-62.071
X131.34Y-50.8
X131.475Y-60.355
X131.555Y-61.683
X131.62Y-75.27
X131.635Y-51.55
X131.65Y-74.17
X131.7Y-55.21
X131.72Y-55.997
X131.793Y-53.179
X131.85Y-79.345
X132.0Y-78.02
X132.07Y-50.44
X132.18Y-92.79
X132.22Y-80.24
X132.71Y-48.19
X132.83Y-50.77
X133.031Y-87.094
X133.328Y-68.741
X133.37Y-69.38
X133.372Y-69.992
X133.625Y-79.275
X133.685Y-81.715
X133.69Y-78.2
X133.74Y-75.09
X133.796Y-51.866
X133.875Y-72.23
X133.91Y-93.86
X133.93Y-83.79
X133.96Y-71.47
X134.205Y-72.965
X134.235Y-49.235
X134.245Y-79.305
X134.312Y-69.36
X134.33Y-86.04
X134.39Y-60.382
X134.48Y-69.91
X134.505Y-59.71
X134.67Y-74.05
X134.81Y-55.54
X134.835Y-59.22
X134.84Y-56.785
X134.844Y-51.95
X134.845Y-79.295
X134.865Y-81.7
X135.053Y-67.027
X135.085Y-73.555
X135.086Y-66.311
X135.116Y-63.463
X135.203Y-65.484
X135.24Y-53.125
X135.25Y-64.526
X135.265Y-90.71
X135.306Y-97.355
X135.307Y-96.546
X135.31Y-72.46
X135.322Y-67.873
X135.344Y-70.348
X135.4Y-48.07
X135.408Y-70.97
X135.457Y-58.519
X135.48Y-56.23
X135.53Y-82.88
X135.56Y-59.732
X135.643Y-73.309
X135.65Y-51.85
X135.651Y-60.392
X135.919Y-76.652
X136.089Y-88.348
X136.163Y-63.302
X136.25Y-95.88
X136.269Y-67.691
X136.31Y-72.48
X136.32Y-77.277
X136.322Y-73.285
X136.325Y-70.02
X136.331Y-65.277
X136.338Y-70.895
X136.347Y-68.486
X136.43Y-57.345
X136.435Y-51.6
X136.44Y-58.035
X136.467Y-60.379
X136.551Y-79.663
X136.67Y-59.455
X136.69Y-87.68
X136.731Y-76.646
X136.75Y-56.26
X137.028Y-60.266
X137.043Y-64.51
X137.11Y-75.644
X137.142Y-65.287
X137.165Y-66.087
X137.165Y-66.909
X137.165Y-68.495
X137.167Y-67.858
X137.22Y-91.11
X137.23Y-51.484
X137.24Y-88.52
X137.352Y-81.576
X137.372Y-77.104
X137.53Y-63.306
X137.56Y-80.2
X137.71Y-87.61
X137.775Y-59.205
X137.865Y-53.495
X137.887Y-60.512
X137.894Y-70.043
X137.905Y-75.69
X137.916Y-65.326
X137.917Y-64.571
X137.925Y-66.93
X137.929Y-66.126
X137.93Y-74.923
X137.956Y-68.521
X137.973Y-67.722
X138.115Y-63.276
X138.132Y-76.484
X138.24Y-88.5
X138.41Y-86.99
X138.564Y-58.864
X138.638Y-81.106
X138.641Y-73.979
X138.698Y-65.33
X138.715Y-69.374
X138.73Y-73.323
X138.741Y-66.943
X138.747Y-64.525
X138.747Y-75.7
X138.75Y-66.125
X138.75Y-74.87
X138.76Y-67.721
X138.768Y-72.485
X138.768Y-68.471
X138.85Y-49.31
X139.032Y-83.347
X139.207Y-60.07
X139.24Y-88.51
X139.3Y-81.15
X139.325Y-53.43
X139.389Y-91.379
X139.501Y-64.564
X139.514Y-74.059
X139.53Y-74.88
X139.534Y-65.329
X139.54Y-73.3
X139.547Y-70.894
X139.57Y-66.114
X139.57Y-67.733
X139.583Y-66.909
X139.644Y-49.235
X139.654Y-63.306
X139.757Y-57.627
X139.79Y-59.05
X139.84Y-55.529
X139.88Y-81.75
X139.9Y-54.922
X140.059Y-53.832
X140.105Y-53.095
X140.225Y-88.467
X140.226Y-73.374
X140.228Y-67.802
X140.308Y-74.899
X140.313Y-71.736
X140.341Y-70.079
X140.356Y-64.579
X140.357Y-65.329
X140.368Y-66.954
X140.37Y-70.937
X140.415Y-63.306
X140.444Y-51.656
X140.543Y-91.211
X140.61Y-81.75
X140.81Y-52.39
X140.98Y-47.5
X141.07Y-60.02
X141.117Y-71.736
X141.123Y-64.563
X141.125Y-65.331
X141.13Y-70.928
X141.131Y-66.881
X141.141Y-72.49
X141.147Y-68.501
X141.15Y-66.081
X141.158Y-70.078
X141.18Y-49.215
X141.226Y-91.182
X141.48Y-95.31
X141.74Y-88.5
X141.78Y-52.41
X141.84Y-81.68
X141.853Y-68.412
X141.875Y-66.086
X141.92Y-71.736
X141.932Y-74.895
X141.937Y-73.352
X141.945Y-66.875
X141.953Y-74.1
X141.953Y-75.7
X141.959Y-70.937
X141.96Y-70.079
X141.963Y-72.489
X141.98Y-76.7
X142.035Y-49.15
X142.18Y-80.12
X142.181Y-60.144
X142.229Y-91.188
X142.61Y-81.67
X142.635Y-53.981
X142.656Y-74.942
X142.657Y-66.081
X142.713Y-70.106
X142.726Y-70.907
X142.76Y-79.84
X142.778Y-72.489
X142.78Y-65.329
X142.781Y-64.542
X142.84Y-49.225
X142.957Y-91.223
X143.005Y-53.165
X143.011Y-52.518
X143.015Y-63.346
X143.24Y-88.51
X143.465Y-65.328
X143.487Y-52.11
X143.51Y-70.08
X143.511Y-66.826
X143.522Y-72.489
X143.53Y-71.736
X143.55Y-86.68
X143.567Y-70.937
X143.57Y-47.53
X143.591Y-49.204
X143.67Y-59.666
X143.671Y-67.876
X143.792Y-91.15
X144.135Y-63.429
X144.24Y-49.165
X144.261Y-64.469
X144.29Y-74.95
X144.303Y-74.1
X144.31Y-65.328
X144.32Y-95.14
X144.326Y-70.885
X144.346Y-55.019
X144.347Y-69.368
X144.36Y-57.753
X144.452Y-67.837
X144.74Y-88.51
X144.796Y-52.317
X144.824Y-81.718
X144.912Y-91.201
X144.964Y-63.72
X145.054Y-64.538
X145.12Y-66.925
X145.12Y-67.784
X145.14Y-70.92
X145.2Y-65.288
X145.244Y-49.099
X145.295Y-60.36
X145.545Y-52.03
X145.655Y-81.375
X145.75Y-88.41
X145.83Y-66.889
X145.839Y-91.018
X145.885Y-63.125
X145.902Y-64.574
X145.915Y-72.485
X145.95Y-71.674
X146.0Y-63.708
X146.212Y-84.161
X146.415Y-52.535
X146.46Y-81.385
X146.655Y-66.745
X146.71Y-47.96
X146.725Y-72.485
X146.74Y-75.68
X146.755Y-70.954
X146.765Y-67.695
X146.78Y-73.36
X146.838Y-49.15
X146.872Y-60.583
X146.89Y-63.29
X146.98Y-51.595
X147.447Y-52.112
X147.45Y-66.86
X147.51Y-66.075
X147.51Y-70.954
X147.644Y-49.314
X147.89Y-88.29
X147.91Y-51.775
X147.955Y-55.019
X147.965Y-81.095
X147.97Y-48.525
X147.984Y-57.767
X148.246Y-62.671
X148.565Y-89.041
X148.575Y-85.951
X148.58Y-76.105
X148.62Y-59.156
X148.677Y-52.014
X148.895Y-70.875
X148.931Y-67.788
X149.01Y-54.32
X149.4Y-70.25
X149.45Y-69.42
X149.541Y-83.34
X149.57Y-81.62
X149.66Y-70.949
X149.684Y-66.476
X149.684Y-67.001
X149.695Y-65.87
X149.717Y-52.769
X149.88Y-91.01
X149.958Y-51.865
X149.96Y-70.255
X149.992Y-94.581
X150.485Y-64.461
X150.538Y-65.39
X150.563Y-66.012
X150.865Y-97.201
X150.882Y-52.579
X151.193Y-62.942
X151.307Y-65.418
X151.469Y-59.223
X151.498Y-50.062
X151.715Y-49.05
X151.92Y-54.09
X151.92Y-56.0
X152.068Y-91.262
X152.068Y-92.038
X152.105Y-69.865
X152.125Y-50.41
X152.508Y-60.548
X152.54Y-62.11
X152.647Y-97.234
X152.775Y-56.93
X152.855Y-66.029
X153.055Y-64.635
X153.09Y-69.82
X153.2Y-57.51
X153.27Y-82.95
X153.35Y-68.94
X153.52Y-52.09
X153.615Y-62.995
X153.66Y-58.845
X153.892Y-66.19
X153.9Y-64.875
X153.948Y-82.027
X153.95Y-96.69
X154.047Y-58.3
X154.14Y-55.04
X154.15Y-88.21
X154.23Y-53.49
X154.23Y-54.08
X154.42Y-65.255
X154.43Y-67.8
X154.445Y-87.235
X155.205Y-91.92
X155.21Y-93.435
X155.21Y-94.575
X155.22Y-90.55
X155.285Y-65.57
X155.702Y-49.213
X155.71Y-51.817
X155.72Y-62.94
X155.805Y-65.035
X156.26Y-62.93
X156.7Y-52.48
X156.75Y-62.935
X156.79Y-65.77
X156.995Y-91.91
X157.0Y-90.54
X157.01Y-93.435
X157.01Y-94.57
X157.335Y-63.96
X157.48Y-55.0
X157.55Y-54.1
X157.57Y-53.51
X157.79Y-89.45
X157.805Y-63.98
X158.225Y-77.626
X158.36Y-57.78
X158.424Y-73.867
X158.69Y-50.49
X158.77Y-52.51
X158.81Y-64.84
X159.07Y-54.16
X159.08Y-94.08
X159.23Y-50.72
X159.313Y-77.626
X159.48Y-48.76
X159.48Y-96.04
X159.643Y-67.843
X159.9Y-50.72
X159.933Y-81.707
X160.03Y-56.94
X160.07Y-52.77
X160.215Y-65.046
X160.55Y-50.72
X160.64Y-56.95
X160.856Y-83.039
X160.856Y-84.113
X160.9Y-93.64
X161.02Y-88.98
X161.23Y-56.95
X161.25Y-50.69
X161.251Y-65.656
X161.267Y-65.056
X161.431Y-77.075
X161.83Y-56.959
X161.91Y-50.7
X162.18Y-88.554
X162.67Y-50.72
X162.688Y-84.476
X162.713Y-82.96
X162.788Y-95.468
X162.809Y-96.353
X162.81Y-56.96
X163.28Y-50.7
X163.37Y-54.48
X163.46Y-70.58
X163.461Y-67.794
X163.461Y-66.657
X163.539Y-92.804
X163.56Y-56.94
X164.29Y-58.58
X164.361Y-95.448
X164.361Y-96.373
X164.418Y-82.917
X164.427Y-84.502
X164.76Y-69.7
X164.79Y-54.82
X164.82Y-55.43
X164.925Y-80.891
X165.535Y-87.845
X165.71Y-64.26
X166.2Y-71.68
X166.55Y-71.225
X166.84Y-67.025
X166.877Y-62.944
X167.42Y-80.89
X167.42Y-83.36
X167.51Y-68.72
X167.861Y-62.944
X168.058Y-69.265
X168.2Y-77.645
X168.311Y-65.554
X168.61Y-49.79
X168.61Y-80.77
X168.688Y-71.45
X168.688Y-72.145
X168.688Y-72.785
X168.688Y-73.48
X168.726Y-59.781
X169.055Y-75.715
X169.446Y-71.45
X169.446Y-72.145
X169.446Y-72.785
X169.446Y-73.48
X169.555Y-68.395
X169.88Y-83.35
X169.89Y-80.88
X170.06Y-69.355
X170.205Y-71.45
X170.205Y-72.145
X170.205Y-72.785
X170.205Y-73.48
X170.409Y-63.002
X170.5Y-60.677
X170.56Y-68.44
X170.83Y-80.795
X170.964Y-71.45
X170.964Y-72.145
X170.964Y-72.785
X170.964Y-73.48
X171.044Y-60.677
X171.55Y-68.49
X171.79Y-80.815
X172.195Y-75.155
X172.285Y-52.467
X172.285Y-53.065
X172.29Y-53.665
X172.51Y-68.38
X172.96Y-52.467
X172.96Y-53.065
X172.965Y-53.665
X173.335Y-71.72
X173.37Y-71.1
X173.605Y-68.585
X173.635Y-52.467
X173.635Y-53.065
X173.64Y-53.665
X173.65Y-83.31
X173.67Y-80.84
X173.91Y-49.28
X173.936Y-56.94
X174.31Y-52.467
X174.31Y-53.065
X174.315Y-53.665
X174.32Y-78.34
X174.51Y-66.835
X174.87Y-59.54
X174.94Y-46.28
X175.0Y-80.76
X175.42Y-43.83
X175.44Y-60.33
X175.665Y-72.69
X175.89Y-66.85
X175.89Y-68.96
X176.095Y-77.345
X176.11Y-71.14
X176.21Y-64.05
X176.28Y-83.28
X176.3Y-80.85
X176.41Y-52.28
X176.79Y-46.36
X176.83Y-77.345
X177.03Y-91.995
X177.045Y-94.97
X177.06Y-56.86
X178.06Y-62.09
X178.21Y-58.81
X178.4Y-81.11
X178.5Y-60.41
X178.74Y-78.52
X179.183Y-45.281
X179.192Y-45.875
X179.249Y-48.731
X179.263Y-48.186
X179.3Y-71.12
X179.89Y-72.52
X180.14Y-60.21
X180.415Y-64.85
X180.45Y-79.06
X180.465Y-66.415
X180.47Y-67.99
X180.47Y-69.535
X180.99Y-55.72
X181.35Y-72.71
X182.67Y-72.02
X182.699Y-45.686
X182.699Y-46.269
X183.23Y-57.75
X183.3Y-56.18
X183.56Y-81.22
X183.886Y-52.436
X184.06Y-54.09
X184.9Y-92.98
X185.03Y-60.28
X186.32Y-73.96
X186.755Y-63.755
X186.82Y-72.025
X186.82Y-76.145
X186.85Y-67.865
X187.18Y-65.65
X187.55Y-69.86
X188.68Y-74.16
X188.89Y-65.65
X189.0Y-70.06
X189.94Y-56.29
X190.27Y-61.87
X190.675Y-74.19
X190.72Y-69.625
X190.725Y-65.61
X191.43Y-84.13
X191.99Y-83.6
T3
X112.23Y-51.79
X112.23Y-53.79
X112.23Y-58.82
X112.23Y-60.82
X112.23Y-65.826
X112.23Y-67.826
X112.23Y-72.838
X112.23Y-74.838
X112.23Y-79.87
X112.23Y-81.87
X112.23Y-86.9
X112.23Y-88.9
X186.56Y-57.19
X186.56Y-59.19
T4
X116.665Y-75.09
X116.665Y-77.09
X116.665Y-79.09
X116.665Y-81.09
X116.665Y-83.09
X116.665Y-85.09
X116.665Y-87.09
T5
X181.0Y-80.94
X181.0Y-83.23
X181.0Y-92.37
X181.0Y-94.66
X185.82Y-85.27
X185.82Y-87.3
X185.82Y-89.33
X185.82Y-91.36
X187.6Y-84.25
X187.6Y-86.28
X187.6Y-88.31
X187.6Y-90.34
T6
X116.91Y-44.25
X116.91Y-46.79
X119.45Y-44.25
X119.45Y-46.79
X121.99Y-44.25
X121.99Y-46.79
X124.53Y-44.25
X124.53Y-46.79
X127.07Y-44.25
X127.07Y-46.79
X128.525Y-92.17
X128.525Y-94.71
X129.61Y-44.25
X129.61Y-46.79
X132.15Y-44.25
X132.15Y-46.79
X134.69Y-44.25
X134.69Y-46.79
X137.23Y-44.25
X137.23Y-46.79
X139.77Y-44.25
X139.77Y-46.79
X142.31Y-44.25
X142.31Y-46.79
X144.85Y-44.25
X144.85Y-46.79
X147.39Y-44.25
X147.39Y-46.79
X149.93Y-44.25
X149.93Y-46.79
X152.47Y-44.25
X152.47Y-46.79
X155.01Y-44.25
X155.01Y-46.79
X157.55Y-44.25
X157.55Y-46.79
X160.09Y-44.25
X160.09Y-46.79
X162.63Y-44.25
X162.63Y-46.79
X165.17Y-44.25
X165.17Y-46.79
T7
X189.45Y-47.08
X189.45Y-52.08
T8
X132.64Y-95.65
X133.24Y-90.75
X147.74Y-90.75
X148.34Y-95.65
T9
X186.71Y-79.67
X186.71Y-95.93
T10
X111.98Y-45.65
X111.98Y-94.65
X169.98Y-45.65
X169.98Y-94.65
T2
G00X116.65Y-91.1
M15
G01X116.65Y-92.2
M16
G05
G00X116.65Y-95.53
M15
G01X116.65Y-96.13
M16
G05
G00X125.29Y-91.1
M15
G01X125.29Y-92.2
M16
G05
G00X125.29Y-95.53
M15
G01X125.29Y-96.13
M16
G05
T0
M30
